%TF.GenerationSoftware,KiCad,Pcbnew,7.0.10*%
%TF.CreationDate,2025-03-05T06:44:24-08:00*%
%TF.ProjectId,Gov_tracker_Panel,476f765f-7472-4616-936b-65725f50616e,rev?*%
%TF.SameCoordinates,Original*%
%TF.FileFunction,OtherDrawing,Comment*%
%FSLAX46Y46*%
G04 Gerber Fmt 4.6, Leading zero omitted, Abs format (unit mm)*
G04 Created by KiCad (PCBNEW 7.0.10) date 2025-03-05 06:44:24*
%MOMM*%
%LPD*%
G01*
G04 APERTURE LIST*
%ADD10C,0.100000*%
%ADD11C,0.150000*%
G04 APERTURE END LIST*
D10*
X388700000Y-106000000D02*
X386000000Y-104650000D01*
X141025000Y-59025000D02*
X139675000Y-61725000D01*
X386775000Y-196975000D02*
X384025000Y-198275000D01*
X386775000Y-196975000D02*
X384075000Y-195625000D01*
X388700000Y-106000000D02*
X385950000Y-107300000D01*
X141025000Y-71775000D02*
X141025000Y-59025000D01*
X374025000Y-196975000D02*
X386775000Y-196975000D01*
X374000000Y-106000000D02*
X386750000Y-106000000D01*
X289700000Y-72000000D02*
X289700000Y-59250000D01*
X141025000Y-59025000D02*
X142325000Y-61775000D01*
X214025000Y-59025000D02*
X215325000Y-61775000D01*
X214025000Y-71775000D02*
X214025000Y-59025000D01*
X214025000Y-59025000D02*
X212675000Y-61725000D01*
X289700000Y-59250000D02*
X288350000Y-61950000D01*
X289700000Y-59250000D02*
X291000000Y-62000000D01*
D11*
X393359398Y-107039104D02*
X393835588Y-108372438D01*
X393835588Y-108372438D02*
X394311779Y-107039104D01*
X395073684Y-107610533D02*
X396597494Y-107610533D01*
X398407017Y-108277200D02*
X398216541Y-108372438D01*
X398216541Y-108372438D02*
X397835588Y-108372438D01*
X397835588Y-108372438D02*
X397645112Y-108277200D01*
X397645112Y-108277200D02*
X397549874Y-108181961D01*
X397549874Y-108181961D02*
X397454636Y-107991485D01*
X397454636Y-107991485D02*
X397454636Y-107420057D01*
X397454636Y-107420057D02*
X397549874Y-107229580D01*
X397549874Y-107229580D02*
X397645112Y-107134342D01*
X397645112Y-107134342D02*
X397835588Y-107039104D01*
X397835588Y-107039104D02*
X398216541Y-107039104D01*
X398216541Y-107039104D02*
X398407017Y-107134342D01*
X400121303Y-107039104D02*
X400121303Y-108372438D01*
X399264160Y-107039104D02*
X399264160Y-108086723D01*
X399264160Y-108086723D02*
X399359398Y-108277200D01*
X399359398Y-108277200D02*
X399549874Y-108372438D01*
X399549874Y-108372438D02*
X399835589Y-108372438D01*
X399835589Y-108372438D02*
X400026065Y-108277200D01*
X400026065Y-108277200D02*
X400121303Y-108181961D01*
X400787970Y-107039104D02*
X401549874Y-107039104D01*
X401073684Y-106372438D02*
X401073684Y-108086723D01*
X401073684Y-108086723D02*
X401168922Y-108277200D01*
X401168922Y-108277200D02*
X401359398Y-108372438D01*
X401359398Y-108372438D02*
X401549874Y-108372438D01*
X289089104Y-57840601D02*
X290422438Y-57364411D01*
X290422438Y-57364411D02*
X289089104Y-56888220D01*
X289660533Y-56126315D02*
X289660533Y-54602506D01*
X290327200Y-52792982D02*
X290422438Y-52983458D01*
X290422438Y-52983458D02*
X290422438Y-53364411D01*
X290422438Y-53364411D02*
X290327200Y-53554887D01*
X290327200Y-53554887D02*
X290231961Y-53650125D01*
X290231961Y-53650125D02*
X290041485Y-53745363D01*
X290041485Y-53745363D02*
X289470057Y-53745363D01*
X289470057Y-53745363D02*
X289279580Y-53650125D01*
X289279580Y-53650125D02*
X289184342Y-53554887D01*
X289184342Y-53554887D02*
X289089104Y-53364411D01*
X289089104Y-53364411D02*
X289089104Y-52983458D01*
X289089104Y-52983458D02*
X289184342Y-52792982D01*
X289089104Y-51078696D02*
X290422438Y-51078696D01*
X289089104Y-51935839D02*
X290136723Y-51935839D01*
X290136723Y-51935839D02*
X290327200Y-51840601D01*
X290327200Y-51840601D02*
X290422438Y-51650125D01*
X290422438Y-51650125D02*
X290422438Y-51364410D01*
X290422438Y-51364410D02*
X290327200Y-51173934D01*
X290327200Y-51173934D02*
X290231961Y-51078696D01*
X289089104Y-50412029D02*
X289089104Y-49650125D01*
X288422438Y-50126315D02*
X290136723Y-50126315D01*
X290136723Y-50126315D02*
X290327200Y-50031077D01*
X290327200Y-50031077D02*
X290422438Y-49840601D01*
X290422438Y-49840601D02*
X290422438Y-49650125D01*
X388384398Y-195414104D02*
X388860588Y-196747438D01*
X388860588Y-196747438D02*
X389336779Y-195414104D01*
X390098684Y-195985533D02*
X391622494Y-195985533D01*
X393432017Y-196652200D02*
X393241541Y-196747438D01*
X393241541Y-196747438D02*
X392860588Y-196747438D01*
X392860588Y-196747438D02*
X392670112Y-196652200D01*
X392670112Y-196652200D02*
X392574874Y-196556961D01*
X392574874Y-196556961D02*
X392479636Y-196366485D01*
X392479636Y-196366485D02*
X392479636Y-195795057D01*
X392479636Y-195795057D02*
X392574874Y-195604580D01*
X392574874Y-195604580D02*
X392670112Y-195509342D01*
X392670112Y-195509342D02*
X392860588Y-195414104D01*
X392860588Y-195414104D02*
X393241541Y-195414104D01*
X393241541Y-195414104D02*
X393432017Y-195509342D01*
X395146303Y-195414104D02*
X395146303Y-196747438D01*
X394289160Y-195414104D02*
X394289160Y-196461723D01*
X394289160Y-196461723D02*
X394384398Y-196652200D01*
X394384398Y-196652200D02*
X394574874Y-196747438D01*
X394574874Y-196747438D02*
X394860589Y-196747438D01*
X394860589Y-196747438D02*
X395051065Y-196652200D01*
X395051065Y-196652200D02*
X395146303Y-196556961D01*
X395812970Y-195414104D02*
X396574874Y-195414104D01*
X396098684Y-194747438D02*
X396098684Y-196461723D01*
X396098684Y-196461723D02*
X396193922Y-196652200D01*
X396193922Y-196652200D02*
X396384398Y-196747438D01*
X396384398Y-196747438D02*
X396574874Y-196747438D01*
X140414104Y-57615601D02*
X141747438Y-57139411D01*
X141747438Y-57139411D02*
X140414104Y-56663220D01*
X140985533Y-55901315D02*
X140985533Y-54377506D01*
X141652200Y-52567982D02*
X141747438Y-52758458D01*
X141747438Y-52758458D02*
X141747438Y-53139411D01*
X141747438Y-53139411D02*
X141652200Y-53329887D01*
X141652200Y-53329887D02*
X141556961Y-53425125D01*
X141556961Y-53425125D02*
X141366485Y-53520363D01*
X141366485Y-53520363D02*
X140795057Y-53520363D01*
X140795057Y-53520363D02*
X140604580Y-53425125D01*
X140604580Y-53425125D02*
X140509342Y-53329887D01*
X140509342Y-53329887D02*
X140414104Y-53139411D01*
X140414104Y-53139411D02*
X140414104Y-52758458D01*
X140414104Y-52758458D02*
X140509342Y-52567982D01*
X140414104Y-50853696D02*
X141747438Y-50853696D01*
X140414104Y-51710839D02*
X141461723Y-51710839D01*
X141461723Y-51710839D02*
X141652200Y-51615601D01*
X141652200Y-51615601D02*
X141747438Y-51425125D01*
X141747438Y-51425125D02*
X141747438Y-51139410D01*
X141747438Y-51139410D02*
X141652200Y-50948934D01*
X141652200Y-50948934D02*
X141556961Y-50853696D01*
X140414104Y-50187029D02*
X140414104Y-49425125D01*
X139747438Y-49901315D02*
X141461723Y-49901315D01*
X141461723Y-49901315D02*
X141652200Y-49806077D01*
X141652200Y-49806077D02*
X141747438Y-49615601D01*
X141747438Y-49615601D02*
X141747438Y-49425125D01*
X213414104Y-57615601D02*
X214747438Y-57139411D01*
X214747438Y-57139411D02*
X213414104Y-56663220D01*
X213985533Y-55901315D02*
X213985533Y-54377506D01*
X214652200Y-52567982D02*
X214747438Y-52758458D01*
X214747438Y-52758458D02*
X214747438Y-53139411D01*
X214747438Y-53139411D02*
X214652200Y-53329887D01*
X214652200Y-53329887D02*
X214556961Y-53425125D01*
X214556961Y-53425125D02*
X214366485Y-53520363D01*
X214366485Y-53520363D02*
X213795057Y-53520363D01*
X213795057Y-53520363D02*
X213604580Y-53425125D01*
X213604580Y-53425125D02*
X213509342Y-53329887D01*
X213509342Y-53329887D02*
X213414104Y-53139411D01*
X213414104Y-53139411D02*
X213414104Y-52758458D01*
X213414104Y-52758458D02*
X213509342Y-52567982D01*
X213414104Y-50853696D02*
X214747438Y-50853696D01*
X213414104Y-51710839D02*
X214461723Y-51710839D01*
X214461723Y-51710839D02*
X214652200Y-51615601D01*
X214652200Y-51615601D02*
X214747438Y-51425125D01*
X214747438Y-51425125D02*
X214747438Y-51139410D01*
X214747438Y-51139410D02*
X214652200Y-50948934D01*
X214652200Y-50948934D02*
X214556961Y-50853696D01*
X213414104Y-50187029D02*
X213414104Y-49425125D01*
X212747438Y-49901315D02*
X214461723Y-49901315D01*
X214461723Y-49901315D02*
X214652200Y-49806077D01*
X214652200Y-49806077D02*
X214747438Y-49615601D01*
X214747438Y-49615601D02*
X214747438Y-49425125D01*
D10*
%TO.C,U8*%
X336950000Y-180180000D02*
X336950000Y-175230000D01*
X337570000Y-175230000D02*
X336950000Y-175840000D01*
X338335000Y-175236000D02*
X336950000Y-176610000D01*
X339100000Y-175230000D02*
X336950000Y-175230000D01*
X339100000Y-175230000D02*
X336950000Y-177380000D01*
X339100000Y-176000000D02*
X336950000Y-178150000D01*
X339100000Y-176770000D02*
X336950000Y-178920000D01*
X339100000Y-177540000D02*
X336950000Y-179690000D01*
X339100000Y-178310000D02*
X337240000Y-180170000D01*
X339100000Y-179080000D02*
X337970000Y-180170000D01*
X339100000Y-179850000D02*
X338780000Y-180170000D01*
X339100000Y-180180000D02*
X336950000Y-180180000D01*
X339100000Y-180180000D02*
X339100000Y-175230000D01*
X261950000Y-180180000D02*
X261950000Y-175230000D01*
X262570000Y-175230000D02*
X261950000Y-175840000D01*
X263335000Y-175236000D02*
X261950000Y-176610000D01*
X264100000Y-175230000D02*
X261950000Y-175230000D01*
X264100000Y-175230000D02*
X261950000Y-177380000D01*
X264100000Y-176000000D02*
X261950000Y-178150000D01*
X264100000Y-176770000D02*
X261950000Y-178920000D01*
X264100000Y-177540000D02*
X261950000Y-179690000D01*
X264100000Y-178310000D02*
X262240000Y-180170000D01*
X264100000Y-179080000D02*
X262970000Y-180170000D01*
X264100000Y-179850000D02*
X263780000Y-180170000D01*
X264100000Y-180180000D02*
X261950000Y-180180000D01*
X264100000Y-180180000D02*
X264100000Y-175230000D01*
X186950000Y-180180000D02*
X186950000Y-175230000D01*
X187570000Y-175230000D02*
X186950000Y-175840000D01*
X188335000Y-175236000D02*
X186950000Y-176610000D01*
X189100000Y-175230000D02*
X186950000Y-175230000D01*
X189100000Y-175230000D02*
X186950000Y-177380000D01*
X189100000Y-176000000D02*
X186950000Y-178150000D01*
X189100000Y-176770000D02*
X186950000Y-178920000D01*
X189100000Y-177540000D02*
X186950000Y-179690000D01*
X189100000Y-178310000D02*
X187240000Y-180170000D01*
X189100000Y-179080000D02*
X187970000Y-180170000D01*
X189100000Y-179850000D02*
X188780000Y-180170000D01*
X189100000Y-180180000D02*
X186950000Y-180180000D01*
X189100000Y-180180000D02*
X189100000Y-175230000D01*
X111950000Y-180180000D02*
X111950000Y-175230000D01*
X112570000Y-175230000D02*
X111950000Y-175840000D01*
X113335000Y-175236000D02*
X111950000Y-176610000D01*
X114100000Y-175230000D02*
X111950000Y-175230000D01*
X114100000Y-175230000D02*
X111950000Y-177380000D01*
X114100000Y-176000000D02*
X111950000Y-178150000D01*
X114100000Y-176770000D02*
X111950000Y-178920000D01*
X114100000Y-177540000D02*
X111950000Y-179690000D01*
X114100000Y-178310000D02*
X112240000Y-180170000D01*
X114100000Y-179080000D02*
X112970000Y-180170000D01*
X114100000Y-179850000D02*
X113780000Y-180170000D01*
X114100000Y-180180000D02*
X111950000Y-180180000D01*
X114100000Y-180180000D02*
X114100000Y-175230000D01*
%TD*%
M02*
