G04 #@! TF.GenerationSoftware,KiCad,Pcbnew,(5.1.9)-1*
G04 #@! TF.CreationDate,2021-09-07T17:48:19+03:00*
G04 #@! TF.ProjectId,Gov_Tracker pannellized 1x4_pcb,476f765f-5472-4616-936b-65722070616e,rev?*
G04 #@! TF.SameCoordinates,Original*
G04 #@! TF.FileFunction,Soldermask,Bot*
G04 #@! TF.FilePolarity,Negative*
%FSLAX46Y46*%
G04 Gerber Fmt 4.6, Leading zero omitted, Abs format (unit mm)*
G04 Created by KiCad (PCBNEW (5.1.9)-1) date 2021-09-07 17:48:19*
%MOMM*%
%LPD*%
G01*
G04 APERTURE LIST*
G04 #@! TA.AperFunction,Profile*
%ADD10C,0.050000*%
G04 #@! TD*
%ADD11C,2.100000*%
%ADD12O,1.700000X1.700000*%
%ADD13R,1.700000X1.700000*%
%ADD14O,2.500000X2.500000*%
%ADD15R,2.500000X2.500000*%
%ADD16C,1.270000*%
%ADD17R,0.900000X0.800000*%
%ADD18R,0.450000X1.475000*%
%ADD19O,2.000000X1.905000*%
%ADD20R,2.000000X1.905000*%
%ADD21C,1.500000*%
%ADD22R,0.900000X1.200000*%
%ADD23C,1.600000*%
%ADD24R,1.600000X1.600000*%
%ADD25R,0.650000X1.528000*%
%ADD26C,1.000000*%
%ADD27R,1.200000X0.900000*%
%ADD28C,2.250000*%
%ADD29C,2.050000*%
%ADD30R,2.200000X0.700000*%
%ADD31R,3.100000X2.000000*%
%ADD32R,2.600000X3.600000*%
%ADD33O,1.750000X1.200000*%
%ADD34C,2.200000*%
G04 APERTURE END LIST*
D10*
X65020000Y-55000000D02*
X65000000Y-55000000D01*
X140000000Y-151010000D02*
X65010000Y-151010000D01*
X290000000Y-151010000D02*
X215010000Y-151010000D01*
X290000000Y-55030000D02*
X290000000Y-151010000D01*
X215000000Y-55030000D02*
X215000000Y-151010000D01*
X140000000Y-55010000D02*
X140000000Y-55030000D01*
X140000000Y-55030000D02*
X140000000Y-151010000D01*
X290000000Y-55010000D02*
X290000000Y-55030000D01*
X215000000Y-151010000D02*
X140010000Y-151010000D01*
X215000000Y-55010000D02*
X215000000Y-55030000D01*
X215020000Y-55000000D02*
X215000000Y-55000000D01*
X140020000Y-55000000D02*
X140000000Y-55000000D01*
X215020000Y-55000000D02*
X290000000Y-55010000D01*
X64990000Y-151010000D02*
X65000000Y-55020000D01*
X65020000Y-55000000D02*
X140000000Y-55010000D01*
X215010000Y-151010000D02*
X214990000Y-151010000D01*
X140010000Y-151010000D02*
X139990000Y-151010000D01*
X65010000Y-151010000D02*
X64990000Y-151010000D01*
X215000000Y-55000000D02*
X215000000Y-55020000D01*
X140000000Y-55000000D02*
X140000000Y-55020000D01*
X140020000Y-55000000D02*
X215000000Y-55010000D01*
X65000000Y-55000000D02*
X65000000Y-55020000D01*
X-10010000Y-151010000D02*
X-10000000Y-55020000D01*
X-9990000Y-151010000D02*
X-10010000Y-151010000D01*
X-10000000Y-55000000D02*
X-10000000Y-55020000D01*
X-9980000Y-55000000D02*
X65000000Y-55010000D01*
X65000000Y-55030000D02*
X65000000Y-151010000D01*
X65000000Y-55010000D02*
X65000000Y-55030000D01*
X-9980000Y-55000000D02*
X-10000000Y-55000000D01*
X65000000Y-151010000D02*
X-9990000Y-151010000D01*
X214990000Y-151010000D02*
X215000000Y-55020000D01*
X139990000Y-151010000D02*
X140000000Y-55020000D01*
X290000000Y-55000000D02*
X290000000Y-34990000D01*
X290000000Y-151010000D02*
X290000000Y-171010000D01*
X214990000Y-151010000D02*
X214990000Y-171010000D01*
X140000000Y-151000000D02*
X140000000Y-171000000D01*
X65000000Y-151000000D02*
X65000000Y-171000000D01*
X-10000000Y-151000000D02*
X-10000000Y-171000000D01*
X-10000000Y-55000000D02*
X-10000000Y-35000000D01*
X65000000Y-55000000D02*
X65000000Y-35000000D01*
X140000000Y-55000000D02*
X140000000Y-35000000D01*
X215000000Y-55000000D02*
X215000000Y-35000000D01*
X-20000000Y-151000000D02*
X300000000Y-151000000D01*
X-10000000Y-55000000D02*
X-10000000Y-151000000D01*
X-20000000Y-55000000D02*
X300000000Y-55000000D01*
X290000000Y-55010000D02*
X290000000Y-151010000D01*
X300000000Y-171000000D02*
X-20000000Y-171000000D01*
X300000000Y-35000000D02*
X300000000Y-171000000D01*
X-20000000Y-35000000D02*
X300000000Y-35000000D01*
X-20000000Y-35000000D02*
X-20000000Y-171000000D01*
D11*
G04 #@! TO.C,K1*
X222650000Y-127680000D03*
X227650000Y-130180000D03*
X227650000Y-140380000D03*
X217650000Y-140380000D03*
X217650000Y-130180000D03*
G04 #@! TD*
G04 #@! TO.C,K1*
X147650000Y-127680000D03*
X152650000Y-130180000D03*
X152650000Y-140380000D03*
X142650000Y-140380000D03*
X142650000Y-130180000D03*
G04 #@! TD*
D12*
G04 #@! TO.C,CN1*
X106420000Y-147250000D03*
X106450000Y-144220000D03*
X103420000Y-147250000D03*
X103450000Y-144220000D03*
X100420000Y-147250000D03*
X100450000Y-144220000D03*
X97420000Y-147250000D03*
X97450000Y-144220000D03*
X94420000Y-147250000D03*
X94450000Y-144220000D03*
X91420000Y-147250000D03*
X91450000Y-144220000D03*
X88420000Y-147250000D03*
X88450000Y-144220000D03*
X85420000Y-147250000D03*
X85450000Y-144220000D03*
X82420000Y-147250000D03*
D13*
X82420000Y-144250000D03*
G04 #@! TD*
D11*
G04 #@! TO.C,K1*
X72650000Y-127680000D03*
X77650000Y-130180000D03*
X77650000Y-140380000D03*
X67650000Y-140380000D03*
X67650000Y-130180000D03*
G04 #@! TD*
D12*
G04 #@! TO.C,CN1*
X256420000Y-147250000D03*
X256450000Y-144220000D03*
X253420000Y-147250000D03*
X253450000Y-144220000D03*
X250420000Y-147250000D03*
X250450000Y-144220000D03*
X247420000Y-147250000D03*
X247450000Y-144220000D03*
X244420000Y-147250000D03*
X244450000Y-144220000D03*
X241420000Y-147250000D03*
X241450000Y-144220000D03*
X238420000Y-147250000D03*
X238450000Y-144220000D03*
X235420000Y-147250000D03*
X235450000Y-144220000D03*
X232420000Y-147250000D03*
D13*
X232420000Y-144250000D03*
G04 #@! TD*
D12*
G04 #@! TO.C,CN1*
X181420000Y-147250000D03*
X181450000Y-144220000D03*
X178420000Y-147250000D03*
X178450000Y-144220000D03*
X175420000Y-147250000D03*
X175450000Y-144220000D03*
X172420000Y-147250000D03*
X172450000Y-144220000D03*
X169420000Y-147250000D03*
X169450000Y-144220000D03*
X166420000Y-147250000D03*
X166450000Y-144220000D03*
X163420000Y-147250000D03*
X163450000Y-144220000D03*
X160420000Y-147250000D03*
X160450000Y-144220000D03*
X157420000Y-147250000D03*
D13*
X157420000Y-144250000D03*
G04 #@! TD*
D14*
G04 #@! TO.C,K2*
X231140000Y-124080000D03*
X231140000Y-136280000D03*
X219140000Y-136280000D03*
X219140000Y-124080000D03*
D15*
X225140000Y-122080000D03*
G04 #@! TD*
D14*
G04 #@! TO.C,K2*
X156140000Y-124080000D03*
X156140000Y-136280000D03*
X144140000Y-136280000D03*
X144140000Y-124080000D03*
D15*
X150140000Y-122080000D03*
G04 #@! TD*
D14*
G04 #@! TO.C,K2*
X81140000Y-124080000D03*
X81140000Y-136280000D03*
X69140000Y-136280000D03*
X69140000Y-124080000D03*
D15*
X75140000Y-122080000D03*
G04 #@! TD*
D16*
G04 #@! TO.C,F1*
X85510000Y-138570000D03*
X90610000Y-140170000D03*
G04 #@! TD*
D12*
G04 #@! TO.C,J7*
X269390000Y-57780000D03*
X271930000Y-57780000D03*
D13*
X274470000Y-57780000D03*
G04 #@! TD*
D12*
G04 #@! TO.C,J7*
X194390000Y-57780000D03*
X196930000Y-57780000D03*
D13*
X199470000Y-57780000D03*
G04 #@! TD*
D12*
G04 #@! TO.C,J7*
X119390000Y-57780000D03*
X121930000Y-57780000D03*
D13*
X124470000Y-57780000D03*
G04 #@! TD*
D16*
G04 #@! TO.C,F1*
X235510000Y-138570000D03*
X240610000Y-140170000D03*
G04 #@! TD*
G04 #@! TO.C,F1*
X160510000Y-138570000D03*
X165610000Y-140170000D03*
G04 #@! TD*
G04 #@! TO.C,R40*
G36*
G01*
X254720000Y-86743750D02*
X254720000Y-87256250D01*
G75*
G02*
X254501250Y-87475000I-218750J0D01*
G01*
X254063750Y-87475000D01*
G75*
G02*
X253845000Y-87256250I0J218750D01*
G01*
X253845000Y-86743750D01*
G75*
G02*
X254063750Y-86525000I218750J0D01*
G01*
X254501250Y-86525000D01*
G75*
G02*
X254720000Y-86743750I0J-218750D01*
G01*
G37*
G36*
G01*
X256295000Y-86743750D02*
X256295000Y-87256250D01*
G75*
G02*
X256076250Y-87475000I-218750J0D01*
G01*
X255638750Y-87475000D01*
G75*
G02*
X255420000Y-87256250I0J218750D01*
G01*
X255420000Y-86743750D01*
G75*
G02*
X255638750Y-86525000I218750J0D01*
G01*
X256076250Y-86525000D01*
G75*
G02*
X256295000Y-86743750I0J-218750D01*
G01*
G37*
G04 #@! TD*
G04 #@! TO.C,R47*
G36*
G01*
X94226250Y-130350000D02*
X93713750Y-130350000D01*
G75*
G02*
X93495000Y-130131250I0J218750D01*
G01*
X93495000Y-129693750D01*
G75*
G02*
X93713750Y-129475000I218750J0D01*
G01*
X94226250Y-129475000D01*
G75*
G02*
X94445000Y-129693750I0J-218750D01*
G01*
X94445000Y-130131250D01*
G75*
G02*
X94226250Y-130350000I-218750J0D01*
G01*
G37*
G36*
G01*
X94226250Y-131925000D02*
X93713750Y-131925000D01*
G75*
G02*
X93495000Y-131706250I0J218750D01*
G01*
X93495000Y-131268750D01*
G75*
G02*
X93713750Y-131050000I218750J0D01*
G01*
X94226250Y-131050000D01*
G75*
G02*
X94445000Y-131268750I0J-218750D01*
G01*
X94445000Y-131706250D01*
G75*
G02*
X94226250Y-131925000I-218750J0D01*
G01*
G37*
G04 #@! TD*
G04 #@! TO.C,R42*
G36*
G01*
X145463750Y-118677500D02*
X145976250Y-118677500D01*
G75*
G02*
X146195000Y-118896250I0J-218750D01*
G01*
X146195000Y-119333750D01*
G75*
G02*
X145976250Y-119552500I-218750J0D01*
G01*
X145463750Y-119552500D01*
G75*
G02*
X145245000Y-119333750I0J218750D01*
G01*
X145245000Y-118896250D01*
G75*
G02*
X145463750Y-118677500I218750J0D01*
G01*
G37*
G36*
G01*
X145463750Y-117102500D02*
X145976250Y-117102500D01*
G75*
G02*
X146195000Y-117321250I0J-218750D01*
G01*
X146195000Y-117758750D01*
G75*
G02*
X145976250Y-117977500I-218750J0D01*
G01*
X145463750Y-117977500D01*
G75*
G02*
X145245000Y-117758750I0J218750D01*
G01*
X145245000Y-117321250D01*
G75*
G02*
X145463750Y-117102500I218750J0D01*
G01*
G37*
G04 #@! TD*
G04 #@! TO.C,R40*
G36*
G01*
X179720000Y-86743750D02*
X179720000Y-87256250D01*
G75*
G02*
X179501250Y-87475000I-218750J0D01*
G01*
X179063750Y-87475000D01*
G75*
G02*
X178845000Y-87256250I0J218750D01*
G01*
X178845000Y-86743750D01*
G75*
G02*
X179063750Y-86525000I218750J0D01*
G01*
X179501250Y-86525000D01*
G75*
G02*
X179720000Y-86743750I0J-218750D01*
G01*
G37*
G36*
G01*
X181295000Y-86743750D02*
X181295000Y-87256250D01*
G75*
G02*
X181076250Y-87475000I-218750J0D01*
G01*
X180638750Y-87475000D01*
G75*
G02*
X180420000Y-87256250I0J218750D01*
G01*
X180420000Y-86743750D01*
G75*
G02*
X180638750Y-86525000I218750J0D01*
G01*
X181076250Y-86525000D01*
G75*
G02*
X181295000Y-86743750I0J-218750D01*
G01*
G37*
G04 #@! TD*
G04 #@! TO.C,R40*
G36*
G01*
X104720000Y-86743750D02*
X104720000Y-87256250D01*
G75*
G02*
X104501250Y-87475000I-218750J0D01*
G01*
X104063750Y-87475000D01*
G75*
G02*
X103845000Y-87256250I0J218750D01*
G01*
X103845000Y-86743750D01*
G75*
G02*
X104063750Y-86525000I218750J0D01*
G01*
X104501250Y-86525000D01*
G75*
G02*
X104720000Y-86743750I0J-218750D01*
G01*
G37*
G36*
G01*
X106295000Y-86743750D02*
X106295000Y-87256250D01*
G75*
G02*
X106076250Y-87475000I-218750J0D01*
G01*
X105638750Y-87475000D01*
G75*
G02*
X105420000Y-87256250I0J218750D01*
G01*
X105420000Y-86743750D01*
G75*
G02*
X105638750Y-86525000I218750J0D01*
G01*
X106076250Y-86525000D01*
G75*
G02*
X106295000Y-86743750I0J-218750D01*
G01*
G37*
G04 #@! TD*
G04 #@! TO.C,R38*
G36*
G01*
X194213750Y-115737500D02*
X194726250Y-115737500D01*
G75*
G02*
X194945000Y-115956250I0J-218750D01*
G01*
X194945000Y-116393750D01*
G75*
G02*
X194726250Y-116612500I-218750J0D01*
G01*
X194213750Y-116612500D01*
G75*
G02*
X193995000Y-116393750I0J218750D01*
G01*
X193995000Y-115956250D01*
G75*
G02*
X194213750Y-115737500I218750J0D01*
G01*
G37*
G36*
G01*
X194213750Y-114162500D02*
X194726250Y-114162500D01*
G75*
G02*
X194945000Y-114381250I0J-218750D01*
G01*
X194945000Y-114818750D01*
G75*
G02*
X194726250Y-115037500I-218750J0D01*
G01*
X194213750Y-115037500D01*
G75*
G02*
X193995000Y-114818750I0J218750D01*
G01*
X193995000Y-114381250D01*
G75*
G02*
X194213750Y-114162500I218750J0D01*
G01*
G37*
G04 #@! TD*
G04 #@! TO.C,R38*
G36*
G01*
X269213750Y-115737500D02*
X269726250Y-115737500D01*
G75*
G02*
X269945000Y-115956250I0J-218750D01*
G01*
X269945000Y-116393750D01*
G75*
G02*
X269726250Y-116612500I-218750J0D01*
G01*
X269213750Y-116612500D01*
G75*
G02*
X268995000Y-116393750I0J218750D01*
G01*
X268995000Y-115956250D01*
G75*
G02*
X269213750Y-115737500I218750J0D01*
G01*
G37*
G36*
G01*
X269213750Y-114162500D02*
X269726250Y-114162500D01*
G75*
G02*
X269945000Y-114381250I0J-218750D01*
G01*
X269945000Y-114818750D01*
G75*
G02*
X269726250Y-115037500I-218750J0D01*
G01*
X269213750Y-115037500D01*
G75*
G02*
X268995000Y-114818750I0J218750D01*
G01*
X268995000Y-114381250D01*
G75*
G02*
X269213750Y-114162500I218750J0D01*
G01*
G37*
G04 #@! TD*
G04 #@! TO.C,R42*
G36*
G01*
X220463750Y-118677500D02*
X220976250Y-118677500D01*
G75*
G02*
X221195000Y-118896250I0J-218750D01*
G01*
X221195000Y-119333750D01*
G75*
G02*
X220976250Y-119552500I-218750J0D01*
G01*
X220463750Y-119552500D01*
G75*
G02*
X220245000Y-119333750I0J218750D01*
G01*
X220245000Y-118896250D01*
G75*
G02*
X220463750Y-118677500I218750J0D01*
G01*
G37*
G36*
G01*
X220463750Y-117102500D02*
X220976250Y-117102500D01*
G75*
G02*
X221195000Y-117321250I0J-218750D01*
G01*
X221195000Y-117758750D01*
G75*
G02*
X220976250Y-117977500I-218750J0D01*
G01*
X220463750Y-117977500D01*
G75*
G02*
X220245000Y-117758750I0J218750D01*
G01*
X220245000Y-117321250D01*
G75*
G02*
X220463750Y-117102500I218750J0D01*
G01*
G37*
G04 #@! TD*
G04 #@! TO.C,R42*
G36*
G01*
X70463750Y-118677500D02*
X70976250Y-118677500D01*
G75*
G02*
X71195000Y-118896250I0J-218750D01*
G01*
X71195000Y-119333750D01*
G75*
G02*
X70976250Y-119552500I-218750J0D01*
G01*
X70463750Y-119552500D01*
G75*
G02*
X70245000Y-119333750I0J218750D01*
G01*
X70245000Y-118896250D01*
G75*
G02*
X70463750Y-118677500I218750J0D01*
G01*
G37*
G36*
G01*
X70463750Y-117102500D02*
X70976250Y-117102500D01*
G75*
G02*
X71195000Y-117321250I0J-218750D01*
G01*
X71195000Y-117758750D01*
G75*
G02*
X70976250Y-117977500I-218750J0D01*
G01*
X70463750Y-117977500D01*
G75*
G02*
X70245000Y-117758750I0J218750D01*
G01*
X70245000Y-117321250D01*
G75*
G02*
X70463750Y-117102500I218750J0D01*
G01*
G37*
G04 #@! TD*
G04 #@! TO.C,R38*
G36*
G01*
X119213750Y-115737500D02*
X119726250Y-115737500D01*
G75*
G02*
X119945000Y-115956250I0J-218750D01*
G01*
X119945000Y-116393750D01*
G75*
G02*
X119726250Y-116612500I-218750J0D01*
G01*
X119213750Y-116612500D01*
G75*
G02*
X118995000Y-116393750I0J218750D01*
G01*
X118995000Y-115956250D01*
G75*
G02*
X119213750Y-115737500I218750J0D01*
G01*
G37*
G36*
G01*
X119213750Y-114162500D02*
X119726250Y-114162500D01*
G75*
G02*
X119945000Y-114381250I0J-218750D01*
G01*
X119945000Y-114818750D01*
G75*
G02*
X119726250Y-115037500I-218750J0D01*
G01*
X119213750Y-115037500D01*
G75*
G02*
X118995000Y-114818750I0J218750D01*
G01*
X118995000Y-114381250D01*
G75*
G02*
X119213750Y-114162500I218750J0D01*
G01*
G37*
G04 #@! TD*
G04 #@! TO.C,R47*
G36*
G01*
X244226250Y-130350000D02*
X243713750Y-130350000D01*
G75*
G02*
X243495000Y-130131250I0J218750D01*
G01*
X243495000Y-129693750D01*
G75*
G02*
X243713750Y-129475000I218750J0D01*
G01*
X244226250Y-129475000D01*
G75*
G02*
X244445000Y-129693750I0J-218750D01*
G01*
X244445000Y-130131250D01*
G75*
G02*
X244226250Y-130350000I-218750J0D01*
G01*
G37*
G36*
G01*
X244226250Y-131925000D02*
X243713750Y-131925000D01*
G75*
G02*
X243495000Y-131706250I0J218750D01*
G01*
X243495000Y-131268750D01*
G75*
G02*
X243713750Y-131050000I218750J0D01*
G01*
X244226250Y-131050000D01*
G75*
G02*
X244445000Y-131268750I0J-218750D01*
G01*
X244445000Y-131706250D01*
G75*
G02*
X244226250Y-131925000I-218750J0D01*
G01*
G37*
G04 #@! TD*
G04 #@! TO.C,R47*
G36*
G01*
X169226250Y-130350000D02*
X168713750Y-130350000D01*
G75*
G02*
X168495000Y-130131250I0J218750D01*
G01*
X168495000Y-129693750D01*
G75*
G02*
X168713750Y-129475000I218750J0D01*
G01*
X169226250Y-129475000D01*
G75*
G02*
X169445000Y-129693750I0J-218750D01*
G01*
X169445000Y-130131250D01*
G75*
G02*
X169226250Y-130350000I-218750J0D01*
G01*
G37*
G36*
G01*
X169226250Y-131925000D02*
X168713750Y-131925000D01*
G75*
G02*
X168495000Y-131706250I0J218750D01*
G01*
X168495000Y-131268750D01*
G75*
G02*
X168713750Y-131050000I218750J0D01*
G01*
X169226250Y-131050000D01*
G75*
G02*
X169445000Y-131268750I0J-218750D01*
G01*
X169445000Y-131706250D01*
G75*
G02*
X169226250Y-131925000I-218750J0D01*
G01*
G37*
G04 #@! TD*
G04 #@! TO.C,R36*
G36*
G01*
X184113750Y-138950000D02*
X184626250Y-138950000D01*
G75*
G02*
X184845000Y-139168750I0J-218750D01*
G01*
X184845000Y-139606250D01*
G75*
G02*
X184626250Y-139825000I-218750J0D01*
G01*
X184113750Y-139825000D01*
G75*
G02*
X183895000Y-139606250I0J218750D01*
G01*
X183895000Y-139168750D01*
G75*
G02*
X184113750Y-138950000I218750J0D01*
G01*
G37*
G36*
G01*
X184113750Y-137375000D02*
X184626250Y-137375000D01*
G75*
G02*
X184845000Y-137593750I0J-218750D01*
G01*
X184845000Y-138031250D01*
G75*
G02*
X184626250Y-138250000I-218750J0D01*
G01*
X184113750Y-138250000D01*
G75*
G02*
X183895000Y-138031250I0J218750D01*
G01*
X183895000Y-137593750D01*
G75*
G02*
X184113750Y-137375000I218750J0D01*
G01*
G37*
G04 #@! TD*
G04 #@! TO.C,R33*
G36*
G01*
X203707500Y-133743750D02*
X203707500Y-134256250D01*
G75*
G02*
X203488750Y-134475000I-218750J0D01*
G01*
X203051250Y-134475000D01*
G75*
G02*
X202832500Y-134256250I0J218750D01*
G01*
X202832500Y-133743750D01*
G75*
G02*
X203051250Y-133525000I218750J0D01*
G01*
X203488750Y-133525000D01*
G75*
G02*
X203707500Y-133743750I0J-218750D01*
G01*
G37*
G36*
G01*
X205282500Y-133743750D02*
X205282500Y-134256250D01*
G75*
G02*
X205063750Y-134475000I-218750J0D01*
G01*
X204626250Y-134475000D01*
G75*
G02*
X204407500Y-134256250I0J218750D01*
G01*
X204407500Y-133743750D01*
G75*
G02*
X204626250Y-133525000I218750J0D01*
G01*
X205063750Y-133525000D01*
G75*
G02*
X205282500Y-133743750I0J-218750D01*
G01*
G37*
G04 #@! TD*
G04 #@! TO.C,R31*
G36*
G01*
X283020000Y-134256250D02*
X283020000Y-133743750D01*
G75*
G02*
X283238750Y-133525000I218750J0D01*
G01*
X283676250Y-133525000D01*
G75*
G02*
X283895000Y-133743750I0J-218750D01*
G01*
X283895000Y-134256250D01*
G75*
G02*
X283676250Y-134475000I-218750J0D01*
G01*
X283238750Y-134475000D01*
G75*
G02*
X283020000Y-134256250I0J218750D01*
G01*
G37*
G36*
G01*
X281445000Y-134256250D02*
X281445000Y-133743750D01*
G75*
G02*
X281663750Y-133525000I218750J0D01*
G01*
X282101250Y-133525000D01*
G75*
G02*
X282320000Y-133743750I0J-218750D01*
G01*
X282320000Y-134256250D01*
G75*
G02*
X282101250Y-134475000I-218750J0D01*
G01*
X281663750Y-134475000D01*
G75*
G02*
X281445000Y-134256250I0J218750D01*
G01*
G37*
G04 #@! TD*
G04 #@! TO.C,R46*
G36*
G01*
X234513750Y-60750000D02*
X235026250Y-60750000D01*
G75*
G02*
X235245000Y-60968750I0J-218750D01*
G01*
X235245000Y-61406250D01*
G75*
G02*
X235026250Y-61625000I-218750J0D01*
G01*
X234513750Y-61625000D01*
G75*
G02*
X234295000Y-61406250I0J218750D01*
G01*
X234295000Y-60968750D01*
G75*
G02*
X234513750Y-60750000I218750J0D01*
G01*
G37*
G36*
G01*
X234513750Y-59175000D02*
X235026250Y-59175000D01*
G75*
G02*
X235245000Y-59393750I0J-218750D01*
G01*
X235245000Y-59831250D01*
G75*
G02*
X235026250Y-60050000I-218750J0D01*
G01*
X234513750Y-60050000D01*
G75*
G02*
X234295000Y-59831250I0J218750D01*
G01*
X234295000Y-59393750D01*
G75*
G02*
X234513750Y-59175000I218750J0D01*
G01*
G37*
G04 #@! TD*
G04 #@! TO.C,R31*
G36*
G01*
X133020000Y-134256250D02*
X133020000Y-133743750D01*
G75*
G02*
X133238750Y-133525000I218750J0D01*
G01*
X133676250Y-133525000D01*
G75*
G02*
X133895000Y-133743750I0J-218750D01*
G01*
X133895000Y-134256250D01*
G75*
G02*
X133676250Y-134475000I-218750J0D01*
G01*
X133238750Y-134475000D01*
G75*
G02*
X133020000Y-134256250I0J218750D01*
G01*
G37*
G36*
G01*
X131445000Y-134256250D02*
X131445000Y-133743750D01*
G75*
G02*
X131663750Y-133525000I218750J0D01*
G01*
X132101250Y-133525000D01*
G75*
G02*
X132320000Y-133743750I0J-218750D01*
G01*
X132320000Y-134256250D01*
G75*
G02*
X132101250Y-134475000I-218750J0D01*
G01*
X131663750Y-134475000D01*
G75*
G02*
X131445000Y-134256250I0J218750D01*
G01*
G37*
G04 #@! TD*
G04 #@! TO.C,R36*
G36*
G01*
X259113750Y-138950000D02*
X259626250Y-138950000D01*
G75*
G02*
X259845000Y-139168750I0J-218750D01*
G01*
X259845000Y-139606250D01*
G75*
G02*
X259626250Y-139825000I-218750J0D01*
G01*
X259113750Y-139825000D01*
G75*
G02*
X258895000Y-139606250I0J218750D01*
G01*
X258895000Y-139168750D01*
G75*
G02*
X259113750Y-138950000I218750J0D01*
G01*
G37*
G36*
G01*
X259113750Y-137375000D02*
X259626250Y-137375000D01*
G75*
G02*
X259845000Y-137593750I0J-218750D01*
G01*
X259845000Y-138031250D01*
G75*
G02*
X259626250Y-138250000I-218750J0D01*
G01*
X259113750Y-138250000D01*
G75*
G02*
X258895000Y-138031250I0J218750D01*
G01*
X258895000Y-137593750D01*
G75*
G02*
X259113750Y-137375000I218750J0D01*
G01*
G37*
G04 #@! TD*
G04 #@! TO.C,R30*
G36*
G01*
X207320000Y-135743750D02*
X207320000Y-136256250D01*
G75*
G02*
X207101250Y-136475000I-218750J0D01*
G01*
X206663750Y-136475000D01*
G75*
G02*
X206445000Y-136256250I0J218750D01*
G01*
X206445000Y-135743750D01*
G75*
G02*
X206663750Y-135525000I218750J0D01*
G01*
X207101250Y-135525000D01*
G75*
G02*
X207320000Y-135743750I0J-218750D01*
G01*
G37*
G36*
G01*
X208895000Y-135743750D02*
X208895000Y-136256250D01*
G75*
G02*
X208676250Y-136475000I-218750J0D01*
G01*
X208238750Y-136475000D01*
G75*
G02*
X208020000Y-136256250I0J218750D01*
G01*
X208020000Y-135743750D01*
G75*
G02*
X208238750Y-135525000I218750J0D01*
G01*
X208676250Y-135525000D01*
G75*
G02*
X208895000Y-135743750I0J-218750D01*
G01*
G37*
G04 #@! TD*
G04 #@! TO.C,R32*
G36*
G01*
X203707500Y-135743750D02*
X203707500Y-136256250D01*
G75*
G02*
X203488750Y-136475000I-218750J0D01*
G01*
X203051250Y-136475000D01*
G75*
G02*
X202832500Y-136256250I0J218750D01*
G01*
X202832500Y-135743750D01*
G75*
G02*
X203051250Y-135525000I218750J0D01*
G01*
X203488750Y-135525000D01*
G75*
G02*
X203707500Y-135743750I0J-218750D01*
G01*
G37*
G36*
G01*
X205282500Y-135743750D02*
X205282500Y-136256250D01*
G75*
G02*
X205063750Y-136475000I-218750J0D01*
G01*
X204626250Y-136475000D01*
G75*
G02*
X204407500Y-136256250I0J218750D01*
G01*
X204407500Y-135743750D01*
G75*
G02*
X204626250Y-135525000I218750J0D01*
G01*
X205063750Y-135525000D01*
G75*
G02*
X205282500Y-135743750I0J-218750D01*
G01*
G37*
G04 #@! TD*
G04 #@! TO.C,R46*
G36*
G01*
X84513750Y-60750000D02*
X85026250Y-60750000D01*
G75*
G02*
X85245000Y-60968750I0J-218750D01*
G01*
X85245000Y-61406250D01*
G75*
G02*
X85026250Y-61625000I-218750J0D01*
G01*
X84513750Y-61625000D01*
G75*
G02*
X84295000Y-61406250I0J218750D01*
G01*
X84295000Y-60968750D01*
G75*
G02*
X84513750Y-60750000I218750J0D01*
G01*
G37*
G36*
G01*
X84513750Y-59175000D02*
X85026250Y-59175000D01*
G75*
G02*
X85245000Y-59393750I0J-218750D01*
G01*
X85245000Y-59831250D01*
G75*
G02*
X85026250Y-60050000I-218750J0D01*
G01*
X84513750Y-60050000D01*
G75*
G02*
X84295000Y-59831250I0J218750D01*
G01*
X84295000Y-59393750D01*
G75*
G02*
X84513750Y-59175000I218750J0D01*
G01*
G37*
G04 #@! TD*
G04 #@! TO.C,R33*
G36*
G01*
X278707500Y-133743750D02*
X278707500Y-134256250D01*
G75*
G02*
X278488750Y-134475000I-218750J0D01*
G01*
X278051250Y-134475000D01*
G75*
G02*
X277832500Y-134256250I0J218750D01*
G01*
X277832500Y-133743750D01*
G75*
G02*
X278051250Y-133525000I218750J0D01*
G01*
X278488750Y-133525000D01*
G75*
G02*
X278707500Y-133743750I0J-218750D01*
G01*
G37*
G36*
G01*
X280282500Y-133743750D02*
X280282500Y-134256250D01*
G75*
G02*
X280063750Y-134475000I-218750J0D01*
G01*
X279626250Y-134475000D01*
G75*
G02*
X279407500Y-134256250I0J218750D01*
G01*
X279407500Y-133743750D01*
G75*
G02*
X279626250Y-133525000I218750J0D01*
G01*
X280063750Y-133525000D01*
G75*
G02*
X280282500Y-133743750I0J-218750D01*
G01*
G37*
G04 #@! TD*
G04 #@! TO.C,R30*
G36*
G01*
X132320000Y-135743750D02*
X132320000Y-136256250D01*
G75*
G02*
X132101250Y-136475000I-218750J0D01*
G01*
X131663750Y-136475000D01*
G75*
G02*
X131445000Y-136256250I0J218750D01*
G01*
X131445000Y-135743750D01*
G75*
G02*
X131663750Y-135525000I218750J0D01*
G01*
X132101250Y-135525000D01*
G75*
G02*
X132320000Y-135743750I0J-218750D01*
G01*
G37*
G36*
G01*
X133895000Y-135743750D02*
X133895000Y-136256250D01*
G75*
G02*
X133676250Y-136475000I-218750J0D01*
G01*
X133238750Y-136475000D01*
G75*
G02*
X133020000Y-136256250I0J218750D01*
G01*
X133020000Y-135743750D01*
G75*
G02*
X133238750Y-135525000I218750J0D01*
G01*
X133676250Y-135525000D01*
G75*
G02*
X133895000Y-135743750I0J-218750D01*
G01*
G37*
G04 #@! TD*
G04 #@! TO.C,R37*
G36*
G01*
X265013750Y-115737500D02*
X265526250Y-115737500D01*
G75*
G02*
X265745000Y-115956250I0J-218750D01*
G01*
X265745000Y-116393750D01*
G75*
G02*
X265526250Y-116612500I-218750J0D01*
G01*
X265013750Y-116612500D01*
G75*
G02*
X264795000Y-116393750I0J218750D01*
G01*
X264795000Y-115956250D01*
G75*
G02*
X265013750Y-115737500I218750J0D01*
G01*
G37*
G36*
G01*
X265013750Y-114162500D02*
X265526250Y-114162500D01*
G75*
G02*
X265745000Y-114381250I0J-218750D01*
G01*
X265745000Y-114818750D01*
G75*
G02*
X265526250Y-115037500I-218750J0D01*
G01*
X265013750Y-115037500D01*
G75*
G02*
X264795000Y-114818750I0J218750D01*
G01*
X264795000Y-114381250D01*
G75*
G02*
X265013750Y-114162500I218750J0D01*
G01*
G37*
G04 #@! TD*
G04 #@! TO.C,R31*
G36*
G01*
X208020000Y-134256250D02*
X208020000Y-133743750D01*
G75*
G02*
X208238750Y-133525000I218750J0D01*
G01*
X208676250Y-133525000D01*
G75*
G02*
X208895000Y-133743750I0J-218750D01*
G01*
X208895000Y-134256250D01*
G75*
G02*
X208676250Y-134475000I-218750J0D01*
G01*
X208238750Y-134475000D01*
G75*
G02*
X208020000Y-134256250I0J218750D01*
G01*
G37*
G36*
G01*
X206445000Y-134256250D02*
X206445000Y-133743750D01*
G75*
G02*
X206663750Y-133525000I218750J0D01*
G01*
X207101250Y-133525000D01*
G75*
G02*
X207320000Y-133743750I0J-218750D01*
G01*
X207320000Y-134256250D01*
G75*
G02*
X207101250Y-134475000I-218750J0D01*
G01*
X206663750Y-134475000D01*
G75*
G02*
X206445000Y-134256250I0J218750D01*
G01*
G37*
G04 #@! TD*
G04 #@! TO.C,R33*
G36*
G01*
X128707500Y-133743750D02*
X128707500Y-134256250D01*
G75*
G02*
X128488750Y-134475000I-218750J0D01*
G01*
X128051250Y-134475000D01*
G75*
G02*
X127832500Y-134256250I0J218750D01*
G01*
X127832500Y-133743750D01*
G75*
G02*
X128051250Y-133525000I218750J0D01*
G01*
X128488750Y-133525000D01*
G75*
G02*
X128707500Y-133743750I0J-218750D01*
G01*
G37*
G36*
G01*
X130282500Y-133743750D02*
X130282500Y-134256250D01*
G75*
G02*
X130063750Y-134475000I-218750J0D01*
G01*
X129626250Y-134475000D01*
G75*
G02*
X129407500Y-134256250I0J218750D01*
G01*
X129407500Y-133743750D01*
G75*
G02*
X129626250Y-133525000I218750J0D01*
G01*
X130063750Y-133525000D01*
G75*
G02*
X130282500Y-133743750I0J-218750D01*
G01*
G37*
G04 #@! TD*
G04 #@! TO.C,R32*
G36*
G01*
X278707500Y-135743750D02*
X278707500Y-136256250D01*
G75*
G02*
X278488750Y-136475000I-218750J0D01*
G01*
X278051250Y-136475000D01*
G75*
G02*
X277832500Y-136256250I0J218750D01*
G01*
X277832500Y-135743750D01*
G75*
G02*
X278051250Y-135525000I218750J0D01*
G01*
X278488750Y-135525000D01*
G75*
G02*
X278707500Y-135743750I0J-218750D01*
G01*
G37*
G36*
G01*
X280282500Y-135743750D02*
X280282500Y-136256250D01*
G75*
G02*
X280063750Y-136475000I-218750J0D01*
G01*
X279626250Y-136475000D01*
G75*
G02*
X279407500Y-136256250I0J218750D01*
G01*
X279407500Y-135743750D01*
G75*
G02*
X279626250Y-135525000I218750J0D01*
G01*
X280063750Y-135525000D01*
G75*
G02*
X280282500Y-135743750I0J-218750D01*
G01*
G37*
G04 #@! TD*
G04 #@! TO.C,R46*
G36*
G01*
X159513750Y-60750000D02*
X160026250Y-60750000D01*
G75*
G02*
X160245000Y-60968750I0J-218750D01*
G01*
X160245000Y-61406250D01*
G75*
G02*
X160026250Y-61625000I-218750J0D01*
G01*
X159513750Y-61625000D01*
G75*
G02*
X159295000Y-61406250I0J218750D01*
G01*
X159295000Y-60968750D01*
G75*
G02*
X159513750Y-60750000I218750J0D01*
G01*
G37*
G36*
G01*
X159513750Y-59175000D02*
X160026250Y-59175000D01*
G75*
G02*
X160245000Y-59393750I0J-218750D01*
G01*
X160245000Y-59831250D01*
G75*
G02*
X160026250Y-60050000I-218750J0D01*
G01*
X159513750Y-60050000D01*
G75*
G02*
X159295000Y-59831250I0J218750D01*
G01*
X159295000Y-59393750D01*
G75*
G02*
X159513750Y-59175000I218750J0D01*
G01*
G37*
G04 #@! TD*
G04 #@! TO.C,R36*
G36*
G01*
X109113750Y-138950000D02*
X109626250Y-138950000D01*
G75*
G02*
X109845000Y-139168750I0J-218750D01*
G01*
X109845000Y-139606250D01*
G75*
G02*
X109626250Y-139825000I-218750J0D01*
G01*
X109113750Y-139825000D01*
G75*
G02*
X108895000Y-139606250I0J218750D01*
G01*
X108895000Y-139168750D01*
G75*
G02*
X109113750Y-138950000I218750J0D01*
G01*
G37*
G36*
G01*
X109113750Y-137375000D02*
X109626250Y-137375000D01*
G75*
G02*
X109845000Y-137593750I0J-218750D01*
G01*
X109845000Y-138031250D01*
G75*
G02*
X109626250Y-138250000I-218750J0D01*
G01*
X109113750Y-138250000D01*
G75*
G02*
X108895000Y-138031250I0J218750D01*
G01*
X108895000Y-137593750D01*
G75*
G02*
X109113750Y-137375000I218750J0D01*
G01*
G37*
G04 #@! TD*
G04 #@! TO.C,R37*
G36*
G01*
X115013750Y-115737500D02*
X115526250Y-115737500D01*
G75*
G02*
X115745000Y-115956250I0J-218750D01*
G01*
X115745000Y-116393750D01*
G75*
G02*
X115526250Y-116612500I-218750J0D01*
G01*
X115013750Y-116612500D01*
G75*
G02*
X114795000Y-116393750I0J218750D01*
G01*
X114795000Y-115956250D01*
G75*
G02*
X115013750Y-115737500I218750J0D01*
G01*
G37*
G36*
G01*
X115013750Y-114162500D02*
X115526250Y-114162500D01*
G75*
G02*
X115745000Y-114381250I0J-218750D01*
G01*
X115745000Y-114818750D01*
G75*
G02*
X115526250Y-115037500I-218750J0D01*
G01*
X115013750Y-115037500D01*
G75*
G02*
X114795000Y-114818750I0J218750D01*
G01*
X114795000Y-114381250D01*
G75*
G02*
X115013750Y-114162500I218750J0D01*
G01*
G37*
G04 #@! TD*
G04 #@! TO.C,R32*
G36*
G01*
X128707500Y-135743750D02*
X128707500Y-136256250D01*
G75*
G02*
X128488750Y-136475000I-218750J0D01*
G01*
X128051250Y-136475000D01*
G75*
G02*
X127832500Y-136256250I0J218750D01*
G01*
X127832500Y-135743750D01*
G75*
G02*
X128051250Y-135525000I218750J0D01*
G01*
X128488750Y-135525000D01*
G75*
G02*
X128707500Y-135743750I0J-218750D01*
G01*
G37*
G36*
G01*
X130282500Y-135743750D02*
X130282500Y-136256250D01*
G75*
G02*
X130063750Y-136475000I-218750J0D01*
G01*
X129626250Y-136475000D01*
G75*
G02*
X129407500Y-136256250I0J218750D01*
G01*
X129407500Y-135743750D01*
G75*
G02*
X129626250Y-135525000I218750J0D01*
G01*
X130063750Y-135525000D01*
G75*
G02*
X130282500Y-135743750I0J-218750D01*
G01*
G37*
G04 #@! TD*
G04 #@! TO.C,R37*
G36*
G01*
X190013750Y-115737500D02*
X190526250Y-115737500D01*
G75*
G02*
X190745000Y-115956250I0J-218750D01*
G01*
X190745000Y-116393750D01*
G75*
G02*
X190526250Y-116612500I-218750J0D01*
G01*
X190013750Y-116612500D01*
G75*
G02*
X189795000Y-116393750I0J218750D01*
G01*
X189795000Y-115956250D01*
G75*
G02*
X190013750Y-115737500I218750J0D01*
G01*
G37*
G36*
G01*
X190013750Y-114162500D02*
X190526250Y-114162500D01*
G75*
G02*
X190745000Y-114381250I0J-218750D01*
G01*
X190745000Y-114818750D01*
G75*
G02*
X190526250Y-115037500I-218750J0D01*
G01*
X190013750Y-115037500D01*
G75*
G02*
X189795000Y-114818750I0J218750D01*
G01*
X189795000Y-114381250D01*
G75*
G02*
X190013750Y-114162500I218750J0D01*
G01*
G37*
G04 #@! TD*
G04 #@! TO.C,R30*
G36*
G01*
X282320000Y-135743750D02*
X282320000Y-136256250D01*
G75*
G02*
X282101250Y-136475000I-218750J0D01*
G01*
X281663750Y-136475000D01*
G75*
G02*
X281445000Y-136256250I0J218750D01*
G01*
X281445000Y-135743750D01*
G75*
G02*
X281663750Y-135525000I218750J0D01*
G01*
X282101250Y-135525000D01*
G75*
G02*
X282320000Y-135743750I0J-218750D01*
G01*
G37*
G36*
G01*
X283895000Y-135743750D02*
X283895000Y-136256250D01*
G75*
G02*
X283676250Y-136475000I-218750J0D01*
G01*
X283238750Y-136475000D01*
G75*
G02*
X283020000Y-136256250I0J218750D01*
G01*
X283020000Y-135743750D01*
G75*
G02*
X283238750Y-135525000I218750J0D01*
G01*
X283676250Y-135525000D01*
G75*
G02*
X283895000Y-135743750I0J-218750D01*
G01*
G37*
G04 #@! TD*
D12*
G04 #@! TO.C,J9*
X238570000Y-59700000D03*
X238570000Y-62240000D03*
X238570000Y-64780000D03*
X238570000Y-67320000D03*
X238570000Y-69860000D03*
D13*
X238570000Y-72400000D03*
G04 #@! TD*
G04 #@! TO.C,R3*
G36*
G01*
X171526250Y-135250000D02*
X171013750Y-135250000D01*
G75*
G02*
X170795000Y-135031250I0J218750D01*
G01*
X170795000Y-134593750D01*
G75*
G02*
X171013750Y-134375000I218750J0D01*
G01*
X171526250Y-134375000D01*
G75*
G02*
X171745000Y-134593750I0J-218750D01*
G01*
X171745000Y-135031250D01*
G75*
G02*
X171526250Y-135250000I-218750J0D01*
G01*
G37*
G36*
G01*
X171526250Y-136825000D02*
X171013750Y-136825000D01*
G75*
G02*
X170795000Y-136606250I0J218750D01*
G01*
X170795000Y-136168750D01*
G75*
G02*
X171013750Y-135950000I218750J0D01*
G01*
X171526250Y-135950000D01*
G75*
G02*
X171745000Y-136168750I0J-218750D01*
G01*
X171745000Y-136606250D01*
G75*
G02*
X171526250Y-136825000I-218750J0D01*
G01*
G37*
G04 #@! TD*
D12*
G04 #@! TO.C,J9*
X163570000Y-59700000D03*
X163570000Y-62240000D03*
X163570000Y-64780000D03*
X163570000Y-67320000D03*
X163570000Y-69860000D03*
D13*
X163570000Y-72400000D03*
G04 #@! TD*
D12*
G04 #@! TO.C,J9*
X88570000Y-59700000D03*
X88570000Y-62240000D03*
X88570000Y-64780000D03*
X88570000Y-67320000D03*
X88570000Y-69860000D03*
D13*
X88570000Y-72400000D03*
G04 #@! TD*
G04 #@! TO.C,R3*
G36*
G01*
X246526250Y-135250000D02*
X246013750Y-135250000D01*
G75*
G02*
X245795000Y-135031250I0J218750D01*
G01*
X245795000Y-134593750D01*
G75*
G02*
X246013750Y-134375000I218750J0D01*
G01*
X246526250Y-134375000D01*
G75*
G02*
X246745000Y-134593750I0J-218750D01*
G01*
X246745000Y-135031250D01*
G75*
G02*
X246526250Y-135250000I-218750J0D01*
G01*
G37*
G36*
G01*
X246526250Y-136825000D02*
X246013750Y-136825000D01*
G75*
G02*
X245795000Y-136606250I0J218750D01*
G01*
X245795000Y-136168750D01*
G75*
G02*
X246013750Y-135950000I218750J0D01*
G01*
X246526250Y-135950000D01*
G75*
G02*
X246745000Y-136168750I0J-218750D01*
G01*
X246745000Y-136606250D01*
G75*
G02*
X246526250Y-136825000I-218750J0D01*
G01*
G37*
G04 #@! TD*
G04 #@! TO.C,R51*
G36*
G01*
X256120000Y-129643750D02*
X256120000Y-130156250D01*
G75*
G02*
X255901250Y-130375000I-218750J0D01*
G01*
X255463750Y-130375000D01*
G75*
G02*
X255245000Y-130156250I0J218750D01*
G01*
X255245000Y-129643750D01*
G75*
G02*
X255463750Y-129425000I218750J0D01*
G01*
X255901250Y-129425000D01*
G75*
G02*
X256120000Y-129643750I0J-218750D01*
G01*
G37*
G36*
G01*
X257695000Y-129643750D02*
X257695000Y-130156250D01*
G75*
G02*
X257476250Y-130375000I-218750J0D01*
G01*
X257038750Y-130375000D01*
G75*
G02*
X256820000Y-130156250I0J218750D01*
G01*
X256820000Y-129643750D01*
G75*
G02*
X257038750Y-129425000I218750J0D01*
G01*
X257476250Y-129425000D01*
G75*
G02*
X257695000Y-129643750I0J-218750D01*
G01*
G37*
G04 #@! TD*
G04 #@! TO.C,R3*
G36*
G01*
X96526250Y-135250000D02*
X96013750Y-135250000D01*
G75*
G02*
X95795000Y-135031250I0J218750D01*
G01*
X95795000Y-134593750D01*
G75*
G02*
X96013750Y-134375000I218750J0D01*
G01*
X96526250Y-134375000D01*
G75*
G02*
X96745000Y-134593750I0J-218750D01*
G01*
X96745000Y-135031250D01*
G75*
G02*
X96526250Y-135250000I-218750J0D01*
G01*
G37*
G36*
G01*
X96526250Y-136825000D02*
X96013750Y-136825000D01*
G75*
G02*
X95795000Y-136606250I0J218750D01*
G01*
X95795000Y-136168750D01*
G75*
G02*
X96013750Y-135950000I218750J0D01*
G01*
X96526250Y-135950000D01*
G75*
G02*
X96745000Y-136168750I0J-218750D01*
G01*
X96745000Y-136606250D01*
G75*
G02*
X96526250Y-136825000I-218750J0D01*
G01*
G37*
G04 #@! TD*
G04 #@! TO.C,R51*
G36*
G01*
X106120000Y-129643750D02*
X106120000Y-130156250D01*
G75*
G02*
X105901250Y-130375000I-218750J0D01*
G01*
X105463750Y-130375000D01*
G75*
G02*
X105245000Y-130156250I0J218750D01*
G01*
X105245000Y-129643750D01*
G75*
G02*
X105463750Y-129425000I218750J0D01*
G01*
X105901250Y-129425000D01*
G75*
G02*
X106120000Y-129643750I0J-218750D01*
G01*
G37*
G36*
G01*
X107695000Y-129643750D02*
X107695000Y-130156250D01*
G75*
G02*
X107476250Y-130375000I-218750J0D01*
G01*
X107038750Y-130375000D01*
G75*
G02*
X106820000Y-130156250I0J218750D01*
G01*
X106820000Y-129643750D01*
G75*
G02*
X107038750Y-129425000I218750J0D01*
G01*
X107476250Y-129425000D01*
G75*
G02*
X107695000Y-129643750I0J-218750D01*
G01*
G37*
G04 #@! TD*
D17*
G04 #@! TO.C,Q6*
X83240000Y-120720000D03*
X85240000Y-121670000D03*
X85240000Y-119770000D03*
G04 #@! TD*
G04 #@! TO.C,Q6*
X233240000Y-120720000D03*
X235240000Y-121670000D03*
X235240000Y-119770000D03*
G04 #@! TD*
G04 #@! TO.C,Q6*
X158240000Y-120720000D03*
X160240000Y-121670000D03*
X160240000Y-119770000D03*
G04 #@! TD*
G04 #@! TO.C,R51*
G36*
G01*
X181120000Y-129643750D02*
X181120000Y-130156250D01*
G75*
G02*
X180901250Y-130375000I-218750J0D01*
G01*
X180463750Y-130375000D01*
G75*
G02*
X180245000Y-130156250I0J218750D01*
G01*
X180245000Y-129643750D01*
G75*
G02*
X180463750Y-129425000I218750J0D01*
G01*
X180901250Y-129425000D01*
G75*
G02*
X181120000Y-129643750I0J-218750D01*
G01*
G37*
G36*
G01*
X182695000Y-129643750D02*
X182695000Y-130156250D01*
G75*
G02*
X182476250Y-130375000I-218750J0D01*
G01*
X182038750Y-130375000D01*
G75*
G02*
X181820000Y-130156250I0J218750D01*
G01*
X181820000Y-129643750D01*
G75*
G02*
X182038750Y-129425000I218750J0D01*
G01*
X182476250Y-129425000D01*
G75*
G02*
X182695000Y-129643750I0J-218750D01*
G01*
G37*
G04 #@! TD*
G04 #@! TO.C,U10*
G36*
G01*
X232025000Y-60800000D02*
X231725000Y-60800000D01*
G75*
G02*
X231575000Y-60650000I0J150000D01*
G01*
X231575000Y-59000000D01*
G75*
G02*
X231725000Y-58850000I150000J0D01*
G01*
X232025000Y-58850000D01*
G75*
G02*
X232175000Y-59000000I0J-150000D01*
G01*
X232175000Y-60650000D01*
G75*
G02*
X232025000Y-60800000I-150000J0D01*
G01*
G37*
G36*
G01*
X230755000Y-60800000D02*
X230455000Y-60800000D01*
G75*
G02*
X230305000Y-60650000I0J150000D01*
G01*
X230305000Y-59000000D01*
G75*
G02*
X230455000Y-58850000I150000J0D01*
G01*
X230755000Y-58850000D01*
G75*
G02*
X230905000Y-59000000I0J-150000D01*
G01*
X230905000Y-60650000D01*
G75*
G02*
X230755000Y-60800000I-150000J0D01*
G01*
G37*
G36*
G01*
X229485000Y-60800000D02*
X229185000Y-60800000D01*
G75*
G02*
X229035000Y-60650000I0J150000D01*
G01*
X229035000Y-59000000D01*
G75*
G02*
X229185000Y-58850000I150000J0D01*
G01*
X229485000Y-58850000D01*
G75*
G02*
X229635000Y-59000000I0J-150000D01*
G01*
X229635000Y-60650000D01*
G75*
G02*
X229485000Y-60800000I-150000J0D01*
G01*
G37*
G36*
G01*
X228215000Y-60800000D02*
X227915000Y-60800000D01*
G75*
G02*
X227765000Y-60650000I0J150000D01*
G01*
X227765000Y-59000000D01*
G75*
G02*
X227915000Y-58850000I150000J0D01*
G01*
X228215000Y-58850000D01*
G75*
G02*
X228365000Y-59000000I0J-150000D01*
G01*
X228365000Y-60650000D01*
G75*
G02*
X228215000Y-60800000I-150000J0D01*
G01*
G37*
G36*
G01*
X228215000Y-65750000D02*
X227915000Y-65750000D01*
G75*
G02*
X227765000Y-65600000I0J150000D01*
G01*
X227765000Y-63950000D01*
G75*
G02*
X227915000Y-63800000I150000J0D01*
G01*
X228215000Y-63800000D01*
G75*
G02*
X228365000Y-63950000I0J-150000D01*
G01*
X228365000Y-65600000D01*
G75*
G02*
X228215000Y-65750000I-150000J0D01*
G01*
G37*
G36*
G01*
X229485000Y-65750000D02*
X229185000Y-65750000D01*
G75*
G02*
X229035000Y-65600000I0J150000D01*
G01*
X229035000Y-63950000D01*
G75*
G02*
X229185000Y-63800000I150000J0D01*
G01*
X229485000Y-63800000D01*
G75*
G02*
X229635000Y-63950000I0J-150000D01*
G01*
X229635000Y-65600000D01*
G75*
G02*
X229485000Y-65750000I-150000J0D01*
G01*
G37*
G36*
G01*
X230755000Y-65750000D02*
X230455000Y-65750000D01*
G75*
G02*
X230305000Y-65600000I0J150000D01*
G01*
X230305000Y-63950000D01*
G75*
G02*
X230455000Y-63800000I150000J0D01*
G01*
X230755000Y-63800000D01*
G75*
G02*
X230905000Y-63950000I0J-150000D01*
G01*
X230905000Y-65600000D01*
G75*
G02*
X230755000Y-65750000I-150000J0D01*
G01*
G37*
G36*
G01*
X232025000Y-65750000D02*
X231725000Y-65750000D01*
G75*
G02*
X231575000Y-65600000I0J150000D01*
G01*
X231575000Y-63950000D01*
G75*
G02*
X231725000Y-63800000I150000J0D01*
G01*
X232025000Y-63800000D01*
G75*
G02*
X232175000Y-63950000I0J-150000D01*
G01*
X232175000Y-65600000D01*
G75*
G02*
X232025000Y-65750000I-150000J0D01*
G01*
G37*
G04 #@! TD*
G04 #@! TO.C,U10*
G36*
G01*
X157025000Y-60800000D02*
X156725000Y-60800000D01*
G75*
G02*
X156575000Y-60650000I0J150000D01*
G01*
X156575000Y-59000000D01*
G75*
G02*
X156725000Y-58850000I150000J0D01*
G01*
X157025000Y-58850000D01*
G75*
G02*
X157175000Y-59000000I0J-150000D01*
G01*
X157175000Y-60650000D01*
G75*
G02*
X157025000Y-60800000I-150000J0D01*
G01*
G37*
G36*
G01*
X155755000Y-60800000D02*
X155455000Y-60800000D01*
G75*
G02*
X155305000Y-60650000I0J150000D01*
G01*
X155305000Y-59000000D01*
G75*
G02*
X155455000Y-58850000I150000J0D01*
G01*
X155755000Y-58850000D01*
G75*
G02*
X155905000Y-59000000I0J-150000D01*
G01*
X155905000Y-60650000D01*
G75*
G02*
X155755000Y-60800000I-150000J0D01*
G01*
G37*
G36*
G01*
X154485000Y-60800000D02*
X154185000Y-60800000D01*
G75*
G02*
X154035000Y-60650000I0J150000D01*
G01*
X154035000Y-59000000D01*
G75*
G02*
X154185000Y-58850000I150000J0D01*
G01*
X154485000Y-58850000D01*
G75*
G02*
X154635000Y-59000000I0J-150000D01*
G01*
X154635000Y-60650000D01*
G75*
G02*
X154485000Y-60800000I-150000J0D01*
G01*
G37*
G36*
G01*
X153215000Y-60800000D02*
X152915000Y-60800000D01*
G75*
G02*
X152765000Y-60650000I0J150000D01*
G01*
X152765000Y-59000000D01*
G75*
G02*
X152915000Y-58850000I150000J0D01*
G01*
X153215000Y-58850000D01*
G75*
G02*
X153365000Y-59000000I0J-150000D01*
G01*
X153365000Y-60650000D01*
G75*
G02*
X153215000Y-60800000I-150000J0D01*
G01*
G37*
G36*
G01*
X153215000Y-65750000D02*
X152915000Y-65750000D01*
G75*
G02*
X152765000Y-65600000I0J150000D01*
G01*
X152765000Y-63950000D01*
G75*
G02*
X152915000Y-63800000I150000J0D01*
G01*
X153215000Y-63800000D01*
G75*
G02*
X153365000Y-63950000I0J-150000D01*
G01*
X153365000Y-65600000D01*
G75*
G02*
X153215000Y-65750000I-150000J0D01*
G01*
G37*
G36*
G01*
X154485000Y-65750000D02*
X154185000Y-65750000D01*
G75*
G02*
X154035000Y-65600000I0J150000D01*
G01*
X154035000Y-63950000D01*
G75*
G02*
X154185000Y-63800000I150000J0D01*
G01*
X154485000Y-63800000D01*
G75*
G02*
X154635000Y-63950000I0J-150000D01*
G01*
X154635000Y-65600000D01*
G75*
G02*
X154485000Y-65750000I-150000J0D01*
G01*
G37*
G36*
G01*
X155755000Y-65750000D02*
X155455000Y-65750000D01*
G75*
G02*
X155305000Y-65600000I0J150000D01*
G01*
X155305000Y-63950000D01*
G75*
G02*
X155455000Y-63800000I150000J0D01*
G01*
X155755000Y-63800000D01*
G75*
G02*
X155905000Y-63950000I0J-150000D01*
G01*
X155905000Y-65600000D01*
G75*
G02*
X155755000Y-65750000I-150000J0D01*
G01*
G37*
G36*
G01*
X157025000Y-65750000D02*
X156725000Y-65750000D01*
G75*
G02*
X156575000Y-65600000I0J150000D01*
G01*
X156575000Y-63950000D01*
G75*
G02*
X156725000Y-63800000I150000J0D01*
G01*
X157025000Y-63800000D01*
G75*
G02*
X157175000Y-63950000I0J-150000D01*
G01*
X157175000Y-65600000D01*
G75*
G02*
X157025000Y-65750000I-150000J0D01*
G01*
G37*
G04 #@! TD*
G04 #@! TO.C,U10*
G36*
G01*
X82025000Y-60800000D02*
X81725000Y-60800000D01*
G75*
G02*
X81575000Y-60650000I0J150000D01*
G01*
X81575000Y-59000000D01*
G75*
G02*
X81725000Y-58850000I150000J0D01*
G01*
X82025000Y-58850000D01*
G75*
G02*
X82175000Y-59000000I0J-150000D01*
G01*
X82175000Y-60650000D01*
G75*
G02*
X82025000Y-60800000I-150000J0D01*
G01*
G37*
G36*
G01*
X80755000Y-60800000D02*
X80455000Y-60800000D01*
G75*
G02*
X80305000Y-60650000I0J150000D01*
G01*
X80305000Y-59000000D01*
G75*
G02*
X80455000Y-58850000I150000J0D01*
G01*
X80755000Y-58850000D01*
G75*
G02*
X80905000Y-59000000I0J-150000D01*
G01*
X80905000Y-60650000D01*
G75*
G02*
X80755000Y-60800000I-150000J0D01*
G01*
G37*
G36*
G01*
X79485000Y-60800000D02*
X79185000Y-60800000D01*
G75*
G02*
X79035000Y-60650000I0J150000D01*
G01*
X79035000Y-59000000D01*
G75*
G02*
X79185000Y-58850000I150000J0D01*
G01*
X79485000Y-58850000D01*
G75*
G02*
X79635000Y-59000000I0J-150000D01*
G01*
X79635000Y-60650000D01*
G75*
G02*
X79485000Y-60800000I-150000J0D01*
G01*
G37*
G36*
G01*
X78215000Y-60800000D02*
X77915000Y-60800000D01*
G75*
G02*
X77765000Y-60650000I0J150000D01*
G01*
X77765000Y-59000000D01*
G75*
G02*
X77915000Y-58850000I150000J0D01*
G01*
X78215000Y-58850000D01*
G75*
G02*
X78365000Y-59000000I0J-150000D01*
G01*
X78365000Y-60650000D01*
G75*
G02*
X78215000Y-60800000I-150000J0D01*
G01*
G37*
G36*
G01*
X78215000Y-65750000D02*
X77915000Y-65750000D01*
G75*
G02*
X77765000Y-65600000I0J150000D01*
G01*
X77765000Y-63950000D01*
G75*
G02*
X77915000Y-63800000I150000J0D01*
G01*
X78215000Y-63800000D01*
G75*
G02*
X78365000Y-63950000I0J-150000D01*
G01*
X78365000Y-65600000D01*
G75*
G02*
X78215000Y-65750000I-150000J0D01*
G01*
G37*
G36*
G01*
X79485000Y-65750000D02*
X79185000Y-65750000D01*
G75*
G02*
X79035000Y-65600000I0J150000D01*
G01*
X79035000Y-63950000D01*
G75*
G02*
X79185000Y-63800000I150000J0D01*
G01*
X79485000Y-63800000D01*
G75*
G02*
X79635000Y-63950000I0J-150000D01*
G01*
X79635000Y-65600000D01*
G75*
G02*
X79485000Y-65750000I-150000J0D01*
G01*
G37*
G36*
G01*
X80755000Y-65750000D02*
X80455000Y-65750000D01*
G75*
G02*
X80305000Y-65600000I0J150000D01*
G01*
X80305000Y-63950000D01*
G75*
G02*
X80455000Y-63800000I150000J0D01*
G01*
X80755000Y-63800000D01*
G75*
G02*
X80905000Y-63950000I0J-150000D01*
G01*
X80905000Y-65600000D01*
G75*
G02*
X80755000Y-65750000I-150000J0D01*
G01*
G37*
G36*
G01*
X82025000Y-65750000D02*
X81725000Y-65750000D01*
G75*
G02*
X81575000Y-65600000I0J150000D01*
G01*
X81575000Y-63950000D01*
G75*
G02*
X81725000Y-63800000I150000J0D01*
G01*
X82025000Y-63800000D01*
G75*
G02*
X82175000Y-63950000I0J-150000D01*
G01*
X82175000Y-65600000D01*
G75*
G02*
X82025000Y-65750000I-150000J0D01*
G01*
G37*
G04 #@! TD*
G04 #@! TO.C,R52*
G36*
G01*
X256120000Y-125343750D02*
X256120000Y-125856250D01*
G75*
G02*
X255901250Y-126075000I-218750J0D01*
G01*
X255463750Y-126075000D01*
G75*
G02*
X255245000Y-125856250I0J218750D01*
G01*
X255245000Y-125343750D01*
G75*
G02*
X255463750Y-125125000I218750J0D01*
G01*
X255901250Y-125125000D01*
G75*
G02*
X256120000Y-125343750I0J-218750D01*
G01*
G37*
G36*
G01*
X257695000Y-125343750D02*
X257695000Y-125856250D01*
G75*
G02*
X257476250Y-126075000I-218750J0D01*
G01*
X257038750Y-126075000D01*
G75*
G02*
X256820000Y-125856250I0J218750D01*
G01*
X256820000Y-125343750D01*
G75*
G02*
X257038750Y-125125000I218750J0D01*
G01*
X257476250Y-125125000D01*
G75*
G02*
X257695000Y-125343750I0J-218750D01*
G01*
G37*
G04 #@! TD*
G04 #@! TO.C,R52*
G36*
G01*
X181120000Y-125343750D02*
X181120000Y-125856250D01*
G75*
G02*
X180901250Y-126075000I-218750J0D01*
G01*
X180463750Y-126075000D01*
G75*
G02*
X180245000Y-125856250I0J218750D01*
G01*
X180245000Y-125343750D01*
G75*
G02*
X180463750Y-125125000I218750J0D01*
G01*
X180901250Y-125125000D01*
G75*
G02*
X181120000Y-125343750I0J-218750D01*
G01*
G37*
G36*
G01*
X182695000Y-125343750D02*
X182695000Y-125856250D01*
G75*
G02*
X182476250Y-126075000I-218750J0D01*
G01*
X182038750Y-126075000D01*
G75*
G02*
X181820000Y-125856250I0J218750D01*
G01*
X181820000Y-125343750D01*
G75*
G02*
X182038750Y-125125000I218750J0D01*
G01*
X182476250Y-125125000D01*
G75*
G02*
X182695000Y-125343750I0J-218750D01*
G01*
G37*
G04 #@! TD*
G04 #@! TO.C,R53*
G36*
G01*
X256820000Y-128006250D02*
X256820000Y-127493750D01*
G75*
G02*
X257038750Y-127275000I218750J0D01*
G01*
X257476250Y-127275000D01*
G75*
G02*
X257695000Y-127493750I0J-218750D01*
G01*
X257695000Y-128006250D01*
G75*
G02*
X257476250Y-128225000I-218750J0D01*
G01*
X257038750Y-128225000D01*
G75*
G02*
X256820000Y-128006250I0J218750D01*
G01*
G37*
G36*
G01*
X255245000Y-128006250D02*
X255245000Y-127493750D01*
G75*
G02*
X255463750Y-127275000I218750J0D01*
G01*
X255901250Y-127275000D01*
G75*
G02*
X256120000Y-127493750I0J-218750D01*
G01*
X256120000Y-128006250D01*
G75*
G02*
X255901250Y-128225000I-218750J0D01*
G01*
X255463750Y-128225000D01*
G75*
G02*
X255245000Y-128006250I0J218750D01*
G01*
G37*
G04 #@! TD*
D18*
G04 #@! TO.C,U9*
X237095000Y-129438000D03*
X237745000Y-129438000D03*
X238395000Y-129438000D03*
X239045000Y-129438000D03*
X239695000Y-129438000D03*
X240345000Y-129438000D03*
X240995000Y-129438000D03*
X241645000Y-129438000D03*
X241645000Y-123562000D03*
X240995000Y-123562000D03*
X240345000Y-123562000D03*
X239695000Y-123562000D03*
X239045000Y-123562000D03*
X238395000Y-123562000D03*
X237745000Y-123562000D03*
X237095000Y-123562000D03*
G04 #@! TD*
G04 #@! TO.C,U9*
X87095000Y-129438000D03*
X87745000Y-129438000D03*
X88395000Y-129438000D03*
X89045000Y-129438000D03*
X89695000Y-129438000D03*
X90345000Y-129438000D03*
X90995000Y-129438000D03*
X91645000Y-129438000D03*
X91645000Y-123562000D03*
X90995000Y-123562000D03*
X90345000Y-123562000D03*
X89695000Y-123562000D03*
X89045000Y-123562000D03*
X88395000Y-123562000D03*
X87745000Y-123562000D03*
X87095000Y-123562000D03*
G04 #@! TD*
G04 #@! TO.C,U9*
X162095000Y-129438000D03*
X162745000Y-129438000D03*
X163395000Y-129438000D03*
X164045000Y-129438000D03*
X164695000Y-129438000D03*
X165345000Y-129438000D03*
X165995000Y-129438000D03*
X166645000Y-129438000D03*
X166645000Y-123562000D03*
X165995000Y-123562000D03*
X165345000Y-123562000D03*
X164695000Y-123562000D03*
X164045000Y-123562000D03*
X163395000Y-123562000D03*
X162745000Y-123562000D03*
X162095000Y-123562000D03*
G04 #@! TD*
G04 #@! TO.C,R53*
G36*
G01*
X181820000Y-128006250D02*
X181820000Y-127493750D01*
G75*
G02*
X182038750Y-127275000I218750J0D01*
G01*
X182476250Y-127275000D01*
G75*
G02*
X182695000Y-127493750I0J-218750D01*
G01*
X182695000Y-128006250D01*
G75*
G02*
X182476250Y-128225000I-218750J0D01*
G01*
X182038750Y-128225000D01*
G75*
G02*
X181820000Y-128006250I0J218750D01*
G01*
G37*
G36*
G01*
X180245000Y-128006250D02*
X180245000Y-127493750D01*
G75*
G02*
X180463750Y-127275000I218750J0D01*
G01*
X180901250Y-127275000D01*
G75*
G02*
X181120000Y-127493750I0J-218750D01*
G01*
X181120000Y-128006250D01*
G75*
G02*
X180901250Y-128225000I-218750J0D01*
G01*
X180463750Y-128225000D01*
G75*
G02*
X180245000Y-128006250I0J218750D01*
G01*
G37*
G04 #@! TD*
G04 #@! TO.C,R53*
G36*
G01*
X106820000Y-128006250D02*
X106820000Y-127493750D01*
G75*
G02*
X107038750Y-127275000I218750J0D01*
G01*
X107476250Y-127275000D01*
G75*
G02*
X107695000Y-127493750I0J-218750D01*
G01*
X107695000Y-128006250D01*
G75*
G02*
X107476250Y-128225000I-218750J0D01*
G01*
X107038750Y-128225000D01*
G75*
G02*
X106820000Y-128006250I0J218750D01*
G01*
G37*
G36*
G01*
X105245000Y-128006250D02*
X105245000Y-127493750D01*
G75*
G02*
X105463750Y-127275000I218750J0D01*
G01*
X105901250Y-127275000D01*
G75*
G02*
X106120000Y-127493750I0J-218750D01*
G01*
X106120000Y-128006250D01*
G75*
G02*
X105901250Y-128225000I-218750J0D01*
G01*
X105463750Y-128225000D01*
G75*
G02*
X105245000Y-128006250I0J218750D01*
G01*
G37*
G04 #@! TD*
G04 #@! TO.C,R52*
G36*
G01*
X106120000Y-125343750D02*
X106120000Y-125856250D01*
G75*
G02*
X105901250Y-126075000I-218750J0D01*
G01*
X105463750Y-126075000D01*
G75*
G02*
X105245000Y-125856250I0J218750D01*
G01*
X105245000Y-125343750D01*
G75*
G02*
X105463750Y-125125000I218750J0D01*
G01*
X105901250Y-125125000D01*
G75*
G02*
X106120000Y-125343750I0J-218750D01*
G01*
G37*
G36*
G01*
X107695000Y-125343750D02*
X107695000Y-125856250D01*
G75*
G02*
X107476250Y-126075000I-218750J0D01*
G01*
X107038750Y-126075000D01*
G75*
G02*
X106820000Y-125856250I0J218750D01*
G01*
X106820000Y-125343750D01*
G75*
G02*
X107038750Y-125125000I218750J0D01*
G01*
X107476250Y-125125000D01*
G75*
G02*
X107695000Y-125343750I0J-218750D01*
G01*
G37*
G04 #@! TD*
G04 #@! TO.C,R50*
G36*
G01*
X178820000Y-133256250D02*
X178820000Y-132743750D01*
G75*
G02*
X179038750Y-132525000I218750J0D01*
G01*
X179476250Y-132525000D01*
G75*
G02*
X179695000Y-132743750I0J-218750D01*
G01*
X179695000Y-133256250D01*
G75*
G02*
X179476250Y-133475000I-218750J0D01*
G01*
X179038750Y-133475000D01*
G75*
G02*
X178820000Y-133256250I0J218750D01*
G01*
G37*
G36*
G01*
X177245000Y-133256250D02*
X177245000Y-132743750D01*
G75*
G02*
X177463750Y-132525000I218750J0D01*
G01*
X177901250Y-132525000D01*
G75*
G02*
X178120000Y-132743750I0J-218750D01*
G01*
X178120000Y-133256250D01*
G75*
G02*
X177901250Y-133475000I-218750J0D01*
G01*
X177463750Y-133475000D01*
G75*
G02*
X177245000Y-133256250I0J218750D01*
G01*
G37*
G04 #@! TD*
G04 #@! TO.C,R50*
G36*
G01*
X103820000Y-133256250D02*
X103820000Y-132743750D01*
G75*
G02*
X104038750Y-132525000I218750J0D01*
G01*
X104476250Y-132525000D01*
G75*
G02*
X104695000Y-132743750I0J-218750D01*
G01*
X104695000Y-133256250D01*
G75*
G02*
X104476250Y-133475000I-218750J0D01*
G01*
X104038750Y-133475000D01*
G75*
G02*
X103820000Y-133256250I0J218750D01*
G01*
G37*
G36*
G01*
X102245000Y-133256250D02*
X102245000Y-132743750D01*
G75*
G02*
X102463750Y-132525000I218750J0D01*
G01*
X102901250Y-132525000D01*
G75*
G02*
X103120000Y-132743750I0J-218750D01*
G01*
X103120000Y-133256250D01*
G75*
G02*
X102901250Y-133475000I-218750J0D01*
G01*
X102463750Y-133475000D01*
G75*
G02*
X102245000Y-133256250I0J218750D01*
G01*
G37*
G04 #@! TD*
G04 #@! TO.C,R50*
G36*
G01*
X253820000Y-133256250D02*
X253820000Y-132743750D01*
G75*
G02*
X254038750Y-132525000I218750J0D01*
G01*
X254476250Y-132525000D01*
G75*
G02*
X254695000Y-132743750I0J-218750D01*
G01*
X254695000Y-133256250D01*
G75*
G02*
X254476250Y-133475000I-218750J0D01*
G01*
X254038750Y-133475000D01*
G75*
G02*
X253820000Y-133256250I0J218750D01*
G01*
G37*
G36*
G01*
X252245000Y-133256250D02*
X252245000Y-132743750D01*
G75*
G02*
X252463750Y-132525000I218750J0D01*
G01*
X252901250Y-132525000D01*
G75*
G02*
X253120000Y-132743750I0J-218750D01*
G01*
X253120000Y-133256250D01*
G75*
G02*
X252901250Y-133475000I-218750J0D01*
G01*
X252463750Y-133475000D01*
G75*
G02*
X252245000Y-133256250I0J218750D01*
G01*
G37*
G04 #@! TD*
G04 #@! TO.C,U12*
G36*
G01*
X173270000Y-65945000D02*
X173270000Y-66245000D01*
G75*
G02*
X173120000Y-66395000I-150000J0D01*
G01*
X171820000Y-66395000D01*
G75*
G02*
X171670000Y-66245000I0J150000D01*
G01*
X171670000Y-65945000D01*
G75*
G02*
X171820000Y-65795000I150000J0D01*
G01*
X173120000Y-65795000D01*
G75*
G02*
X173270000Y-65945000I0J-150000D01*
G01*
G37*
G36*
G01*
X173270000Y-67215000D02*
X173270000Y-67515000D01*
G75*
G02*
X173120000Y-67665000I-150000J0D01*
G01*
X171820000Y-67665000D01*
G75*
G02*
X171670000Y-67515000I0J150000D01*
G01*
X171670000Y-67215000D01*
G75*
G02*
X171820000Y-67065000I150000J0D01*
G01*
X173120000Y-67065000D01*
G75*
G02*
X173270000Y-67215000I0J-150000D01*
G01*
G37*
G36*
G01*
X173270000Y-68485000D02*
X173270000Y-68785000D01*
G75*
G02*
X173120000Y-68935000I-150000J0D01*
G01*
X171820000Y-68935000D01*
G75*
G02*
X171670000Y-68785000I0J150000D01*
G01*
X171670000Y-68485000D01*
G75*
G02*
X171820000Y-68335000I150000J0D01*
G01*
X173120000Y-68335000D01*
G75*
G02*
X173270000Y-68485000I0J-150000D01*
G01*
G37*
G36*
G01*
X173270000Y-69755000D02*
X173270000Y-70055000D01*
G75*
G02*
X173120000Y-70205000I-150000J0D01*
G01*
X171820000Y-70205000D01*
G75*
G02*
X171670000Y-70055000I0J150000D01*
G01*
X171670000Y-69755000D01*
G75*
G02*
X171820000Y-69605000I150000J0D01*
G01*
X173120000Y-69605000D01*
G75*
G02*
X173270000Y-69755000I0J-150000D01*
G01*
G37*
G36*
G01*
X180470000Y-69755000D02*
X180470000Y-70055000D01*
G75*
G02*
X180320000Y-70205000I-150000J0D01*
G01*
X179020000Y-70205000D01*
G75*
G02*
X178870000Y-70055000I0J150000D01*
G01*
X178870000Y-69755000D01*
G75*
G02*
X179020000Y-69605000I150000J0D01*
G01*
X180320000Y-69605000D01*
G75*
G02*
X180470000Y-69755000I0J-150000D01*
G01*
G37*
G36*
G01*
X180470000Y-68485000D02*
X180470000Y-68785000D01*
G75*
G02*
X180320000Y-68935000I-150000J0D01*
G01*
X179020000Y-68935000D01*
G75*
G02*
X178870000Y-68785000I0J150000D01*
G01*
X178870000Y-68485000D01*
G75*
G02*
X179020000Y-68335000I150000J0D01*
G01*
X180320000Y-68335000D01*
G75*
G02*
X180470000Y-68485000I0J-150000D01*
G01*
G37*
G36*
G01*
X180470000Y-67215000D02*
X180470000Y-67515000D01*
G75*
G02*
X180320000Y-67665000I-150000J0D01*
G01*
X179020000Y-67665000D01*
G75*
G02*
X178870000Y-67515000I0J150000D01*
G01*
X178870000Y-67215000D01*
G75*
G02*
X179020000Y-67065000I150000J0D01*
G01*
X180320000Y-67065000D01*
G75*
G02*
X180470000Y-67215000I0J-150000D01*
G01*
G37*
G36*
G01*
X180470000Y-65945000D02*
X180470000Y-66245000D01*
G75*
G02*
X180320000Y-66395000I-150000J0D01*
G01*
X179020000Y-66395000D01*
G75*
G02*
X178870000Y-66245000I0J150000D01*
G01*
X178870000Y-65945000D01*
G75*
G02*
X179020000Y-65795000I150000J0D01*
G01*
X180320000Y-65795000D01*
G75*
G02*
X180470000Y-65945000I0J-150000D01*
G01*
G37*
G04 #@! TD*
G04 #@! TO.C,R49*
G36*
G01*
X95613750Y-131050000D02*
X96126250Y-131050000D01*
G75*
G02*
X96345000Y-131268750I0J-218750D01*
G01*
X96345000Y-131706250D01*
G75*
G02*
X96126250Y-131925000I-218750J0D01*
G01*
X95613750Y-131925000D01*
G75*
G02*
X95395000Y-131706250I0J218750D01*
G01*
X95395000Y-131268750D01*
G75*
G02*
X95613750Y-131050000I218750J0D01*
G01*
G37*
G36*
G01*
X95613750Y-129475000D02*
X96126250Y-129475000D01*
G75*
G02*
X96345000Y-129693750I0J-218750D01*
G01*
X96345000Y-130131250D01*
G75*
G02*
X96126250Y-130350000I-218750J0D01*
G01*
X95613750Y-130350000D01*
G75*
G02*
X95395000Y-130131250I0J218750D01*
G01*
X95395000Y-129693750D01*
G75*
G02*
X95613750Y-129475000I218750J0D01*
G01*
G37*
G04 #@! TD*
G04 #@! TO.C,U12*
G36*
G01*
X248270000Y-65945000D02*
X248270000Y-66245000D01*
G75*
G02*
X248120000Y-66395000I-150000J0D01*
G01*
X246820000Y-66395000D01*
G75*
G02*
X246670000Y-66245000I0J150000D01*
G01*
X246670000Y-65945000D01*
G75*
G02*
X246820000Y-65795000I150000J0D01*
G01*
X248120000Y-65795000D01*
G75*
G02*
X248270000Y-65945000I0J-150000D01*
G01*
G37*
G36*
G01*
X248270000Y-67215000D02*
X248270000Y-67515000D01*
G75*
G02*
X248120000Y-67665000I-150000J0D01*
G01*
X246820000Y-67665000D01*
G75*
G02*
X246670000Y-67515000I0J150000D01*
G01*
X246670000Y-67215000D01*
G75*
G02*
X246820000Y-67065000I150000J0D01*
G01*
X248120000Y-67065000D01*
G75*
G02*
X248270000Y-67215000I0J-150000D01*
G01*
G37*
G36*
G01*
X248270000Y-68485000D02*
X248270000Y-68785000D01*
G75*
G02*
X248120000Y-68935000I-150000J0D01*
G01*
X246820000Y-68935000D01*
G75*
G02*
X246670000Y-68785000I0J150000D01*
G01*
X246670000Y-68485000D01*
G75*
G02*
X246820000Y-68335000I150000J0D01*
G01*
X248120000Y-68335000D01*
G75*
G02*
X248270000Y-68485000I0J-150000D01*
G01*
G37*
G36*
G01*
X248270000Y-69755000D02*
X248270000Y-70055000D01*
G75*
G02*
X248120000Y-70205000I-150000J0D01*
G01*
X246820000Y-70205000D01*
G75*
G02*
X246670000Y-70055000I0J150000D01*
G01*
X246670000Y-69755000D01*
G75*
G02*
X246820000Y-69605000I150000J0D01*
G01*
X248120000Y-69605000D01*
G75*
G02*
X248270000Y-69755000I0J-150000D01*
G01*
G37*
G36*
G01*
X255470000Y-69755000D02*
X255470000Y-70055000D01*
G75*
G02*
X255320000Y-70205000I-150000J0D01*
G01*
X254020000Y-70205000D01*
G75*
G02*
X253870000Y-70055000I0J150000D01*
G01*
X253870000Y-69755000D01*
G75*
G02*
X254020000Y-69605000I150000J0D01*
G01*
X255320000Y-69605000D01*
G75*
G02*
X255470000Y-69755000I0J-150000D01*
G01*
G37*
G36*
G01*
X255470000Y-68485000D02*
X255470000Y-68785000D01*
G75*
G02*
X255320000Y-68935000I-150000J0D01*
G01*
X254020000Y-68935000D01*
G75*
G02*
X253870000Y-68785000I0J150000D01*
G01*
X253870000Y-68485000D01*
G75*
G02*
X254020000Y-68335000I150000J0D01*
G01*
X255320000Y-68335000D01*
G75*
G02*
X255470000Y-68485000I0J-150000D01*
G01*
G37*
G36*
G01*
X255470000Y-67215000D02*
X255470000Y-67515000D01*
G75*
G02*
X255320000Y-67665000I-150000J0D01*
G01*
X254020000Y-67665000D01*
G75*
G02*
X253870000Y-67515000I0J150000D01*
G01*
X253870000Y-67215000D01*
G75*
G02*
X254020000Y-67065000I150000J0D01*
G01*
X255320000Y-67065000D01*
G75*
G02*
X255470000Y-67215000I0J-150000D01*
G01*
G37*
G36*
G01*
X255470000Y-65945000D02*
X255470000Y-66245000D01*
G75*
G02*
X255320000Y-66395000I-150000J0D01*
G01*
X254020000Y-66395000D01*
G75*
G02*
X253870000Y-66245000I0J150000D01*
G01*
X253870000Y-65945000D01*
G75*
G02*
X254020000Y-65795000I150000J0D01*
G01*
X255320000Y-65795000D01*
G75*
G02*
X255470000Y-65945000I0J-150000D01*
G01*
G37*
G04 #@! TD*
G04 #@! TO.C,R49*
G36*
G01*
X170613750Y-131050000D02*
X171126250Y-131050000D01*
G75*
G02*
X171345000Y-131268750I0J-218750D01*
G01*
X171345000Y-131706250D01*
G75*
G02*
X171126250Y-131925000I-218750J0D01*
G01*
X170613750Y-131925000D01*
G75*
G02*
X170395000Y-131706250I0J218750D01*
G01*
X170395000Y-131268750D01*
G75*
G02*
X170613750Y-131050000I218750J0D01*
G01*
G37*
G36*
G01*
X170613750Y-129475000D02*
X171126250Y-129475000D01*
G75*
G02*
X171345000Y-129693750I0J-218750D01*
G01*
X171345000Y-130131250D01*
G75*
G02*
X171126250Y-130350000I-218750J0D01*
G01*
X170613750Y-130350000D01*
G75*
G02*
X170395000Y-130131250I0J218750D01*
G01*
X170395000Y-129693750D01*
G75*
G02*
X170613750Y-129475000I218750J0D01*
G01*
G37*
G04 #@! TD*
D19*
G04 #@! TO.C,U1*
X220270000Y-110220000D03*
X220270000Y-112760000D03*
D20*
X220270000Y-115300000D03*
G04 #@! TD*
G04 #@! TO.C,R49*
G36*
G01*
X245613750Y-131050000D02*
X246126250Y-131050000D01*
G75*
G02*
X246345000Y-131268750I0J-218750D01*
G01*
X246345000Y-131706250D01*
G75*
G02*
X246126250Y-131925000I-218750J0D01*
G01*
X245613750Y-131925000D01*
G75*
G02*
X245395000Y-131706250I0J218750D01*
G01*
X245395000Y-131268750D01*
G75*
G02*
X245613750Y-131050000I218750J0D01*
G01*
G37*
G36*
G01*
X245613750Y-129475000D02*
X246126250Y-129475000D01*
G75*
G02*
X246345000Y-129693750I0J-218750D01*
G01*
X246345000Y-130131250D01*
G75*
G02*
X246126250Y-130350000I-218750J0D01*
G01*
X245613750Y-130350000D01*
G75*
G02*
X245395000Y-130131250I0J218750D01*
G01*
X245395000Y-129693750D01*
G75*
G02*
X245613750Y-129475000I218750J0D01*
G01*
G37*
G04 #@! TD*
D19*
G04 #@! TO.C,U1*
X145270000Y-110220000D03*
X145270000Y-112760000D03*
D20*
X145270000Y-115300000D03*
G04 #@! TD*
D19*
G04 #@! TO.C,U1*
X70270000Y-110220000D03*
X70270000Y-112760000D03*
D20*
X70270000Y-115300000D03*
G04 #@! TD*
G04 #@! TO.C,U12*
G36*
G01*
X98270000Y-65945000D02*
X98270000Y-66245000D01*
G75*
G02*
X98120000Y-66395000I-150000J0D01*
G01*
X96820000Y-66395000D01*
G75*
G02*
X96670000Y-66245000I0J150000D01*
G01*
X96670000Y-65945000D01*
G75*
G02*
X96820000Y-65795000I150000J0D01*
G01*
X98120000Y-65795000D01*
G75*
G02*
X98270000Y-65945000I0J-150000D01*
G01*
G37*
G36*
G01*
X98270000Y-67215000D02*
X98270000Y-67515000D01*
G75*
G02*
X98120000Y-67665000I-150000J0D01*
G01*
X96820000Y-67665000D01*
G75*
G02*
X96670000Y-67515000I0J150000D01*
G01*
X96670000Y-67215000D01*
G75*
G02*
X96820000Y-67065000I150000J0D01*
G01*
X98120000Y-67065000D01*
G75*
G02*
X98270000Y-67215000I0J-150000D01*
G01*
G37*
G36*
G01*
X98270000Y-68485000D02*
X98270000Y-68785000D01*
G75*
G02*
X98120000Y-68935000I-150000J0D01*
G01*
X96820000Y-68935000D01*
G75*
G02*
X96670000Y-68785000I0J150000D01*
G01*
X96670000Y-68485000D01*
G75*
G02*
X96820000Y-68335000I150000J0D01*
G01*
X98120000Y-68335000D01*
G75*
G02*
X98270000Y-68485000I0J-150000D01*
G01*
G37*
G36*
G01*
X98270000Y-69755000D02*
X98270000Y-70055000D01*
G75*
G02*
X98120000Y-70205000I-150000J0D01*
G01*
X96820000Y-70205000D01*
G75*
G02*
X96670000Y-70055000I0J150000D01*
G01*
X96670000Y-69755000D01*
G75*
G02*
X96820000Y-69605000I150000J0D01*
G01*
X98120000Y-69605000D01*
G75*
G02*
X98270000Y-69755000I0J-150000D01*
G01*
G37*
G36*
G01*
X105470000Y-69755000D02*
X105470000Y-70055000D01*
G75*
G02*
X105320000Y-70205000I-150000J0D01*
G01*
X104020000Y-70205000D01*
G75*
G02*
X103870000Y-70055000I0J150000D01*
G01*
X103870000Y-69755000D01*
G75*
G02*
X104020000Y-69605000I150000J0D01*
G01*
X105320000Y-69605000D01*
G75*
G02*
X105470000Y-69755000I0J-150000D01*
G01*
G37*
G36*
G01*
X105470000Y-68485000D02*
X105470000Y-68785000D01*
G75*
G02*
X105320000Y-68935000I-150000J0D01*
G01*
X104020000Y-68935000D01*
G75*
G02*
X103870000Y-68785000I0J150000D01*
G01*
X103870000Y-68485000D01*
G75*
G02*
X104020000Y-68335000I150000J0D01*
G01*
X105320000Y-68335000D01*
G75*
G02*
X105470000Y-68485000I0J-150000D01*
G01*
G37*
G36*
G01*
X105470000Y-67215000D02*
X105470000Y-67515000D01*
G75*
G02*
X105320000Y-67665000I-150000J0D01*
G01*
X104020000Y-67665000D01*
G75*
G02*
X103870000Y-67515000I0J150000D01*
G01*
X103870000Y-67215000D01*
G75*
G02*
X104020000Y-67065000I150000J0D01*
G01*
X105320000Y-67065000D01*
G75*
G02*
X105470000Y-67215000I0J-150000D01*
G01*
G37*
G36*
G01*
X105470000Y-65945000D02*
X105470000Y-66245000D01*
G75*
G02*
X105320000Y-66395000I-150000J0D01*
G01*
X104020000Y-66395000D01*
G75*
G02*
X103870000Y-66245000I0J150000D01*
G01*
X103870000Y-65945000D01*
G75*
G02*
X104020000Y-65795000I150000J0D01*
G01*
X105320000Y-65795000D01*
G75*
G02*
X105470000Y-65945000I0J-150000D01*
G01*
G37*
G04 #@! TD*
D21*
G04 #@! TO.C,Y1*
X257650000Y-94500000D03*
X252770000Y-94500000D03*
G04 #@! TD*
D22*
G04 #@! TO.C,D21*
X103220000Y-137100000D03*
X99920000Y-137100000D03*
G04 #@! TD*
D12*
G04 #@! TO.C,J3*
X212790000Y-138600000D03*
X210250000Y-138600000D03*
X207710000Y-138600000D03*
D13*
X205170000Y-138600000D03*
G04 #@! TD*
D12*
G04 #@! TO.C,J3*
X137790000Y-138600000D03*
X135250000Y-138600000D03*
X132710000Y-138600000D03*
D13*
X130170000Y-138600000D03*
G04 #@! TD*
D23*
G04 #@! TO.C,C9*
X227070000Y-69100000D03*
D24*
X227070000Y-71600000D03*
G04 #@! TD*
D22*
G04 #@! TO.C,D21*
X253220000Y-137100000D03*
X249920000Y-137100000D03*
G04 #@! TD*
G04 #@! TO.C,D21*
X178220000Y-137100000D03*
X174920000Y-137100000D03*
G04 #@! TD*
D23*
G04 #@! TO.C,C10*
X236470000Y-81000000D03*
D24*
X236470000Y-78500000D03*
G04 #@! TD*
D23*
G04 #@! TO.C,C10*
X161470000Y-81000000D03*
D24*
X161470000Y-78500000D03*
G04 #@! TD*
D23*
G04 #@! TO.C,C10*
X86470000Y-81000000D03*
D24*
X86470000Y-78500000D03*
G04 #@! TD*
D23*
G04 #@! TO.C,C9*
X77070000Y-69100000D03*
D24*
X77070000Y-71600000D03*
G04 #@! TD*
D23*
G04 #@! TO.C,C9*
X152070000Y-69100000D03*
D24*
X152070000Y-71600000D03*
G04 #@! TD*
D23*
G04 #@! TO.C,BZ1*
X260520000Y-65680000D03*
D24*
X268120000Y-65680000D03*
G04 #@! TD*
D23*
G04 #@! TO.C,BZ1*
X110520000Y-65680000D03*
D24*
X118120000Y-65680000D03*
G04 #@! TD*
D21*
G04 #@! TO.C,Y1*
X182650000Y-94500000D03*
X177770000Y-94500000D03*
G04 #@! TD*
G04 #@! TO.C,Y1*
X107650000Y-94500000D03*
X102770000Y-94500000D03*
G04 #@! TD*
D12*
G04 #@! TO.C,J3*
X287790000Y-138600000D03*
X285250000Y-138600000D03*
X282710000Y-138600000D03*
D13*
X280170000Y-138600000D03*
G04 #@! TD*
D23*
G04 #@! TO.C,BZ1*
X185520000Y-65680000D03*
D24*
X193120000Y-65680000D03*
G04 #@! TD*
D25*
G04 #@! TO.C,U11*
X253325000Y-124489000D03*
X252055000Y-124489000D03*
X250785000Y-124489000D03*
X249515000Y-124489000D03*
X249515000Y-129911000D03*
X250785000Y-129911000D03*
X252055000Y-129911000D03*
X253325000Y-129911000D03*
G04 #@! TD*
G04 #@! TO.C,U11*
X178325000Y-124489000D03*
X177055000Y-124489000D03*
X175785000Y-124489000D03*
X174515000Y-124489000D03*
X174515000Y-129911000D03*
X175785000Y-129911000D03*
X177055000Y-129911000D03*
X178325000Y-129911000D03*
G04 #@! TD*
D26*
G04 #@! TO.C,Y2*
X97270000Y-94900000D03*
X97270000Y-93400000D03*
G04 #@! TD*
D25*
G04 #@! TO.C,U11*
X103325000Y-124489000D03*
X102055000Y-124489000D03*
X100785000Y-124489000D03*
X99515000Y-124489000D03*
X99515000Y-129911000D03*
X100785000Y-129911000D03*
X102055000Y-129911000D03*
X103325000Y-129911000D03*
G04 #@! TD*
D26*
G04 #@! TO.C,Y2*
X247270000Y-94900000D03*
X247270000Y-93400000D03*
G04 #@! TD*
G04 #@! TO.C,Y2*
X172270000Y-94900000D03*
X172270000Y-93400000D03*
G04 #@! TD*
D27*
G04 #@! TO.C,D1*
X242020000Y-138100000D03*
X242020000Y-134800000D03*
G04 #@! TD*
G04 #@! TO.C,D1*
X167020000Y-138100000D03*
X167020000Y-134800000D03*
G04 #@! TD*
G04 #@! TO.C,D1*
X92020000Y-138100000D03*
X92020000Y-134800000D03*
G04 #@! TD*
D12*
G04 #@! TO.C,J8*
X93710000Y-59350000D03*
X96250000Y-59350000D03*
X98790000Y-59350000D03*
X101330000Y-59350000D03*
D13*
X103870000Y-59350000D03*
G04 #@! TD*
D26*
G04 #@! TO.C,J2*
X285870000Y-144900000D03*
X281470000Y-144900000D03*
G04 #@! TD*
G04 #@! TO.C,J2*
X210870000Y-144900000D03*
X206470000Y-144900000D03*
G04 #@! TD*
D12*
G04 #@! TO.C,J8*
X168710000Y-59350000D03*
X171250000Y-59350000D03*
X173790000Y-59350000D03*
X176330000Y-59350000D03*
D13*
X178870000Y-59350000D03*
G04 #@! TD*
D26*
G04 #@! TO.C,J2*
X135870000Y-144900000D03*
X131470000Y-144900000D03*
G04 #@! TD*
G04 #@! TO.C,D20*
G36*
G01*
X224475000Y-147985001D02*
X224475000Y-145834999D01*
G75*
G02*
X224724999Y-145585000I249999J0D01*
G01*
X225575001Y-145585000D01*
G75*
G02*
X225825000Y-145834999I0J-249999D01*
G01*
X225825000Y-147985001D01*
G75*
G02*
X225575001Y-148235000I-249999J0D01*
G01*
X224724999Y-148235000D01*
G75*
G02*
X224475000Y-147985001I0J249999D01*
G01*
G37*
G36*
G01*
X219975000Y-147985001D02*
X219975000Y-145834999D01*
G75*
G02*
X220224999Y-145585000I249999J0D01*
G01*
X221075001Y-145585000D01*
G75*
G02*
X221325000Y-145834999I0J-249999D01*
G01*
X221325000Y-147985001D01*
G75*
G02*
X221075001Y-148235000I-249999J0D01*
G01*
X220224999Y-148235000D01*
G75*
G02*
X219975000Y-147985001I0J249999D01*
G01*
G37*
G04 #@! TD*
G04 #@! TO.C,D20*
G36*
G01*
X149475000Y-147985001D02*
X149475000Y-145834999D01*
G75*
G02*
X149724999Y-145585000I249999J0D01*
G01*
X150575001Y-145585000D01*
G75*
G02*
X150825000Y-145834999I0J-249999D01*
G01*
X150825000Y-147985001D01*
G75*
G02*
X150575001Y-148235000I-249999J0D01*
G01*
X149724999Y-148235000D01*
G75*
G02*
X149475000Y-147985001I0J249999D01*
G01*
G37*
G36*
G01*
X144975000Y-147985001D02*
X144975000Y-145834999D01*
G75*
G02*
X145224999Y-145585000I249999J0D01*
G01*
X146075001Y-145585000D01*
G75*
G02*
X146325000Y-145834999I0J-249999D01*
G01*
X146325000Y-147985001D01*
G75*
G02*
X146075001Y-148235000I-249999J0D01*
G01*
X145224999Y-148235000D01*
G75*
G02*
X144975000Y-147985001I0J249999D01*
G01*
G37*
G04 #@! TD*
D12*
G04 #@! TO.C,J8*
X243710000Y-59350000D03*
X246250000Y-59350000D03*
X248790000Y-59350000D03*
X251330000Y-59350000D03*
D13*
X253870000Y-59350000D03*
G04 #@! TD*
G04 #@! TO.C,D20*
G36*
G01*
X74475000Y-147985001D02*
X74475000Y-145834999D01*
G75*
G02*
X74724999Y-145585000I249999J0D01*
G01*
X75575001Y-145585000D01*
G75*
G02*
X75825000Y-145834999I0J-249999D01*
G01*
X75825000Y-147985001D01*
G75*
G02*
X75575001Y-148235000I-249999J0D01*
G01*
X74724999Y-148235000D01*
G75*
G02*
X74475000Y-147985001I0J249999D01*
G01*
G37*
G36*
G01*
X69975000Y-147985001D02*
X69975000Y-145834999D01*
G75*
G02*
X70224999Y-145585000I249999J0D01*
G01*
X71075001Y-145585000D01*
G75*
G02*
X71325000Y-145834999I0J-249999D01*
G01*
X71325000Y-147985001D01*
G75*
G02*
X71075001Y-148235000I-249999J0D01*
G01*
X70224999Y-148235000D01*
G75*
G02*
X69975000Y-147985001I0J249999D01*
G01*
G37*
G04 #@! TD*
D28*
G04 #@! TO.C,J5*
X200910000Y-142960000D03*
X200910000Y-148040000D03*
X195830000Y-148040000D03*
X195830000Y-142960000D03*
D29*
X198370000Y-145500000D03*
G04 #@! TD*
D28*
G04 #@! TO.C,J5*
X125910000Y-142960000D03*
X125910000Y-148040000D03*
X120830000Y-148040000D03*
X120830000Y-142960000D03*
D29*
X123370000Y-145500000D03*
G04 #@! TD*
D28*
G04 #@! TO.C,J4*
X191760000Y-143010000D03*
X191760000Y-148090000D03*
X186680000Y-148090000D03*
X186680000Y-143010000D03*
D29*
X189220000Y-145550000D03*
G04 #@! TD*
G04 #@! TO.C,R4*
G36*
G01*
X244163750Y-136000000D02*
X244676250Y-136000000D01*
G75*
G02*
X244895000Y-136218750I0J-218750D01*
G01*
X244895000Y-136656250D01*
G75*
G02*
X244676250Y-136875000I-218750J0D01*
G01*
X244163750Y-136875000D01*
G75*
G02*
X243945000Y-136656250I0J218750D01*
G01*
X243945000Y-136218750D01*
G75*
G02*
X244163750Y-136000000I218750J0D01*
G01*
G37*
G36*
G01*
X244163750Y-134425000D02*
X244676250Y-134425000D01*
G75*
G02*
X244895000Y-134643750I0J-218750D01*
G01*
X244895000Y-135081250D01*
G75*
G02*
X244676250Y-135300000I-218750J0D01*
G01*
X244163750Y-135300000D01*
G75*
G02*
X243945000Y-135081250I0J218750D01*
G01*
X243945000Y-134643750D01*
G75*
G02*
X244163750Y-134425000I218750J0D01*
G01*
G37*
G04 #@! TD*
G04 #@! TO.C,R4*
G36*
G01*
X169163750Y-136000000D02*
X169676250Y-136000000D01*
G75*
G02*
X169895000Y-136218750I0J-218750D01*
G01*
X169895000Y-136656250D01*
G75*
G02*
X169676250Y-136875000I-218750J0D01*
G01*
X169163750Y-136875000D01*
G75*
G02*
X168945000Y-136656250I0J218750D01*
G01*
X168945000Y-136218750D01*
G75*
G02*
X169163750Y-136000000I218750J0D01*
G01*
G37*
G36*
G01*
X169163750Y-134425000D02*
X169676250Y-134425000D01*
G75*
G02*
X169895000Y-134643750I0J-218750D01*
G01*
X169895000Y-135081250D01*
G75*
G02*
X169676250Y-135300000I-218750J0D01*
G01*
X169163750Y-135300000D01*
G75*
G02*
X168945000Y-135081250I0J218750D01*
G01*
X168945000Y-134643750D01*
G75*
G02*
X169163750Y-134425000I218750J0D01*
G01*
G37*
G04 #@! TD*
D30*
G04 #@! TO.C,J6*
X254320000Y-109150000D03*
X254320000Y-110430000D03*
X254320000Y-111710000D03*
X254320000Y-112990000D03*
X254320000Y-114270000D03*
X254320000Y-115550000D03*
D31*
X251870000Y-101200000D03*
X239420000Y-101200000D03*
X251870000Y-117600000D03*
X239420000Y-117600000D03*
G04 #@! TD*
D30*
G04 #@! TO.C,J6*
X179320000Y-109150000D03*
X179320000Y-110430000D03*
X179320000Y-111710000D03*
X179320000Y-112990000D03*
X179320000Y-114270000D03*
X179320000Y-115550000D03*
D31*
X176870000Y-101200000D03*
X164420000Y-101200000D03*
X176870000Y-117600000D03*
X164420000Y-117600000D03*
G04 #@! TD*
D30*
G04 #@! TO.C,J6*
X104320000Y-109150000D03*
X104320000Y-110430000D03*
X104320000Y-111710000D03*
X104320000Y-112990000D03*
X104320000Y-114270000D03*
X104320000Y-115550000D03*
D31*
X101870000Y-101200000D03*
X89420000Y-101200000D03*
X101870000Y-117600000D03*
X89420000Y-117600000D03*
G04 #@! TD*
D28*
G04 #@! TO.C,J4*
X116760000Y-143010000D03*
X116760000Y-148090000D03*
X111680000Y-148090000D03*
X111680000Y-143010000D03*
D29*
X114220000Y-145550000D03*
G04 #@! TD*
D28*
G04 #@! TO.C,J4*
X266760000Y-143010000D03*
X266760000Y-148090000D03*
X261680000Y-148090000D03*
X261680000Y-143010000D03*
D29*
X264220000Y-145550000D03*
G04 #@! TD*
G04 #@! TO.C,R4*
G36*
G01*
X94163750Y-136000000D02*
X94676250Y-136000000D01*
G75*
G02*
X94895000Y-136218750I0J-218750D01*
G01*
X94895000Y-136656250D01*
G75*
G02*
X94676250Y-136875000I-218750J0D01*
G01*
X94163750Y-136875000D01*
G75*
G02*
X93945000Y-136656250I0J218750D01*
G01*
X93945000Y-136218750D01*
G75*
G02*
X94163750Y-136000000I218750J0D01*
G01*
G37*
G36*
G01*
X94163750Y-134425000D02*
X94676250Y-134425000D01*
G75*
G02*
X94895000Y-134643750I0J-218750D01*
G01*
X94895000Y-135081250D01*
G75*
G02*
X94676250Y-135300000I-218750J0D01*
G01*
X94163750Y-135300000D01*
G75*
G02*
X93945000Y-135081250I0J218750D01*
G01*
X93945000Y-134643750D01*
G75*
G02*
X94163750Y-134425000I218750J0D01*
G01*
G37*
G04 #@! TD*
D28*
G04 #@! TO.C,J5*
X275910000Y-142960000D03*
X275910000Y-148040000D03*
X270830000Y-148040000D03*
X270830000Y-142960000D03*
D29*
X273370000Y-145500000D03*
G04 #@! TD*
G04 #@! TO.C,R39*
G36*
G01*
X267113750Y-115750000D02*
X267626250Y-115750000D01*
G75*
G02*
X267845000Y-115968750I0J-218750D01*
G01*
X267845000Y-116406250D01*
G75*
G02*
X267626250Y-116625000I-218750J0D01*
G01*
X267113750Y-116625000D01*
G75*
G02*
X266895000Y-116406250I0J218750D01*
G01*
X266895000Y-115968750D01*
G75*
G02*
X267113750Y-115750000I218750J0D01*
G01*
G37*
G36*
G01*
X267113750Y-114175000D02*
X267626250Y-114175000D01*
G75*
G02*
X267845000Y-114393750I0J-218750D01*
G01*
X267845000Y-114831250D01*
G75*
G02*
X267626250Y-115050000I-218750J0D01*
G01*
X267113750Y-115050000D01*
G75*
G02*
X266895000Y-114831250I0J218750D01*
G01*
X266895000Y-114393750D01*
G75*
G02*
X267113750Y-114175000I218750J0D01*
G01*
G37*
G04 #@! TD*
G04 #@! TO.C,R39*
G36*
G01*
X117113750Y-115750000D02*
X117626250Y-115750000D01*
G75*
G02*
X117845000Y-115968750I0J-218750D01*
G01*
X117845000Y-116406250D01*
G75*
G02*
X117626250Y-116625000I-218750J0D01*
G01*
X117113750Y-116625000D01*
G75*
G02*
X116895000Y-116406250I0J218750D01*
G01*
X116895000Y-115968750D01*
G75*
G02*
X117113750Y-115750000I218750J0D01*
G01*
G37*
G36*
G01*
X117113750Y-114175000D02*
X117626250Y-114175000D01*
G75*
G02*
X117845000Y-114393750I0J-218750D01*
G01*
X117845000Y-114831250D01*
G75*
G02*
X117626250Y-115050000I-218750J0D01*
G01*
X117113750Y-115050000D01*
G75*
G02*
X116895000Y-114831250I0J218750D01*
G01*
X116895000Y-114393750D01*
G75*
G02*
X117113750Y-114175000I218750J0D01*
G01*
G37*
G04 #@! TD*
G04 #@! TO.C,R39*
G36*
G01*
X192113750Y-115750000D02*
X192626250Y-115750000D01*
G75*
G02*
X192845000Y-115968750I0J-218750D01*
G01*
X192845000Y-116406250D01*
G75*
G02*
X192626250Y-116625000I-218750J0D01*
G01*
X192113750Y-116625000D01*
G75*
G02*
X191895000Y-116406250I0J218750D01*
G01*
X191895000Y-115968750D01*
G75*
G02*
X192113750Y-115750000I218750J0D01*
G01*
G37*
G36*
G01*
X192113750Y-114175000D02*
X192626250Y-114175000D01*
G75*
G02*
X192845000Y-114393750I0J-218750D01*
G01*
X192845000Y-114831250D01*
G75*
G02*
X192626250Y-115050000I-218750J0D01*
G01*
X192113750Y-115050000D01*
G75*
G02*
X191895000Y-114831250I0J218750D01*
G01*
X191895000Y-114393750D01*
G75*
G02*
X192113750Y-114175000I218750J0D01*
G01*
G37*
G04 #@! TD*
G04 #@! TO.C,C36*
G36*
G01*
X174620000Y-132743750D02*
X174620000Y-133256250D01*
G75*
G02*
X174401250Y-133475000I-218750J0D01*
G01*
X173963750Y-133475000D01*
G75*
G02*
X173745000Y-133256250I0J218750D01*
G01*
X173745000Y-132743750D01*
G75*
G02*
X173963750Y-132525000I218750J0D01*
G01*
X174401250Y-132525000D01*
G75*
G02*
X174620000Y-132743750I0J-218750D01*
G01*
G37*
G36*
G01*
X176195000Y-132743750D02*
X176195000Y-133256250D01*
G75*
G02*
X175976250Y-133475000I-218750J0D01*
G01*
X175538750Y-133475000D01*
G75*
G02*
X175320000Y-133256250I0J218750D01*
G01*
X175320000Y-132743750D01*
G75*
G02*
X175538750Y-132525000I218750J0D01*
G01*
X175976250Y-132525000D01*
G75*
G02*
X176195000Y-132743750I0J-218750D01*
G01*
G37*
G04 #@! TD*
G04 #@! TO.C,C36*
G36*
G01*
X249620000Y-132743750D02*
X249620000Y-133256250D01*
G75*
G02*
X249401250Y-133475000I-218750J0D01*
G01*
X248963750Y-133475000D01*
G75*
G02*
X248745000Y-133256250I0J218750D01*
G01*
X248745000Y-132743750D01*
G75*
G02*
X248963750Y-132525000I218750J0D01*
G01*
X249401250Y-132525000D01*
G75*
G02*
X249620000Y-132743750I0J-218750D01*
G01*
G37*
G36*
G01*
X251195000Y-132743750D02*
X251195000Y-133256250D01*
G75*
G02*
X250976250Y-133475000I-218750J0D01*
G01*
X250538750Y-133475000D01*
G75*
G02*
X250320000Y-133256250I0J218750D01*
G01*
X250320000Y-132743750D01*
G75*
G02*
X250538750Y-132525000I218750J0D01*
G01*
X250976250Y-132525000D01*
G75*
G02*
X251195000Y-132743750I0J-218750D01*
G01*
G37*
G04 #@! TD*
G04 #@! TO.C,C36*
G36*
G01*
X99620000Y-132743750D02*
X99620000Y-133256250D01*
G75*
G02*
X99401250Y-133475000I-218750J0D01*
G01*
X98963750Y-133475000D01*
G75*
G02*
X98745000Y-133256250I0J218750D01*
G01*
X98745000Y-132743750D01*
G75*
G02*
X98963750Y-132525000I218750J0D01*
G01*
X99401250Y-132525000D01*
G75*
G02*
X99620000Y-132743750I0J-218750D01*
G01*
G37*
G36*
G01*
X101195000Y-132743750D02*
X101195000Y-133256250D01*
G75*
G02*
X100976250Y-133475000I-218750J0D01*
G01*
X100538750Y-133475000D01*
G75*
G02*
X100320000Y-133256250I0J218750D01*
G01*
X100320000Y-132743750D01*
G75*
G02*
X100538750Y-132525000I218750J0D01*
G01*
X100976250Y-132525000D01*
G75*
G02*
X101195000Y-132743750I0J-218750D01*
G01*
G37*
G04 #@! TD*
G04 #@! TO.C,C33*
G36*
G01*
X83826250Y-124050000D02*
X83313750Y-124050000D01*
G75*
G02*
X83095000Y-123831250I0J218750D01*
G01*
X83095000Y-123393750D01*
G75*
G02*
X83313750Y-123175000I218750J0D01*
G01*
X83826250Y-123175000D01*
G75*
G02*
X84045000Y-123393750I0J-218750D01*
G01*
X84045000Y-123831250D01*
G75*
G02*
X83826250Y-124050000I-218750J0D01*
G01*
G37*
G36*
G01*
X83826250Y-125625000D02*
X83313750Y-125625000D01*
G75*
G02*
X83095000Y-125406250I0J218750D01*
G01*
X83095000Y-124968750D01*
G75*
G02*
X83313750Y-124750000I218750J0D01*
G01*
X83826250Y-124750000D01*
G75*
G02*
X84045000Y-124968750I0J-218750D01*
G01*
X84045000Y-125406250D01*
G75*
G02*
X83826250Y-125625000I-218750J0D01*
G01*
G37*
G04 #@! TD*
G04 #@! TO.C,C34*
G36*
G01*
X243963750Y-121412500D02*
X244476250Y-121412500D01*
G75*
G02*
X244695000Y-121631250I0J-218750D01*
G01*
X244695000Y-122068750D01*
G75*
G02*
X244476250Y-122287500I-218750J0D01*
G01*
X243963750Y-122287500D01*
G75*
G02*
X243745000Y-122068750I0J218750D01*
G01*
X243745000Y-121631250D01*
G75*
G02*
X243963750Y-121412500I218750J0D01*
G01*
G37*
G36*
G01*
X243963750Y-119837500D02*
X244476250Y-119837500D01*
G75*
G02*
X244695000Y-120056250I0J-218750D01*
G01*
X244695000Y-120493750D01*
G75*
G02*
X244476250Y-120712500I-218750J0D01*
G01*
X243963750Y-120712500D01*
G75*
G02*
X243745000Y-120493750I0J218750D01*
G01*
X243745000Y-120056250D01*
G75*
G02*
X243963750Y-119837500I218750J0D01*
G01*
G37*
G04 #@! TD*
G04 #@! TO.C,C34*
G36*
G01*
X93963750Y-121412500D02*
X94476250Y-121412500D01*
G75*
G02*
X94695000Y-121631250I0J-218750D01*
G01*
X94695000Y-122068750D01*
G75*
G02*
X94476250Y-122287500I-218750J0D01*
G01*
X93963750Y-122287500D01*
G75*
G02*
X93745000Y-122068750I0J218750D01*
G01*
X93745000Y-121631250D01*
G75*
G02*
X93963750Y-121412500I218750J0D01*
G01*
G37*
G36*
G01*
X93963750Y-119837500D02*
X94476250Y-119837500D01*
G75*
G02*
X94695000Y-120056250I0J-218750D01*
G01*
X94695000Y-120493750D01*
G75*
G02*
X94476250Y-120712500I-218750J0D01*
G01*
X93963750Y-120712500D01*
G75*
G02*
X93745000Y-120493750I0J218750D01*
G01*
X93745000Y-120056250D01*
G75*
G02*
X93963750Y-119837500I218750J0D01*
G01*
G37*
G04 #@! TD*
G04 #@! TO.C,C33*
G36*
G01*
X158826250Y-124050000D02*
X158313750Y-124050000D01*
G75*
G02*
X158095000Y-123831250I0J218750D01*
G01*
X158095000Y-123393750D01*
G75*
G02*
X158313750Y-123175000I218750J0D01*
G01*
X158826250Y-123175000D01*
G75*
G02*
X159045000Y-123393750I0J-218750D01*
G01*
X159045000Y-123831250D01*
G75*
G02*
X158826250Y-124050000I-218750J0D01*
G01*
G37*
G36*
G01*
X158826250Y-125625000D02*
X158313750Y-125625000D01*
G75*
G02*
X158095000Y-125406250I0J218750D01*
G01*
X158095000Y-124968750D01*
G75*
G02*
X158313750Y-124750000I218750J0D01*
G01*
X158826250Y-124750000D01*
G75*
G02*
X159045000Y-124968750I0J-218750D01*
G01*
X159045000Y-125406250D01*
G75*
G02*
X158826250Y-125625000I-218750J0D01*
G01*
G37*
G04 #@! TD*
G04 #@! TO.C,C35*
G36*
G01*
X166570000Y-120556250D02*
X166570000Y-120043750D01*
G75*
G02*
X166788750Y-119825000I218750J0D01*
G01*
X167226250Y-119825000D01*
G75*
G02*
X167445000Y-120043750I0J-218750D01*
G01*
X167445000Y-120556250D01*
G75*
G02*
X167226250Y-120775000I-218750J0D01*
G01*
X166788750Y-120775000D01*
G75*
G02*
X166570000Y-120556250I0J218750D01*
G01*
G37*
G36*
G01*
X164995000Y-120556250D02*
X164995000Y-120043750D01*
G75*
G02*
X165213750Y-119825000I218750J0D01*
G01*
X165651250Y-119825000D01*
G75*
G02*
X165870000Y-120043750I0J-218750D01*
G01*
X165870000Y-120556250D01*
G75*
G02*
X165651250Y-120775000I-218750J0D01*
G01*
X165213750Y-120775000D01*
G75*
G02*
X164995000Y-120556250I0J218750D01*
G01*
G37*
G04 #@! TD*
G04 #@! TO.C,C33*
G36*
G01*
X233826250Y-124050000D02*
X233313750Y-124050000D01*
G75*
G02*
X233095000Y-123831250I0J218750D01*
G01*
X233095000Y-123393750D01*
G75*
G02*
X233313750Y-123175000I218750J0D01*
G01*
X233826250Y-123175000D01*
G75*
G02*
X234045000Y-123393750I0J-218750D01*
G01*
X234045000Y-123831250D01*
G75*
G02*
X233826250Y-124050000I-218750J0D01*
G01*
G37*
G36*
G01*
X233826250Y-125625000D02*
X233313750Y-125625000D01*
G75*
G02*
X233095000Y-125406250I0J218750D01*
G01*
X233095000Y-124968750D01*
G75*
G02*
X233313750Y-124750000I218750J0D01*
G01*
X233826250Y-124750000D01*
G75*
G02*
X234045000Y-124968750I0J-218750D01*
G01*
X234045000Y-125406250D01*
G75*
G02*
X233826250Y-125625000I-218750J0D01*
G01*
G37*
G04 #@! TD*
G04 #@! TO.C,C35*
G36*
G01*
X241570000Y-120556250D02*
X241570000Y-120043750D01*
G75*
G02*
X241788750Y-119825000I218750J0D01*
G01*
X242226250Y-119825000D01*
G75*
G02*
X242445000Y-120043750I0J-218750D01*
G01*
X242445000Y-120556250D01*
G75*
G02*
X242226250Y-120775000I-218750J0D01*
G01*
X241788750Y-120775000D01*
G75*
G02*
X241570000Y-120556250I0J218750D01*
G01*
G37*
G36*
G01*
X239995000Y-120556250D02*
X239995000Y-120043750D01*
G75*
G02*
X240213750Y-119825000I218750J0D01*
G01*
X240651250Y-119825000D01*
G75*
G02*
X240870000Y-120043750I0J-218750D01*
G01*
X240870000Y-120556250D01*
G75*
G02*
X240651250Y-120775000I-218750J0D01*
G01*
X240213750Y-120775000D01*
G75*
G02*
X239995000Y-120556250I0J218750D01*
G01*
G37*
G04 #@! TD*
G04 #@! TO.C,C34*
G36*
G01*
X168963750Y-121412500D02*
X169476250Y-121412500D01*
G75*
G02*
X169695000Y-121631250I0J-218750D01*
G01*
X169695000Y-122068750D01*
G75*
G02*
X169476250Y-122287500I-218750J0D01*
G01*
X168963750Y-122287500D01*
G75*
G02*
X168745000Y-122068750I0J218750D01*
G01*
X168745000Y-121631250D01*
G75*
G02*
X168963750Y-121412500I218750J0D01*
G01*
G37*
G36*
G01*
X168963750Y-119837500D02*
X169476250Y-119837500D01*
G75*
G02*
X169695000Y-120056250I0J-218750D01*
G01*
X169695000Y-120493750D01*
G75*
G02*
X169476250Y-120712500I-218750J0D01*
G01*
X168963750Y-120712500D01*
G75*
G02*
X168745000Y-120493750I0J218750D01*
G01*
X168745000Y-120056250D01*
G75*
G02*
X168963750Y-119837500I218750J0D01*
G01*
G37*
G04 #@! TD*
G04 #@! TO.C,C35*
G36*
G01*
X91570000Y-120556250D02*
X91570000Y-120043750D01*
G75*
G02*
X91788750Y-119825000I218750J0D01*
G01*
X92226250Y-119825000D01*
G75*
G02*
X92445000Y-120043750I0J-218750D01*
G01*
X92445000Y-120556250D01*
G75*
G02*
X92226250Y-120775000I-218750J0D01*
G01*
X91788750Y-120775000D01*
G75*
G02*
X91570000Y-120556250I0J218750D01*
G01*
G37*
G36*
G01*
X89995000Y-120556250D02*
X89995000Y-120043750D01*
G75*
G02*
X90213750Y-119825000I218750J0D01*
G01*
X90651250Y-119825000D01*
G75*
G02*
X90870000Y-120043750I0J-218750D01*
G01*
X90870000Y-120556250D01*
G75*
G02*
X90651250Y-120775000I-218750J0D01*
G01*
X90213750Y-120775000D01*
G75*
G02*
X89995000Y-120556250I0J218750D01*
G01*
G37*
G04 #@! TD*
G04 #@! TO.C,C32*
G36*
G01*
X162982500Y-120556250D02*
X162982500Y-120043750D01*
G75*
G02*
X163201250Y-119825000I218750J0D01*
G01*
X163638750Y-119825000D01*
G75*
G02*
X163857500Y-120043750I0J-218750D01*
G01*
X163857500Y-120556250D01*
G75*
G02*
X163638750Y-120775000I-218750J0D01*
G01*
X163201250Y-120775000D01*
G75*
G02*
X162982500Y-120556250I0J218750D01*
G01*
G37*
G36*
G01*
X161407500Y-120556250D02*
X161407500Y-120043750D01*
G75*
G02*
X161626250Y-119825000I218750J0D01*
G01*
X162063750Y-119825000D01*
G75*
G02*
X162282500Y-120043750I0J-218750D01*
G01*
X162282500Y-120556250D01*
G75*
G02*
X162063750Y-120775000I-218750J0D01*
G01*
X161626250Y-120775000D01*
G75*
G02*
X161407500Y-120556250I0J218750D01*
G01*
G37*
G04 #@! TD*
G04 #@! TO.C,C32*
G36*
G01*
X237982500Y-120556250D02*
X237982500Y-120043750D01*
G75*
G02*
X238201250Y-119825000I218750J0D01*
G01*
X238638750Y-119825000D01*
G75*
G02*
X238857500Y-120043750I0J-218750D01*
G01*
X238857500Y-120556250D01*
G75*
G02*
X238638750Y-120775000I-218750J0D01*
G01*
X238201250Y-120775000D01*
G75*
G02*
X237982500Y-120556250I0J218750D01*
G01*
G37*
G36*
G01*
X236407500Y-120556250D02*
X236407500Y-120043750D01*
G75*
G02*
X236626250Y-119825000I218750J0D01*
G01*
X237063750Y-119825000D01*
G75*
G02*
X237282500Y-120043750I0J-218750D01*
G01*
X237282500Y-120556250D01*
G75*
G02*
X237063750Y-120775000I-218750J0D01*
G01*
X236626250Y-120775000D01*
G75*
G02*
X236407500Y-120556250I0J218750D01*
G01*
G37*
G04 #@! TD*
G04 #@! TO.C,C32*
G36*
G01*
X87982500Y-120556250D02*
X87982500Y-120043750D01*
G75*
G02*
X88201250Y-119825000I218750J0D01*
G01*
X88638750Y-119825000D01*
G75*
G02*
X88857500Y-120043750I0J-218750D01*
G01*
X88857500Y-120556250D01*
G75*
G02*
X88638750Y-120775000I-218750J0D01*
G01*
X88201250Y-120775000D01*
G75*
G02*
X87982500Y-120556250I0J218750D01*
G01*
G37*
G36*
G01*
X86407500Y-120556250D02*
X86407500Y-120043750D01*
G75*
G02*
X86626250Y-119825000I218750J0D01*
G01*
X87063750Y-119825000D01*
G75*
G02*
X87282500Y-120043750I0J-218750D01*
G01*
X87282500Y-120556250D01*
G75*
G02*
X87063750Y-120775000I-218750J0D01*
G01*
X86626250Y-120775000D01*
G75*
G02*
X86407500Y-120556250I0J218750D01*
G01*
G37*
G04 #@! TD*
D32*
G04 #@! TO.C,BT1*
X279170000Y-60230000D03*
X279170000Y-76030000D03*
G04 #@! TD*
G04 #@! TO.C,BT1*
X129170000Y-60230000D03*
X129170000Y-76030000D03*
G04 #@! TD*
G04 #@! TO.C,BT1*
X204170000Y-60230000D03*
X204170000Y-76030000D03*
G04 #@! TD*
D33*
G04 #@! TO.C,J1*
X261370000Y-112200000D03*
G36*
G01*
X260744999Y-109600000D02*
X261995001Y-109600000D01*
G75*
G02*
X262245000Y-109849999I0J-249999D01*
G01*
X262245000Y-110550001D01*
G75*
G02*
X261995001Y-110800000I-249999J0D01*
G01*
X260744999Y-110800000D01*
G75*
G02*
X260495000Y-110550001I0J249999D01*
G01*
X260495000Y-109849999D01*
G75*
G02*
X260744999Y-109600000I249999J0D01*
G01*
G37*
G04 #@! TD*
G04 #@! TO.C,J1*
X186370000Y-112200000D03*
G36*
G01*
X185744999Y-109600000D02*
X186995001Y-109600000D01*
G75*
G02*
X187245000Y-109849999I0J-249999D01*
G01*
X187245000Y-110550001D01*
G75*
G02*
X186995001Y-110800000I-249999J0D01*
G01*
X185744999Y-110800000D01*
G75*
G02*
X185495000Y-110550001I0J249999D01*
G01*
X185495000Y-109849999D01*
G75*
G02*
X185744999Y-109600000I249999J0D01*
G01*
G37*
G04 #@! TD*
G04 #@! TO.C,D3*
G36*
G01*
X232945001Y-127745000D02*
X230794999Y-127745000D01*
G75*
G02*
X230545000Y-127495001I0J249999D01*
G01*
X230545000Y-126644999D01*
G75*
G02*
X230794999Y-126395000I249999J0D01*
G01*
X232945001Y-126395000D01*
G75*
G02*
X233195000Y-126644999I0J-249999D01*
G01*
X233195000Y-127495001D01*
G75*
G02*
X232945001Y-127745000I-249999J0D01*
G01*
G37*
G36*
G01*
X232945001Y-132245000D02*
X230794999Y-132245000D01*
G75*
G02*
X230545000Y-131995001I0J249999D01*
G01*
X230545000Y-131144999D01*
G75*
G02*
X230794999Y-130895000I249999J0D01*
G01*
X232945001Y-130895000D01*
G75*
G02*
X233195000Y-131144999I0J-249999D01*
G01*
X233195000Y-131995001D01*
G75*
G02*
X232945001Y-132245000I-249999J0D01*
G01*
G37*
G04 #@! TD*
G04 #@! TO.C,D3*
G36*
G01*
X157945001Y-127745000D02*
X155794999Y-127745000D01*
G75*
G02*
X155545000Y-127495001I0J249999D01*
G01*
X155545000Y-126644999D01*
G75*
G02*
X155794999Y-126395000I249999J0D01*
G01*
X157945001Y-126395000D01*
G75*
G02*
X158195000Y-126644999I0J-249999D01*
G01*
X158195000Y-127495001D01*
G75*
G02*
X157945001Y-127745000I-249999J0D01*
G01*
G37*
G36*
G01*
X157945001Y-132245000D02*
X155794999Y-132245000D01*
G75*
G02*
X155545000Y-131995001I0J249999D01*
G01*
X155545000Y-131144999D01*
G75*
G02*
X155794999Y-130895000I249999J0D01*
G01*
X157945001Y-130895000D01*
G75*
G02*
X158195000Y-131144999I0J-249999D01*
G01*
X158195000Y-131995001D01*
G75*
G02*
X157945001Y-132245000I-249999J0D01*
G01*
G37*
G04 #@! TD*
G04 #@! TO.C,D3*
G36*
G01*
X82945001Y-127745000D02*
X80794999Y-127745000D01*
G75*
G02*
X80545000Y-127495001I0J249999D01*
G01*
X80545000Y-126644999D01*
G75*
G02*
X80794999Y-126395000I249999J0D01*
G01*
X82945001Y-126395000D01*
G75*
G02*
X83195000Y-126644999I0J-249999D01*
G01*
X83195000Y-127495001D01*
G75*
G02*
X82945001Y-127745000I-249999J0D01*
G01*
G37*
G36*
G01*
X82945001Y-132245000D02*
X80794999Y-132245000D01*
G75*
G02*
X80545000Y-131995001I0J249999D01*
G01*
X80545000Y-131144999D01*
G75*
G02*
X80794999Y-130895000I249999J0D01*
G01*
X82945001Y-130895000D01*
G75*
G02*
X83195000Y-131144999I0J-249999D01*
G01*
X83195000Y-131995001D01*
G75*
G02*
X82945001Y-132245000I-249999J0D01*
G01*
G37*
G04 #@! TD*
G04 #@! TO.C,J1*
X111370000Y-112200000D03*
G36*
G01*
X110744999Y-109600000D02*
X111995001Y-109600000D01*
G75*
G02*
X112245000Y-109849999I0J-249999D01*
G01*
X112245000Y-110550001D01*
G75*
G02*
X111995001Y-110800000I-249999J0D01*
G01*
X110744999Y-110800000D01*
G75*
G02*
X110495000Y-110550001I0J249999D01*
G01*
X110495000Y-109849999D01*
G75*
G02*
X110744999Y-109600000I249999J0D01*
G01*
G37*
G04 #@! TD*
D11*
G04 #@! TO.C,K1*
X-7350000Y-130180000D03*
X-7350000Y-140380000D03*
X2650000Y-140380000D03*
X2650000Y-130180000D03*
X-2350000Y-127680000D03*
G04 #@! TD*
D13*
G04 #@! TO.C,CN1*
X7420000Y-144250000D03*
D12*
X7420000Y-147250000D03*
X10450000Y-144220000D03*
X10420000Y-147250000D03*
X13450000Y-144220000D03*
X13420000Y-147250000D03*
X16450000Y-144220000D03*
X16420000Y-147250000D03*
X19450000Y-144220000D03*
X19420000Y-147250000D03*
X22450000Y-144220000D03*
X22420000Y-147250000D03*
X25450000Y-144220000D03*
X25420000Y-147250000D03*
X28450000Y-144220000D03*
X28420000Y-147250000D03*
X31450000Y-144220000D03*
X31420000Y-147250000D03*
G04 #@! TD*
D15*
G04 #@! TO.C,K2*
X140000Y-122080000D03*
D14*
X-5860000Y-124080000D03*
X-5860000Y-136280000D03*
X6140000Y-136280000D03*
X6140000Y-124080000D03*
G04 #@! TD*
D16*
G04 #@! TO.C,F1*
X15610000Y-140170000D03*
X10510000Y-138570000D03*
G04 #@! TD*
D13*
G04 #@! TO.C,J7*
X49470000Y-57780000D03*
D12*
X46930000Y-57780000D03*
X44390000Y-57780000D03*
G04 #@! TD*
G04 #@! TO.C,R40*
G36*
G01*
X31295000Y-86743750D02*
X31295000Y-87256250D01*
G75*
G02*
X31076250Y-87475000I-218750J0D01*
G01*
X30638750Y-87475000D01*
G75*
G02*
X30420000Y-87256250I0J218750D01*
G01*
X30420000Y-86743750D01*
G75*
G02*
X30638750Y-86525000I218750J0D01*
G01*
X31076250Y-86525000D01*
G75*
G02*
X31295000Y-86743750I0J-218750D01*
G01*
G37*
G36*
G01*
X29720000Y-86743750D02*
X29720000Y-87256250D01*
G75*
G02*
X29501250Y-87475000I-218750J0D01*
G01*
X29063750Y-87475000D01*
G75*
G02*
X28845000Y-87256250I0J218750D01*
G01*
X28845000Y-86743750D01*
G75*
G02*
X29063750Y-86525000I218750J0D01*
G01*
X29501250Y-86525000D01*
G75*
G02*
X29720000Y-86743750I0J-218750D01*
G01*
G37*
G04 #@! TD*
G04 #@! TO.C,R42*
G36*
G01*
X-4536250Y-117102500D02*
X-4023750Y-117102500D01*
G75*
G02*
X-3805000Y-117321250I0J-218750D01*
G01*
X-3805000Y-117758750D01*
G75*
G02*
X-4023750Y-117977500I-218750J0D01*
G01*
X-4536250Y-117977500D01*
G75*
G02*
X-4755000Y-117758750I0J218750D01*
G01*
X-4755000Y-117321250D01*
G75*
G02*
X-4536250Y-117102500I218750J0D01*
G01*
G37*
G36*
G01*
X-4536250Y-118677500D02*
X-4023750Y-118677500D01*
G75*
G02*
X-3805000Y-118896250I0J-218750D01*
G01*
X-3805000Y-119333750D01*
G75*
G02*
X-4023750Y-119552500I-218750J0D01*
G01*
X-4536250Y-119552500D01*
G75*
G02*
X-4755000Y-119333750I0J218750D01*
G01*
X-4755000Y-118896250D01*
G75*
G02*
X-4536250Y-118677500I218750J0D01*
G01*
G37*
G04 #@! TD*
G04 #@! TO.C,R38*
G36*
G01*
X44213750Y-114162500D02*
X44726250Y-114162500D01*
G75*
G02*
X44945000Y-114381250I0J-218750D01*
G01*
X44945000Y-114818750D01*
G75*
G02*
X44726250Y-115037500I-218750J0D01*
G01*
X44213750Y-115037500D01*
G75*
G02*
X43995000Y-114818750I0J218750D01*
G01*
X43995000Y-114381250D01*
G75*
G02*
X44213750Y-114162500I218750J0D01*
G01*
G37*
G36*
G01*
X44213750Y-115737500D02*
X44726250Y-115737500D01*
G75*
G02*
X44945000Y-115956250I0J-218750D01*
G01*
X44945000Y-116393750D01*
G75*
G02*
X44726250Y-116612500I-218750J0D01*
G01*
X44213750Y-116612500D01*
G75*
G02*
X43995000Y-116393750I0J218750D01*
G01*
X43995000Y-115956250D01*
G75*
G02*
X44213750Y-115737500I218750J0D01*
G01*
G37*
G04 #@! TD*
G04 #@! TO.C,R47*
G36*
G01*
X19226250Y-131925000D02*
X18713750Y-131925000D01*
G75*
G02*
X18495000Y-131706250I0J218750D01*
G01*
X18495000Y-131268750D01*
G75*
G02*
X18713750Y-131050000I218750J0D01*
G01*
X19226250Y-131050000D01*
G75*
G02*
X19445000Y-131268750I0J-218750D01*
G01*
X19445000Y-131706250D01*
G75*
G02*
X19226250Y-131925000I-218750J0D01*
G01*
G37*
G36*
G01*
X19226250Y-130350000D02*
X18713750Y-130350000D01*
G75*
G02*
X18495000Y-130131250I0J218750D01*
G01*
X18495000Y-129693750D01*
G75*
G02*
X18713750Y-129475000I218750J0D01*
G01*
X19226250Y-129475000D01*
G75*
G02*
X19445000Y-129693750I0J-218750D01*
G01*
X19445000Y-130131250D01*
G75*
G02*
X19226250Y-130350000I-218750J0D01*
G01*
G37*
G04 #@! TD*
G04 #@! TO.C,R33*
G36*
G01*
X55282500Y-133743750D02*
X55282500Y-134256250D01*
G75*
G02*
X55063750Y-134475000I-218750J0D01*
G01*
X54626250Y-134475000D01*
G75*
G02*
X54407500Y-134256250I0J218750D01*
G01*
X54407500Y-133743750D01*
G75*
G02*
X54626250Y-133525000I218750J0D01*
G01*
X55063750Y-133525000D01*
G75*
G02*
X55282500Y-133743750I0J-218750D01*
G01*
G37*
G36*
G01*
X53707500Y-133743750D02*
X53707500Y-134256250D01*
G75*
G02*
X53488750Y-134475000I-218750J0D01*
G01*
X53051250Y-134475000D01*
G75*
G02*
X52832500Y-134256250I0J218750D01*
G01*
X52832500Y-133743750D01*
G75*
G02*
X53051250Y-133525000I218750J0D01*
G01*
X53488750Y-133525000D01*
G75*
G02*
X53707500Y-133743750I0J-218750D01*
G01*
G37*
G04 #@! TD*
G04 #@! TO.C,R30*
G36*
G01*
X58895000Y-135743750D02*
X58895000Y-136256250D01*
G75*
G02*
X58676250Y-136475000I-218750J0D01*
G01*
X58238750Y-136475000D01*
G75*
G02*
X58020000Y-136256250I0J218750D01*
G01*
X58020000Y-135743750D01*
G75*
G02*
X58238750Y-135525000I218750J0D01*
G01*
X58676250Y-135525000D01*
G75*
G02*
X58895000Y-135743750I0J-218750D01*
G01*
G37*
G36*
G01*
X57320000Y-135743750D02*
X57320000Y-136256250D01*
G75*
G02*
X57101250Y-136475000I-218750J0D01*
G01*
X56663750Y-136475000D01*
G75*
G02*
X56445000Y-136256250I0J218750D01*
G01*
X56445000Y-135743750D01*
G75*
G02*
X56663750Y-135525000I218750J0D01*
G01*
X57101250Y-135525000D01*
G75*
G02*
X57320000Y-135743750I0J-218750D01*
G01*
G37*
G04 #@! TD*
G04 #@! TO.C,R31*
G36*
G01*
X56445000Y-134256250D02*
X56445000Y-133743750D01*
G75*
G02*
X56663750Y-133525000I218750J0D01*
G01*
X57101250Y-133525000D01*
G75*
G02*
X57320000Y-133743750I0J-218750D01*
G01*
X57320000Y-134256250D01*
G75*
G02*
X57101250Y-134475000I-218750J0D01*
G01*
X56663750Y-134475000D01*
G75*
G02*
X56445000Y-134256250I0J218750D01*
G01*
G37*
G36*
G01*
X58020000Y-134256250D02*
X58020000Y-133743750D01*
G75*
G02*
X58238750Y-133525000I218750J0D01*
G01*
X58676250Y-133525000D01*
G75*
G02*
X58895000Y-133743750I0J-218750D01*
G01*
X58895000Y-134256250D01*
G75*
G02*
X58676250Y-134475000I-218750J0D01*
G01*
X58238750Y-134475000D01*
G75*
G02*
X58020000Y-134256250I0J218750D01*
G01*
G37*
G04 #@! TD*
G04 #@! TO.C,R36*
G36*
G01*
X34113750Y-137375000D02*
X34626250Y-137375000D01*
G75*
G02*
X34845000Y-137593750I0J-218750D01*
G01*
X34845000Y-138031250D01*
G75*
G02*
X34626250Y-138250000I-218750J0D01*
G01*
X34113750Y-138250000D01*
G75*
G02*
X33895000Y-138031250I0J218750D01*
G01*
X33895000Y-137593750D01*
G75*
G02*
X34113750Y-137375000I218750J0D01*
G01*
G37*
G36*
G01*
X34113750Y-138950000D02*
X34626250Y-138950000D01*
G75*
G02*
X34845000Y-139168750I0J-218750D01*
G01*
X34845000Y-139606250D01*
G75*
G02*
X34626250Y-139825000I-218750J0D01*
G01*
X34113750Y-139825000D01*
G75*
G02*
X33895000Y-139606250I0J218750D01*
G01*
X33895000Y-139168750D01*
G75*
G02*
X34113750Y-138950000I218750J0D01*
G01*
G37*
G04 #@! TD*
G04 #@! TO.C,R46*
G36*
G01*
X9513750Y-59175000D02*
X10026250Y-59175000D01*
G75*
G02*
X10245000Y-59393750I0J-218750D01*
G01*
X10245000Y-59831250D01*
G75*
G02*
X10026250Y-60050000I-218750J0D01*
G01*
X9513750Y-60050000D01*
G75*
G02*
X9295000Y-59831250I0J218750D01*
G01*
X9295000Y-59393750D01*
G75*
G02*
X9513750Y-59175000I218750J0D01*
G01*
G37*
G36*
G01*
X9513750Y-60750000D02*
X10026250Y-60750000D01*
G75*
G02*
X10245000Y-60968750I0J-218750D01*
G01*
X10245000Y-61406250D01*
G75*
G02*
X10026250Y-61625000I-218750J0D01*
G01*
X9513750Y-61625000D01*
G75*
G02*
X9295000Y-61406250I0J218750D01*
G01*
X9295000Y-60968750D01*
G75*
G02*
X9513750Y-60750000I218750J0D01*
G01*
G37*
G04 #@! TD*
G04 #@! TO.C,R32*
G36*
G01*
X55282500Y-135743750D02*
X55282500Y-136256250D01*
G75*
G02*
X55063750Y-136475000I-218750J0D01*
G01*
X54626250Y-136475000D01*
G75*
G02*
X54407500Y-136256250I0J218750D01*
G01*
X54407500Y-135743750D01*
G75*
G02*
X54626250Y-135525000I218750J0D01*
G01*
X55063750Y-135525000D01*
G75*
G02*
X55282500Y-135743750I0J-218750D01*
G01*
G37*
G36*
G01*
X53707500Y-135743750D02*
X53707500Y-136256250D01*
G75*
G02*
X53488750Y-136475000I-218750J0D01*
G01*
X53051250Y-136475000D01*
G75*
G02*
X52832500Y-136256250I0J218750D01*
G01*
X52832500Y-135743750D01*
G75*
G02*
X53051250Y-135525000I218750J0D01*
G01*
X53488750Y-135525000D01*
G75*
G02*
X53707500Y-135743750I0J-218750D01*
G01*
G37*
G04 #@! TD*
G04 #@! TO.C,R37*
G36*
G01*
X40013750Y-114162500D02*
X40526250Y-114162500D01*
G75*
G02*
X40745000Y-114381250I0J-218750D01*
G01*
X40745000Y-114818750D01*
G75*
G02*
X40526250Y-115037500I-218750J0D01*
G01*
X40013750Y-115037500D01*
G75*
G02*
X39795000Y-114818750I0J218750D01*
G01*
X39795000Y-114381250D01*
G75*
G02*
X40013750Y-114162500I218750J0D01*
G01*
G37*
G36*
G01*
X40013750Y-115737500D02*
X40526250Y-115737500D01*
G75*
G02*
X40745000Y-115956250I0J-218750D01*
G01*
X40745000Y-116393750D01*
G75*
G02*
X40526250Y-116612500I-218750J0D01*
G01*
X40013750Y-116612500D01*
G75*
G02*
X39795000Y-116393750I0J218750D01*
G01*
X39795000Y-115956250D01*
G75*
G02*
X40013750Y-115737500I218750J0D01*
G01*
G37*
G04 #@! TD*
G04 #@! TO.C,R39*
G36*
G01*
X42113750Y-114175000D02*
X42626250Y-114175000D01*
G75*
G02*
X42845000Y-114393750I0J-218750D01*
G01*
X42845000Y-114831250D01*
G75*
G02*
X42626250Y-115050000I-218750J0D01*
G01*
X42113750Y-115050000D01*
G75*
G02*
X41895000Y-114831250I0J218750D01*
G01*
X41895000Y-114393750D01*
G75*
G02*
X42113750Y-114175000I218750J0D01*
G01*
G37*
G36*
G01*
X42113750Y-115750000D02*
X42626250Y-115750000D01*
G75*
G02*
X42845000Y-115968750I0J-218750D01*
G01*
X42845000Y-116406250D01*
G75*
G02*
X42626250Y-116625000I-218750J0D01*
G01*
X42113750Y-116625000D01*
G75*
G02*
X41895000Y-116406250I0J218750D01*
G01*
X41895000Y-115968750D01*
G75*
G02*
X42113750Y-115750000I218750J0D01*
G01*
G37*
G04 #@! TD*
G04 #@! TO.C,C36*
G36*
G01*
X26195000Y-132743750D02*
X26195000Y-133256250D01*
G75*
G02*
X25976250Y-133475000I-218750J0D01*
G01*
X25538750Y-133475000D01*
G75*
G02*
X25320000Y-133256250I0J218750D01*
G01*
X25320000Y-132743750D01*
G75*
G02*
X25538750Y-132525000I218750J0D01*
G01*
X25976250Y-132525000D01*
G75*
G02*
X26195000Y-132743750I0J-218750D01*
G01*
G37*
G36*
G01*
X24620000Y-132743750D02*
X24620000Y-133256250D01*
G75*
G02*
X24401250Y-133475000I-218750J0D01*
G01*
X23963750Y-133475000D01*
G75*
G02*
X23745000Y-133256250I0J218750D01*
G01*
X23745000Y-132743750D01*
G75*
G02*
X23963750Y-132525000I218750J0D01*
G01*
X24401250Y-132525000D01*
G75*
G02*
X24620000Y-132743750I0J-218750D01*
G01*
G37*
G04 #@! TD*
G04 #@! TO.C,C33*
G36*
G01*
X8826250Y-125625000D02*
X8313750Y-125625000D01*
G75*
G02*
X8095000Y-125406250I0J218750D01*
G01*
X8095000Y-124968750D01*
G75*
G02*
X8313750Y-124750000I218750J0D01*
G01*
X8826250Y-124750000D01*
G75*
G02*
X9045000Y-124968750I0J-218750D01*
G01*
X9045000Y-125406250D01*
G75*
G02*
X8826250Y-125625000I-218750J0D01*
G01*
G37*
G36*
G01*
X8826250Y-124050000D02*
X8313750Y-124050000D01*
G75*
G02*
X8095000Y-123831250I0J218750D01*
G01*
X8095000Y-123393750D01*
G75*
G02*
X8313750Y-123175000I218750J0D01*
G01*
X8826250Y-123175000D01*
G75*
G02*
X9045000Y-123393750I0J-218750D01*
G01*
X9045000Y-123831250D01*
G75*
G02*
X8826250Y-124050000I-218750J0D01*
G01*
G37*
G04 #@! TD*
G04 #@! TO.C,C34*
G36*
G01*
X18963750Y-119837500D02*
X19476250Y-119837500D01*
G75*
G02*
X19695000Y-120056250I0J-218750D01*
G01*
X19695000Y-120493750D01*
G75*
G02*
X19476250Y-120712500I-218750J0D01*
G01*
X18963750Y-120712500D01*
G75*
G02*
X18745000Y-120493750I0J218750D01*
G01*
X18745000Y-120056250D01*
G75*
G02*
X18963750Y-119837500I218750J0D01*
G01*
G37*
G36*
G01*
X18963750Y-121412500D02*
X19476250Y-121412500D01*
G75*
G02*
X19695000Y-121631250I0J-218750D01*
G01*
X19695000Y-122068750D01*
G75*
G02*
X19476250Y-122287500I-218750J0D01*
G01*
X18963750Y-122287500D01*
G75*
G02*
X18745000Y-122068750I0J218750D01*
G01*
X18745000Y-121631250D01*
G75*
G02*
X18963750Y-121412500I218750J0D01*
G01*
G37*
G04 #@! TD*
G04 #@! TO.C,C35*
G36*
G01*
X14995000Y-120556250D02*
X14995000Y-120043750D01*
G75*
G02*
X15213750Y-119825000I218750J0D01*
G01*
X15651250Y-119825000D01*
G75*
G02*
X15870000Y-120043750I0J-218750D01*
G01*
X15870000Y-120556250D01*
G75*
G02*
X15651250Y-120775000I-218750J0D01*
G01*
X15213750Y-120775000D01*
G75*
G02*
X14995000Y-120556250I0J218750D01*
G01*
G37*
G36*
G01*
X16570000Y-120556250D02*
X16570000Y-120043750D01*
G75*
G02*
X16788750Y-119825000I218750J0D01*
G01*
X17226250Y-119825000D01*
G75*
G02*
X17445000Y-120043750I0J-218750D01*
G01*
X17445000Y-120556250D01*
G75*
G02*
X17226250Y-120775000I-218750J0D01*
G01*
X16788750Y-120775000D01*
G75*
G02*
X16570000Y-120556250I0J218750D01*
G01*
G37*
G04 #@! TD*
G04 #@! TO.C,C32*
G36*
G01*
X11407500Y-120556250D02*
X11407500Y-120043750D01*
G75*
G02*
X11626250Y-119825000I218750J0D01*
G01*
X12063750Y-119825000D01*
G75*
G02*
X12282500Y-120043750I0J-218750D01*
G01*
X12282500Y-120556250D01*
G75*
G02*
X12063750Y-120775000I-218750J0D01*
G01*
X11626250Y-120775000D01*
G75*
G02*
X11407500Y-120556250I0J218750D01*
G01*
G37*
G36*
G01*
X12982500Y-120556250D02*
X12982500Y-120043750D01*
G75*
G02*
X13201250Y-119825000I218750J0D01*
G01*
X13638750Y-119825000D01*
G75*
G02*
X13857500Y-120043750I0J-218750D01*
G01*
X13857500Y-120556250D01*
G75*
G02*
X13638750Y-120775000I-218750J0D01*
G01*
X13201250Y-120775000D01*
G75*
G02*
X12982500Y-120556250I0J218750D01*
G01*
G37*
G04 #@! TD*
D32*
G04 #@! TO.C,BT1*
X54170000Y-76030000D03*
X54170000Y-60230000D03*
G04 #@! TD*
G04 #@! TO.C,J1*
G36*
G01*
X35744999Y-109600000D02*
X36995001Y-109600000D01*
G75*
G02*
X37245000Y-109849999I0J-249999D01*
G01*
X37245000Y-110550001D01*
G75*
G02*
X36995001Y-110800000I-249999J0D01*
G01*
X35744999Y-110800000D01*
G75*
G02*
X35495000Y-110550001I0J249999D01*
G01*
X35495000Y-109849999D01*
G75*
G02*
X35744999Y-109600000I249999J0D01*
G01*
G37*
D33*
X36370000Y-112200000D03*
G04 #@! TD*
G04 #@! TO.C,D3*
G36*
G01*
X7945001Y-132245000D02*
X5794999Y-132245000D01*
G75*
G02*
X5545000Y-131995001I0J249999D01*
G01*
X5545000Y-131144999D01*
G75*
G02*
X5794999Y-130895000I249999J0D01*
G01*
X7945001Y-130895000D01*
G75*
G02*
X8195000Y-131144999I0J-249999D01*
G01*
X8195000Y-131995001D01*
G75*
G02*
X7945001Y-132245000I-249999J0D01*
G01*
G37*
G36*
G01*
X7945001Y-127745000D02*
X5794999Y-127745000D01*
G75*
G02*
X5545000Y-127495001I0J249999D01*
G01*
X5545000Y-126644999D01*
G75*
G02*
X5794999Y-126395000I249999J0D01*
G01*
X7945001Y-126395000D01*
G75*
G02*
X8195000Y-126644999I0J-249999D01*
G01*
X8195000Y-127495001D01*
G75*
G02*
X7945001Y-127745000I-249999J0D01*
G01*
G37*
G04 #@! TD*
D13*
G04 #@! TO.C,J8*
X28870000Y-59350000D03*
D12*
X26330000Y-59350000D03*
X23790000Y-59350000D03*
X21250000Y-59350000D03*
X18710000Y-59350000D03*
G04 #@! TD*
D26*
G04 #@! TO.C,J2*
X56470000Y-144900000D03*
X60870000Y-144900000D03*
G04 #@! TD*
G04 #@! TO.C,D20*
G36*
G01*
X-5025000Y-147985001D02*
X-5025000Y-145834999D01*
G75*
G02*
X-4775001Y-145585000I249999J0D01*
G01*
X-3924999Y-145585000D01*
G75*
G02*
X-3675000Y-145834999I0J-249999D01*
G01*
X-3675000Y-147985001D01*
G75*
G02*
X-3924999Y-148235000I-249999J0D01*
G01*
X-4775001Y-148235000D01*
G75*
G02*
X-5025000Y-147985001I0J249999D01*
G01*
G37*
G36*
G01*
X-525000Y-147985001D02*
X-525000Y-145834999D01*
G75*
G02*
X-275001Y-145585000I249999J0D01*
G01*
X575001Y-145585000D01*
G75*
G02*
X825000Y-145834999I0J-249999D01*
G01*
X825000Y-147985001D01*
G75*
G02*
X575001Y-148235000I-249999J0D01*
G01*
X-275001Y-148235000D01*
G75*
G02*
X-525000Y-147985001I0J249999D01*
G01*
G37*
G04 #@! TD*
D29*
G04 #@! TO.C,J5*
X48370000Y-145500000D03*
D28*
X45830000Y-142960000D03*
X45830000Y-148040000D03*
X50910000Y-148040000D03*
X50910000Y-142960000D03*
G04 #@! TD*
D31*
G04 #@! TO.C,J6*
X14420000Y-117600000D03*
X26870000Y-117600000D03*
X14420000Y-101200000D03*
X26870000Y-101200000D03*
D30*
X29320000Y-115550000D03*
X29320000Y-114270000D03*
X29320000Y-112990000D03*
X29320000Y-111710000D03*
X29320000Y-110430000D03*
X29320000Y-109150000D03*
G04 #@! TD*
D29*
G04 #@! TO.C,J4*
X39220000Y-145550000D03*
D28*
X36680000Y-143010000D03*
X36680000Y-148090000D03*
X41760000Y-148090000D03*
X41760000Y-143010000D03*
G04 #@! TD*
G04 #@! TO.C,R4*
G36*
G01*
X19163750Y-134425000D02*
X19676250Y-134425000D01*
G75*
G02*
X19895000Y-134643750I0J-218750D01*
G01*
X19895000Y-135081250D01*
G75*
G02*
X19676250Y-135300000I-218750J0D01*
G01*
X19163750Y-135300000D01*
G75*
G02*
X18945000Y-135081250I0J218750D01*
G01*
X18945000Y-134643750D01*
G75*
G02*
X19163750Y-134425000I218750J0D01*
G01*
G37*
G36*
G01*
X19163750Y-136000000D02*
X19676250Y-136000000D01*
G75*
G02*
X19895000Y-136218750I0J-218750D01*
G01*
X19895000Y-136656250D01*
G75*
G02*
X19676250Y-136875000I-218750J0D01*
G01*
X19163750Y-136875000D01*
G75*
G02*
X18945000Y-136656250I0J218750D01*
G01*
X18945000Y-136218750D01*
G75*
G02*
X19163750Y-136000000I218750J0D01*
G01*
G37*
G04 #@! TD*
D13*
G04 #@! TO.C,J9*
X13570000Y-72400000D03*
D12*
X13570000Y-69860000D03*
X13570000Y-67320000D03*
X13570000Y-64780000D03*
X13570000Y-62240000D03*
X13570000Y-59700000D03*
G04 #@! TD*
G04 #@! TO.C,R3*
G36*
G01*
X21526250Y-136825000D02*
X21013750Y-136825000D01*
G75*
G02*
X20795000Y-136606250I0J218750D01*
G01*
X20795000Y-136168750D01*
G75*
G02*
X21013750Y-135950000I218750J0D01*
G01*
X21526250Y-135950000D01*
G75*
G02*
X21745000Y-136168750I0J-218750D01*
G01*
X21745000Y-136606250D01*
G75*
G02*
X21526250Y-136825000I-218750J0D01*
G01*
G37*
G36*
G01*
X21526250Y-135250000D02*
X21013750Y-135250000D01*
G75*
G02*
X20795000Y-135031250I0J218750D01*
G01*
X20795000Y-134593750D01*
G75*
G02*
X21013750Y-134375000I218750J0D01*
G01*
X21526250Y-134375000D01*
G75*
G02*
X21745000Y-134593750I0J-218750D01*
G01*
X21745000Y-135031250D01*
G75*
G02*
X21526250Y-135250000I-218750J0D01*
G01*
G37*
G04 #@! TD*
D17*
G04 #@! TO.C,Q6*
X10240000Y-119770000D03*
X10240000Y-121670000D03*
X8240000Y-120720000D03*
G04 #@! TD*
G04 #@! TO.C,R51*
G36*
G01*
X32695000Y-129643750D02*
X32695000Y-130156250D01*
G75*
G02*
X32476250Y-130375000I-218750J0D01*
G01*
X32038750Y-130375000D01*
G75*
G02*
X31820000Y-130156250I0J218750D01*
G01*
X31820000Y-129643750D01*
G75*
G02*
X32038750Y-129425000I218750J0D01*
G01*
X32476250Y-129425000D01*
G75*
G02*
X32695000Y-129643750I0J-218750D01*
G01*
G37*
G36*
G01*
X31120000Y-129643750D02*
X31120000Y-130156250D01*
G75*
G02*
X30901250Y-130375000I-218750J0D01*
G01*
X30463750Y-130375000D01*
G75*
G02*
X30245000Y-130156250I0J218750D01*
G01*
X30245000Y-129643750D01*
G75*
G02*
X30463750Y-129425000I218750J0D01*
G01*
X30901250Y-129425000D01*
G75*
G02*
X31120000Y-129643750I0J-218750D01*
G01*
G37*
G04 #@! TD*
G04 #@! TO.C,U10*
G36*
G01*
X7025000Y-65750000D02*
X6725000Y-65750000D01*
G75*
G02*
X6575000Y-65600000I0J150000D01*
G01*
X6575000Y-63950000D01*
G75*
G02*
X6725000Y-63800000I150000J0D01*
G01*
X7025000Y-63800000D01*
G75*
G02*
X7175000Y-63950000I0J-150000D01*
G01*
X7175000Y-65600000D01*
G75*
G02*
X7025000Y-65750000I-150000J0D01*
G01*
G37*
G36*
G01*
X5755000Y-65750000D02*
X5455000Y-65750000D01*
G75*
G02*
X5305000Y-65600000I0J150000D01*
G01*
X5305000Y-63950000D01*
G75*
G02*
X5455000Y-63800000I150000J0D01*
G01*
X5755000Y-63800000D01*
G75*
G02*
X5905000Y-63950000I0J-150000D01*
G01*
X5905000Y-65600000D01*
G75*
G02*
X5755000Y-65750000I-150000J0D01*
G01*
G37*
G36*
G01*
X4485000Y-65750000D02*
X4185000Y-65750000D01*
G75*
G02*
X4035000Y-65600000I0J150000D01*
G01*
X4035000Y-63950000D01*
G75*
G02*
X4185000Y-63800000I150000J0D01*
G01*
X4485000Y-63800000D01*
G75*
G02*
X4635000Y-63950000I0J-150000D01*
G01*
X4635000Y-65600000D01*
G75*
G02*
X4485000Y-65750000I-150000J0D01*
G01*
G37*
G36*
G01*
X3215000Y-65750000D02*
X2915000Y-65750000D01*
G75*
G02*
X2765000Y-65600000I0J150000D01*
G01*
X2765000Y-63950000D01*
G75*
G02*
X2915000Y-63800000I150000J0D01*
G01*
X3215000Y-63800000D01*
G75*
G02*
X3365000Y-63950000I0J-150000D01*
G01*
X3365000Y-65600000D01*
G75*
G02*
X3215000Y-65750000I-150000J0D01*
G01*
G37*
G36*
G01*
X3215000Y-60800000D02*
X2915000Y-60800000D01*
G75*
G02*
X2765000Y-60650000I0J150000D01*
G01*
X2765000Y-59000000D01*
G75*
G02*
X2915000Y-58850000I150000J0D01*
G01*
X3215000Y-58850000D01*
G75*
G02*
X3365000Y-59000000I0J-150000D01*
G01*
X3365000Y-60650000D01*
G75*
G02*
X3215000Y-60800000I-150000J0D01*
G01*
G37*
G36*
G01*
X4485000Y-60800000D02*
X4185000Y-60800000D01*
G75*
G02*
X4035000Y-60650000I0J150000D01*
G01*
X4035000Y-59000000D01*
G75*
G02*
X4185000Y-58850000I150000J0D01*
G01*
X4485000Y-58850000D01*
G75*
G02*
X4635000Y-59000000I0J-150000D01*
G01*
X4635000Y-60650000D01*
G75*
G02*
X4485000Y-60800000I-150000J0D01*
G01*
G37*
G36*
G01*
X5755000Y-60800000D02*
X5455000Y-60800000D01*
G75*
G02*
X5305000Y-60650000I0J150000D01*
G01*
X5305000Y-59000000D01*
G75*
G02*
X5455000Y-58850000I150000J0D01*
G01*
X5755000Y-58850000D01*
G75*
G02*
X5905000Y-59000000I0J-150000D01*
G01*
X5905000Y-60650000D01*
G75*
G02*
X5755000Y-60800000I-150000J0D01*
G01*
G37*
G36*
G01*
X7025000Y-60800000D02*
X6725000Y-60800000D01*
G75*
G02*
X6575000Y-60650000I0J150000D01*
G01*
X6575000Y-59000000D01*
G75*
G02*
X6725000Y-58850000I150000J0D01*
G01*
X7025000Y-58850000D01*
G75*
G02*
X7175000Y-59000000I0J-150000D01*
G01*
X7175000Y-60650000D01*
G75*
G02*
X7025000Y-60800000I-150000J0D01*
G01*
G37*
G04 #@! TD*
G04 #@! TO.C,R52*
G36*
G01*
X32695000Y-125343750D02*
X32695000Y-125856250D01*
G75*
G02*
X32476250Y-126075000I-218750J0D01*
G01*
X32038750Y-126075000D01*
G75*
G02*
X31820000Y-125856250I0J218750D01*
G01*
X31820000Y-125343750D01*
G75*
G02*
X32038750Y-125125000I218750J0D01*
G01*
X32476250Y-125125000D01*
G75*
G02*
X32695000Y-125343750I0J-218750D01*
G01*
G37*
G36*
G01*
X31120000Y-125343750D02*
X31120000Y-125856250D01*
G75*
G02*
X30901250Y-126075000I-218750J0D01*
G01*
X30463750Y-126075000D01*
G75*
G02*
X30245000Y-125856250I0J218750D01*
G01*
X30245000Y-125343750D01*
G75*
G02*
X30463750Y-125125000I218750J0D01*
G01*
X30901250Y-125125000D01*
G75*
G02*
X31120000Y-125343750I0J-218750D01*
G01*
G37*
G04 #@! TD*
D18*
G04 #@! TO.C,U9*
X12095000Y-123562000D03*
X12745000Y-123562000D03*
X13395000Y-123562000D03*
X14045000Y-123562000D03*
X14695000Y-123562000D03*
X15345000Y-123562000D03*
X15995000Y-123562000D03*
X16645000Y-123562000D03*
X16645000Y-129438000D03*
X15995000Y-129438000D03*
X15345000Y-129438000D03*
X14695000Y-129438000D03*
X14045000Y-129438000D03*
X13395000Y-129438000D03*
X12745000Y-129438000D03*
X12095000Y-129438000D03*
G04 #@! TD*
G04 #@! TO.C,R50*
G36*
G01*
X27245000Y-133256250D02*
X27245000Y-132743750D01*
G75*
G02*
X27463750Y-132525000I218750J0D01*
G01*
X27901250Y-132525000D01*
G75*
G02*
X28120000Y-132743750I0J-218750D01*
G01*
X28120000Y-133256250D01*
G75*
G02*
X27901250Y-133475000I-218750J0D01*
G01*
X27463750Y-133475000D01*
G75*
G02*
X27245000Y-133256250I0J218750D01*
G01*
G37*
G36*
G01*
X28820000Y-133256250D02*
X28820000Y-132743750D01*
G75*
G02*
X29038750Y-132525000I218750J0D01*
G01*
X29476250Y-132525000D01*
G75*
G02*
X29695000Y-132743750I0J-218750D01*
G01*
X29695000Y-133256250D01*
G75*
G02*
X29476250Y-133475000I-218750J0D01*
G01*
X29038750Y-133475000D01*
G75*
G02*
X28820000Y-133256250I0J218750D01*
G01*
G37*
G04 #@! TD*
G04 #@! TO.C,R53*
G36*
G01*
X30245000Y-128006250D02*
X30245000Y-127493750D01*
G75*
G02*
X30463750Y-127275000I218750J0D01*
G01*
X30901250Y-127275000D01*
G75*
G02*
X31120000Y-127493750I0J-218750D01*
G01*
X31120000Y-128006250D01*
G75*
G02*
X30901250Y-128225000I-218750J0D01*
G01*
X30463750Y-128225000D01*
G75*
G02*
X30245000Y-128006250I0J218750D01*
G01*
G37*
G36*
G01*
X31820000Y-128006250D02*
X31820000Y-127493750D01*
G75*
G02*
X32038750Y-127275000I218750J0D01*
G01*
X32476250Y-127275000D01*
G75*
G02*
X32695000Y-127493750I0J-218750D01*
G01*
X32695000Y-128006250D01*
G75*
G02*
X32476250Y-128225000I-218750J0D01*
G01*
X32038750Y-128225000D01*
G75*
G02*
X31820000Y-128006250I0J218750D01*
G01*
G37*
G04 #@! TD*
G04 #@! TO.C,R49*
G36*
G01*
X20613750Y-129475000D02*
X21126250Y-129475000D01*
G75*
G02*
X21345000Y-129693750I0J-218750D01*
G01*
X21345000Y-130131250D01*
G75*
G02*
X21126250Y-130350000I-218750J0D01*
G01*
X20613750Y-130350000D01*
G75*
G02*
X20395000Y-130131250I0J218750D01*
G01*
X20395000Y-129693750D01*
G75*
G02*
X20613750Y-129475000I218750J0D01*
G01*
G37*
G36*
G01*
X20613750Y-131050000D02*
X21126250Y-131050000D01*
G75*
G02*
X21345000Y-131268750I0J-218750D01*
G01*
X21345000Y-131706250D01*
G75*
G02*
X21126250Y-131925000I-218750J0D01*
G01*
X20613750Y-131925000D01*
G75*
G02*
X20395000Y-131706250I0J218750D01*
G01*
X20395000Y-131268750D01*
G75*
G02*
X20613750Y-131050000I218750J0D01*
G01*
G37*
G04 #@! TD*
D20*
G04 #@! TO.C,U1*
X-4730000Y-115300000D03*
D19*
X-4730000Y-112760000D03*
X-4730000Y-110220000D03*
G04 #@! TD*
G04 #@! TO.C,U12*
G36*
G01*
X30470000Y-65945000D02*
X30470000Y-66245000D01*
G75*
G02*
X30320000Y-66395000I-150000J0D01*
G01*
X29020000Y-66395000D01*
G75*
G02*
X28870000Y-66245000I0J150000D01*
G01*
X28870000Y-65945000D01*
G75*
G02*
X29020000Y-65795000I150000J0D01*
G01*
X30320000Y-65795000D01*
G75*
G02*
X30470000Y-65945000I0J-150000D01*
G01*
G37*
G36*
G01*
X30470000Y-67215000D02*
X30470000Y-67515000D01*
G75*
G02*
X30320000Y-67665000I-150000J0D01*
G01*
X29020000Y-67665000D01*
G75*
G02*
X28870000Y-67515000I0J150000D01*
G01*
X28870000Y-67215000D01*
G75*
G02*
X29020000Y-67065000I150000J0D01*
G01*
X30320000Y-67065000D01*
G75*
G02*
X30470000Y-67215000I0J-150000D01*
G01*
G37*
G36*
G01*
X30470000Y-68485000D02*
X30470000Y-68785000D01*
G75*
G02*
X30320000Y-68935000I-150000J0D01*
G01*
X29020000Y-68935000D01*
G75*
G02*
X28870000Y-68785000I0J150000D01*
G01*
X28870000Y-68485000D01*
G75*
G02*
X29020000Y-68335000I150000J0D01*
G01*
X30320000Y-68335000D01*
G75*
G02*
X30470000Y-68485000I0J-150000D01*
G01*
G37*
G36*
G01*
X30470000Y-69755000D02*
X30470000Y-70055000D01*
G75*
G02*
X30320000Y-70205000I-150000J0D01*
G01*
X29020000Y-70205000D01*
G75*
G02*
X28870000Y-70055000I0J150000D01*
G01*
X28870000Y-69755000D01*
G75*
G02*
X29020000Y-69605000I150000J0D01*
G01*
X30320000Y-69605000D01*
G75*
G02*
X30470000Y-69755000I0J-150000D01*
G01*
G37*
G36*
G01*
X23270000Y-69755000D02*
X23270000Y-70055000D01*
G75*
G02*
X23120000Y-70205000I-150000J0D01*
G01*
X21820000Y-70205000D01*
G75*
G02*
X21670000Y-70055000I0J150000D01*
G01*
X21670000Y-69755000D01*
G75*
G02*
X21820000Y-69605000I150000J0D01*
G01*
X23120000Y-69605000D01*
G75*
G02*
X23270000Y-69755000I0J-150000D01*
G01*
G37*
G36*
G01*
X23270000Y-68485000D02*
X23270000Y-68785000D01*
G75*
G02*
X23120000Y-68935000I-150000J0D01*
G01*
X21820000Y-68935000D01*
G75*
G02*
X21670000Y-68785000I0J150000D01*
G01*
X21670000Y-68485000D01*
G75*
G02*
X21820000Y-68335000I150000J0D01*
G01*
X23120000Y-68335000D01*
G75*
G02*
X23270000Y-68485000I0J-150000D01*
G01*
G37*
G36*
G01*
X23270000Y-67215000D02*
X23270000Y-67515000D01*
G75*
G02*
X23120000Y-67665000I-150000J0D01*
G01*
X21820000Y-67665000D01*
G75*
G02*
X21670000Y-67515000I0J150000D01*
G01*
X21670000Y-67215000D01*
G75*
G02*
X21820000Y-67065000I150000J0D01*
G01*
X23120000Y-67065000D01*
G75*
G02*
X23270000Y-67215000I0J-150000D01*
G01*
G37*
G36*
G01*
X23270000Y-65945000D02*
X23270000Y-66245000D01*
G75*
G02*
X23120000Y-66395000I-150000J0D01*
G01*
X21820000Y-66395000D01*
G75*
G02*
X21670000Y-66245000I0J150000D01*
G01*
X21670000Y-65945000D01*
G75*
G02*
X21820000Y-65795000I150000J0D01*
G01*
X23120000Y-65795000D01*
G75*
G02*
X23270000Y-65945000I0J-150000D01*
G01*
G37*
G04 #@! TD*
D21*
G04 #@! TO.C,Y1*
X27770000Y-94500000D03*
X32650000Y-94500000D03*
G04 #@! TD*
D13*
G04 #@! TO.C,J3*
X55170000Y-138600000D03*
D12*
X57710000Y-138600000D03*
X60250000Y-138600000D03*
X62790000Y-138600000D03*
G04 #@! TD*
D22*
G04 #@! TO.C,D21*
X24920000Y-137100000D03*
X28220000Y-137100000D03*
G04 #@! TD*
D24*
G04 #@! TO.C,C10*
X11470000Y-78500000D03*
D23*
X11470000Y-81000000D03*
G04 #@! TD*
D24*
G04 #@! TO.C,C9*
X2070000Y-71600000D03*
D23*
X2070000Y-69100000D03*
G04 #@! TD*
D24*
G04 #@! TO.C,BZ1*
X43120000Y-65680000D03*
D23*
X35520000Y-65680000D03*
G04 #@! TD*
D25*
G04 #@! TO.C,U11*
X28325000Y-129911000D03*
X27055000Y-129911000D03*
X25785000Y-129911000D03*
X24515000Y-129911000D03*
X24515000Y-124489000D03*
X25785000Y-124489000D03*
X27055000Y-124489000D03*
X28325000Y-124489000D03*
G04 #@! TD*
D26*
G04 #@! TO.C,Y2*
X22270000Y-93400000D03*
X22270000Y-94900000D03*
G04 #@! TD*
D27*
G04 #@! TO.C,D1*
X17020000Y-134800000D03*
X17020000Y-138100000D03*
G04 #@! TD*
D34*
G04 #@! TO.C,REF\u002A\u002A*
X295000000Y-65000000D03*
G04 #@! TD*
G04 #@! TO.C,REF\u002A\u002A*
X294960000Y-140970000D03*
G04 #@! TD*
G04 #@! TO.C,REF\u002A\u002A*
X279960000Y-160970000D03*
G04 #@! TD*
G04 #@! TO.C,REF\u002A\u002A*
X-30000Y-160980000D03*
G04 #@! TD*
G04 #@! TO.C,REF\u002A\u002A*
X-15030000Y-140970000D03*
G04 #@! TD*
G04 #@! TO.C,REF\u002A\u002A*
X-15030000Y-64980000D03*
G04 #@! TD*
G04 #@! TO.C,REF\u002A\u002A*
X280000000Y-45000000D03*
G04 #@! TD*
G04 #@! TO.C,REF\u002A\u002A*
X-30000Y-44980000D03*
G04 #@! TD*
M02*
