%TF.GenerationSoftware,KiCad,Pcbnew,7.0.10*%
%TF.CreationDate,2025-03-06T04:49:44-08:00*%
%TF.ProjectId,Gov_tracker_Panel,476f765f-7472-4616-936b-65725f50616e,rev?*%
%TF.SameCoordinates,Original*%
%TF.FileFunction,Plated,1,2,PTH,Drill*%
%TF.FilePolarity,Positive*%
%FSLAX46Y46*%
G04 Gerber Fmt 4.6, Leading zero omitted, Abs format (unit mm)*
G04 Created by KiCad (PCBNEW 7.0.10) date 2025-03-06 04:49:44*
%MOMM*%
%LPD*%
G01*
G04 APERTURE LIST*
%TA.AperFunction,ViaDrill*%
%ADD10C,0.400000*%
%TD*%
%TA.AperFunction,ViaDrill*%
%ADD11C,0.500000*%
%TD*%
%TA.AperFunction,ComponentDrill*%
%ADD12C,0.500000*%
%TD*%
%TA.AperFunction,ComponentDrill*%
%ADD13C,0.710000*%
%TD*%
%TA.AperFunction,ComponentDrill*%
%ADD14C,0.750000*%
%TD*%
%TA.AperFunction,ComponentDrill*%
%ADD15C,0.800000*%
%TD*%
%TA.AperFunction,ComponentDrill*%
%ADD16C,1.000000*%
%TD*%
%TA.AperFunction,ComponentDrill*%
%ADD17C,1.020000*%
%TD*%
%TA.AperFunction,ComponentDrill*%
%ADD18C,1.300000*%
%TD*%
%TA.AperFunction,ComponentDrill*%
%ADD19C,1.500000*%
%TD*%
%TA.AperFunction,ComponentDrill*%
%ADD20C,1.700000*%
%TD*%
G04 APERTURE END LIST*
D10*
X66325000Y-128125000D03*
X66525000Y-141425000D03*
X68000000Y-130775000D03*
X68276630Y-126161477D03*
X70900000Y-165250000D03*
X70946000Y-156225000D03*
X70975000Y-122300000D03*
X71275000Y-162725000D03*
X71350000Y-137050000D03*
X71825000Y-178700000D03*
X71950000Y-142225000D03*
X72174042Y-164225000D03*
X72400000Y-187600000D03*
X72950000Y-145300000D03*
X73800000Y-123975000D03*
X74350000Y-139375000D03*
X75748386Y-150274117D03*
X75750000Y-139432610D03*
X75775000Y-128425000D03*
X76650000Y-161187500D03*
X76942389Y-152967390D03*
X77074559Y-151774559D03*
X77250000Y-189650000D03*
X79104314Y-161523956D03*
X79400000Y-190725000D03*
X80130112Y-140744888D03*
X80150000Y-149028800D03*
X81400000Y-126900000D03*
X82125000Y-151500000D03*
X82400000Y-132875000D03*
X82687500Y-130062500D03*
X82750000Y-170825000D03*
X83099260Y-161059921D03*
X83450000Y-142375000D03*
X83587500Y-145112500D03*
X84648606Y-148089417D03*
X84744888Y-138275000D03*
X84750000Y-193875000D03*
X85675000Y-144781000D03*
X85816852Y-146316852D03*
X86850000Y-144781000D03*
X87450000Y-135675000D03*
X87800000Y-131475000D03*
X87929595Y-148729595D03*
X88080149Y-140741435D03*
X88125000Y-125025000D03*
X88150000Y-126245000D03*
X88700000Y-193775000D03*
X88725000Y-165075000D03*
X89050000Y-129200000D03*
X89050000Y-142167000D03*
X89100000Y-149850000D03*
X90225000Y-151353413D03*
X90450000Y-128450000D03*
X90500000Y-133875000D03*
X90725000Y-177725000D03*
X90841893Y-153829251D03*
X90846993Y-171461331D03*
X90850000Y-148750000D03*
X91000000Y-172675000D03*
X91330332Y-170444670D03*
X91350000Y-124975000D03*
X91525000Y-180150000D03*
X91700000Y-136425000D03*
X91829595Y-175704595D03*
X92175000Y-165150000D03*
X92312422Y-138925000D03*
X92592095Y-174942095D03*
X93300000Y-179475000D03*
X93370166Y-160845166D03*
X93451585Y-174082605D03*
X93675000Y-166100000D03*
X93850000Y-178100000D03*
X93875000Y-145450000D03*
X94150000Y-156925000D03*
X94220627Y-131370627D03*
X94242831Y-138042831D03*
X94390000Y-186775000D03*
X94475000Y-158800000D03*
X94525000Y-173239340D03*
X94575000Y-169950000D03*
X94975000Y-177350000D03*
X95211549Y-123200000D03*
X95649170Y-133222696D03*
X95917831Y-159182169D03*
X96050000Y-118075000D03*
X96321074Y-122865094D03*
X96400000Y-153975000D03*
X96650000Y-131400000D03*
X96950000Y-151875000D03*
X97000000Y-133800000D03*
X97125000Y-167996000D03*
X97625000Y-131175000D03*
X98000000Y-186700000D03*
X98131305Y-137596860D03*
X98200000Y-118600000D03*
X98200000Y-120670642D03*
X98244669Y-122744669D03*
X98500000Y-161025000D03*
X98500000Y-174400000D03*
X98900000Y-147500000D03*
X99125000Y-133550000D03*
X99400000Y-169800000D03*
X99850000Y-127750000D03*
X100000000Y-178800000D03*
X100162500Y-157112500D03*
X100173000Y-149350000D03*
X100275000Y-134575000D03*
X100450000Y-130050000D03*
X100500000Y-159800000D03*
X100500000Y-161459406D03*
X100500000Y-174100000D03*
X101075000Y-166825000D03*
X101250000Y-158800000D03*
X101300000Y-121675000D03*
X101500000Y-144800000D03*
X101694670Y-149069670D03*
X101713231Y-133050000D03*
X101975000Y-122800000D03*
X102225000Y-163575000D03*
X102700000Y-144800000D03*
X102785933Y-151260933D03*
X102850000Y-123550000D03*
X102875000Y-147325000D03*
X102881511Y-135580268D03*
X102900000Y-178800000D03*
X103088261Y-141829000D03*
X103630331Y-143469669D03*
X104162500Y-136600000D03*
X104600000Y-141000000D03*
X104800000Y-134750000D03*
X105166035Y-131550000D03*
X105300000Y-123925000D03*
X105425000Y-126850000D03*
X105425000Y-152125000D03*
X105448097Y-159423098D03*
X106107169Y-130792831D03*
X106621688Y-163275000D03*
X106843750Y-161143750D03*
X107477407Y-127827407D03*
X107550000Y-155228665D03*
X107800000Y-121125000D03*
X108050000Y-143600000D03*
X108100000Y-164500000D03*
X108300000Y-146600000D03*
X108300000Y-169300000D03*
X109250000Y-116700000D03*
X109500000Y-133100000D03*
X109580393Y-131444607D03*
X109582169Y-145407169D03*
X110321250Y-165700000D03*
X110625000Y-137600000D03*
X111182938Y-134741633D03*
X111500000Y-185800000D03*
X111575000Y-140711912D03*
X111700000Y-180200000D03*
X111700000Y-183900000D03*
X111800000Y-182100000D03*
X113200000Y-165800000D03*
X113357539Y-157125249D03*
X113400000Y-129650000D03*
X114000000Y-158219283D03*
X114200000Y-184000000D03*
X114300000Y-132500000D03*
X114500000Y-166650000D03*
X114625000Y-128675000D03*
X114650000Y-126850000D03*
X114700000Y-150900000D03*
X114900000Y-185800000D03*
X115375000Y-116175000D03*
X115600000Y-142600000D03*
X116525000Y-155881250D03*
X116707179Y-159341939D03*
X116812500Y-150050000D03*
X116850000Y-134950000D03*
X116925000Y-130991065D03*
X117050000Y-143900000D03*
X117405331Y-161600000D03*
X117800000Y-156250000D03*
X117948000Y-122325000D03*
X119000000Y-142700000D03*
X119700000Y-185300000D03*
X119700000Y-186800000D03*
X119875000Y-132025000D03*
X120175000Y-119925000D03*
X120275000Y-150825000D03*
X121130241Y-134800000D03*
X121925000Y-119750000D03*
X121998000Y-124950000D03*
X121998000Y-128403890D03*
X122000000Y-179200000D03*
X122945843Y-131395843D03*
X123232897Y-132651217D03*
X123400000Y-184300000D03*
X123952000Y-122900000D03*
X124000000Y-186600000D03*
X124190671Y-143325000D03*
X124300000Y-158600000D03*
X124525000Y-155176041D03*
X124612500Y-156512500D03*
X124825000Y-124775000D03*
X125100000Y-141600000D03*
X125175000Y-123450000D03*
X125350000Y-140550000D03*
X125600000Y-129800000D03*
X126200000Y-165800000D03*
X126452000Y-125075000D03*
X127050000Y-129323000D03*
X127117893Y-141932107D03*
X127277000Y-134710933D03*
X127425000Y-131225000D03*
X127750000Y-125110000D03*
X127750000Y-161650000D03*
X128050000Y-123575000D03*
X128132363Y-166532364D03*
X128142831Y-132782169D03*
X128200000Y-157549998D03*
X128325000Y-139275000D03*
X128443894Y-128026383D03*
X128948161Y-160726839D03*
X129600000Y-176500000D03*
X129650000Y-157525000D03*
X129925000Y-162975000D03*
X130587383Y-167023638D03*
X130600000Y-170000000D03*
X130696102Y-165382839D03*
X131000000Y-137700000D03*
X131100000Y-173250000D03*
X131500000Y-171300000D03*
X131875000Y-145450000D03*
X131979765Y-157524212D03*
X131990296Y-131665296D03*
X132025000Y-140625000D03*
X132150000Y-149300000D03*
X132300000Y-153200000D03*
X132300000Y-154400000D03*
X132675000Y-191000000D03*
X132700000Y-135125000D03*
X132704527Y-168975001D03*
X132975000Y-158346107D03*
X133000000Y-131500000D03*
X133700000Y-124100000D03*
X133926282Y-163463620D03*
X134000000Y-127200000D03*
X134475000Y-131800000D03*
X134500000Y-133525000D03*
X135000000Y-160955634D03*
X135425000Y-152775000D03*
X135875000Y-149800000D03*
X135925000Y-146050000D03*
X136150000Y-126050000D03*
X136200000Y-175700000D03*
X137675000Y-186350000D03*
X141325000Y-128125000D03*
X141525000Y-141425000D03*
X143000000Y-130775000D03*
X143276630Y-126161477D03*
X145900000Y-165250000D03*
X145946000Y-156225000D03*
X145975000Y-122300000D03*
X146275000Y-162725000D03*
X146350000Y-137050000D03*
X146825000Y-178700000D03*
X146950000Y-142225000D03*
X147174042Y-164225000D03*
X147400000Y-187600000D03*
X147950000Y-145300000D03*
X148800000Y-123975000D03*
X149350000Y-139375000D03*
X150748386Y-150274117D03*
X150750000Y-139432610D03*
X150775000Y-128425000D03*
X151650000Y-161187500D03*
X151942389Y-152967390D03*
X152074559Y-151774559D03*
X152250000Y-189650000D03*
X154104314Y-161523956D03*
X154400000Y-190725000D03*
X155130112Y-140744888D03*
X155150000Y-149028800D03*
X156400000Y-126900000D03*
X157125000Y-151500000D03*
X157400000Y-132875000D03*
X157687500Y-130062500D03*
X157750000Y-170825000D03*
X158099260Y-161059921D03*
X158450000Y-142375000D03*
X158587500Y-145112500D03*
X159648606Y-148089417D03*
X159744888Y-138275000D03*
X159750000Y-193875000D03*
X160675000Y-144781000D03*
X160816852Y-146316852D03*
X161850000Y-144781000D03*
X162450000Y-135675000D03*
X162800000Y-131475000D03*
X162929595Y-148729595D03*
X163080149Y-140741435D03*
X163125000Y-125025000D03*
X163150000Y-126245000D03*
X163700000Y-193775000D03*
X163725000Y-165075000D03*
X164050000Y-129200000D03*
X164050000Y-142167000D03*
X164100000Y-149850000D03*
X165225000Y-151353413D03*
X165450000Y-128450000D03*
X165500000Y-133875000D03*
X165725000Y-177725000D03*
X165841893Y-153829251D03*
X165846993Y-171461331D03*
X165850000Y-148750000D03*
X166000000Y-172675000D03*
X166330332Y-170444670D03*
X166350000Y-124975000D03*
X166525000Y-180150000D03*
X166700000Y-136425000D03*
X166829595Y-175704595D03*
X167175000Y-165150000D03*
X167312422Y-138925000D03*
X167592095Y-174942095D03*
X168300000Y-179475000D03*
X168370166Y-160845166D03*
X168451585Y-174082605D03*
X168675000Y-166100000D03*
X168850000Y-178100000D03*
X168875000Y-145450000D03*
X169150000Y-156925000D03*
X169220627Y-131370627D03*
X169242831Y-138042831D03*
X169390000Y-186775000D03*
X169475000Y-158800000D03*
X169525000Y-173239340D03*
X169575000Y-169950000D03*
X169975000Y-177350000D03*
X170211549Y-123200000D03*
X170649170Y-133222696D03*
X170917831Y-159182169D03*
X171050000Y-118075000D03*
X171321074Y-122865094D03*
X171400000Y-153975000D03*
X171650000Y-131400000D03*
X171950000Y-151875000D03*
X172000000Y-133800000D03*
X172125000Y-167996000D03*
X172625000Y-131175000D03*
X173000000Y-186700000D03*
X173131305Y-137596860D03*
X173200000Y-118600000D03*
X173200000Y-120670642D03*
X173244669Y-122744669D03*
X173500000Y-161025000D03*
X173500000Y-174400000D03*
X173900000Y-147500000D03*
X174125000Y-133550000D03*
X174400000Y-169800000D03*
X174850000Y-127750000D03*
X175000000Y-178800000D03*
X175162500Y-157112500D03*
X175173000Y-149350000D03*
X175275000Y-134575000D03*
X175450000Y-130050000D03*
X175500000Y-159800000D03*
X175500000Y-161459406D03*
X175500000Y-174100000D03*
X176075000Y-166825000D03*
X176250000Y-158800000D03*
X176300000Y-121675000D03*
X176500000Y-144800000D03*
X176694670Y-149069670D03*
X176713231Y-133050000D03*
X176975000Y-122800000D03*
X177225000Y-163575000D03*
X177700000Y-144800000D03*
X177785933Y-151260933D03*
X177850000Y-123550000D03*
X177875000Y-147325000D03*
X177881511Y-135580268D03*
X177900000Y-178800000D03*
X178088261Y-141829000D03*
X178630331Y-143469669D03*
X179162500Y-136600000D03*
X179600000Y-141000000D03*
X179800000Y-134750000D03*
X180166035Y-131550000D03*
X180300000Y-123925000D03*
X180425000Y-126850000D03*
X180425000Y-152125000D03*
X180448097Y-159423098D03*
X181107169Y-130792831D03*
X181621688Y-163275000D03*
X181843750Y-161143750D03*
X182477407Y-127827407D03*
X182550000Y-155228665D03*
X182800000Y-121125000D03*
X183050000Y-143600000D03*
X183100000Y-164500000D03*
X183300000Y-146600000D03*
X183300000Y-169300000D03*
X184250000Y-116700000D03*
X184500000Y-133100000D03*
X184580393Y-131444607D03*
X184582169Y-145407169D03*
X185321250Y-165700000D03*
X185625000Y-137600000D03*
X186182938Y-134741633D03*
X186500000Y-185800000D03*
X186575000Y-140711912D03*
X186700000Y-180200000D03*
X186700000Y-183900000D03*
X186800000Y-182100000D03*
X188200000Y-165800000D03*
X188357539Y-157125249D03*
X188400000Y-129650000D03*
X189000000Y-158219283D03*
X189200000Y-184000000D03*
X189300000Y-132500000D03*
X189500000Y-166650000D03*
X189625000Y-128675000D03*
X189650000Y-126850000D03*
X189700000Y-150900000D03*
X189900000Y-185800000D03*
X190375000Y-116175000D03*
X190600000Y-142600000D03*
X191525000Y-155881250D03*
X191707179Y-159341939D03*
X191812500Y-150050000D03*
X191850000Y-134950000D03*
X191925000Y-130991065D03*
X192050000Y-143900000D03*
X192405331Y-161600000D03*
X192800000Y-156250000D03*
X192948000Y-122325000D03*
X194000000Y-142700000D03*
X194700000Y-185300000D03*
X194700000Y-186800000D03*
X194875000Y-132025000D03*
X195175000Y-119925000D03*
X195275000Y-150825000D03*
X196130241Y-134800000D03*
X196925000Y-119750000D03*
X196998000Y-124950000D03*
X196998000Y-128403890D03*
X197000000Y-179200000D03*
X197945843Y-131395843D03*
X198232897Y-132651217D03*
X198400000Y-184300000D03*
X198952000Y-122900000D03*
X199000000Y-186600000D03*
X199190671Y-143325000D03*
X199300000Y-158600000D03*
X199525000Y-155176041D03*
X199612500Y-156512500D03*
X199825000Y-124775000D03*
X200100000Y-141600000D03*
X200175000Y-123450000D03*
X200350000Y-140550000D03*
X200600000Y-129800000D03*
X201200000Y-165800000D03*
X201452000Y-125075000D03*
X202050000Y-129323000D03*
X202117893Y-141932107D03*
X202277000Y-134710933D03*
X202425000Y-131225000D03*
X202750000Y-125110000D03*
X202750000Y-161650000D03*
X203050000Y-123575000D03*
X203132363Y-166532364D03*
X203142831Y-132782169D03*
X203200000Y-157549998D03*
X203325000Y-139275000D03*
X203443894Y-128026383D03*
X203948161Y-160726839D03*
X204600000Y-176500000D03*
X204650000Y-157525000D03*
X204925000Y-162975000D03*
X205587383Y-167023638D03*
X205600000Y-170000000D03*
X205696102Y-165382839D03*
X206000000Y-137700000D03*
X206100000Y-173250000D03*
X206500000Y-171300000D03*
X206875000Y-145450000D03*
X206979765Y-157524212D03*
X206990296Y-131665296D03*
X207025000Y-140625000D03*
X207150000Y-149300000D03*
X207300000Y-153200000D03*
X207300000Y-154400000D03*
X207675000Y-191000000D03*
X207700000Y-135125000D03*
X207704527Y-168975001D03*
X207975000Y-158346107D03*
X208000000Y-131500000D03*
X208700000Y-124100000D03*
X208926282Y-163463620D03*
X209000000Y-127200000D03*
X209475000Y-131800000D03*
X209500000Y-133525000D03*
X210000000Y-160955634D03*
X210425000Y-152775000D03*
X210875000Y-149800000D03*
X210925000Y-146050000D03*
X211150000Y-126050000D03*
X211200000Y-175700000D03*
X212675000Y-186350000D03*
X216325000Y-128125000D03*
X216525000Y-141425000D03*
X218000000Y-130775000D03*
X218276630Y-126161477D03*
X220900000Y-165250000D03*
X220946000Y-156225000D03*
X220975000Y-122300000D03*
X221275000Y-162725000D03*
X221350000Y-137050000D03*
X221825000Y-178700000D03*
X221950000Y-142225000D03*
X222174042Y-164225000D03*
X222400000Y-187600000D03*
X222950000Y-145300000D03*
X223800000Y-123975000D03*
X224350000Y-139375000D03*
X225748386Y-150274117D03*
X225750000Y-139432610D03*
X225775000Y-128425000D03*
X226650000Y-161187500D03*
X226942389Y-152967390D03*
X227074559Y-151774559D03*
X227250000Y-189650000D03*
X229104314Y-161523956D03*
X229400000Y-190725000D03*
X230130112Y-140744888D03*
X230150000Y-149028800D03*
X231400000Y-126900000D03*
X232125000Y-151500000D03*
X232400000Y-132875000D03*
X232687500Y-130062500D03*
X232750000Y-170825000D03*
X233099260Y-161059921D03*
X233450000Y-142375000D03*
X233587500Y-145112500D03*
X234648606Y-148089417D03*
X234744888Y-138275000D03*
X234750000Y-193875000D03*
X235675000Y-144781000D03*
X235816852Y-146316852D03*
X236850000Y-144781000D03*
X237450000Y-135675000D03*
X237800000Y-131475000D03*
X237929595Y-148729595D03*
X238080149Y-140741435D03*
X238125000Y-125025000D03*
X238150000Y-126245000D03*
X238700000Y-193775000D03*
X238725000Y-165075000D03*
X239050000Y-129200000D03*
X239050000Y-142167000D03*
X239100000Y-149850000D03*
X240225000Y-151353413D03*
X240450000Y-128450000D03*
X240500000Y-133875000D03*
X240725000Y-177725000D03*
X240841893Y-153829251D03*
X240846993Y-171461331D03*
X240850000Y-148750000D03*
X241000000Y-172675000D03*
X241330332Y-170444670D03*
X241350000Y-124975000D03*
X241525000Y-180150000D03*
X241700000Y-136425000D03*
X241829595Y-175704595D03*
X242175000Y-165150000D03*
X242312422Y-138925000D03*
X242592095Y-174942095D03*
X243300000Y-179475000D03*
X243370166Y-160845166D03*
X243451585Y-174082605D03*
X243675000Y-166100000D03*
X243850000Y-178100000D03*
X243875000Y-145450000D03*
X244150000Y-156925000D03*
X244220627Y-131370627D03*
X244242831Y-138042831D03*
X244390000Y-186775000D03*
X244475000Y-158800000D03*
X244525000Y-173239340D03*
X244575000Y-169950000D03*
X244975000Y-177350000D03*
X245211549Y-123200000D03*
X245649170Y-133222696D03*
X245917831Y-159182169D03*
X246050000Y-118075000D03*
X246321074Y-122865094D03*
X246400000Y-153975000D03*
X246650000Y-131400000D03*
X246950000Y-151875000D03*
X247000000Y-133800000D03*
X247125000Y-167996000D03*
X247625000Y-131175000D03*
X248000000Y-186700000D03*
X248131305Y-137596860D03*
X248200000Y-118600000D03*
X248200000Y-120670642D03*
X248244669Y-122744669D03*
X248500000Y-161025000D03*
X248500000Y-174400000D03*
X248900000Y-147500000D03*
X249125000Y-133550000D03*
X249400000Y-169800000D03*
X249850000Y-127750000D03*
X250000000Y-178800000D03*
X250162500Y-157112500D03*
X250173000Y-149350000D03*
X250275000Y-134575000D03*
X250450000Y-130050000D03*
X250500000Y-159800000D03*
X250500000Y-161459406D03*
X250500000Y-174100000D03*
X251075000Y-166825000D03*
X251250000Y-158800000D03*
X251300000Y-121675000D03*
X251500000Y-144800000D03*
X251694670Y-149069670D03*
X251713231Y-133050000D03*
X251975000Y-122800000D03*
X252225000Y-163575000D03*
X252700000Y-144800000D03*
X252785933Y-151260933D03*
X252850000Y-123550000D03*
X252875000Y-147325000D03*
X252881511Y-135580268D03*
X252900000Y-178800000D03*
X253088261Y-141829000D03*
X253630331Y-143469669D03*
X254162500Y-136600000D03*
X254600000Y-141000000D03*
X254800000Y-134750000D03*
X255166035Y-131550000D03*
X255300000Y-123925000D03*
X255425000Y-126850000D03*
X255425000Y-152125000D03*
X255448097Y-159423098D03*
X256107169Y-130792831D03*
X256621688Y-163275000D03*
X256843750Y-161143750D03*
X257477407Y-127827407D03*
X257550000Y-155228665D03*
X257800000Y-121125000D03*
X258050000Y-143600000D03*
X258100000Y-164500000D03*
X258300000Y-146600000D03*
X258300000Y-169300000D03*
X259250000Y-116700000D03*
X259500000Y-133100000D03*
X259580393Y-131444607D03*
X259582169Y-145407169D03*
X260321250Y-165700000D03*
X260625000Y-137600000D03*
X261182938Y-134741633D03*
X261500000Y-185800000D03*
X261575000Y-140711912D03*
X261700000Y-180200000D03*
X261700000Y-183900000D03*
X261800000Y-182100000D03*
X263200000Y-165800000D03*
X263357539Y-157125249D03*
X263400000Y-129650000D03*
X264000000Y-158219283D03*
X264200000Y-184000000D03*
X264300000Y-132500000D03*
X264500000Y-166650000D03*
X264625000Y-128675000D03*
X264650000Y-126850000D03*
X264700000Y-150900000D03*
X264900000Y-185800000D03*
X265375000Y-116175000D03*
X265600000Y-142600000D03*
X266525000Y-155881250D03*
X266707179Y-159341939D03*
X266812500Y-150050000D03*
X266850000Y-134950000D03*
X266925000Y-130991065D03*
X267050000Y-143900000D03*
X267405331Y-161600000D03*
X267800000Y-156250000D03*
X267948000Y-122325000D03*
X269000000Y-142700000D03*
X269700000Y-185300000D03*
X269700000Y-186800000D03*
X269875000Y-132025000D03*
X270175000Y-119925000D03*
X270275000Y-150825000D03*
X271130241Y-134800000D03*
X271925000Y-119750000D03*
X271998000Y-124950000D03*
X271998000Y-128403890D03*
X272000000Y-179200000D03*
X272945843Y-131395843D03*
X273232897Y-132651217D03*
X273400000Y-184300000D03*
X273952000Y-122900000D03*
X274000000Y-186600000D03*
X274190671Y-143325000D03*
X274300000Y-158600000D03*
X274525000Y-155176041D03*
X274612500Y-156512500D03*
X274825000Y-124775000D03*
X275100000Y-141600000D03*
X275175000Y-123450000D03*
X275350000Y-140550000D03*
X275600000Y-129800000D03*
X276200000Y-165800000D03*
X276452000Y-125075000D03*
X277050000Y-129323000D03*
X277117893Y-141932107D03*
X277277000Y-134710933D03*
X277425000Y-131225000D03*
X277750000Y-125110000D03*
X277750000Y-161650000D03*
X278050000Y-123575000D03*
X278132363Y-166532364D03*
X278142831Y-132782169D03*
X278200000Y-157549998D03*
X278325000Y-139275000D03*
X278443894Y-128026383D03*
X278948161Y-160726839D03*
X279600000Y-176500000D03*
X279650000Y-157525000D03*
X279925000Y-162975000D03*
X280587383Y-167023638D03*
X280600000Y-170000000D03*
X280696102Y-165382839D03*
X281000000Y-137700000D03*
X281100000Y-173250000D03*
X281500000Y-171300000D03*
X281875000Y-145450000D03*
X281979765Y-157524212D03*
X281990296Y-131665296D03*
X282025000Y-140625000D03*
X282150000Y-149300000D03*
X282300000Y-153200000D03*
X282300000Y-154400000D03*
X282675000Y-191000000D03*
X282700000Y-135125000D03*
X282704527Y-168975001D03*
X282975000Y-158346107D03*
X283000000Y-131500000D03*
X283700000Y-124100000D03*
X283926282Y-163463620D03*
X284000000Y-127200000D03*
X284475000Y-131800000D03*
X284500000Y-133525000D03*
X285000000Y-160955634D03*
X285425000Y-152775000D03*
X285875000Y-149800000D03*
X285925000Y-146050000D03*
X286150000Y-126050000D03*
X286200000Y-175700000D03*
X287675000Y-186350000D03*
X291325000Y-128125000D03*
X291525000Y-141425000D03*
X293000000Y-130775000D03*
X293276630Y-126161477D03*
X295900000Y-165250000D03*
X295946000Y-156225000D03*
X295975000Y-122300000D03*
X296275000Y-162725000D03*
X296350000Y-137050000D03*
X296825000Y-178700000D03*
X296950000Y-142225000D03*
X297174042Y-164225000D03*
X297400000Y-187600000D03*
X297950000Y-145300000D03*
X298800000Y-123975000D03*
X299350000Y-139375000D03*
X300748386Y-150274117D03*
X300750000Y-139432610D03*
X300775000Y-128425000D03*
X301650000Y-161187500D03*
X301942389Y-152967390D03*
X302074559Y-151774559D03*
X302250000Y-189650000D03*
X304104314Y-161523956D03*
X304400000Y-190725000D03*
X305130112Y-140744888D03*
X305150000Y-149028800D03*
X306400000Y-126900000D03*
X307125000Y-151500000D03*
X307400000Y-132875000D03*
X307687500Y-130062500D03*
X307750000Y-170825000D03*
X308099260Y-161059921D03*
X308450000Y-142375000D03*
X308587500Y-145112500D03*
X309648606Y-148089417D03*
X309744888Y-138275000D03*
X309750000Y-193875000D03*
X310675000Y-144781000D03*
X310816852Y-146316852D03*
X311850000Y-144781000D03*
X312450000Y-135675000D03*
X312800000Y-131475000D03*
X312929595Y-148729595D03*
X313080149Y-140741435D03*
X313125000Y-125025000D03*
X313150000Y-126245000D03*
X313700000Y-193775000D03*
X313725000Y-165075000D03*
X314050000Y-129200000D03*
X314050000Y-142167000D03*
X314100000Y-149850000D03*
X315225000Y-151353413D03*
X315450000Y-128450000D03*
X315500000Y-133875000D03*
X315725000Y-177725000D03*
X315841893Y-153829251D03*
X315846993Y-171461331D03*
X315850000Y-148750000D03*
X316000000Y-172675000D03*
X316330332Y-170444670D03*
X316350000Y-124975000D03*
X316525000Y-180150000D03*
X316700000Y-136425000D03*
X316829595Y-175704595D03*
X317175000Y-165150000D03*
X317312422Y-138925000D03*
X317592095Y-174942095D03*
X318300000Y-179475000D03*
X318370166Y-160845166D03*
X318451585Y-174082605D03*
X318675000Y-166100000D03*
X318850000Y-178100000D03*
X318875000Y-145450000D03*
X319150000Y-156925000D03*
X319220627Y-131370627D03*
X319242831Y-138042831D03*
X319390000Y-186775000D03*
X319475000Y-158800000D03*
X319525000Y-173239340D03*
X319575000Y-169950000D03*
X319975000Y-177350000D03*
X320211549Y-123200000D03*
X320649170Y-133222696D03*
X320917831Y-159182169D03*
X321050000Y-118075000D03*
X321321074Y-122865094D03*
X321400000Y-153975000D03*
X321650000Y-131400000D03*
X321950000Y-151875000D03*
X322000000Y-133800000D03*
X322125000Y-167996000D03*
X322625000Y-131175000D03*
X323000000Y-186700000D03*
X323131305Y-137596860D03*
X323200000Y-118600000D03*
X323200000Y-120670642D03*
X323244669Y-122744669D03*
X323500000Y-161025000D03*
X323500000Y-174400000D03*
X323900000Y-147500000D03*
X324125000Y-133550000D03*
X324400000Y-169800000D03*
X324850000Y-127750000D03*
X325000000Y-178800000D03*
X325162500Y-157112500D03*
X325173000Y-149350000D03*
X325275000Y-134575000D03*
X325450000Y-130050000D03*
X325500000Y-159800000D03*
X325500000Y-161459406D03*
X325500000Y-174100000D03*
X326075000Y-166825000D03*
X326250000Y-158800000D03*
X326300000Y-121675000D03*
X326500000Y-144800000D03*
X326694670Y-149069670D03*
X326713231Y-133050000D03*
X326975000Y-122800000D03*
X327225000Y-163575000D03*
X327700000Y-144800000D03*
X327785933Y-151260933D03*
X327850000Y-123550000D03*
X327875000Y-147325000D03*
X327881511Y-135580268D03*
X327900000Y-178800000D03*
X328088261Y-141829000D03*
X328630331Y-143469669D03*
X329162500Y-136600000D03*
X329600000Y-141000000D03*
X329800000Y-134750000D03*
X330166035Y-131550000D03*
X330300000Y-123925000D03*
X330425000Y-126850000D03*
X330425000Y-152125000D03*
X330448097Y-159423098D03*
X331107169Y-130792831D03*
X331621688Y-163275000D03*
X331843750Y-161143750D03*
X332477407Y-127827407D03*
X332550000Y-155228665D03*
X332800000Y-121125000D03*
X333050000Y-143600000D03*
X333100000Y-164500000D03*
X333300000Y-146600000D03*
X333300000Y-169300000D03*
X334250000Y-116700000D03*
X334500000Y-133100000D03*
X334580393Y-131444607D03*
X334582169Y-145407169D03*
X335321250Y-165700000D03*
X335625000Y-137600000D03*
X336182938Y-134741633D03*
X336500000Y-185800000D03*
X336575000Y-140711912D03*
X336700000Y-180200000D03*
X336700000Y-183900000D03*
X336800000Y-182100000D03*
X338200000Y-165800000D03*
X338357539Y-157125249D03*
X338400000Y-129650000D03*
X339000000Y-158219283D03*
X339200000Y-184000000D03*
X339300000Y-132500000D03*
X339500000Y-166650000D03*
X339625000Y-128675000D03*
X339650000Y-126850000D03*
X339700000Y-150900000D03*
X339900000Y-185800000D03*
X340375000Y-116175000D03*
X340600000Y-142600000D03*
X341525000Y-155881250D03*
X341707179Y-159341939D03*
X341812500Y-150050000D03*
X341850000Y-134950000D03*
X341925000Y-130991065D03*
X342050000Y-143900000D03*
X342405331Y-161600000D03*
X342800000Y-156250000D03*
X342948000Y-122325000D03*
X344000000Y-142700000D03*
X344700000Y-185300000D03*
X344700000Y-186800000D03*
X344875000Y-132025000D03*
X345175000Y-119925000D03*
X345275000Y-150825000D03*
X346130241Y-134800000D03*
X346925000Y-119750000D03*
X346998000Y-124950000D03*
X346998000Y-128403890D03*
X347000000Y-179200000D03*
X347945843Y-131395843D03*
X348232897Y-132651217D03*
X348400000Y-184300000D03*
X348952000Y-122900000D03*
X349000000Y-186600000D03*
X349190671Y-143325000D03*
X349300000Y-158600000D03*
X349525000Y-155176041D03*
X349612500Y-156512500D03*
X349825000Y-124775000D03*
X350100000Y-141600000D03*
X350175000Y-123450000D03*
X350350000Y-140550000D03*
X350600000Y-129800000D03*
X351200000Y-165800000D03*
X351452000Y-125075000D03*
X352050000Y-129323000D03*
X352117893Y-141932107D03*
X352277000Y-134710933D03*
X352425000Y-131225000D03*
X352750000Y-125110000D03*
X352750000Y-161650000D03*
X353050000Y-123575000D03*
X353132363Y-166532364D03*
X353142831Y-132782169D03*
X353200000Y-157549998D03*
X353325000Y-139275000D03*
X353443894Y-128026383D03*
X353948161Y-160726839D03*
X354600000Y-176500000D03*
X354650000Y-157525000D03*
X354925000Y-162975000D03*
X355587383Y-167023638D03*
X355600000Y-170000000D03*
X355696102Y-165382839D03*
X356000000Y-137700000D03*
X356100000Y-173250000D03*
X356500000Y-171300000D03*
X356875000Y-145450000D03*
X356979765Y-157524212D03*
X356990296Y-131665296D03*
X357025000Y-140625000D03*
X357150000Y-149300000D03*
X357300000Y-153200000D03*
X357300000Y-154400000D03*
X357675000Y-191000000D03*
X357700000Y-135125000D03*
X357704527Y-168975001D03*
X357975000Y-158346107D03*
X358000000Y-131500000D03*
X358700000Y-124100000D03*
X358926282Y-163463620D03*
X359000000Y-127200000D03*
X359475000Y-131800000D03*
X359500000Y-133525000D03*
X360000000Y-160955634D03*
X360425000Y-152775000D03*
X360875000Y-149800000D03*
X360925000Y-146050000D03*
X361150000Y-126050000D03*
X361200000Y-175700000D03*
X362675000Y-186350000D03*
D11*
X91550000Y-141500000D03*
X95548000Y-141800000D03*
X97600000Y-144600000D03*
X98200000Y-141900000D03*
X100200000Y-138271000D03*
X105162500Y-136400000D03*
X112650000Y-145900000D03*
X115100000Y-144200000D03*
X115748224Y-161650000D03*
X121500000Y-143100000D03*
X122050000Y-166050000D03*
X123440671Y-144600000D03*
X124975000Y-148925000D03*
X166550000Y-141500000D03*
X170548000Y-141800000D03*
X172600000Y-144600000D03*
X173200000Y-141900000D03*
X175200000Y-138271000D03*
X180162500Y-136400000D03*
X187650000Y-145900000D03*
X190100000Y-144200000D03*
X190748224Y-161650000D03*
X196500000Y-143100000D03*
X197050000Y-166050000D03*
X198440671Y-144600000D03*
X199975000Y-148925000D03*
X241550000Y-141500000D03*
X245548000Y-141800000D03*
X247600000Y-144600000D03*
X248200000Y-141900000D03*
X250200000Y-138271000D03*
X255162500Y-136400000D03*
X262650000Y-145900000D03*
X265100000Y-144200000D03*
X265748224Y-161650000D03*
X271500000Y-143100000D03*
X272050000Y-166050000D03*
X273440671Y-144600000D03*
X274975000Y-148925000D03*
X316550000Y-141500000D03*
X320548000Y-141800000D03*
X322600000Y-144600000D03*
X323200000Y-141900000D03*
X325200000Y-138271000D03*
X330162500Y-136400000D03*
X337650000Y-145900000D03*
X340100000Y-144200000D03*
X340748224Y-161650000D03*
X346500000Y-143100000D03*
X347050000Y-166050000D03*
X348440671Y-144600000D03*
X349975000Y-148925000D03*
D12*
%TO.C,Y4*%
X92500000Y-142600000D03*
X94000000Y-142600000D03*
%TO.C,Y6*%
X167500000Y-142600000D03*
X169000000Y-142600000D03*
%TO.C,Y8*%
X242500000Y-142600000D03*
X244000000Y-142600000D03*
%TO.C,Y11*%
X317500000Y-142600000D03*
X319000000Y-142600000D03*
D13*
%TO.C,F1*%
X84475000Y-184475000D03*
X86075000Y-179375000D03*
%TO.C,F2*%
X159475000Y-184475000D03*
X161075000Y-179375000D03*
%TO.C,F3*%
X234475000Y-184475000D03*
X236075000Y-179375000D03*
%TO.C,F4*%
X309475000Y-184475000D03*
X311075000Y-179375000D03*
D14*
%TO.C,J1*%
X104375000Y-153625000D03*
X104375000Y-155625000D03*
%TO.C,J8*%
X179375000Y-153625000D03*
X179375000Y-155625000D03*
%TO.C,J21*%
X254375000Y-153625000D03*
X254375000Y-155625000D03*
%TO.C,J31*%
X329375000Y-153625000D03*
X329375000Y-155625000D03*
D15*
%TO.C,C10*%
X79844888Y-136000000D03*
%TO.C,C9*%
X81700000Y-141969888D03*
X81700000Y-144469888D03*
%TO.C,C10*%
X82344888Y-136000000D03*
%TO.C,Y5*%
X100300000Y-144000000D03*
X105180000Y-144000000D03*
%TO.C,Y1*%
X116700000Y-145400000D03*
X121580000Y-145400000D03*
%TO.C,C55*%
X154844888Y-136000000D03*
%TO.C,C54*%
X156700000Y-141969888D03*
X156700000Y-144469888D03*
%TO.C,C55*%
X157344888Y-136000000D03*
%TO.C,Y7*%
X175300000Y-144000000D03*
X180180000Y-144000000D03*
%TO.C,Y2*%
X191700000Y-145400000D03*
X196580000Y-145400000D03*
%TO.C,C101*%
X229844888Y-136000000D03*
%TO.C,C100*%
X231700000Y-141969888D03*
X231700000Y-144469888D03*
%TO.C,C101*%
X232344888Y-136000000D03*
%TO.C,Y9*%
X250300000Y-144000000D03*
X255180000Y-144000000D03*
%TO.C,Y3*%
X266700000Y-145400000D03*
X271580000Y-145400000D03*
%TO.C,C147*%
X304844888Y-136000000D03*
%TO.C,C146*%
X306700000Y-141969888D03*
X306700000Y-144469888D03*
%TO.C,C147*%
X307344888Y-136000000D03*
%TO.C,Y12*%
X325300000Y-144000000D03*
X330180000Y-144000000D03*
%TO.C,Y10*%
X341700000Y-145400000D03*
X346580000Y-145400000D03*
D16*
%TO.C,J9*%
X85975000Y-118625000D03*
X85975000Y-121165000D03*
X85975000Y-123705000D03*
X85975000Y-126245000D03*
X85975000Y-128785000D03*
X85975000Y-131325000D03*
%TO.C,J11*%
X93270000Y-115825000D03*
X95810000Y-115825000D03*
X98350000Y-115825000D03*
%TO.C,BZ1*%
X108800000Y-122775000D03*
X116400000Y-122775000D03*
%TO.C,J10*%
X122155000Y-115550000D03*
%TO.C,J6*%
X124615000Y-119650000D03*
%TO.C,J10*%
X124695000Y-115550000D03*
%TO.C,J6*%
X127155000Y-119650000D03*
%TO.C,J10*%
X127235000Y-115550000D03*
%TO.C,J3*%
X128350000Y-184725000D03*
%TO.C,J6*%
X129695000Y-119650000D03*
%TO.C,J10*%
X129775000Y-115550000D03*
%TO.C,J3*%
X130890000Y-184725000D03*
%TO.C,J6*%
X132235000Y-119650000D03*
%TO.C,J10*%
X132315000Y-115550000D03*
%TO.C,J3*%
X133430000Y-184725000D03*
%TO.C,J6*%
X134775000Y-119650000D03*
%TO.C,J10*%
X134855000Y-115550000D03*
%TO.C,J3*%
X135970000Y-184725000D03*
%TO.C,J18*%
X160975000Y-118625000D03*
X160975000Y-121165000D03*
X160975000Y-123705000D03*
X160975000Y-126245000D03*
X160975000Y-128785000D03*
X160975000Y-131325000D03*
%TO.C,J20*%
X168270000Y-115825000D03*
X170810000Y-115825000D03*
X173350000Y-115825000D03*
%TO.C,BZ2*%
X183800000Y-122775000D03*
X191400000Y-122775000D03*
%TO.C,J19*%
X197155000Y-115550000D03*
%TO.C,J16*%
X199615000Y-119650000D03*
%TO.C,J19*%
X199695000Y-115550000D03*
%TO.C,J16*%
X202155000Y-119650000D03*
%TO.C,J19*%
X202235000Y-115550000D03*
%TO.C,J13*%
X203350000Y-184725000D03*
%TO.C,J16*%
X204695000Y-119650000D03*
%TO.C,J19*%
X204775000Y-115550000D03*
%TO.C,J13*%
X205890000Y-184725000D03*
%TO.C,J16*%
X207235000Y-119650000D03*
%TO.C,J19*%
X207315000Y-115550000D03*
%TO.C,J13*%
X208430000Y-184725000D03*
%TO.C,J16*%
X209775000Y-119650000D03*
%TO.C,J19*%
X209855000Y-115550000D03*
%TO.C,J13*%
X210970000Y-184725000D03*
%TO.C,J28*%
X235975000Y-118625000D03*
X235975000Y-121165000D03*
X235975000Y-123705000D03*
X235975000Y-126245000D03*
X235975000Y-128785000D03*
X235975000Y-131325000D03*
%TO.C,J30*%
X243270000Y-115825000D03*
X245810000Y-115825000D03*
X248350000Y-115825000D03*
%TO.C,BZ3*%
X258800000Y-122775000D03*
X266400000Y-122775000D03*
%TO.C,J29*%
X272155000Y-115550000D03*
%TO.C,J26*%
X274615000Y-119650000D03*
%TO.C,J29*%
X274695000Y-115550000D03*
%TO.C,J26*%
X277155000Y-119650000D03*
%TO.C,J29*%
X277235000Y-115550000D03*
%TO.C,J23*%
X278350000Y-184725000D03*
%TO.C,J26*%
X279695000Y-119650000D03*
%TO.C,J29*%
X279775000Y-115550000D03*
%TO.C,J23*%
X280890000Y-184725000D03*
%TO.C,J26*%
X282235000Y-119650000D03*
%TO.C,J29*%
X282315000Y-115550000D03*
%TO.C,J23*%
X283430000Y-184725000D03*
%TO.C,J26*%
X284775000Y-119650000D03*
%TO.C,J29*%
X284855000Y-115550000D03*
%TO.C,J23*%
X285970000Y-184725000D03*
%TO.C,J38*%
X310975000Y-118625000D03*
X310975000Y-121165000D03*
X310975000Y-123705000D03*
X310975000Y-126245000D03*
X310975000Y-128785000D03*
X310975000Y-131325000D03*
%TO.C,J40*%
X318270000Y-115825000D03*
X320810000Y-115825000D03*
X323350000Y-115825000D03*
%TO.C,BZ4*%
X333800000Y-122775000D03*
X341400000Y-122775000D03*
%TO.C,J39*%
X347155000Y-115550000D03*
%TO.C,J36*%
X349615000Y-119650000D03*
%TO.C,J39*%
X349695000Y-115550000D03*
%TO.C,J36*%
X352155000Y-119650000D03*
%TO.C,J39*%
X352235000Y-115550000D03*
%TO.C,J33*%
X353350000Y-184725000D03*
%TO.C,J36*%
X354695000Y-119650000D03*
%TO.C,J39*%
X354775000Y-115550000D03*
%TO.C,J33*%
X355890000Y-184725000D03*
%TO.C,J36*%
X357235000Y-119650000D03*
%TO.C,J39*%
X357315000Y-115550000D03*
%TO.C,J33*%
X358430000Y-184725000D03*
%TO.C,J36*%
X359775000Y-119650000D03*
%TO.C,J39*%
X359855000Y-115550000D03*
%TO.C,J33*%
X360970000Y-184725000D03*
D17*
%TO.C,CN1*%
X80925000Y-189125000D03*
X80925000Y-192125000D03*
X83925000Y-189125000D03*
X83925000Y-192125000D03*
X86925000Y-189125000D03*
X86925000Y-192125000D03*
X89925000Y-189125000D03*
X89925000Y-192125000D03*
X92925000Y-189125000D03*
X92925000Y-192125000D03*
X95925000Y-189125000D03*
X95925000Y-192125000D03*
X98925000Y-189125000D03*
X98925000Y-192125000D03*
X101925000Y-189125000D03*
X101925000Y-192125000D03*
X104925000Y-189125000D03*
X104925000Y-192125000D03*
%TO.C,CN2*%
X155925000Y-189125000D03*
X155925000Y-192125000D03*
X158925000Y-189125000D03*
X158925000Y-192125000D03*
X161925000Y-189125000D03*
X161925000Y-192125000D03*
X164925000Y-189125000D03*
X164925000Y-192125000D03*
X167925000Y-189125000D03*
X167925000Y-192125000D03*
X170925000Y-189125000D03*
X170925000Y-192125000D03*
X173925000Y-189125000D03*
X173925000Y-192125000D03*
X176925000Y-189125000D03*
X176925000Y-192125000D03*
X179925000Y-189125000D03*
X179925000Y-192125000D03*
%TO.C,CN3*%
X230925000Y-189125000D03*
X230925000Y-192125000D03*
X233925000Y-189125000D03*
X233925000Y-192125000D03*
X236925000Y-189125000D03*
X236925000Y-192125000D03*
X239925000Y-189125000D03*
X239925000Y-192125000D03*
X242925000Y-189125000D03*
X242925000Y-192125000D03*
X245925000Y-189125000D03*
X245925000Y-192125000D03*
X248925000Y-189125000D03*
X248925000Y-192125000D03*
X251925000Y-189125000D03*
X251925000Y-192125000D03*
X254925000Y-189125000D03*
X254925000Y-192125000D03*
%TO.C,CN4*%
X305925000Y-189125000D03*
X305925000Y-192125000D03*
X308925000Y-189125000D03*
X308925000Y-192125000D03*
X311925000Y-189125000D03*
X311925000Y-192125000D03*
X314925000Y-189125000D03*
X314925000Y-192125000D03*
X317925000Y-189125000D03*
X317925000Y-192125000D03*
X320925000Y-189125000D03*
X320925000Y-192125000D03*
X323925000Y-189125000D03*
X323925000Y-192125000D03*
X326925000Y-189125000D03*
X326925000Y-192125000D03*
X329925000Y-189125000D03*
X329925000Y-192125000D03*
D18*
%TO.C,K2*%
X67775000Y-168375000D03*
X67775000Y-180575000D03*
%TO.C,K3*%
X70150000Y-174200000D03*
X70150000Y-184400000D03*
%TO.C,K2*%
X73775000Y-166375000D03*
%TO.C,K3*%
X75150000Y-171700000D03*
%TO.C,K2*%
X79775000Y-168375000D03*
X79775000Y-180575000D03*
%TO.C,K3*%
X80150000Y-174200000D03*
X80150000Y-184400000D03*
%TO.C,K4*%
X142775000Y-168375000D03*
X142775000Y-180575000D03*
%TO.C,K5*%
X145150000Y-174200000D03*
X145150000Y-184400000D03*
%TO.C,K4*%
X148775000Y-166375000D03*
%TO.C,K5*%
X150150000Y-171700000D03*
%TO.C,K4*%
X154775000Y-168375000D03*
X154775000Y-180575000D03*
%TO.C,K5*%
X155150000Y-174200000D03*
X155150000Y-184400000D03*
%TO.C,K6*%
X217775000Y-168375000D03*
X217775000Y-180575000D03*
%TO.C,K7*%
X220150000Y-174200000D03*
X220150000Y-184400000D03*
%TO.C,K6*%
X223775000Y-166375000D03*
%TO.C,K7*%
X225150000Y-171700000D03*
%TO.C,K6*%
X229775000Y-168375000D03*
X229775000Y-180575000D03*
%TO.C,K7*%
X230150000Y-174200000D03*
X230150000Y-184400000D03*
%TO.C,K8*%
X292775000Y-168375000D03*
X292775000Y-180575000D03*
%TO.C,K9*%
X295150000Y-174200000D03*
X295150000Y-184400000D03*
%TO.C,K8*%
X298775000Y-166375000D03*
%TO.C,K9*%
X300150000Y-171700000D03*
%TO.C,K8*%
X304775000Y-168375000D03*
X304775000Y-180575000D03*
%TO.C,K9*%
X305150000Y-174200000D03*
X305150000Y-184400000D03*
D19*
%TO.C,J4*%
X113000000Y-191250000D03*
%TO.C,J5*%
X122210000Y-191290000D03*
%TO.C,J14*%
X188000000Y-191250000D03*
%TO.C,J15*%
X197210000Y-191290000D03*
%TO.C,J24*%
X263000000Y-191250000D03*
%TO.C,J25*%
X272210000Y-191290000D03*
%TO.C,J34*%
X338000000Y-191250000D03*
%TO.C,J35*%
X347210000Y-191290000D03*
D20*
%TO.C,J4*%
X110460000Y-188710000D03*
X110460000Y-193790000D03*
X115540000Y-188710000D03*
X115540000Y-193790000D03*
%TO.C,J5*%
X119670000Y-188750000D03*
X119670000Y-193830000D03*
X124750000Y-188750000D03*
X124750000Y-193830000D03*
%TO.C,J14*%
X185460000Y-188710000D03*
X185460000Y-193790000D03*
X190540000Y-188710000D03*
X190540000Y-193790000D03*
%TO.C,J15*%
X194670000Y-188750000D03*
X194670000Y-193830000D03*
X199750000Y-188750000D03*
X199750000Y-193830000D03*
%TO.C,J24*%
X260460000Y-188710000D03*
X260460000Y-193790000D03*
X265540000Y-188710000D03*
X265540000Y-193790000D03*
%TO.C,J25*%
X269670000Y-188750000D03*
X269670000Y-193830000D03*
X274750000Y-188750000D03*
X274750000Y-193830000D03*
%TO.C,J34*%
X335460000Y-188710000D03*
X335460000Y-193790000D03*
X340540000Y-188710000D03*
X340540000Y-193790000D03*
%TO.C,J35*%
X344670000Y-188750000D03*
X344670000Y-193830000D03*
X349750000Y-188750000D03*
X349750000Y-193830000D03*
M02*
