M48
; DRILL file {KiCad (5.1.9)-1} date 09/07/21 17:59:00
; FORMAT={2:4/ absolute / inch / suppress leading zeros}
; #@! TF.CreationDate,2021-09-07T17:59:00+03:00
; #@! TF.GenerationSoftware,Kicad,Pcbnew,(5.1.9)-1
FMAT,2
INCH,TZ
T1C0.0157
T2C0.0197
T3C0.0280
T4C0.0295
T5C0.0315
T6C0.0394
T7C0.0433
T8C0.0512
T9C0.0551
T10C0.0591
T11C0.0669
T12C0.0394
T13C0.0866
%
G90
G05
T1
X-3686Y-49862
X-3331Y-29449
X-2811Y-32898
X-2772Y-31319
X-2772Y-42480
X-2728Y-29882
X-1769Y-27165
X-1736Y-55728
X-1689Y-52937
X-1464Y-24626
X-1311Y-29488
X-1213Y-52433
X-1144Y-32982
X-906Y-47622
X-886Y-27748
X-844Y-25562
X-811Y-53091
X-703Y-49033
X-291Y-35972
X-98Y-51646
X-91Y-24370
X-31Y-54921
X51Y-57835
X201Y-44831
X306Y-51938
X709Y-53000
X870Y-52071
X957Y-53819
X1126Y-47740
X1307Y-52933
X1366Y-26457
X1707Y-23553
X1748Y-36815
X1791Y-52079
X1984Y-52969
X2154Y-27638
X2370Y-32972
X2618Y-46173
X2705Y-26693
X2719Y-28681
X3217Y-29331
X3280Y-47539
X3433Y-50028
X3437Y-25437
X3482Y-55148
X3713Y-53240
X3807Y-29833
X3846Y-24090
X3846Y-28858
X4029Y-48022
X4035Y-45961
X4307Y-25850
X4441Y-59021
X4726Y-53665
X4736Y-55299
X4998Y-29370
X5016Y-52945
X5146Y-43780
X5319Y-53717
X5394Y-54422
X5429Y-53209
X5673Y-50248
X5677Y-39843
X5677Y-46299
X5740Y-52862
X5756Y-54134
X5933Y-30315
X5953Y-53701
X6071Y-59207
X6169Y-49469
X6280Y-50169
X6401Y-33307
X6429Y-35622
X6484Y-34104
X6538Y-49173
X6691Y-25571
X6760Y-43839
X6854Y-54689
X6962Y-36378
X6980Y-59013
X7098Y-53783
X7106Y-55988
X7193Y-48539
X7208Y-50700
X7378Y-46240
X7406Y-35610
X7488Y-26634
X7537Y-47322
X7626Y-25344
X7705Y-33346
X7713Y-50606
X7744Y-31063
X7764Y-46693
X7823Y-30472
X7862Y-34094
X7882Y-46142
X7929Y-45591
X7969Y-40469
X8063Y-54654
X8087Y-35327
X8098Y-29961
X8256Y-30433
X8299Y-57488
X8404Y-22480
X8480Y-39138
X8524Y-35142
X8531Y-46673
X8571Y-36074
X8736Y-55545
X8768Y-29213
X8807Y-54539
X8846Y-26022
X8965Y-38031
X9043Y-48676
X9112Y-43445
X9348Y-40256
X9437Y-38622
X9516Y-30630
X9516Y-52362
X9591Y-42500
X9594Y-33780
X9732Y-28130
X9732Y-48150
X9740Y-55122
X9742Y-29833
X9742Y-40531
X9752Y-55728
X9764Y-24697
X10096Y-30059
X10116Y-37618
X10122Y-33252
X10268Y-24902
X10343Y-33701
X10411Y-34183
X10421Y-39178
X10421Y-39798
X10429Y-55350
X10480Y-47007
X10622Y-40583
X11283Y-30406
X11287Y-36063
X11519Y-53036
X11529Y-34252
X11543Y-45492
X11661Y-30167
X11681Y-26522
X11724Y-42535
X11730Y-27530
X11799Y-31998
X11815Y-37114
X12149Y-34252
X12228Y-48768
X12240Y-29894
X12244Y-39319
X12248Y-33236
X12272Y-36093
X12358Y-53764
X12555Y-40362
X12575Y-46929
X12654Y-42709
X12703Y-34506
X12791Y-24236
X12862Y-41520
X12866Y-40622
X12872Y-23652
X13049Y-26801
X13187Y-22087
X13266Y-28337
X13531Y-34055
X13575Y-39343
X13605Y-44034
X13641Y-27098
X13709Y-32067
X13709Y-35984
X13728Y-32520
X13791Y-37791
X13925Y-30236
X14016Y-24236
X14031Y-45984
X14119Y-26764
X14177Y-39441
X14201Y-32677
X14201Y-34528
X14201Y-49921
X14280Y-28043
X14378Y-36181
X14502Y-37057
X14516Y-50591
X14535Y-48927
X14602Y-28421
X14732Y-45787
X14777Y-39744
X14799Y-35622
X14850Y-45109
X15106Y-53780
X15409Y-38067
X15433Y-42268
X15449Y-28433
X15811Y-27638
X15854Y-45738
X16008Y-25606
X16091Y-30512
X16248Y-35000
X16256Y-27591
X16282Y-34021
X16484Y-33150
X16681Y-45743
X16843Y-27646
X16846Y-26791
X17075Y-53780
X17130Y-45335
X17232Y-45748
X17587Y-40000
X17665Y-43327
X17783Y-48976
X17839Y-38091
X17909Y-36686
X17941Y-53780
X18138Y-55000
X18185Y-33134
X18335Y-27224
X18335Y-34173
X18335Y-53740
X18660Y-45350
X18689Y-54568
X18748Y-43012
X18768Y-33098
X18807Y-53799
X19161Y-47402
X19795Y-39728
X19832Y-53886
X19898Y-24622
X19961Y-54878
X20087Y-36364
X20087Y-37364
X20240Y-42126
X20307Y-31346
X20315Y-43370
X20492Y-33988
X20510Y-52322
X20559Y-50276
X20647Y-48031
X20669Y-38350
X20795Y-33732
X20933Y-45659
X20949Y-37399
X20972Y-52756
X20972Y-53543
X21020Y-34996
X21055Y-32094
X21278Y-52303
X21512Y-43630
X21528Y-49063
X21543Y-47815
X21567Y-33850
X21579Y-45303
X22077Y-48536
X22104Y-47067
X22114Y-45728
X22193Y-32150
X22488Y-35012
X22874Y-49205
X22937Y-34807
X23098Y-29213
X23123Y-30925
X23130Y-32567
X23197Y-36165
X23433Y-45051
X23463Y-40354
X23524Y-35858
X23579Y-34181
X23768Y-39016
X24224Y-44579
X24366Y-38012
X24629Y-45728
X24629Y-48563
X24657Y-51433
X24992Y-51776
X25344Y-55039
X25842Y-49862
X26197Y-29449
X26717Y-32898
X26756Y-31319
X26756Y-42480
X26799Y-29882
X27759Y-27165
X27791Y-55728
X27839Y-52937
X28064Y-24626
X28217Y-29488
X28315Y-52433
X28384Y-32982
X28622Y-47622
X28642Y-27748
X28684Y-25562
X28717Y-53091
X28825Y-49033
X29236Y-35972
X29429Y-51646
X29437Y-24370
X29496Y-54921
X29579Y-57835
X29728Y-44831
X29833Y-51938
X30236Y-53000
X30398Y-52071
X30484Y-53819
X30654Y-47740
X30835Y-52933
X30894Y-26457
X31234Y-23553
X31276Y-36815
X31319Y-52079
X31512Y-52969
X31681Y-27638
X31898Y-32972
X32146Y-46173
X32232Y-26693
X32247Y-28681
X32744Y-29331
X32807Y-47539
X32961Y-50028
X32965Y-25437
X33009Y-55148
X33240Y-53240
X33335Y-29833
X33374Y-24090
X33374Y-28858
X33557Y-48022
X33563Y-45961
X33835Y-25850
X33969Y-59021
X34253Y-53665
X34264Y-55299
X34526Y-29370
X34543Y-52945
X34673Y-43780
X34846Y-53717
X34921Y-54422
X34957Y-53209
X35201Y-50248
X35205Y-39843
X35205Y-46299
X35268Y-52862
X35283Y-54134
X35461Y-30315
X35480Y-53701
X35598Y-59207
X35697Y-49469
X35807Y-50169
X35928Y-33307
X35957Y-35622
X36012Y-34104
X36066Y-49173
X36219Y-25571
X36287Y-43839
X36382Y-54689
X36489Y-36378
X36508Y-59013
X36626Y-53783
X36634Y-55988
X36720Y-48539
X36735Y-50700
X36906Y-46240
X36933Y-35610
X37016Y-26634
X37064Y-47322
X37154Y-25344
X37232Y-33346
X37240Y-50606
X37272Y-31063
X37291Y-46693
X37350Y-30472
X37390Y-34094
X37409Y-46142
X37457Y-45591
X37496Y-40469
X37591Y-54654
X37614Y-35327
X37626Y-29961
X37783Y-30433
X37827Y-57488
X37931Y-22480
X38008Y-39138
X38051Y-35142
X38059Y-46673
X38098Y-36074
X38264Y-55545
X38295Y-29213
X38335Y-54539
X38374Y-26022
X38492Y-38031
X38571Y-48676
X38640Y-43445
X38876Y-40256
X38965Y-38622
X39043Y-30630
X39043Y-52362
X39118Y-42500
X39122Y-33780
X39260Y-28130
X39260Y-48150
X39268Y-55122
X39270Y-29833
X39270Y-40531
X39280Y-55728
X39291Y-24697
X39624Y-30059
X39644Y-37618
X39650Y-33252
X39795Y-24902
X39870Y-33701
X39939Y-34183
X39949Y-39178
X39949Y-39798
X39957Y-55350
X40008Y-47007
X40150Y-40583
X40811Y-30406
X40815Y-36063
X41046Y-53036
X41056Y-34252
X41071Y-45492
X41189Y-30167
X41209Y-26522
X41252Y-42535
X41258Y-27530
X41327Y-31998
X41343Y-37114
X41676Y-34252
X41756Y-48768
X41768Y-29894
X41772Y-39319
X41776Y-33236
X41799Y-36093
X41886Y-53764
X42083Y-40362
X42102Y-46929
X42181Y-42709
X42231Y-34506
X42319Y-24236
X42390Y-41520
X42394Y-40622
X42400Y-23652
X42577Y-26801
X42715Y-22087
X42793Y-28337
X43059Y-34055
X43102Y-39343
X43133Y-44034
X43168Y-27098
X43236Y-32067
X43236Y-35984
X43256Y-32520
X43319Y-37791
X43453Y-30236
X43543Y-24236
X43559Y-45984
X43646Y-26764
X43705Y-39441
X43728Y-32677
X43728Y-34528
X43728Y-49921
X43807Y-28043
X43906Y-36181
X44030Y-37057
X44043Y-50591
X44063Y-48927
X44130Y-28421
X44260Y-45787
X44304Y-39744
X44327Y-35622
X44378Y-45109
X44634Y-53780
X44937Y-38067
X44961Y-42268
X44976Y-28433
X45339Y-27638
X45382Y-45738
X45535Y-25606
X45618Y-30512
X45776Y-35000
X45783Y-27591
X45810Y-34021
X46012Y-33150
X46209Y-45743
X46370Y-27646
X46374Y-26791
X46602Y-53780
X46657Y-45335
X46760Y-45748
X47114Y-40000
X47193Y-43327
X47311Y-48976
X47366Y-38091
X47437Y-36686
X47469Y-53780
X47665Y-55000
X47713Y-33134
X47862Y-27224
X47862Y-34173
X47862Y-53740
X48188Y-45350
X48217Y-54568
X48276Y-43012
X48295Y-33098
X48335Y-53799
X48689Y-47402
X49323Y-39728
X49359Y-53886
X49425Y-24622
X49488Y-54878
X49614Y-36364
X49614Y-37364
X49768Y-42126
X49835Y-31346
X49843Y-43370
X50020Y-33988
X50038Y-52322
X50087Y-50276
X50174Y-48031
X50197Y-38350
X50323Y-33732
X50461Y-45659
X50476Y-37399
X50500Y-52756
X50500Y-53543
X50547Y-34996
X50583Y-32094
X50805Y-52303
X51039Y-43630
X51055Y-49063
X51071Y-47815
X51094Y-33850
X51106Y-45303
X51604Y-48536
X51632Y-47067
X51642Y-45728
X51720Y-32150
X52016Y-35012
X52402Y-49205
X52465Y-34807
X52626Y-29213
X52651Y-30925
X52657Y-32567
X52724Y-36165
X52961Y-45051
X52990Y-40354
X53051Y-35858
X53106Y-34181
X53295Y-39016
X53752Y-44579
X53894Y-38012
X54156Y-45728
X54156Y-48563
X54185Y-51433
X54520Y-51776
X54872Y-55039
X55369Y-49862
X55724Y-29449
X56244Y-32898
X56283Y-31319
X56283Y-42480
X56327Y-29882
X57286Y-27165
X57319Y-55728
X57366Y-52937
X57592Y-24626
X57744Y-29488
X57843Y-52433
X57911Y-32982
X58150Y-47622
X58169Y-27748
X58212Y-25562
X58244Y-53091
X58352Y-49033
X58764Y-35972
X58957Y-51646
X58965Y-24370
X59024Y-54921
X59106Y-57835
X59256Y-44831
X59361Y-51938
X59764Y-53000
X59925Y-52071
X60012Y-53819
X60181Y-47740
X60362Y-52933
X60421Y-26457
X60762Y-23553
X60803Y-36815
X60846Y-52079
X61039Y-52969
X61209Y-27638
X61425Y-32972
X61673Y-46173
X61760Y-26693
X61774Y-28681
X62272Y-29331
X62335Y-47539
X62488Y-50028
X62492Y-25437
X62537Y-55148
X62768Y-53240
X62862Y-29833
X62902Y-24090
X62902Y-28858
X63084Y-48022
X63091Y-45961
X63362Y-25850
X63496Y-59021
X63781Y-53665
X63791Y-55299
X64053Y-29370
X64071Y-52945
X64201Y-43780
X64374Y-53717
X64449Y-54422
X64484Y-53209
X64728Y-50248
X64732Y-39843
X64732Y-46299
X64795Y-52862
X64811Y-54134
X64988Y-30315
X65008Y-53701
X65126Y-59207
X65224Y-49469
X65335Y-50169
X65456Y-33307
X65484Y-35622
X65539Y-34104
X65593Y-49173
X65746Y-25571
X65815Y-43839
X65909Y-54689
X66017Y-36378
X66035Y-59013
X66154Y-53783
X66161Y-55988
X66248Y-48539
X66263Y-50700
X66433Y-46240
X66461Y-35610
X66543Y-26634
X66592Y-47322
X66681Y-25344
X66760Y-33346
X66768Y-50606
X66799Y-31063
X66819Y-46693
X66878Y-30472
X66917Y-34094
X66937Y-46142
X66984Y-45591
X67024Y-40469
X67118Y-54654
X67142Y-35327
X67154Y-29961
X67311Y-30433
X67354Y-57488
X67459Y-22480
X67535Y-39138
X67579Y-35142
X67587Y-46673
X67626Y-36074
X67791Y-55545
X67823Y-29213
X67862Y-54539
X67902Y-26022
X68020Y-38031
X68098Y-48676
X68167Y-43445
X68404Y-40256
X68492Y-38622
X68571Y-30630
X68571Y-52362
X68646Y-42500
X68650Y-33780
X68787Y-28130
X68787Y-48150
X68795Y-55122
X68797Y-29833
X68797Y-40531
X68807Y-55728
X68819Y-24697
X69152Y-30059
X69171Y-37618
X69177Y-33252
X69323Y-24902
X69398Y-33701
X69467Y-34183
X69476Y-39178
X69476Y-39798
X69484Y-55350
X69535Y-47007
X69677Y-40583
X70339Y-30406
X70343Y-36063
X70574Y-53036
X70584Y-34252
X70598Y-45492
X70717Y-30167
X70736Y-26522
X70780Y-42535
X70785Y-27530
X70854Y-31998
X70870Y-37114
X71204Y-34252
X71283Y-48768
X71295Y-29894
X71299Y-39319
X71303Y-33236
X71327Y-36093
X71413Y-53764
X71610Y-40362
X71630Y-46929
X71709Y-42709
X71758Y-34506
X71846Y-24236
X71917Y-41520
X71921Y-40622
X71927Y-23652
X72104Y-26801
X72242Y-22087
X72321Y-28337
X72587Y-34055
X72630Y-39343
X72660Y-44034
X72696Y-27098
X72764Y-32067
X72764Y-35984
X72783Y-32520
X72846Y-37791
X72980Y-30236
X73071Y-24236
X73087Y-45984
X73174Y-26764
X73232Y-39441
X73256Y-32677
X73256Y-34528
X73256Y-49921
X73335Y-28043
X73433Y-36181
X73557Y-37057
X73571Y-50591
X73591Y-48927
X73657Y-28421
X73787Y-45787
X73832Y-39744
X73854Y-35622
X73906Y-45109
X74161Y-53780
X74465Y-38067
X74488Y-42268
X74504Y-28433
X74866Y-27638
X74909Y-45738
X75063Y-25606
X75146Y-30512
X75303Y-35000
X75311Y-27591
X75338Y-34021
X75539Y-33150
X75736Y-45743
X75898Y-27646
X75902Y-26791
X76130Y-53780
X76185Y-45335
X76287Y-45748
X76642Y-40000
X76720Y-43327
X76839Y-48976
X76894Y-38091
X76965Y-36686
X76996Y-53780
X77193Y-55000
X77240Y-33134
X77390Y-27224
X77390Y-34173
X77390Y-53740
X77715Y-45350
X77744Y-54568
X77803Y-43012
X77823Y-33098
X77862Y-53799
X78217Y-47402
X78850Y-39728
X78887Y-53886
X78953Y-24622
X79016Y-54878
X79142Y-36364
X79142Y-37364
X79295Y-42126
X79362Y-31346
X79370Y-43370
X79547Y-33988
X79566Y-52322
X79614Y-50276
X79702Y-48031
X79724Y-38350
X79850Y-33732
X79988Y-45659
X80004Y-37399
X80028Y-52756
X80028Y-53543
X80075Y-34996
X80110Y-32094
X80333Y-52303
X80567Y-43630
X80583Y-49063
X80598Y-47815
X80622Y-33850
X80634Y-45303
X81132Y-48536
X81159Y-47067
X81169Y-45728
X81248Y-32150
X81543Y-35012
X81929Y-49205
X81992Y-34807
X82154Y-29213
X82178Y-30925
X82185Y-32567
X82252Y-36165
X82488Y-45051
X82518Y-40354
X82579Y-35858
X82634Y-34181
X82823Y-39016
X83280Y-44579
X83421Y-38012
X83684Y-45728
X83684Y-48563
X83713Y-51433
X84047Y-51776
X84400Y-55039
X84897Y-49862
X85252Y-29449
X85772Y-32898
X85811Y-31319
X85811Y-42480
X85854Y-29882
X86814Y-27165
X86846Y-55728
X86894Y-52937
X87119Y-24626
X87272Y-29488
X87370Y-52433
X87439Y-32982
X87677Y-47622
X87697Y-27748
X87739Y-25562
X87772Y-53091
X87880Y-49033
X88291Y-35972
X88484Y-51646
X88492Y-24370
X88551Y-54921
X88634Y-57835
X88783Y-44831
X88889Y-51938
X89291Y-53000
X89453Y-52071
X89539Y-53819
X89709Y-47740
X89890Y-52933
X89949Y-26457
X90289Y-23553
X90331Y-36815
X90374Y-52079
X90567Y-52969
X90736Y-27638
X90953Y-32972
X91201Y-46173
X91287Y-26693
X91302Y-28681
X91799Y-29331
X91862Y-47539
X92016Y-50028
X92020Y-25437
X92065Y-55148
X92295Y-53240
X92390Y-29833
X92429Y-24090
X92429Y-28858
X92612Y-48022
X92618Y-45961
X92890Y-25850
X93024Y-59021
X93308Y-53665
X93319Y-55299
X93581Y-29370
X93598Y-52945
X93728Y-43780
X93902Y-53717
X93976Y-54422
X94012Y-53209
X94256Y-50248
X94260Y-39843
X94260Y-46299
X94323Y-52862
X94339Y-54134
X94516Y-30315
X94535Y-53701
X94654Y-59207
X94752Y-49469
X94862Y-50169
X94983Y-33307
X95012Y-35622
X95067Y-34104
X95121Y-49173
X95274Y-25571
X95343Y-43839
X95437Y-54689
X95544Y-36378
X95563Y-59013
X95681Y-53783
X95689Y-55988
X95776Y-48539
X95790Y-50700
X95961Y-46240
X95988Y-35610
X96071Y-26634
X96119Y-47322
X96209Y-25344
X96287Y-33346
X96295Y-50606
X96327Y-31063
X96346Y-46693
X96406Y-30472
X96445Y-34094
X96465Y-46142
X96512Y-45591
X96551Y-40469
X96646Y-54654
X96669Y-35327
X96681Y-29961
X96839Y-30433
X96882Y-57488
X96986Y-22480
X97063Y-39138
X97106Y-35142
X97114Y-46673
X97154Y-36074
X97319Y-55545
X97350Y-29213
X97390Y-54539
X97429Y-26022
X97547Y-38031
X97626Y-48676
X97695Y-43445
X97931Y-40256
X98020Y-38622
X98098Y-30630
X98098Y-52362
X98173Y-42500
X98177Y-33780
X98315Y-28130
X98315Y-48150
X98323Y-55122
X98325Y-29833
X98325Y-40531
X98335Y-55728
X98346Y-24697
X98679Y-30059
X98699Y-37618
X98705Y-33252
X98850Y-24902
X98925Y-33701
X98994Y-34183
X99004Y-39178
X99004Y-39798
X99012Y-55350
X99063Y-47007
X99205Y-40583
X99866Y-30406
X99870Y-36063
X100101Y-53036
X100111Y-34252
X100126Y-45492
X100244Y-30167
X100264Y-26522
X100307Y-42535
X100313Y-27530
X100382Y-31998
X100398Y-37114
X100731Y-34252
X100811Y-48768
X100823Y-29894
X100827Y-39319
X100831Y-33236
X100854Y-36093
X100941Y-53764
X101138Y-40362
X101157Y-46929
X101236Y-42709
X101286Y-34506
X101374Y-24236
X101445Y-41520
X101449Y-40622
X101455Y-23652
X101632Y-26801
X101770Y-22087
X101848Y-28337
X102114Y-34055
X102157Y-39343
X102188Y-44034
X102223Y-27098
X102291Y-32067
X102291Y-35984
X102311Y-32520
X102374Y-37791
X102508Y-30236
X102598Y-24236
X102614Y-45984
X102702Y-26764
X102760Y-39441
X102783Y-32677
X102783Y-34528
X102783Y-49921
X102862Y-28043
X102961Y-36181
X103085Y-37057
X103098Y-50591
X103118Y-48927
X103185Y-28421
X103315Y-45787
X103359Y-39744
X103382Y-35622
X103433Y-45109
X103689Y-53780
X103992Y-38067
X104016Y-42268
X104031Y-28433
X104394Y-27638
X104437Y-45738
X104591Y-25606
X104673Y-30512
X104831Y-35000
X104839Y-27591
X104865Y-34021
X105067Y-33150
X105264Y-45743
X105425Y-27646
X105429Y-26791
X105657Y-53780
X105713Y-45335
X105815Y-45748
X106169Y-40000
X106248Y-43327
X106366Y-48976
X106421Y-38091
X106492Y-36686
X106524Y-53780
X106720Y-55000
X106768Y-33134
X106917Y-27224
X106917Y-34173
X106917Y-53740
X107243Y-45350
X107272Y-54568
X107331Y-43012
X107350Y-33098
X107390Y-53799
X107744Y-47402
X108378Y-39728
X108415Y-53886
X108480Y-24622
X108543Y-54878
X108669Y-36364
X108669Y-37364
X108823Y-42126
X108890Y-31346
X108898Y-43370
X109075Y-33988
X109093Y-52322
X109142Y-50276
X109230Y-48031
X109252Y-38350
X109378Y-33732
X109516Y-45659
X109531Y-37399
X109555Y-52756
X109555Y-53543
X109602Y-34996
X109638Y-32094
X109860Y-52303
X110094Y-43630
X110110Y-49063
X110126Y-47815
X110150Y-33850
X110161Y-45303
X110660Y-48536
X110687Y-47067
X110697Y-45728
X110776Y-32150
X111071Y-35012
X111457Y-49205
X111520Y-34807
X111681Y-29213
X111706Y-30925
X111713Y-32567
X111780Y-36165
X112016Y-45051
X112045Y-40354
X112106Y-35858
X112161Y-34181
X112350Y-39016
X112807Y-44579
X112949Y-38012
X113212Y-45728
X113212Y-48563
X113240Y-51433
X113575Y-51776
X113927Y-55039
T2
X-1839Y-52051
X-907Y-39705
X-248Y-30906
X2705Y-51799
X4417Y-35374
X7272Y-34724
X8768Y-36772
X8768Y-37362
X8925Y-44685
X9673Y-36339
X9772Y-43012
X10475Y-45315
X10579Y-44646
X13472Y-41043
X14757Y-40551
X15776Y-43386
X17449Y-40941
X17835Y-44567
X18866Y-44819
X19433Y-40252
X19811Y-41752
X20252Y-45984
X21169Y-40906
X21450Y-37047
X21661Y-51701
X22626Y-41299
X23413Y-38268
X24610Y-52979
X27689Y-52051
X28620Y-39705
X29280Y-30906
X32232Y-51799
X33945Y-35374
X36799Y-34724
X38295Y-36772
X38295Y-37362
X38453Y-44685
X39201Y-36339
X39299Y-43012
X40003Y-45315
X40106Y-44646
X43000Y-41043
X44284Y-40551
X45303Y-43386
X46976Y-40941
X47362Y-44567
X48394Y-44819
X48961Y-40252
X49339Y-41752
X49780Y-45984
X50697Y-40906
X50977Y-37047
X51189Y-51701
X52154Y-41299
X52941Y-38268
X54138Y-52979
X57217Y-52051
X58148Y-39705
X58807Y-30906
X61760Y-51799
X63472Y-35374
X66327Y-34724
X67823Y-36772
X67823Y-37362
X67980Y-44685
X68728Y-36339
X68827Y-43012
X69531Y-45315
X69634Y-44646
X72528Y-41043
X73812Y-40551
X74831Y-43386
X76504Y-40941
X76890Y-44567
X77921Y-44819
X78488Y-40252
X78866Y-41752
X79307Y-45984
X80224Y-40906
X80505Y-37047
X80717Y-51701
X81681Y-41299
X82469Y-38268
X83665Y-52979
X86744Y-52051
X87675Y-39705
X88335Y-30906
X91287Y-51799
X93000Y-35374
X95854Y-34724
X97350Y-36772
X97350Y-37362
X97508Y-44685
X98256Y-36339
X98354Y-43012
X99058Y-45315
X99161Y-44646
X102055Y-41043
X103340Y-40551
X104358Y-43386
X106031Y-40941
X106417Y-44567
X107449Y-44819
X108016Y-40252
X108394Y-41752
X108835Y-45984
X109752Y-40906
X110032Y-37047
X110244Y-51701
X111209Y-41299
X111996Y-38268
X113193Y-52979
T3
X4138Y-54555
X6146Y-55185
X33665Y-54555
X35673Y-55185
X63193Y-54555
X65201Y-55185
X92720Y-54555
X94728Y-55185
T4
X14319Y-43386
X14319Y-44173
X43846Y-43386
X43846Y-44173
X73374Y-43386
X73374Y-44173
X102902Y-43386
X102902Y-44173
T5
X815Y-27205
X815Y-28189
X4516Y-30906
X4516Y-31890
X10933Y-37205
X12854Y-37205
X30343Y-27205
X30343Y-28189
X34043Y-30906
X34043Y-31890
X40461Y-37205
X42382Y-37205
X59870Y-27205
X59870Y-28189
X63571Y-30906
X63571Y-31890
X69988Y-37205
X71909Y-37205
X89398Y-27205
X89398Y-28189
X93098Y-30906
X93098Y-31890
X99516Y-37205
X101437Y-37205
T6
X2921Y-56791
X2921Y-57972
X4102Y-57972
X4114Y-56780
X5283Y-57972
X5295Y-56780
X5343Y-23504
X5343Y-24504
X5343Y-25504
X5343Y-26504
X5343Y-27504
X5343Y-28504
X6465Y-57972
X6476Y-56780
X7366Y-23366
X7646Y-57972
X7657Y-56780
X8366Y-23366
X8827Y-57972
X8839Y-56780
X9366Y-23366
X10008Y-57972
X10020Y-56780
X10366Y-23366
X11189Y-57972
X11201Y-56780
X11366Y-23366
X12370Y-57972
X12382Y-56780
X13984Y-25858
X16976Y-25858
X17476Y-22748
X18476Y-22748
X19476Y-22748
X21720Y-54567
X22720Y-54567
X23720Y-54567
X24720Y-54567
X32449Y-56791
X32449Y-57972
X33630Y-57972
X33642Y-56780
X34811Y-57972
X34823Y-56780
X34870Y-23504
X34870Y-24504
X34870Y-25504
X34870Y-26504
X34870Y-27504
X34870Y-28504
X35992Y-57972
X36004Y-56780
X36894Y-23366
X37173Y-57972
X37185Y-56780
X37894Y-23366
X38354Y-57972
X38366Y-56780
X38894Y-23366
X39535Y-57972
X39547Y-56780
X39894Y-23366
X40717Y-57972
X40728Y-56780
X40894Y-23366
X41898Y-57972
X41909Y-56780
X43512Y-25858
X46504Y-25858
X47004Y-22748
X48004Y-22748
X49004Y-22748
X51248Y-54567
X52248Y-54567
X53248Y-54567
X54248Y-54567
X61976Y-56791
X61976Y-57972
X63157Y-57972
X63169Y-56780
X64339Y-57972
X64350Y-56780
X64398Y-23504
X64398Y-24504
X64398Y-25504
X64398Y-26504
X64398Y-27504
X64398Y-28504
X65520Y-57972
X65531Y-56780
X66421Y-23366
X66701Y-57972
X66713Y-56780
X67421Y-23366
X67882Y-57972
X67894Y-56780
X68421Y-23366
X69063Y-57972
X69075Y-56780
X69421Y-23366
X70244Y-57972
X70256Y-56780
X70421Y-23366
X71425Y-57972
X71437Y-56780
X73039Y-25858
X76031Y-25858
X76531Y-22748
X77531Y-22748
X78531Y-22748
X80776Y-54567
X81776Y-54567
X82776Y-54567
X83776Y-54567
X91504Y-56791
X91504Y-57972
X92685Y-57972
X92697Y-56780
X93866Y-57972
X93878Y-56780
X93925Y-23504
X93925Y-24504
X93925Y-25504
X93925Y-26504
X93925Y-27504
X93925Y-28504
X95047Y-57972
X95059Y-56780
X95949Y-23366
X96228Y-57972
X96240Y-56780
X96949Y-23366
X97409Y-57972
X97421Y-56780
X97949Y-23366
X98591Y-57972
X98602Y-56780
X98949Y-23366
X99772Y-57972
X99783Y-56780
X99949Y-23366
X100953Y-57972
X100965Y-56780
X102567Y-25858
X105559Y-25858
X106059Y-22748
X107059Y-22748
X108059Y-22748
X110303Y-54567
X111303Y-54567
X112303Y-54567
X113303Y-54567
T7
X-1862Y-43394
X-1862Y-44394
X-1862Y-45394
X27665Y-43394
X27665Y-44394
X27665Y-45394
X57193Y-43394
X57193Y-44394
X57193Y-45394
X86720Y-43394
X86720Y-44394
X86720Y-45394
T8
X-2307Y-48850
X-2307Y-53654
X55Y-48063
X2417Y-48850
X2417Y-53654
X27220Y-48850
X27220Y-53654
X29583Y-48063
X31945Y-48850
X31945Y-53654
X56748Y-48850
X56748Y-53654
X59110Y-48063
X61472Y-48850
X61472Y-53654
X86276Y-48850
X86276Y-53654
X88638Y-48063
X91000Y-48850
X91000Y-53654
T9
X-2894Y-51252
X-2894Y-55268
X-925Y-50268
X1043Y-51252
X1043Y-55268
X26634Y-51252
X26634Y-55268
X28602Y-50268
X30571Y-51252
X30571Y-55268
X56161Y-51252
X56161Y-55268
X58130Y-50268
X60098Y-51252
X60098Y-55268
X85689Y-51252
X85689Y-55268
X87657Y-50268
X89626Y-51252
X89626Y-55268
T10
X15441Y-57303
X19043Y-57283
X44969Y-57303
X48571Y-57283
X74496Y-57303
X78098Y-57283
X104024Y-57303
X107626Y-57283
T11
X14441Y-56303
X14441Y-58303
X16441Y-56303
X16441Y-58303
X18043Y-56283
X18043Y-58283
X20043Y-56283
X20043Y-58283
X43969Y-56303
X43969Y-58303
X45969Y-56303
X45969Y-58303
X47571Y-56283
X47571Y-58283
X49571Y-56283
X49571Y-58283
X73496Y-56303
X73496Y-58303
X75496Y-56303
X75496Y-58303
X77098Y-56283
X77098Y-58283
X79098Y-56283
X79098Y-58283
X103024Y-56303
X103024Y-58303
X105024Y-56303
X105024Y-58303
X106626Y-56283
X106626Y-58283
X108626Y-56283
X108626Y-58283
T12
X21327Y-25346
X21327Y-28299
X22232Y-57047
X23965Y-57047
X50854Y-25346
X50854Y-28299
X51760Y-57047
X53492Y-57047
X80382Y-25346
X80382Y-28299
X81287Y-57047
X83020Y-57047
X109909Y-25346
X109909Y-28299
X110815Y-57047
X112547Y-57047
T13
X-5917Y-25583
X-5917Y-55500
X-12Y-17709
X-12Y-63378
X110220Y-63374
X110236Y-17717
X116126Y-55500
X116142Y-25591
T0
M30
