M48
; DRILL file {KiCad 7.0.5} date Wed Jan 15 09:14:10 2025
; FORMAT={-:-/ absolute / metric / decimal}
; #@! TF.CreationDate,2025-01-15T09:14:10+03:00
; #@! TF.GenerationSoftware,Kicad,Pcbnew,7.0.5
; #@! TF.FileFunction,Plated,1,2,PTH
FMAT,2
METRIC
; #@! TA.AperFunction,Plated,PTH,ViaDrill
T1C0.400
; #@! TA.AperFunction,Plated,PTH,ComponentDrill
T2C0.500
; #@! TA.AperFunction,Plated,PTH,ComponentDrill
T3C0.710
; #@! TA.AperFunction,Plated,PTH,ComponentDrill
T4C0.750
; #@! TA.AperFunction,Plated,PTH,ComponentDrill
T5C0.800
; #@! TA.AperFunction,Plated,PTH,ComponentDrill
T6C1.000
; #@! TA.AperFunction,Plated,PTH,ComponentDrill
T7C1.020
; #@! TA.AperFunction,Plated,PTH,ComponentDrill
T8C1.300
; #@! TA.AperFunction,Plated,PTH,ComponentDrill
T9C1.500
; #@! TA.AperFunction,Plated,PTH,ComponentDrill
T10C1.700
%
G90
G05
T1
X66.325Y-128.125
X66.525Y-141.425
X68.0Y-130.775
X68.277Y-126.161
X70.9Y-165.25
X70.975Y-122.3
X71.275Y-162.725
X71.35Y-137.05
X71.724Y-152.739
X71.95Y-142.225
X72.174Y-164.225
X72.7Y-188.625
X72.72Y-182.055
X72.95Y-145.3
X73.8Y-123.975
X74.35Y-139.375
X75.748Y-150.274
X75.75Y-139.433
X75.775Y-128.425
X76.65Y-161.188
X76.942Y-152.967
X77.075Y-151.775
X77.25Y-189.65
X79.104Y-161.524
X79.4Y-190.725
X80.13Y-140.745
X80.15Y-149.029
X81.4Y-126.9
X82.125Y-151.5
X82.4Y-132.875
X82.688Y-130.062
X82.75Y-170.825
X83.099Y-161.06
X83.45Y-142.375
X83.587Y-145.112
X84.649Y-148.089
X84.745Y-138.275
X84.75Y-193.875
X85.675Y-144.781
X85.817Y-146.317
X86.85Y-144.781
X87.45Y-135.675
X87.8Y-131.475
X87.93Y-148.73
X88.08Y-140.741
X88.125Y-125.025
X88.15Y-126.245
X88.7Y-193.775
X88.725Y-165.075
X89.05Y-129.2
X89.05Y-142.167
X89.1Y-149.85
X90.225Y-151.353
X90.45Y-128.45
X90.5Y-133.875
X90.725Y-177.725
X90.842Y-153.829
X90.847Y-171.461
X90.85Y-148.75
X91.0Y-172.675
X91.33Y-170.445
X91.35Y-124.975
X91.525Y-180.15
X91.7Y-136.425
X91.83Y-175.705
X92.175Y-139.027
X92.175Y-165.15
X92.592Y-174.942
X93.3Y-179.475
X93.37Y-160.845
X93.452Y-174.083
X93.675Y-166.1
X93.85Y-178.1
X93.875Y-145.45
X94.125Y-138.3
X94.15Y-156.925
X94.221Y-131.371
X94.39Y-186.775
X94.475Y-158.8
X94.575Y-169.95
X94.975Y-177.35
X95.462Y-123.375
X95.649Y-133.223
X95.918Y-159.182
X96.05Y-118.075
X96.321Y-122.865
X96.375Y-139.925
X96.4Y-153.975
X96.48Y-133.779
X96.65Y-131.4
X96.95Y-151.875
X97.125Y-167.996
X97.625Y-131.175
X98.131Y-137.597
X98.2Y-118.6
X98.2Y-120.671
X98.245Y-122.745
X98.45Y-183.5
X98.5Y-161.025
X98.575Y-143.725
X98.598Y-147.2
X99.125Y-133.55
X99.425Y-177.1
X99.85Y-127.75
X100.075Y-173.35
X100.1Y-168.45
X100.162Y-157.112
X100.173Y-149.35
X100.225Y-142.175
X100.275Y-134.575
X100.382Y-139.35
X100.45Y-130.05
X100.733Y-162.393
X101.035Y-160.575
X101.075Y-166.825
X101.3Y-121.675
X101.525Y-173.35
X101.577Y-133.049
X101.65Y-181.275
X101.695Y-149.07
X101.925Y-159.55
X101.975Y-122.8
X102.225Y-163.575
X102.763Y-141.381
X102.786Y-151.261
X102.85Y-123.55
X102.875Y-147.325
X102.882Y-135.58
X102.975Y-144.8
X103.716Y-142.459
X104.162Y-136.6
X104.65Y-180.475
X104.905Y-144.345
X105.047Y-141.669
X105.162Y-136.6
X105.166Y-131.55
X105.212Y-134.364
X105.3Y-123.925
X105.425Y-126.85
X105.425Y-152.125
X105.448Y-159.423
X105.9Y-163.275
X106.107Y-130.793
X106.126Y-141.688
X106.8Y-172.575
X106.844Y-161.144
X107.05Y-164.625
X107.477Y-127.827
X107.772Y-168.478
X107.8Y-121.125
X107.95Y-175.775
X108.05Y-143.6
X108.3Y-146.6
X108.5Y-154.112
X108.55Y-167.85
X109.25Y-116.7
X109.58Y-131.445
X109.582Y-145.407
X109.751Y-132.743
X110.625Y-137.6
X111.183Y-134.742
X111.575Y-140.712
X111.8Y-162.964
X111.814Y-169.425
X112.236Y-167.928
X112.426Y-164.524
X112.925Y-169.425
X113.358Y-157.125
X113.4Y-129.65
X114.0Y-158.219
X114.095Y-146.425
X114.625Y-128.675
X114.65Y-126.85
X114.7Y-150.9
X114.775Y-132.5
X115.375Y-116.175
X116.25Y-149.625
X116.35Y-145.55
X116.525Y-155.881
X116.85Y-134.95
X116.925Y-130.991
X117.599Y-149.772
X117.8Y-156.25
X117.948Y-122.325
X118.025Y-146.425
X118.575Y-127.6
X118.6Y-123.125
X119.1Y-144.282
X119.875Y-132.025
X120.175Y-119.925
X120.275Y-150.825
X121.025Y-140.825
X121.13Y-134.8
X121.925Y-119.75
X121.998Y-124.95
X121.998Y-128.404
X122.855Y-144.78
X122.875Y-161.6
X122.946Y-131.396
X123.233Y-132.651
X123.275Y-143.3
X123.952Y-122.9
X124.525Y-140.45
X124.525Y-155.176
X124.612Y-156.512
X124.825Y-124.775
X124.975Y-148.925
X125.05Y-142.025
X125.175Y-123.45
X125.925Y-129.898
X126.125Y-169.675
X126.125Y-174.675
X126.452Y-125.075
X126.892Y-157.55
X127.05Y-129.323
X127.118Y-141.932
X127.277Y-134.711
X127.425Y-131.225
X127.75Y-125.11
X127.75Y-161.65
X127.825Y-164.7
X128.05Y-123.575
X128.143Y-132.782
X128.325Y-139.275
X128.444Y-128.026
X128.948Y-160.727
X129.05Y-178.65
X129.65Y-157.525
X129.925Y-162.975
X130.05Y-169.6
X130.3Y-173.25
X130.587Y-167.024
X131.325Y-170.8
X131.425Y-137.2
X131.875Y-145.45
X132.025Y-140.625
X132.126Y-157.625
X132.3Y-154.4
X132.675Y-191.0
X132.7Y-135.125
X132.705Y-168.975
X132.74Y-131.23
X132.788Y-158.533
X132.9Y-133.5
X133.926Y-163.464
X134.475Y-131.8
X134.5Y-133.525
X135.0Y-160.956
X135.425Y-152.775
X135.875Y-149.8
X135.925Y-146.05
X136.15Y-126.05
X136.925Y-173.975
X137.675Y-186.35
X141.325Y-128.125
X141.525Y-141.425
X143.0Y-130.775
X143.277Y-126.161
X145.9Y-165.25
X145.975Y-122.3
X146.275Y-162.725
X146.35Y-137.05
X146.724Y-152.739
X146.95Y-142.225
X147.174Y-164.225
X147.7Y-188.625
X147.72Y-182.055
X147.95Y-145.3
X148.8Y-123.975
X149.35Y-139.375
X150.748Y-150.274
X150.75Y-139.433
X150.775Y-128.425
X151.65Y-161.188
X151.942Y-152.967
X152.075Y-151.775
X152.25Y-189.65
X154.104Y-161.524
X154.4Y-190.725
X155.13Y-140.745
X155.15Y-149.029
X156.4Y-126.9
X157.125Y-151.5
X157.4Y-132.875
X157.688Y-130.062
X157.75Y-170.825
X158.099Y-161.06
X158.45Y-142.375
X158.588Y-145.112
X159.649Y-148.089
X159.745Y-138.275
X159.75Y-193.875
X160.675Y-144.781
X160.817Y-146.317
X161.85Y-144.781
X162.45Y-135.675
X162.8Y-131.475
X162.93Y-148.73
X163.08Y-140.741
X163.125Y-125.025
X163.15Y-126.245
X163.7Y-193.775
X163.725Y-165.075
X164.05Y-129.2
X164.05Y-142.167
X164.1Y-149.85
X165.225Y-151.353
X165.45Y-128.45
X165.5Y-133.875
X165.725Y-177.725
X165.842Y-153.829
X165.847Y-171.461
X165.85Y-148.75
X166.0Y-172.675
X166.33Y-170.445
X166.35Y-124.975
X166.525Y-180.15
X166.7Y-136.425
X166.83Y-175.705
X167.175Y-139.027
X167.175Y-165.15
X167.592Y-174.942
X168.3Y-179.475
X168.37Y-160.845
X168.452Y-174.083
X168.675Y-166.1
X168.85Y-178.1
X168.875Y-145.45
X169.125Y-138.3
X169.15Y-156.925
X169.221Y-131.371
X169.39Y-186.775
X169.475Y-158.8
X169.575Y-169.95
X169.975Y-177.35
X170.462Y-123.375
X170.649Y-133.223
X170.918Y-159.182
X171.05Y-118.075
X171.321Y-122.865
X171.375Y-139.925
X171.4Y-153.975
X171.48Y-133.779
X171.65Y-131.4
X171.95Y-151.875
X172.125Y-167.996
X172.625Y-131.175
X173.131Y-137.597
X173.2Y-118.6
X173.2Y-120.671
X173.245Y-122.745
X173.45Y-183.5
X173.5Y-161.025
X173.575Y-143.725
X173.598Y-147.2
X174.125Y-133.55
X174.425Y-177.1
X174.85Y-127.75
X175.075Y-173.35
X175.1Y-168.45
X175.162Y-157.112
X175.173Y-149.35
X175.225Y-142.175
X175.275Y-134.575
X175.382Y-139.35
X175.45Y-130.05
X175.733Y-162.393
X176.035Y-160.575
X176.075Y-166.825
X176.3Y-121.675
X176.525Y-173.35
X176.577Y-133.049
X176.65Y-181.275
X176.695Y-149.07
X176.925Y-159.55
X176.975Y-122.8
X177.225Y-163.575
X177.763Y-141.381
X177.786Y-151.261
X177.85Y-123.55
X177.875Y-147.325
X177.882Y-135.58
X177.975Y-144.8
X178.716Y-142.459
X179.162Y-136.6
X179.65Y-180.475
X179.905Y-144.345
X180.047Y-141.669
X180.162Y-136.6
X180.166Y-131.55
X180.212Y-134.364
X180.3Y-123.925
X180.425Y-126.85
X180.425Y-152.125
X180.448Y-159.423
X180.9Y-163.275
X181.107Y-130.793
X181.126Y-141.688
X181.8Y-172.575
X181.844Y-161.144
X182.05Y-164.625
X182.477Y-127.827
X182.772Y-168.478
X182.8Y-121.125
X182.95Y-175.775
X183.05Y-143.6
X183.3Y-146.6
X183.5Y-154.112
X183.55Y-167.85
X184.25Y-116.7
X184.58Y-131.445
X184.582Y-145.407
X184.751Y-132.743
X185.625Y-137.6
X186.183Y-134.742
X186.575Y-140.712
X186.8Y-162.964
X186.814Y-169.425
X187.236Y-167.928
X187.426Y-164.524
X187.925Y-169.425
X188.358Y-157.125
X188.4Y-129.65
X189.0Y-158.219
X189.095Y-146.425
X189.625Y-128.675
X189.65Y-126.85
X189.7Y-150.9
X189.775Y-132.5
X190.375Y-116.175
X191.25Y-149.625
X191.35Y-145.55
X191.525Y-155.881
X191.85Y-134.95
X191.925Y-130.991
X192.599Y-149.772
X192.8Y-156.25
X192.948Y-122.325
X193.025Y-146.425
X193.575Y-127.6
X193.6Y-123.125
X194.1Y-144.282
X194.875Y-132.025
X195.175Y-119.925
X195.275Y-150.825
X196.025Y-140.825
X196.13Y-134.8
X196.925Y-119.75
X196.998Y-124.95
X196.998Y-128.404
X197.855Y-144.78
X197.875Y-161.6
X197.946Y-131.396
X198.233Y-132.651
X198.275Y-143.3
X198.952Y-122.9
X199.525Y-140.45
X199.525Y-155.176
X199.612Y-156.512
X199.825Y-124.775
X199.975Y-148.925
X200.05Y-142.025
X200.175Y-123.45
X200.925Y-129.898
X201.125Y-169.675
X201.125Y-174.675
X201.452Y-125.075
X201.892Y-157.55
X202.05Y-129.323
X202.118Y-141.932
X202.277Y-134.711
X202.425Y-131.225
X202.75Y-125.11
X202.75Y-161.65
X202.825Y-164.7
X203.05Y-123.575
X203.143Y-132.782
X203.325Y-139.275
X203.444Y-128.026
X203.948Y-160.727
X204.05Y-178.65
X204.65Y-157.525
X204.925Y-162.975
X205.05Y-169.6
X205.3Y-173.25
X205.587Y-167.024
X206.325Y-170.8
X206.425Y-137.2
X206.875Y-145.45
X207.025Y-140.625
X207.126Y-157.625
X207.3Y-154.4
X207.675Y-191.0
X207.7Y-135.125
X207.705Y-168.975
X207.74Y-131.23
X207.788Y-158.533
X207.9Y-133.5
X208.926Y-163.464
X209.475Y-131.8
X209.5Y-133.525
X210.0Y-160.956
X210.425Y-152.775
X210.875Y-149.8
X210.925Y-146.05
X211.15Y-126.05
X211.925Y-173.975
X212.675Y-186.35
X216.325Y-128.125
X216.525Y-141.425
X218.0Y-130.775
X218.277Y-126.161
X220.9Y-165.25
X220.975Y-122.3
X221.275Y-162.725
X221.35Y-137.05
X221.724Y-152.739
X221.95Y-142.225
X222.174Y-164.225
X222.7Y-188.625
X222.72Y-182.055
X222.95Y-145.3
X223.8Y-123.975
X224.35Y-139.375
X225.748Y-150.274
X225.75Y-139.433
X225.775Y-128.425
X226.65Y-161.188
X226.942Y-152.967
X227.075Y-151.775
X227.25Y-189.65
X229.104Y-161.524
X229.4Y-190.725
X230.13Y-140.745
X230.15Y-149.029
X231.4Y-126.9
X232.125Y-151.5
X232.4Y-132.875
X232.688Y-130.062
X232.75Y-170.825
X233.099Y-161.06
X233.45Y-142.375
X233.587Y-145.112
X234.649Y-148.089
X234.745Y-138.275
X234.75Y-193.875
X235.675Y-144.781
X235.817Y-146.317
X236.85Y-144.781
X237.45Y-135.675
X237.8Y-131.475
X237.93Y-148.73
X238.08Y-140.741
X238.125Y-125.025
X238.15Y-126.245
X238.7Y-193.775
X238.725Y-165.075
X239.05Y-129.2
X239.05Y-142.167
X239.1Y-149.85
X240.225Y-151.353
X240.45Y-128.45
X240.5Y-133.875
X240.725Y-177.725
X240.842Y-153.829
X240.847Y-171.461
X240.85Y-148.75
X241.0Y-172.675
X241.33Y-170.445
X241.35Y-124.975
X241.525Y-180.15
X241.7Y-136.425
X241.83Y-175.705
X242.175Y-139.027
X242.175Y-165.15
X242.592Y-174.942
X243.3Y-179.475
X243.37Y-160.845
X243.452Y-174.083
X243.675Y-166.1
X243.85Y-178.1
X243.875Y-145.45
X244.125Y-138.3
X244.15Y-156.925
X244.221Y-131.371
X244.39Y-186.775
X244.475Y-158.8
X244.575Y-169.95
X244.975Y-177.35
X245.462Y-123.375
X245.649Y-133.223
X245.918Y-159.182
X246.05Y-118.075
X246.321Y-122.865
X246.375Y-139.925
X246.4Y-153.975
X246.48Y-133.779
X246.65Y-131.4
X246.95Y-151.875
X247.125Y-167.996
X247.625Y-131.175
X248.131Y-137.597
X248.2Y-118.6
X248.2Y-120.671
X248.245Y-122.745
X248.45Y-183.5
X248.5Y-161.025
X248.575Y-143.725
X248.598Y-147.2
X249.125Y-133.55
X249.425Y-177.1
X249.85Y-127.75
X250.075Y-173.35
X250.1Y-168.45
X250.162Y-157.112
X250.173Y-149.35
X250.225Y-142.175
X250.275Y-134.575
X250.382Y-139.35
X250.45Y-130.05
X250.733Y-162.393
X251.035Y-160.575
X251.075Y-166.825
X251.3Y-121.675
X251.525Y-173.35
X251.577Y-133.049
X251.65Y-181.275
X251.695Y-149.07
X251.925Y-159.55
X251.975Y-122.8
X252.225Y-163.575
X252.763Y-141.381
X252.786Y-151.261
X252.85Y-123.55
X252.875Y-147.325
X252.882Y-135.58
X252.975Y-144.8
X253.716Y-142.459
X254.162Y-136.6
X254.65Y-180.475
X254.905Y-144.345
X255.047Y-141.669
X255.162Y-136.6
X255.166Y-131.55
X255.212Y-134.364
X255.3Y-123.925
X255.425Y-126.85
X255.425Y-152.125
X255.448Y-159.423
X255.9Y-163.275
X256.107Y-130.793
X256.126Y-141.688
X256.8Y-172.575
X256.844Y-161.144
X257.05Y-164.625
X257.477Y-127.827
X257.772Y-168.478
X257.8Y-121.125
X257.95Y-175.775
X258.05Y-143.6
X258.3Y-146.6
X258.5Y-154.112
X258.55Y-167.85
X259.25Y-116.7
X259.58Y-131.445
X259.582Y-145.407
X259.751Y-132.743
X260.625Y-137.6
X261.183Y-134.742
X261.575Y-140.712
X261.8Y-162.964
X261.815Y-169.425
X262.236Y-167.928
X262.426Y-164.524
X262.925Y-169.425
X263.358Y-157.125
X263.4Y-129.65
X264.0Y-158.219
X264.095Y-146.425
X264.625Y-128.675
X264.65Y-126.85
X264.7Y-150.9
X264.775Y-132.5
X265.375Y-116.175
X266.25Y-149.625
X266.35Y-145.55
X266.525Y-155.881
X266.85Y-134.95
X266.925Y-130.991
X267.599Y-149.772
X267.8Y-156.25
X267.948Y-122.325
X268.025Y-146.425
X268.575Y-127.6
X268.6Y-123.125
X269.1Y-144.282
X269.875Y-132.025
X270.175Y-119.925
X270.275Y-150.825
X271.025Y-140.825
X271.13Y-134.8
X271.925Y-119.75
X271.998Y-124.95
X271.998Y-128.404
X272.855Y-144.78
X272.875Y-161.6
X272.946Y-131.396
X273.233Y-132.651
X273.275Y-143.3
X273.952Y-122.9
X274.525Y-140.45
X274.525Y-155.176
X274.613Y-156.512
X274.825Y-124.775
X274.975Y-148.925
X275.05Y-142.025
X275.175Y-123.45
X275.925Y-129.898
X276.125Y-169.675
X276.125Y-174.675
X276.452Y-125.075
X276.892Y-157.55
X277.05Y-129.323
X277.118Y-141.932
X277.277Y-134.711
X277.425Y-131.225
X277.75Y-125.11
X277.75Y-161.65
X277.825Y-164.7
X278.05Y-123.575
X278.143Y-132.782
X278.325Y-139.275
X278.444Y-128.026
X278.948Y-160.727
X279.05Y-178.65
X279.65Y-157.525
X279.925Y-162.975
X280.05Y-169.6
X280.3Y-173.25
X280.587Y-167.024
X281.325Y-170.8
X281.425Y-137.2
X281.875Y-145.45
X282.025Y-140.625
X282.126Y-157.625
X282.3Y-154.4
X282.675Y-191.0
X282.7Y-135.125
X282.705Y-168.975
X282.74Y-131.23
X282.788Y-158.533
X282.9Y-133.5
X283.926Y-163.464
X284.475Y-131.8
X284.5Y-133.525
X285.0Y-160.956
X285.425Y-152.775
X285.875Y-149.8
X285.925Y-146.05
X286.15Y-126.05
X286.925Y-173.975
X287.675Y-186.35
X291.325Y-128.125
X291.525Y-141.425
X293.0Y-130.775
X293.277Y-126.161
X295.9Y-165.25
X295.975Y-122.3
X296.275Y-162.725
X296.35Y-137.05
X296.724Y-152.739
X296.95Y-142.225
X297.174Y-164.225
X297.7Y-188.625
X297.72Y-182.055
X297.95Y-145.3
X298.8Y-123.975
X299.35Y-139.375
X300.748Y-150.274
X300.75Y-139.433
X300.775Y-128.425
X301.65Y-161.188
X301.942Y-152.967
X302.075Y-151.775
X302.25Y-189.65
X304.104Y-161.524
X304.4Y-190.725
X305.13Y-140.745
X305.15Y-149.029
X306.4Y-126.9
X307.125Y-151.5
X307.4Y-132.875
X307.688Y-130.062
X307.75Y-170.825
X308.099Y-161.06
X308.45Y-142.375
X308.587Y-145.112
X309.649Y-148.089
X309.745Y-138.275
X309.75Y-193.875
X310.675Y-144.781
X310.817Y-146.317
X311.85Y-144.781
X312.45Y-135.675
X312.8Y-131.475
X312.93Y-148.73
X313.08Y-140.741
X313.125Y-125.025
X313.15Y-126.245
X313.7Y-193.775
X313.725Y-165.075
X314.05Y-129.2
X314.05Y-142.167
X314.1Y-149.85
X315.225Y-151.353
X315.45Y-128.45
X315.5Y-133.875
X315.725Y-177.725
X315.842Y-153.829
X315.847Y-171.461
X315.85Y-148.75
X316.0Y-172.675
X316.33Y-170.445
X316.35Y-124.975
X316.525Y-180.15
X316.7Y-136.425
X316.83Y-175.705
X317.175Y-139.027
X317.175Y-165.15
X317.592Y-174.942
X318.3Y-179.475
X318.37Y-160.845
X318.452Y-174.083
X318.675Y-166.1
X318.85Y-178.1
X318.875Y-145.45
X319.125Y-138.3
X319.15Y-156.925
X319.221Y-131.371
X319.39Y-186.775
X319.475Y-158.8
X319.575Y-169.95
X319.975Y-177.35
X320.462Y-123.375
X320.649Y-133.223
X320.918Y-159.182
X321.05Y-118.075
X321.321Y-122.865
X321.375Y-139.925
X321.4Y-153.975
X321.48Y-133.779
X321.65Y-131.4
X321.95Y-151.875
X322.125Y-167.996
X322.625Y-131.175
X323.131Y-137.597
X323.2Y-118.6
X323.2Y-120.671
X323.245Y-122.745
X323.45Y-183.5
X323.5Y-161.025
X323.575Y-143.725
X323.598Y-147.2
X324.125Y-133.55
X324.425Y-177.1
X324.85Y-127.75
X325.075Y-173.35
X325.1Y-168.45
X325.162Y-157.112
X325.173Y-149.35
X325.225Y-142.175
X325.275Y-134.575
X325.382Y-139.35
X325.45Y-130.05
X325.733Y-162.393
X326.035Y-160.575
X326.075Y-166.825
X326.3Y-121.675
X326.525Y-173.35
X326.577Y-133.049
X326.65Y-181.275
X326.695Y-149.07
X326.925Y-159.55
X326.975Y-122.8
X327.225Y-163.575
X327.763Y-141.381
X327.786Y-151.261
X327.85Y-123.55
X327.875Y-147.325
X327.882Y-135.58
X327.975Y-144.8
X328.716Y-142.459
X329.162Y-136.6
X329.65Y-180.475
X329.905Y-144.345
X330.047Y-141.669
X330.162Y-136.6
X330.166Y-131.55
X330.212Y-134.364
X330.3Y-123.925
X330.425Y-126.85
X330.425Y-152.125
X330.448Y-159.423
X330.9Y-163.275
X331.107Y-130.793
X331.126Y-141.688
X331.8Y-172.575
X331.844Y-161.144
X332.05Y-164.625
X332.477Y-127.827
X332.772Y-168.478
X332.8Y-121.125
X332.95Y-175.775
X333.05Y-143.6
X333.3Y-146.6
X333.5Y-154.112
X333.55Y-167.85
X334.25Y-116.7
X334.58Y-131.445
X334.582Y-145.407
X334.751Y-132.743
X335.625Y-137.6
X336.183Y-134.742
X336.575Y-140.712
X336.8Y-162.964
X336.815Y-169.425
X337.236Y-167.928
X337.426Y-164.524
X337.925Y-169.425
X338.358Y-157.125
X338.4Y-129.65
X339.0Y-158.219
X339.095Y-146.425
X339.625Y-128.675
X339.65Y-126.85
X339.7Y-150.9
X339.775Y-132.5
X340.375Y-116.175
X341.25Y-149.625
X341.35Y-145.55
X341.525Y-155.881
X341.85Y-134.95
X341.925Y-130.991
X342.599Y-149.772
X342.8Y-156.25
X342.948Y-122.325
X343.025Y-146.425
X343.575Y-127.6
X343.6Y-123.125
X344.1Y-144.282
X344.875Y-132.025
X345.175Y-119.925
X345.275Y-150.825
X346.025Y-140.825
X346.13Y-134.8
X346.925Y-119.75
X346.998Y-124.95
X346.998Y-128.404
X347.855Y-144.78
X347.875Y-161.6
X347.946Y-131.396
X348.233Y-132.651
X348.275Y-143.3
X348.952Y-122.9
X349.525Y-140.45
X349.525Y-155.176
X349.613Y-156.512
X349.825Y-124.775
X349.975Y-148.925
X350.05Y-142.025
X350.175Y-123.45
X350.925Y-129.898
X351.125Y-169.675
X351.125Y-174.675
X351.452Y-125.075
X351.892Y-157.55
X352.05Y-129.323
X352.118Y-141.932
X352.277Y-134.711
X352.425Y-131.225
X352.75Y-125.11
X352.75Y-161.65
X352.825Y-164.7
X353.05Y-123.575
X353.143Y-132.782
X353.325Y-139.275
X353.444Y-128.026
X353.948Y-160.727
X354.05Y-178.65
X354.65Y-157.525
X354.925Y-162.975
X355.05Y-169.6
X355.3Y-173.25
X355.587Y-167.024
X356.325Y-170.8
X356.425Y-137.2
X356.875Y-145.45
X357.025Y-140.625
X357.126Y-157.625
X357.3Y-154.4
X357.675Y-191.0
X357.7Y-135.125
X357.705Y-168.975
X357.74Y-131.23
X357.788Y-158.533
X357.9Y-133.5
X358.926Y-163.464
X359.475Y-131.8
X359.5Y-133.525
X360.0Y-160.956
X360.425Y-152.775
X360.875Y-149.8
X360.925Y-146.05
X361.15Y-126.05
X361.925Y-173.975
X362.675Y-186.35
T2
X92.475Y-141.325
X92.475Y-142.825
X167.475Y-141.325
X167.475Y-142.825
X242.475Y-141.325
X242.475Y-142.825
X317.475Y-141.325
X317.475Y-142.825
T3
X84.475Y-184.475
X86.075Y-179.375
X159.475Y-184.475
X161.075Y-179.375
X234.475Y-184.475
X236.075Y-179.375
X309.475Y-184.475
X311.075Y-179.375
T4
X104.375Y-153.625
X104.375Y-155.625
X179.375Y-153.625
X179.375Y-155.625
X254.375Y-153.625
X254.375Y-155.625
X329.375Y-153.625
X329.375Y-155.625
T5
X79.845Y-136.0
X81.7Y-141.97
X81.7Y-144.47
X82.345Y-136.0
X101.475Y-144.075
X106.355Y-144.075
X116.75Y-143.2
X121.63Y-143.2
X154.845Y-136.0
X156.7Y-141.97
X156.7Y-144.47
X157.345Y-136.0
X176.475Y-144.075
X181.355Y-144.075
X191.75Y-143.2
X196.63Y-143.2
X229.845Y-136.0
X231.7Y-141.97
X231.7Y-144.47
X232.345Y-136.0
X251.475Y-144.075
X256.355Y-144.075
X266.75Y-143.2
X271.63Y-143.2
X304.845Y-136.0
X306.7Y-141.97
X306.7Y-144.47
X307.345Y-136.0
X326.475Y-144.075
X331.355Y-144.075
X341.75Y-143.2
X346.63Y-143.2
T6
X85.975Y-118.625
X85.975Y-121.165
X85.975Y-123.705
X85.975Y-126.245
X85.975Y-128.785
X85.975Y-131.325
X93.27Y-115.825
X95.81Y-115.825
X98.35Y-115.825
X108.8Y-122.775
X116.4Y-122.775
X122.155Y-115.55
X124.615Y-119.65
X124.695Y-115.55
X127.155Y-119.65
X127.235Y-115.55
X128.35Y-184.725
X129.695Y-119.65
X129.775Y-115.55
X130.89Y-184.725
X132.235Y-119.65
X132.315Y-115.55
X133.43Y-184.725
X134.775Y-119.65
X134.855Y-115.55
X135.97Y-184.725
X160.975Y-118.625
X160.975Y-121.165
X160.975Y-123.705
X160.975Y-126.245
X160.975Y-128.785
X160.975Y-131.325
X168.27Y-115.825
X170.81Y-115.825
X173.35Y-115.825
X183.8Y-122.775
X191.4Y-122.775
X197.155Y-115.55
X199.615Y-119.65
X199.695Y-115.55
X202.155Y-119.65
X202.235Y-115.55
X203.35Y-184.725
X204.695Y-119.65
X204.775Y-115.55
X205.89Y-184.725
X207.235Y-119.65
X207.315Y-115.55
X208.43Y-184.725
X209.775Y-119.65
X209.855Y-115.55
X210.97Y-184.725
X235.975Y-118.625
X235.975Y-121.165
X235.975Y-123.705
X235.975Y-126.245
X235.975Y-128.785
X235.975Y-131.325
X243.27Y-115.825
X245.81Y-115.825
X248.35Y-115.825
X258.8Y-122.775
X266.4Y-122.775
X272.155Y-115.55
X274.615Y-119.65
X274.695Y-115.55
X277.155Y-119.65
X277.235Y-115.55
X278.35Y-184.725
X279.695Y-119.65
X279.775Y-115.55
X280.89Y-184.725
X282.235Y-119.65
X282.315Y-115.55
X283.43Y-184.725
X284.775Y-119.65
X284.855Y-115.55
X285.97Y-184.725
X310.975Y-118.625
X310.975Y-121.165
X310.975Y-123.705
X310.975Y-126.245
X310.975Y-128.785
X310.975Y-131.325
X318.27Y-115.825
X320.81Y-115.825
X323.35Y-115.825
X333.8Y-122.775
X341.4Y-122.775
X347.155Y-115.55
X349.615Y-119.65
X349.695Y-115.55
X352.155Y-119.65
X352.235Y-115.55
X353.35Y-184.725
X354.695Y-119.65
X354.775Y-115.55
X355.89Y-184.725
X357.235Y-119.65
X357.315Y-115.55
X358.43Y-184.725
X359.775Y-119.65
X359.855Y-115.55
X360.97Y-184.725
T7
X80.925Y-189.125
X80.925Y-192.125
X83.925Y-189.125
X83.925Y-192.125
X86.925Y-189.125
X86.925Y-192.125
X89.925Y-189.125
X89.925Y-192.125
X92.925Y-189.125
X92.925Y-192.125
X95.925Y-189.125
X95.925Y-192.125
X98.925Y-189.125
X98.925Y-192.125
X101.925Y-189.125
X101.925Y-192.125
X104.925Y-189.125
X104.925Y-192.125
X155.925Y-189.125
X155.925Y-192.125
X158.925Y-189.125
X158.925Y-192.125
X161.925Y-189.125
X161.925Y-192.125
X164.925Y-189.125
X164.925Y-192.125
X167.925Y-189.125
X167.925Y-192.125
X170.925Y-189.125
X170.925Y-192.125
X173.925Y-189.125
X173.925Y-192.125
X176.925Y-189.125
X176.925Y-192.125
X179.925Y-189.125
X179.925Y-192.125
X230.925Y-189.125
X230.925Y-192.125
X233.925Y-189.125
X233.925Y-192.125
X236.925Y-189.125
X236.925Y-192.125
X239.925Y-189.125
X239.925Y-192.125
X242.925Y-189.125
X242.925Y-192.125
X245.925Y-189.125
X245.925Y-192.125
X248.925Y-189.125
X248.925Y-192.125
X251.925Y-189.125
X251.925Y-192.125
X254.925Y-189.125
X254.925Y-192.125
X305.925Y-189.125
X305.925Y-192.125
X308.925Y-189.125
X308.925Y-192.125
X311.925Y-189.125
X311.925Y-192.125
X314.925Y-189.125
X314.925Y-192.125
X317.925Y-189.125
X317.925Y-192.125
X320.925Y-189.125
X320.925Y-192.125
X323.925Y-189.125
X323.925Y-192.125
X326.925Y-189.125
X326.925Y-192.125
X329.925Y-189.125
X329.925Y-192.125
T8
X67.775Y-168.375
X67.775Y-180.575
X70.15Y-174.2
X70.15Y-184.4
X73.775Y-166.375
X75.15Y-171.7
X79.775Y-168.375
X79.775Y-180.575
X80.15Y-174.2
X80.15Y-184.4
X142.775Y-168.375
X142.775Y-180.575
X145.15Y-174.2
X145.15Y-184.4
X148.775Y-166.375
X150.15Y-171.7
X154.775Y-168.375
X154.775Y-180.575
X155.15Y-174.2
X155.15Y-184.4
X217.775Y-168.375
X217.775Y-180.575
X220.15Y-174.2
X220.15Y-184.4
X223.775Y-166.375
X225.15Y-171.7
X229.775Y-168.375
X229.775Y-180.575
X230.15Y-174.2
X230.15Y-184.4
X292.775Y-168.375
X292.775Y-180.575
X295.15Y-174.2
X295.15Y-184.4
X298.775Y-166.375
X300.15Y-171.7
X304.775Y-168.375
X304.775Y-180.575
X305.15Y-174.2
X305.15Y-184.4
T9
X112.95Y-191.225
X122.15Y-191.3
X187.95Y-191.225
X197.15Y-191.3
X262.95Y-191.225
X272.15Y-191.3
X337.95Y-191.225
X347.15Y-191.3
T10
X110.41Y-188.685
X110.41Y-193.765
X115.49Y-188.685
X115.49Y-193.765
X119.61Y-188.76
X119.61Y-193.84
X124.69Y-188.76
X124.69Y-193.84
X185.41Y-188.685
X185.41Y-193.765
X190.49Y-188.685
X190.49Y-193.765
X194.61Y-188.76
X194.61Y-193.84
X199.69Y-188.76
X199.69Y-193.84
X260.41Y-188.685
X260.41Y-193.765
X265.49Y-188.685
X265.49Y-193.765
X269.61Y-188.76
X269.61Y-193.84
X274.69Y-188.76
X274.69Y-193.84
X335.41Y-188.685
X335.41Y-193.765
X340.49Y-188.685
X340.49Y-193.765
X344.61Y-188.76
X344.61Y-193.84
X349.69Y-188.76
X349.69Y-193.84
T0
M30
