%TF.GenerationSoftware,KiCad,Pcbnew,7.0.5*%
%TF.CreationDate,2025-03-07T16:00:41+03:00*%
%TF.ProjectId,Gov_tracker_Panel,476f765f-7472-4616-936b-65725f50616e,rev?*%
%TF.SameCoordinates,Original*%
%TF.FileFunction,OtherDrawing,Comment*%
%FSLAX46Y46*%
G04 Gerber Fmt 4.6, Leading zero omitted, Abs format (unit mm)*
G04 Created by KiCad (PCBNEW 7.0.5) date 2025-03-07 16:00:41*
%MOMM*%
%LPD*%
G01*
G04 APERTURE LIST*
%ADD10C,0.100000*%
%ADD11C,0.150000*%
G04 APERTURE END LIST*
D10*
X388700000Y-106000000D02*
X386000000Y-104650000D01*
X138850000Y-59025000D02*
X137500000Y-61725000D01*
X386775000Y-196975000D02*
X384025000Y-198275000D01*
X386775000Y-196975000D02*
X384075000Y-195625000D01*
X388700000Y-106000000D02*
X385950000Y-107300000D01*
X138850000Y-71775000D02*
X138850000Y-59025000D01*
X374025000Y-196975000D02*
X386775000Y-196975000D01*
X374000000Y-106000000D02*
X386750000Y-106000000D01*
X289050000Y-71950000D02*
X289050000Y-59200000D01*
X138850000Y-59025000D02*
X140150000Y-61775000D01*
X213975000Y-58750000D02*
X215275000Y-61500000D01*
X213975000Y-71500000D02*
X213975000Y-58750000D01*
X213975000Y-58750000D02*
X212625000Y-61450000D01*
X289050000Y-59200000D02*
X287700000Y-61900000D01*
X289050000Y-59200000D02*
X290350000Y-61950000D01*
D11*
X393359398Y-107039104D02*
X393835588Y-108372438D01*
X393835588Y-108372438D02*
X394311779Y-107039104D01*
X395073684Y-107610533D02*
X396597494Y-107610533D01*
X398407017Y-108277200D02*
X398216541Y-108372438D01*
X398216541Y-108372438D02*
X397835588Y-108372438D01*
X397835588Y-108372438D02*
X397645112Y-108277200D01*
X397645112Y-108277200D02*
X397549874Y-108181961D01*
X397549874Y-108181961D02*
X397454636Y-107991485D01*
X397454636Y-107991485D02*
X397454636Y-107420057D01*
X397454636Y-107420057D02*
X397549874Y-107229580D01*
X397549874Y-107229580D02*
X397645112Y-107134342D01*
X397645112Y-107134342D02*
X397835588Y-107039104D01*
X397835588Y-107039104D02*
X398216541Y-107039104D01*
X398216541Y-107039104D02*
X398407017Y-107134342D01*
X400121303Y-107039104D02*
X400121303Y-108372438D01*
X399264160Y-107039104D02*
X399264160Y-108086723D01*
X399264160Y-108086723D02*
X399359398Y-108277200D01*
X399359398Y-108277200D02*
X399549874Y-108372438D01*
X399549874Y-108372438D02*
X399835589Y-108372438D01*
X399835589Y-108372438D02*
X400026065Y-108277200D01*
X400026065Y-108277200D02*
X400121303Y-108181961D01*
X400787970Y-107039104D02*
X401549874Y-107039104D01*
X401073684Y-106372438D02*
X401073684Y-108086723D01*
X401073684Y-108086723D02*
X401168922Y-108277200D01*
X401168922Y-108277200D02*
X401359398Y-108372438D01*
X401359398Y-108372438D02*
X401549874Y-108372438D01*
X288439104Y-57790601D02*
X289772438Y-57314411D01*
X289772438Y-57314411D02*
X288439104Y-56838220D01*
X289010533Y-56076315D02*
X289010533Y-54552506D01*
X289677200Y-52742982D02*
X289772438Y-52933458D01*
X289772438Y-52933458D02*
X289772438Y-53314411D01*
X289772438Y-53314411D02*
X289677200Y-53504887D01*
X289677200Y-53504887D02*
X289581961Y-53600125D01*
X289581961Y-53600125D02*
X289391485Y-53695363D01*
X289391485Y-53695363D02*
X288820057Y-53695363D01*
X288820057Y-53695363D02*
X288629580Y-53600125D01*
X288629580Y-53600125D02*
X288534342Y-53504887D01*
X288534342Y-53504887D02*
X288439104Y-53314411D01*
X288439104Y-53314411D02*
X288439104Y-52933458D01*
X288439104Y-52933458D02*
X288534342Y-52742982D01*
X288439104Y-51028696D02*
X289772438Y-51028696D01*
X288439104Y-51885839D02*
X289486723Y-51885839D01*
X289486723Y-51885839D02*
X289677200Y-51790601D01*
X289677200Y-51790601D02*
X289772438Y-51600125D01*
X289772438Y-51600125D02*
X289772438Y-51314410D01*
X289772438Y-51314410D02*
X289677200Y-51123934D01*
X289677200Y-51123934D02*
X289581961Y-51028696D01*
X288439104Y-50362029D02*
X288439104Y-49600125D01*
X287772438Y-50076315D02*
X289486723Y-50076315D01*
X289486723Y-50076315D02*
X289677200Y-49981077D01*
X289677200Y-49981077D02*
X289772438Y-49790601D01*
X289772438Y-49790601D02*
X289772438Y-49600125D01*
X388384398Y-195414104D02*
X388860588Y-196747438D01*
X388860588Y-196747438D02*
X389336779Y-195414104D01*
X390098684Y-195985533D02*
X391622494Y-195985533D01*
X393432017Y-196652200D02*
X393241541Y-196747438D01*
X393241541Y-196747438D02*
X392860588Y-196747438D01*
X392860588Y-196747438D02*
X392670112Y-196652200D01*
X392670112Y-196652200D02*
X392574874Y-196556961D01*
X392574874Y-196556961D02*
X392479636Y-196366485D01*
X392479636Y-196366485D02*
X392479636Y-195795057D01*
X392479636Y-195795057D02*
X392574874Y-195604580D01*
X392574874Y-195604580D02*
X392670112Y-195509342D01*
X392670112Y-195509342D02*
X392860588Y-195414104D01*
X392860588Y-195414104D02*
X393241541Y-195414104D01*
X393241541Y-195414104D02*
X393432017Y-195509342D01*
X395146303Y-195414104D02*
X395146303Y-196747438D01*
X394289160Y-195414104D02*
X394289160Y-196461723D01*
X394289160Y-196461723D02*
X394384398Y-196652200D01*
X394384398Y-196652200D02*
X394574874Y-196747438D01*
X394574874Y-196747438D02*
X394860589Y-196747438D01*
X394860589Y-196747438D02*
X395051065Y-196652200D01*
X395051065Y-196652200D02*
X395146303Y-196556961D01*
X395812970Y-195414104D02*
X396574874Y-195414104D01*
X396098684Y-194747438D02*
X396098684Y-196461723D01*
X396098684Y-196461723D02*
X396193922Y-196652200D01*
X396193922Y-196652200D02*
X396384398Y-196747438D01*
X396384398Y-196747438D02*
X396574874Y-196747438D01*
X138239104Y-57615601D02*
X139572438Y-57139411D01*
X139572438Y-57139411D02*
X138239104Y-56663220D01*
X138810533Y-55901315D02*
X138810533Y-54377506D01*
X139477200Y-52567982D02*
X139572438Y-52758458D01*
X139572438Y-52758458D02*
X139572438Y-53139411D01*
X139572438Y-53139411D02*
X139477200Y-53329887D01*
X139477200Y-53329887D02*
X139381961Y-53425125D01*
X139381961Y-53425125D02*
X139191485Y-53520363D01*
X139191485Y-53520363D02*
X138620057Y-53520363D01*
X138620057Y-53520363D02*
X138429580Y-53425125D01*
X138429580Y-53425125D02*
X138334342Y-53329887D01*
X138334342Y-53329887D02*
X138239104Y-53139411D01*
X138239104Y-53139411D02*
X138239104Y-52758458D01*
X138239104Y-52758458D02*
X138334342Y-52567982D01*
X138239104Y-50853696D02*
X139572438Y-50853696D01*
X138239104Y-51710839D02*
X139286723Y-51710839D01*
X139286723Y-51710839D02*
X139477200Y-51615601D01*
X139477200Y-51615601D02*
X139572438Y-51425125D01*
X139572438Y-51425125D02*
X139572438Y-51139410D01*
X139572438Y-51139410D02*
X139477200Y-50948934D01*
X139477200Y-50948934D02*
X139381961Y-50853696D01*
X138239104Y-50187029D02*
X138239104Y-49425125D01*
X137572438Y-49901315D02*
X139286723Y-49901315D01*
X139286723Y-49901315D02*
X139477200Y-49806077D01*
X139477200Y-49806077D02*
X139572438Y-49615601D01*
X139572438Y-49615601D02*
X139572438Y-49425125D01*
X213364104Y-57340601D02*
X214697438Y-56864411D01*
X214697438Y-56864411D02*
X213364104Y-56388220D01*
X213935533Y-55626315D02*
X213935533Y-54102506D01*
X214602200Y-52292982D02*
X214697438Y-52483458D01*
X214697438Y-52483458D02*
X214697438Y-52864411D01*
X214697438Y-52864411D02*
X214602200Y-53054887D01*
X214602200Y-53054887D02*
X214506961Y-53150125D01*
X214506961Y-53150125D02*
X214316485Y-53245363D01*
X214316485Y-53245363D02*
X213745057Y-53245363D01*
X213745057Y-53245363D02*
X213554580Y-53150125D01*
X213554580Y-53150125D02*
X213459342Y-53054887D01*
X213459342Y-53054887D02*
X213364104Y-52864411D01*
X213364104Y-52864411D02*
X213364104Y-52483458D01*
X213364104Y-52483458D02*
X213459342Y-52292982D01*
X213364104Y-50578696D02*
X214697438Y-50578696D01*
X213364104Y-51435839D02*
X214411723Y-51435839D01*
X214411723Y-51435839D02*
X214602200Y-51340601D01*
X214602200Y-51340601D02*
X214697438Y-51150125D01*
X214697438Y-51150125D02*
X214697438Y-50864410D01*
X214697438Y-50864410D02*
X214602200Y-50673934D01*
X214602200Y-50673934D02*
X214506961Y-50578696D01*
X213364104Y-49912029D02*
X213364104Y-49150125D01*
X212697438Y-49626315D02*
X214411723Y-49626315D01*
X214411723Y-49626315D02*
X214602200Y-49531077D01*
X214602200Y-49531077D02*
X214697438Y-49340601D01*
X214697438Y-49340601D02*
X214697438Y-49150125D01*
D10*
%TO.C,U8*%
X339100000Y-180180000D02*
X339100000Y-175230000D01*
X339100000Y-180180000D02*
X336950000Y-180180000D01*
X339100000Y-179850000D02*
X338780000Y-180170000D01*
X339100000Y-179080000D02*
X337970000Y-180170000D01*
X339100000Y-178310000D02*
X337240000Y-180170000D01*
X339100000Y-177540000D02*
X336950000Y-179690000D01*
X339100000Y-176770000D02*
X336950000Y-178920000D01*
X339100000Y-176000000D02*
X336950000Y-178150000D01*
X339100000Y-175230000D02*
X336950000Y-177380000D01*
X339100000Y-175230000D02*
X336950000Y-175230000D01*
X338335000Y-175236000D02*
X336950000Y-176610000D01*
X337570000Y-175230000D02*
X336950000Y-175840000D01*
X336950000Y-180180000D02*
X336950000Y-175230000D01*
X264100000Y-180180000D02*
X264100000Y-175230000D01*
X264100000Y-180180000D02*
X261950000Y-180180000D01*
X264100000Y-179850000D02*
X263780000Y-180170000D01*
X264100000Y-179080000D02*
X262970000Y-180170000D01*
X264100000Y-178310000D02*
X262240000Y-180170000D01*
X264100000Y-177540000D02*
X261950000Y-179690000D01*
X264100000Y-176770000D02*
X261950000Y-178920000D01*
X264100000Y-176000000D02*
X261950000Y-178150000D01*
X264100000Y-175230000D02*
X261950000Y-177380000D01*
X264100000Y-175230000D02*
X261950000Y-175230000D01*
X263335000Y-175236000D02*
X261950000Y-176610000D01*
X262570000Y-175230000D02*
X261950000Y-175840000D01*
X261950000Y-180180000D02*
X261950000Y-175230000D01*
X189100000Y-180180000D02*
X189100000Y-175230000D01*
X189100000Y-180180000D02*
X186950000Y-180180000D01*
X189100000Y-179850000D02*
X188780000Y-180170000D01*
X189100000Y-179080000D02*
X187970000Y-180170000D01*
X189100000Y-178310000D02*
X187240000Y-180170000D01*
X189100000Y-177540000D02*
X186950000Y-179690000D01*
X189100000Y-176770000D02*
X186950000Y-178920000D01*
X189100000Y-176000000D02*
X186950000Y-178150000D01*
X189100000Y-175230000D02*
X186950000Y-177380000D01*
X189100000Y-175230000D02*
X186950000Y-175230000D01*
X188335000Y-175236000D02*
X186950000Y-176610000D01*
X187570000Y-175230000D02*
X186950000Y-175840000D01*
X186950000Y-180180000D02*
X186950000Y-175230000D01*
X114100000Y-180180000D02*
X114100000Y-175230000D01*
X114100000Y-180180000D02*
X111950000Y-180180000D01*
X114100000Y-179850000D02*
X113780000Y-180170000D01*
X114100000Y-179080000D02*
X112970000Y-180170000D01*
X114100000Y-178310000D02*
X112240000Y-180170000D01*
X114100000Y-177540000D02*
X111950000Y-179690000D01*
X114100000Y-176770000D02*
X111950000Y-178920000D01*
X114100000Y-176000000D02*
X111950000Y-178150000D01*
X114100000Y-175230000D02*
X111950000Y-177380000D01*
X114100000Y-175230000D02*
X111950000Y-175230000D01*
X113335000Y-175236000D02*
X111950000Y-176610000D01*
X112570000Y-175230000D02*
X111950000Y-175840000D01*
X111950000Y-180180000D02*
X111950000Y-175230000D01*
%TD*%
M02*
