%TF.GenerationSoftware,KiCad,Pcbnew,7.0.5*%
%TF.CreationDate,2025-03-07T16:00:41+03:00*%
%TF.ProjectId,Gov_tracker_Panel,476f765f-7472-4616-936b-65725f50616e,rev?*%
%TF.SameCoordinates,Original*%
%TF.FileFunction,Soldermask,Bot*%
%TF.FilePolarity,Negative*%
%FSLAX46Y46*%
G04 Gerber Fmt 4.6, Leading zero omitted, Abs format (unit mm)*
G04 Created by KiCad (PCBNEW 7.0.5) date 2025-03-07 16:00:41*
%MOMM*%
%LPD*%
G01*
G04 APERTURE LIST*
G04 Aperture macros list*
%AMRoundRect*
0 Rectangle with rounded corners*
0 $1 Rounding radius*
0 $2 $3 $4 $5 $6 $7 $8 $9 X,Y pos of 4 corners*
0 Add a 4 corners polygon primitive as box body*
4,1,4,$2,$3,$4,$5,$6,$7,$8,$9,$2,$3,0*
0 Add four circle primitives for the rounded corners*
1,1,$1+$1,$2,$3*
1,1,$1+$1,$4,$5*
1,1,$1+$1,$6,$7*
1,1,$1+$1,$8,$9*
0 Add four rect primitives between the rounded corners*
20,1,$1+$1,$2,$3,$4,$5,0*
20,1,$1+$1,$4,$5,$6,$7,0*
20,1,$1+$1,$6,$7,$8,$9,0*
20,1,$1+$1,$8,$9,$2,$3,0*%
G04 Aperture macros list end*
%ADD10C,1.750000*%
%ADD11RoundRect,0.200000X0.200000X0.275000X-0.200000X0.275000X-0.200000X-0.275000X0.200000X-0.275000X0*%
%ADD12C,1.500000*%
%ADD13RoundRect,0.225000X-0.225000X-0.250000X0.225000X-0.250000X0.225000X0.250000X-0.225000X0.250000X0*%
%ADD14RoundRect,0.250000X0.650000X-1.000000X0.650000X1.000000X-0.650000X1.000000X-0.650000X-1.000000X0*%
%ADD15R,1.600000X1.600000*%
%ADD16C,1.600000*%
%ADD17RoundRect,0.250000X-0.650000X1.000000X-0.650000X-1.000000X0.650000X-1.000000X0.650000X1.000000X0*%
%ADD18C,1.000000*%
%ADD19RoundRect,0.122500X-0.184500X0.729500X-0.184500X-0.729500X0.184500X-0.729500X0.184500X0.729500X0*%
%ADD20RoundRect,0.225000X0.250000X-0.225000X0.250000X0.225000X-0.250000X0.225000X-0.250000X-0.225000X0*%
%ADD21RoundRect,0.200000X-0.275000X0.200000X-0.275000X-0.200000X0.275000X-0.200000X0.275000X0.200000X0*%
%ADD22RoundRect,0.225000X-0.225000X-0.375000X0.225000X-0.375000X0.225000X0.375000X-0.225000X0.375000X0*%
%ADD23R,1.000000X1.000000*%
%ADD24R,1.700000X1.700000*%
%ADD25O,1.700000X1.700000*%
%ADD26RoundRect,0.250000X1.000000X0.650000X-1.000000X0.650000X-1.000000X-0.650000X1.000000X-0.650000X0*%
%ADD27C,1.300000*%
%ADD28RoundRect,0.102000X1.300000X-1.800000X1.300000X1.800000X-1.300000X1.800000X-1.300000X-1.800000X0*%
%ADD29RoundRect,0.225000X0.225000X0.250000X-0.225000X0.250000X-0.225000X-0.250000X0.225000X-0.250000X0*%
%ADD30RoundRect,0.200000X0.275000X-0.200000X0.275000X0.200000X-0.275000X0.200000X-0.275000X-0.200000X0*%
%ADD31C,2.050000*%
%ADD32C,2.250000*%
%ADD33RoundRect,0.102000X-0.300000X-0.600000X0.300000X-0.600000X0.300000X0.600000X-0.300000X0.600000X0*%
%ADD34RoundRect,0.225000X-0.375000X0.225000X-0.375000X-0.225000X0.375000X-0.225000X0.375000X0.225000X0*%
%ADD35RoundRect,0.250000X-0.625000X0.350000X-0.625000X-0.350000X0.625000X-0.350000X0.625000X0.350000X0*%
%ADD36O,1.750000X1.200000*%
%ADD37RoundRect,0.200000X-0.200000X-0.275000X0.200000X-0.275000X0.200000X0.275000X-0.200000X0.275000X0*%
%ADD38C,2.154000*%
%ADD39RoundRect,0.102000X-0.975000X0.975000X-0.975000X-0.975000X0.975000X-0.975000X0.975000X0.975000X0*%
%ADD40RoundRect,0.102000X0.900000X0.400000X-0.900000X0.400000X-0.900000X-0.400000X0.900000X-0.400000X0*%
%ADD41RoundRect,0.102000X-0.675000X0.450000X-0.675000X-0.450000X0.675000X-0.450000X0.675000X0.450000X0*%
%ADD42RoundRect,0.102000X-1.600000X0.775000X-1.600000X-0.775000X1.600000X-0.775000X1.600000X0.775000X0*%
%ADD43C,1.020000*%
%ADD44C,1.734000*%
%ADD45RoundRect,0.150000X-0.650000X-0.150000X0.650000X-0.150000X0.650000X0.150000X-0.650000X0.150000X0*%
%ADD46R,2.500000X2.500000*%
%ADD47O,2.500000X2.500000*%
%ADD48RoundRect,0.250000X0.275000X0.700000X-0.275000X0.700000X-0.275000X-0.700000X0.275000X-0.700000X0*%
%ADD49RoundRect,0.250000X-1.000000X-0.650000X1.000000X-0.650000X1.000000X0.650000X-1.000000X0.650000X0*%
%ADD50RoundRect,0.150000X0.587500X0.150000X-0.587500X0.150000X-0.587500X-0.150000X0.587500X-0.150000X0*%
%ADD51C,1.270000*%
%ADD52RoundRect,0.150000X-0.587500X-0.150000X0.587500X-0.150000X0.587500X0.150000X-0.587500X0.150000X0*%
%ADD53C,2.500000*%
G04 APERTURE END LIST*
D10*
%TO.C,FID5*%
X291000000Y-194500000D03*
%TD*%
D11*
%TO.C,R7*%
X295900000Y-125675000D03*
X294250000Y-125675000D03*
%TD*%
D12*
%TO.C,Y1*%
X341700000Y-145400000D03*
X346580000Y-145400000D03*
%TD*%
D13*
%TO.C,C47*%
X322325000Y-162350000D03*
X323875000Y-162350000D03*
%TD*%
D14*
%TO.C,D7*%
X359100000Y-171150000D03*
X359100000Y-167150000D03*
%TD*%
D15*
%TO.C,C10*%
X304844888Y-136000000D03*
D16*
X307344888Y-136000000D03*
%TD*%
D11*
%TO.C,R16*%
X347975000Y-135875000D03*
X346325000Y-135875000D03*
%TD*%
%TO.C,R14*%
X295850000Y-131075000D03*
X294200000Y-131075000D03*
%TD*%
D17*
%TO.C,D16*%
X328375000Y-160725000D03*
X328375000Y-164725000D03*
%TD*%
D11*
%TO.C,R35*%
X356450000Y-168400000D03*
X354800000Y-168400000D03*
%TD*%
D18*
%TO.C,J2*%
X355375000Y-191200000D03*
X359775000Y-191200000D03*
%TD*%
D19*
%TO.C,U9*%
X312660750Y-160802500D03*
X313310750Y-160802500D03*
X313960750Y-160802500D03*
X314610750Y-160802500D03*
X315260750Y-160802500D03*
X315910750Y-160802500D03*
X316560750Y-160802500D03*
X317210750Y-160802500D03*
X317210750Y-166572500D03*
X316560750Y-166572500D03*
X315910750Y-166572500D03*
X315260750Y-166572500D03*
X314610750Y-166572500D03*
X313960750Y-166572500D03*
X313310750Y-166572500D03*
X312660750Y-166572500D03*
%TD*%
D11*
%TO.C,R10*%
X347975000Y-133725000D03*
X346325000Y-133725000D03*
%TD*%
D20*
%TO.C,C33*%
X323275000Y-166625000D03*
X323275000Y-165075000D03*
%TD*%
D21*
%TO.C,R49*%
X326325000Y-150900000D03*
X326325000Y-152550000D03*
%TD*%
D22*
%TO.C,D21*%
X328800000Y-150000000D03*
X332100000Y-150000000D03*
%TD*%
D21*
%TO.C,R47*%
X326300000Y-154325000D03*
X326300000Y-155975000D03*
%TD*%
%TO.C,R54*%
X350300000Y-180775000D03*
X350300000Y-182425000D03*
%TD*%
D11*
%TO.C,R43*%
X333150000Y-140150000D03*
X331500000Y-140150000D03*
%TD*%
D23*
%TO.C,TP4*%
X323200000Y-159075000D03*
%TD*%
D10*
%TO.C,FID6*%
X291000000Y-108500000D03*
%TD*%
D15*
%TO.C,BZ1*%
X341400000Y-122775000D03*
D16*
X333800000Y-122775000D03*
%TD*%
D24*
%TO.C,J6*%
X359775000Y-119650000D03*
D25*
X357235000Y-119650000D03*
X354695000Y-119650000D03*
X352155000Y-119650000D03*
X349615000Y-119650000D03*
%TD*%
D26*
%TO.C,D2*%
X302325000Y-162525000D03*
X298325000Y-162525000D03*
%TD*%
D27*
%TO.C,BT1*%
X337300000Y-120520000D03*
D18*
X337300000Y-128010000D03*
D28*
X337300000Y-132110000D03*
X337300000Y-116320000D03*
%TD*%
D29*
%TO.C,C34*%
X321325000Y-166650000D03*
X319775000Y-166650000D03*
%TD*%
D30*
%TO.C,R32*%
X356825000Y-144375000D03*
X356825000Y-142725000D03*
%TD*%
D31*
%TO.C,J4*%
X338000000Y-191250000D03*
D32*
X335460000Y-188710000D03*
X335460000Y-193790000D03*
X340540000Y-188710000D03*
X340540000Y-193790000D03*
%TD*%
D11*
%TO.C,R6*%
X295825000Y-127500000D03*
X294175000Y-127500000D03*
%TD*%
D33*
%TO.C,U11*%
X320220000Y-150150000D03*
X321490000Y-150150000D03*
X322760000Y-150150000D03*
X324030000Y-150150000D03*
X324030000Y-155750000D03*
X322760000Y-155750000D03*
X321490000Y-155750000D03*
X320220000Y-155750000D03*
%TD*%
D13*
%TO.C,C11*%
X304700000Y-139150000D03*
X306250000Y-139150000D03*
%TD*%
D34*
%TO.C,D11*%
X354125000Y-126675000D03*
X354125000Y-129975000D03*
%TD*%
D35*
%TO.C,J1*%
X329375000Y-153625000D03*
D36*
X329375000Y-155625000D03*
%TD*%
D37*
%TO.C,R11*%
X346350000Y-129375000D03*
X348000000Y-129375000D03*
%TD*%
D38*
%TO.C,K3*%
X305150000Y-174200000D03*
X295150000Y-174200000D03*
D39*
X300150000Y-171700000D03*
D38*
X305150000Y-184400000D03*
X295150000Y-184400000D03*
%TD*%
D40*
%TO.C,U14*%
X344150025Y-170000000D03*
X344150025Y-171100000D03*
X344150025Y-172200000D03*
X344150025Y-173300000D03*
X344150025Y-174400000D03*
X344150025Y-175500000D03*
X344150025Y-176600000D03*
X344150025Y-179600000D03*
X344150025Y-180700000D03*
X344150025Y-181800000D03*
X344150025Y-182900000D03*
X344150025Y-184000000D03*
X332150025Y-184000000D03*
X332150025Y-182900000D03*
X332150025Y-181800000D03*
X332150025Y-180700000D03*
X332150025Y-179600000D03*
X332150025Y-176600000D03*
X332150025Y-175500000D03*
X332150025Y-174400000D03*
X332150025Y-173300000D03*
X332150025Y-172200000D03*
X332150025Y-171100000D03*
X332150025Y-170000000D03*
%TD*%
D41*
%TO.C,U7*%
X335045000Y-150330000D03*
X335045000Y-152870000D03*
X335045000Y-155410000D03*
X335045000Y-149060000D03*
X335045000Y-151600000D03*
X335045000Y-154140000D03*
D42*
X337800000Y-147500000D03*
X337800000Y-163300000D03*
X349820000Y-147500000D03*
X349820000Y-163300000D03*
%TD*%
D24*
%TO.C,J10*%
X359855000Y-115550000D03*
D25*
X357315000Y-115550000D03*
X354775000Y-115550000D03*
X352235000Y-115550000D03*
X349695000Y-115550000D03*
X347155000Y-115550000D03*
%TD*%
D43*
%TO.C,CN1*%
X302925000Y-188185000D03*
X332925000Y-188185000D03*
D44*
X305925000Y-189125000D03*
X305925000Y-192125000D03*
X308925000Y-189125000D03*
X308925000Y-192125000D03*
X311925000Y-189125000D03*
X311925000Y-192125000D03*
X314925000Y-189125000D03*
X314925000Y-192125000D03*
X317925000Y-189125000D03*
X317925000Y-192125000D03*
X320925000Y-189125000D03*
X320925000Y-192125000D03*
X323925000Y-189125000D03*
X323925000Y-192125000D03*
X326925000Y-189125000D03*
X326925000Y-192125000D03*
X329925000Y-189125000D03*
X329925000Y-192125000D03*
%TD*%
D37*
%TO.C,R42*%
X297400000Y-157950000D03*
X299050000Y-157950000D03*
%TD*%
D15*
%TO.C,C9*%
X306700000Y-141969888D03*
D16*
X306700000Y-144469888D03*
%TD*%
D21*
%TO.C,R53*%
X320275000Y-145975000D03*
X320275000Y-147625000D03*
%TD*%
D34*
%TO.C,D14*%
X359100000Y-177950000D03*
X359100000Y-181250000D03*
%TD*%
D45*
%TO.C,U12*%
X302475000Y-159080000D03*
X302475000Y-157810000D03*
X302475000Y-156540000D03*
X302475000Y-155270000D03*
X309675000Y-155270000D03*
X309675000Y-156540000D03*
X309675000Y-157810000D03*
X309675000Y-159080000D03*
%TD*%
D18*
%TO.C,Y4*%
X319000000Y-142600000D03*
X317500000Y-142600000D03*
%TD*%
D24*
%TO.C,J3*%
X353350000Y-184725000D03*
D25*
X355890000Y-184725000D03*
X358430000Y-184725000D03*
X360970000Y-184725000D03*
%TD*%
D22*
%TO.C,D10*%
X346325000Y-131525000D03*
X349625000Y-131525000D03*
%TD*%
D30*
%TO.C,R50*%
X322600000Y-147750000D03*
X322600000Y-146100000D03*
%TD*%
D13*
%TO.C,C36*%
X316225000Y-155150000D03*
X317775000Y-155150000D03*
%TD*%
D11*
%TO.C,R44*%
X337225000Y-140100000D03*
X335575000Y-140100000D03*
%TD*%
D37*
%TO.C,R51*%
X316225000Y-152775000D03*
X317875000Y-152775000D03*
%TD*%
D46*
%TO.C,K2*%
X298775000Y-166375000D03*
D47*
X292775000Y-168375000D03*
X292775000Y-180575000D03*
X304775000Y-180575000D03*
X304775000Y-168375000D03*
%TD*%
D13*
%TO.C,C2*%
X354725000Y-164350000D03*
X356275000Y-164350000D03*
%TD*%
D11*
%TO.C,R40*%
X314450000Y-152775000D03*
X312800000Y-152775000D03*
%TD*%
%TO.C,R37*%
X310750000Y-161000000D03*
X309100000Y-161000000D03*
%TD*%
D21*
%TO.C,R21*%
X356800000Y-176575000D03*
X356800000Y-178225000D03*
%TD*%
D48*
%TO.C,L5*%
X350375000Y-186200000D03*
X347225000Y-186200000D03*
%TD*%
D29*
%TO.C,C5*%
X313100000Y-139275000D03*
X311550000Y-139275000D03*
%TD*%
D11*
%TO.C,R38*%
X314375000Y-155075000D03*
X312725000Y-155075000D03*
%TD*%
D21*
%TO.C,R52*%
X325200000Y-146075000D03*
X325200000Y-147725000D03*
%TD*%
D13*
%TO.C,C35*%
X316200000Y-157050000D03*
X317750000Y-157050000D03*
%TD*%
D12*
%TO.C,Y5*%
X325300000Y-144000000D03*
X330180000Y-144000000D03*
%TD*%
D37*
%TO.C,R41*%
X297400000Y-155275000D03*
X299050000Y-155275000D03*
%TD*%
D13*
%TO.C,C32*%
X312725000Y-157125000D03*
X314275000Y-157125000D03*
%TD*%
D11*
%TO.C,R34*%
X356375000Y-166300000D03*
X354725000Y-166300000D03*
%TD*%
D21*
%TO.C,R13*%
X352150000Y-126675000D03*
X352150000Y-128325000D03*
%TD*%
D31*
%TO.C,J5*%
X347210000Y-191290000D03*
D32*
X344670000Y-188750000D03*
X344670000Y-193830000D03*
X349750000Y-188750000D03*
X349750000Y-193830000D03*
%TD*%
D49*
%TO.C,D20*%
X314450000Y-182350000D03*
X318450000Y-182350000D03*
%TD*%
D14*
%TO.C,D3*%
X294350000Y-157200000D03*
X294350000Y-153200000D03*
%TD*%
D50*
%TO.C,Q2*%
X347762500Y-138625000D03*
X347762500Y-140525000D03*
X345887500Y-139575000D03*
%TD*%
D51*
%TO.C,F1*%
X309475000Y-184475000D03*
X311075000Y-179375000D03*
%TD*%
D30*
%TO.C,R12*%
X350400000Y-128325000D03*
X350400000Y-126675000D03*
%TD*%
D52*
%TO.C,Q5*%
X331962500Y-137425000D03*
X331962500Y-135525000D03*
X333837500Y-136475000D03*
%TD*%
D24*
%TO.C,J9*%
X310975000Y-118625000D03*
D25*
X310975000Y-121165000D03*
X310975000Y-123705000D03*
X310975000Y-126245000D03*
X310975000Y-128785000D03*
X310975000Y-131325000D03*
%TD*%
D11*
%TO.C,R5*%
X295850000Y-129250000D03*
X294200000Y-129250000D03*
%TD*%
D30*
%TO.C,R18*%
X356800000Y-181325000D03*
X356800000Y-179675000D03*
%TD*%
D14*
%TO.C,D23*%
X309925000Y-174825000D03*
X309925000Y-170825000D03*
%TD*%
D53*
%TO.C,FID4*%
X362000000Y-108500000D03*
%TD*%
D24*
%TO.C,J11*%
X323350000Y-115825000D03*
D25*
X320810000Y-115825000D03*
X318270000Y-115825000D03*
%TD*%
D30*
%TO.C,R19*%
X355200000Y-181325000D03*
X355200000Y-179675000D03*
%TD*%
D26*
%TO.C,D9*%
X298700000Y-148475000D03*
X294700000Y-148475000D03*
%TD*%
D14*
%TO.C,D7*%
X284100000Y-171150000D03*
X284100000Y-167150000D03*
%TD*%
D15*
%TO.C,C10*%
X229844888Y-136000000D03*
D16*
X232344888Y-136000000D03*
%TD*%
D11*
%TO.C,R16*%
X272975000Y-135875000D03*
X271325000Y-135875000D03*
%TD*%
%TO.C,R14*%
X220850000Y-131075000D03*
X219200000Y-131075000D03*
%TD*%
D17*
%TO.C,D16*%
X253375000Y-160725000D03*
X253375000Y-164725000D03*
%TD*%
D11*
%TO.C,R35*%
X281450000Y-168400000D03*
X279800000Y-168400000D03*
%TD*%
D18*
%TO.C,J2*%
X280375000Y-191200000D03*
X284775000Y-191200000D03*
%TD*%
D46*
%TO.C,K2*%
X223775000Y-166375000D03*
D47*
X217775000Y-168375000D03*
X217775000Y-180575000D03*
X229775000Y-180575000D03*
X229775000Y-168375000D03*
%TD*%
D11*
%TO.C,R10*%
X272975000Y-133725000D03*
X271325000Y-133725000D03*
%TD*%
D24*
%TO.C,J11*%
X248350000Y-115825000D03*
D25*
X245810000Y-115825000D03*
X243270000Y-115825000D03*
%TD*%
D14*
%TO.C,D23*%
X234925000Y-174825000D03*
X234925000Y-170825000D03*
%TD*%
D20*
%TO.C,C33*%
X248275000Y-166625000D03*
X248275000Y-165075000D03*
%TD*%
D21*
%TO.C,R49*%
X251325000Y-150900000D03*
X251325000Y-152550000D03*
%TD*%
D22*
%TO.C,D21*%
X253800000Y-150000000D03*
X257100000Y-150000000D03*
%TD*%
D21*
%TO.C,R47*%
X251300000Y-154325000D03*
X251300000Y-155975000D03*
%TD*%
D11*
%TO.C,R38*%
X239375000Y-155075000D03*
X237725000Y-155075000D03*
%TD*%
D10*
%TO.C,FID5*%
X216000000Y-194500000D03*
%TD*%
D18*
%TO.C,Y4*%
X244000000Y-142600000D03*
X242500000Y-142600000D03*
%TD*%
D10*
%TO.C,FID6*%
X216000000Y-108500000D03*
%TD*%
D15*
%TO.C,BZ1*%
X266400000Y-122775000D03*
D16*
X258800000Y-122775000D03*
%TD*%
D13*
%TO.C,C47*%
X247325000Y-162350000D03*
X248875000Y-162350000D03*
%TD*%
D24*
%TO.C,J6*%
X284775000Y-119650000D03*
D25*
X282235000Y-119650000D03*
X279695000Y-119650000D03*
X277155000Y-119650000D03*
X274615000Y-119650000D03*
%TD*%
D26*
%TO.C,D2*%
X227325000Y-162525000D03*
X223325000Y-162525000D03*
%TD*%
D27*
%TO.C,BT1*%
X262300000Y-120520000D03*
D18*
X262300000Y-128010000D03*
D28*
X262300000Y-132110000D03*
X262300000Y-116320000D03*
%TD*%
D29*
%TO.C,C34*%
X246325000Y-166650000D03*
X244775000Y-166650000D03*
%TD*%
D30*
%TO.C,R32*%
X281825000Y-144375000D03*
X281825000Y-142725000D03*
%TD*%
D33*
%TO.C,U11*%
X245220000Y-150150000D03*
X246490000Y-150150000D03*
X247760000Y-150150000D03*
X249030000Y-150150000D03*
X249030000Y-155750000D03*
X247760000Y-155750000D03*
X246490000Y-155750000D03*
X245220000Y-155750000D03*
%TD*%
D13*
%TO.C,C11*%
X229700000Y-139150000D03*
X231250000Y-139150000D03*
%TD*%
D21*
%TO.C,R13*%
X277150000Y-126675000D03*
X277150000Y-128325000D03*
%TD*%
D26*
%TO.C,D9*%
X223700000Y-148475000D03*
X219700000Y-148475000D03*
%TD*%
D35*
%TO.C,J1*%
X254375000Y-153625000D03*
D36*
X254375000Y-155625000D03*
%TD*%
D34*
%TO.C,D11*%
X279125000Y-126675000D03*
X279125000Y-129975000D03*
%TD*%
D38*
%TO.C,K3*%
X230150000Y-174200000D03*
X220150000Y-174200000D03*
D39*
X225150000Y-171700000D03*
D38*
X230150000Y-184400000D03*
X220150000Y-184400000D03*
%TD*%
D24*
%TO.C,J10*%
X284855000Y-115550000D03*
D25*
X282315000Y-115550000D03*
X279775000Y-115550000D03*
X277235000Y-115550000D03*
X274695000Y-115550000D03*
X272155000Y-115550000D03*
%TD*%
D37*
%TO.C,R42*%
X222400000Y-157950000D03*
X224050000Y-157950000D03*
%TD*%
D15*
%TO.C,C9*%
X231700000Y-141969888D03*
D16*
X231700000Y-144469888D03*
%TD*%
D21*
%TO.C,R53*%
X245275000Y-145975000D03*
X245275000Y-147625000D03*
%TD*%
D19*
%TO.C,U9*%
X237660750Y-160802500D03*
X238310750Y-160802500D03*
X238960750Y-160802500D03*
X239610750Y-160802500D03*
X240260750Y-160802500D03*
X240910750Y-160802500D03*
X241560750Y-160802500D03*
X242210750Y-160802500D03*
X242210750Y-166572500D03*
X241560750Y-166572500D03*
X240910750Y-166572500D03*
X240260750Y-166572500D03*
X239610750Y-166572500D03*
X238960750Y-166572500D03*
X238310750Y-166572500D03*
X237660750Y-166572500D03*
%TD*%
D11*
%TO.C,R40*%
X239450000Y-152775000D03*
X237800000Y-152775000D03*
%TD*%
D34*
%TO.C,D14*%
X284100000Y-177950000D03*
X284100000Y-181250000D03*
%TD*%
D12*
%TO.C,Y1*%
X266700000Y-145400000D03*
X271580000Y-145400000D03*
%TD*%
D48*
%TO.C,L5*%
X275375000Y-186200000D03*
X272225000Y-186200000D03*
%TD*%
D31*
%TO.C,J4*%
X263000000Y-191250000D03*
D32*
X260460000Y-188710000D03*
X260460000Y-193790000D03*
X265540000Y-188710000D03*
X265540000Y-193790000D03*
%TD*%
D11*
%TO.C,R7*%
X220900000Y-125675000D03*
X219250000Y-125675000D03*
%TD*%
D30*
%TO.C,R50*%
X247600000Y-147750000D03*
X247600000Y-146100000D03*
%TD*%
D11*
%TO.C,R44*%
X262225000Y-140100000D03*
X260575000Y-140100000D03*
%TD*%
D43*
%TO.C,CN1*%
X227925000Y-188185000D03*
X257925000Y-188185000D03*
D44*
X230925000Y-189125000D03*
X230925000Y-192125000D03*
X233925000Y-189125000D03*
X233925000Y-192125000D03*
X236925000Y-189125000D03*
X236925000Y-192125000D03*
X239925000Y-189125000D03*
X239925000Y-192125000D03*
X242925000Y-189125000D03*
X242925000Y-192125000D03*
X245925000Y-189125000D03*
X245925000Y-192125000D03*
X248925000Y-189125000D03*
X248925000Y-192125000D03*
X251925000Y-189125000D03*
X251925000Y-192125000D03*
X254925000Y-189125000D03*
X254925000Y-192125000D03*
%TD*%
D45*
%TO.C,U12*%
X227475000Y-159080000D03*
X227475000Y-157810000D03*
X227475000Y-156540000D03*
X227475000Y-155270000D03*
X234675000Y-155270000D03*
X234675000Y-156540000D03*
X234675000Y-157810000D03*
X234675000Y-159080000D03*
%TD*%
D24*
%TO.C,J3*%
X278350000Y-184725000D03*
D25*
X280890000Y-184725000D03*
X283430000Y-184725000D03*
X285970000Y-184725000D03*
%TD*%
D49*
%TO.C,D20*%
X239450000Y-182350000D03*
X243450000Y-182350000D03*
%TD*%
D40*
%TO.C,U14*%
X269150025Y-170000000D03*
X269150025Y-171100000D03*
X269150025Y-172200000D03*
X269150025Y-173300000D03*
X269150025Y-174400000D03*
X269150025Y-175500000D03*
X269150025Y-176600000D03*
X269150025Y-179600000D03*
X269150025Y-180700000D03*
X269150025Y-181800000D03*
X269150025Y-182900000D03*
X269150025Y-184000000D03*
X257150025Y-184000000D03*
X257150025Y-182900000D03*
X257150025Y-181800000D03*
X257150025Y-180700000D03*
X257150025Y-179600000D03*
X257150025Y-176600000D03*
X257150025Y-175500000D03*
X257150025Y-174400000D03*
X257150025Y-173300000D03*
X257150025Y-172200000D03*
X257150025Y-171100000D03*
X257150025Y-170000000D03*
%TD*%
D37*
%TO.C,R51*%
X241225000Y-152775000D03*
X242875000Y-152775000D03*
%TD*%
D13*
%TO.C,C35*%
X241200000Y-157050000D03*
X242750000Y-157050000D03*
%TD*%
%TO.C,C2*%
X279725000Y-164350000D03*
X281275000Y-164350000D03*
%TD*%
D11*
%TO.C,R37*%
X235750000Y-161000000D03*
X234100000Y-161000000D03*
%TD*%
D21*
%TO.C,R21*%
X281800000Y-176575000D03*
X281800000Y-178225000D03*
%TD*%
D11*
%TO.C,R6*%
X220825000Y-127500000D03*
X219175000Y-127500000D03*
%TD*%
D21*
%TO.C,R52*%
X250200000Y-146075000D03*
X250200000Y-147725000D03*
%TD*%
D12*
%TO.C,Y5*%
X250300000Y-144000000D03*
X255180000Y-144000000D03*
%TD*%
D29*
%TO.C,C5*%
X238100000Y-139275000D03*
X236550000Y-139275000D03*
%TD*%
D37*
%TO.C,R41*%
X222400000Y-155275000D03*
X224050000Y-155275000D03*
%TD*%
D13*
%TO.C,C32*%
X237725000Y-157125000D03*
X239275000Y-157125000D03*
%TD*%
%TO.C,C36*%
X241225000Y-155150000D03*
X242775000Y-155150000D03*
%TD*%
D11*
%TO.C,R34*%
X281375000Y-166300000D03*
X279725000Y-166300000D03*
%TD*%
D41*
%TO.C,U7*%
X260045000Y-150330000D03*
X260045000Y-152870000D03*
X260045000Y-155410000D03*
X260045000Y-149060000D03*
X260045000Y-151600000D03*
X260045000Y-154140000D03*
D42*
X262800000Y-147500000D03*
X262800000Y-163300000D03*
X274820000Y-147500000D03*
X274820000Y-163300000D03*
%TD*%
D22*
%TO.C,D10*%
X271325000Y-131525000D03*
X274625000Y-131525000D03*
%TD*%
D31*
%TO.C,J5*%
X272210000Y-191290000D03*
D32*
X269670000Y-188750000D03*
X269670000Y-193830000D03*
X274750000Y-188750000D03*
X274750000Y-193830000D03*
%TD*%
D14*
%TO.C,D3*%
X219350000Y-157200000D03*
X219350000Y-153200000D03*
%TD*%
D11*
%TO.C,R43*%
X258150000Y-140150000D03*
X256500000Y-140150000D03*
%TD*%
D50*
%TO.C,Q2*%
X272762500Y-138625000D03*
X272762500Y-140525000D03*
X270887500Y-139575000D03*
%TD*%
D51*
%TO.C,F1*%
X234475000Y-184475000D03*
X236075000Y-179375000D03*
%TD*%
D30*
%TO.C,R12*%
X275400000Y-128325000D03*
X275400000Y-126675000D03*
%TD*%
D52*
%TO.C,Q5*%
X256962500Y-137425000D03*
X256962500Y-135525000D03*
X258837500Y-136475000D03*
%TD*%
D11*
%TO.C,R5*%
X220850000Y-129250000D03*
X219200000Y-129250000D03*
%TD*%
D23*
%TO.C,TP4*%
X248200000Y-159075000D03*
%TD*%
D30*
%TO.C,R18*%
X281800000Y-181325000D03*
X281800000Y-179675000D03*
%TD*%
D24*
%TO.C,J9*%
X235975000Y-118625000D03*
D25*
X235975000Y-121165000D03*
X235975000Y-123705000D03*
X235975000Y-126245000D03*
X235975000Y-128785000D03*
X235975000Y-131325000D03*
%TD*%
D37*
%TO.C,R11*%
X271350000Y-129375000D03*
X273000000Y-129375000D03*
%TD*%
D53*
%TO.C,FID4*%
X287000000Y-108500000D03*
%TD*%
D30*
%TO.C,R19*%
X280200000Y-181325000D03*
X280200000Y-179675000D03*
%TD*%
D21*
%TO.C,R54*%
X275300000Y-180775000D03*
X275300000Y-182425000D03*
%TD*%
D11*
%TO.C,R7*%
X145900000Y-125675000D03*
X144250000Y-125675000D03*
%TD*%
D13*
%TO.C,C47*%
X172325000Y-162350000D03*
X173875000Y-162350000D03*
%TD*%
D21*
%TO.C,R13*%
X202150000Y-126675000D03*
X202150000Y-128325000D03*
%TD*%
D15*
%TO.C,C10*%
X154844888Y-136000000D03*
D16*
X157344888Y-136000000D03*
%TD*%
D11*
%TO.C,R16*%
X197975000Y-135875000D03*
X196325000Y-135875000D03*
%TD*%
%TO.C,R14*%
X145850000Y-131075000D03*
X144200000Y-131075000D03*
%TD*%
D17*
%TO.C,D16*%
X178375000Y-160725000D03*
X178375000Y-164725000D03*
%TD*%
D49*
%TO.C,D20*%
X164450000Y-182350000D03*
X168450000Y-182350000D03*
%TD*%
D11*
%TO.C,R35*%
X206450000Y-168400000D03*
X204800000Y-168400000D03*
%TD*%
D18*
%TO.C,J2*%
X205375000Y-191200000D03*
X209775000Y-191200000D03*
%TD*%
D46*
%TO.C,K2*%
X148775000Y-166375000D03*
D47*
X142775000Y-168375000D03*
X142775000Y-180575000D03*
X154775000Y-180575000D03*
X154775000Y-168375000D03*
%TD*%
D14*
%TO.C,D23*%
X159925000Y-174825000D03*
X159925000Y-170825000D03*
%TD*%
D20*
%TO.C,C33*%
X173275000Y-166625000D03*
X173275000Y-165075000D03*
%TD*%
D21*
%TO.C,R49*%
X176325000Y-150900000D03*
X176325000Y-152550000D03*
%TD*%
D22*
%TO.C,D21*%
X178800000Y-150000000D03*
X182100000Y-150000000D03*
%TD*%
D21*
%TO.C,R47*%
X176300000Y-154325000D03*
X176300000Y-155975000D03*
%TD*%
D11*
%TO.C,R38*%
X164375000Y-155075000D03*
X162725000Y-155075000D03*
%TD*%
D21*
%TO.C,R54*%
X200300000Y-180775000D03*
X200300000Y-182425000D03*
%TD*%
D23*
%TO.C,TP4*%
X173200000Y-159075000D03*
%TD*%
D18*
%TO.C,Y4*%
X169000000Y-142600000D03*
X167500000Y-142600000D03*
%TD*%
D10*
%TO.C,FID6*%
X141000000Y-108500000D03*
%TD*%
D15*
%TO.C,BZ1*%
X191400000Y-122775000D03*
D16*
X183800000Y-122775000D03*
%TD*%
D24*
%TO.C,J6*%
X209775000Y-119650000D03*
D25*
X207235000Y-119650000D03*
X204695000Y-119650000D03*
X202155000Y-119650000D03*
X199615000Y-119650000D03*
%TD*%
D30*
%TO.C,R32*%
X206825000Y-144375000D03*
X206825000Y-142725000D03*
%TD*%
D31*
%TO.C,J4*%
X188000000Y-191250000D03*
D32*
X185460000Y-188710000D03*
X185460000Y-193790000D03*
X190540000Y-188710000D03*
X190540000Y-193790000D03*
%TD*%
D11*
%TO.C,R6*%
X145825000Y-127500000D03*
X144175000Y-127500000D03*
%TD*%
D33*
%TO.C,U11*%
X170220000Y-150150000D03*
X171490000Y-150150000D03*
X172760000Y-150150000D03*
X174030000Y-150150000D03*
X174030000Y-155750000D03*
X172760000Y-155750000D03*
X171490000Y-155750000D03*
X170220000Y-155750000D03*
%TD*%
D29*
%TO.C,C34*%
X171325000Y-166650000D03*
X169775000Y-166650000D03*
%TD*%
D41*
%TO.C,U7*%
X185045000Y-150330000D03*
X185045000Y-152870000D03*
X185045000Y-155410000D03*
X185045000Y-149060000D03*
X185045000Y-151600000D03*
X185045000Y-154140000D03*
D42*
X187800000Y-147500000D03*
X187800000Y-163300000D03*
X199820000Y-147500000D03*
X199820000Y-163300000D03*
%TD*%
D13*
%TO.C,C11*%
X154700000Y-139150000D03*
X156250000Y-139150000D03*
%TD*%
D34*
%TO.C,D11*%
X204125000Y-126675000D03*
X204125000Y-129975000D03*
%TD*%
D35*
%TO.C,J1*%
X179375000Y-153625000D03*
D36*
X179375000Y-155625000D03*
%TD*%
D40*
%TO.C,U14*%
X194150025Y-170000000D03*
X194150025Y-171100000D03*
X194150025Y-172200000D03*
X194150025Y-173300000D03*
X194150025Y-174400000D03*
X194150025Y-175500000D03*
X194150025Y-176600000D03*
X194150025Y-179600000D03*
X194150025Y-180700000D03*
X194150025Y-181800000D03*
X194150025Y-182900000D03*
X194150025Y-184000000D03*
X182150025Y-184000000D03*
X182150025Y-182900000D03*
X182150025Y-181800000D03*
X182150025Y-180700000D03*
X182150025Y-179600000D03*
X182150025Y-176600000D03*
X182150025Y-175500000D03*
X182150025Y-174400000D03*
X182150025Y-173300000D03*
X182150025Y-172200000D03*
X182150025Y-171100000D03*
X182150025Y-170000000D03*
%TD*%
D37*
%TO.C,R11*%
X196350000Y-129375000D03*
X198000000Y-129375000D03*
%TD*%
D24*
%TO.C,J10*%
X209855000Y-115550000D03*
D25*
X207315000Y-115550000D03*
X204775000Y-115550000D03*
X202235000Y-115550000D03*
X199695000Y-115550000D03*
X197155000Y-115550000D03*
%TD*%
D43*
%TO.C,CN1*%
X152925000Y-188185000D03*
X182925000Y-188185000D03*
D44*
X155925000Y-189125000D03*
X155925000Y-192125000D03*
X158925000Y-189125000D03*
X158925000Y-192125000D03*
X161925000Y-189125000D03*
X161925000Y-192125000D03*
X164925000Y-189125000D03*
X164925000Y-192125000D03*
X167925000Y-189125000D03*
X167925000Y-192125000D03*
X170925000Y-189125000D03*
X170925000Y-192125000D03*
X173925000Y-189125000D03*
X173925000Y-192125000D03*
X176925000Y-189125000D03*
X176925000Y-192125000D03*
X179925000Y-189125000D03*
X179925000Y-192125000D03*
%TD*%
D26*
%TO.C,D2*%
X152325000Y-162525000D03*
X148325000Y-162525000D03*
%TD*%
D37*
%TO.C,R42*%
X147400000Y-157950000D03*
X149050000Y-157950000D03*
%TD*%
D24*
%TO.C,J11*%
X173350000Y-115825000D03*
D25*
X170810000Y-115825000D03*
X168270000Y-115825000D03*
%TD*%
D15*
%TO.C,C9*%
X156700000Y-141969888D03*
D16*
X156700000Y-144469888D03*
%TD*%
D13*
%TO.C,C36*%
X166225000Y-155150000D03*
X167775000Y-155150000D03*
%TD*%
D34*
%TO.C,D14*%
X209100000Y-177950000D03*
X209100000Y-181250000D03*
%TD*%
D45*
%TO.C,U12*%
X152475000Y-159080000D03*
X152475000Y-157810000D03*
X152475000Y-156540000D03*
X152475000Y-155270000D03*
X159675000Y-155270000D03*
X159675000Y-156540000D03*
X159675000Y-157810000D03*
X159675000Y-159080000D03*
%TD*%
D24*
%TO.C,J9*%
X160975000Y-118625000D03*
D25*
X160975000Y-121165000D03*
X160975000Y-123705000D03*
X160975000Y-126245000D03*
X160975000Y-128785000D03*
X160975000Y-131325000D03*
%TD*%
D26*
%TO.C,D9*%
X148700000Y-148475000D03*
X144700000Y-148475000D03*
%TD*%
D10*
%TO.C,FID5*%
X141000000Y-194500000D03*
%TD*%
D14*
%TO.C,D7*%
X209100000Y-171150000D03*
X209100000Y-167150000D03*
%TD*%
D22*
%TO.C,D10*%
X196325000Y-131525000D03*
X199625000Y-131525000D03*
%TD*%
D30*
%TO.C,R50*%
X172600000Y-147750000D03*
X172600000Y-146100000D03*
%TD*%
D11*
%TO.C,R44*%
X187225000Y-140100000D03*
X185575000Y-140100000D03*
%TD*%
D19*
%TO.C,U9*%
X162660750Y-160802500D03*
X163310750Y-160802500D03*
X163960750Y-160802500D03*
X164610750Y-160802500D03*
X165260750Y-160802500D03*
X165910750Y-160802500D03*
X166560750Y-160802500D03*
X167210750Y-160802500D03*
X167210750Y-166572500D03*
X166560750Y-166572500D03*
X165910750Y-166572500D03*
X165260750Y-166572500D03*
X164610750Y-166572500D03*
X163960750Y-166572500D03*
X163310750Y-166572500D03*
X162660750Y-166572500D03*
%TD*%
D21*
%TO.C,R53*%
X170275000Y-145975000D03*
X170275000Y-147625000D03*
%TD*%
D37*
%TO.C,R51*%
X166225000Y-152775000D03*
X167875000Y-152775000D03*
%TD*%
D13*
%TO.C,C35*%
X166200000Y-157050000D03*
X167750000Y-157050000D03*
%TD*%
D24*
%TO.C,J3*%
X203350000Y-184725000D03*
D25*
X205890000Y-184725000D03*
X208430000Y-184725000D03*
X210970000Y-184725000D03*
%TD*%
D27*
%TO.C,BT1*%
X187300000Y-120520000D03*
D18*
X187300000Y-128010000D03*
D28*
X187300000Y-132110000D03*
X187300000Y-116320000D03*
%TD*%
D13*
%TO.C,C2*%
X204725000Y-164350000D03*
X206275000Y-164350000D03*
%TD*%
D11*
%TO.C,R37*%
X160750000Y-161000000D03*
X159100000Y-161000000D03*
%TD*%
D21*
%TO.C,R21*%
X206800000Y-176575000D03*
X206800000Y-178225000D03*
%TD*%
D29*
%TO.C,C5*%
X163100000Y-139275000D03*
X161550000Y-139275000D03*
%TD*%
D11*
%TO.C,R40*%
X164450000Y-152775000D03*
X162800000Y-152775000D03*
%TD*%
%TO.C,R43*%
X183150000Y-140150000D03*
X181500000Y-140150000D03*
%TD*%
D12*
%TO.C,Y5*%
X175300000Y-144000000D03*
X180180000Y-144000000D03*
%TD*%
D38*
%TO.C,K3*%
X155150000Y-174200000D03*
X145150000Y-174200000D03*
D39*
X150150000Y-171700000D03*
D38*
X155150000Y-184400000D03*
X145150000Y-184400000D03*
%TD*%
D21*
%TO.C,R52*%
X175200000Y-146075000D03*
X175200000Y-147725000D03*
%TD*%
D37*
%TO.C,R41*%
X147400000Y-155275000D03*
X149050000Y-155275000D03*
%TD*%
D11*
%TO.C,R34*%
X206375000Y-166300000D03*
X204725000Y-166300000D03*
%TD*%
%TO.C,R10*%
X197975000Y-133725000D03*
X196325000Y-133725000D03*
%TD*%
D31*
%TO.C,J5*%
X197210000Y-191290000D03*
D32*
X194670000Y-188750000D03*
X194670000Y-193830000D03*
X199750000Y-188750000D03*
X199750000Y-193830000D03*
%TD*%
D14*
%TO.C,D3*%
X144350000Y-157200000D03*
X144350000Y-153200000D03*
%TD*%
D50*
%TO.C,Q2*%
X197762500Y-138625000D03*
X197762500Y-140525000D03*
X195887500Y-139575000D03*
%TD*%
D51*
%TO.C,F1*%
X159475000Y-184475000D03*
X161075000Y-179375000D03*
%TD*%
D48*
%TO.C,L5*%
X200375000Y-186200000D03*
X197225000Y-186200000D03*
%TD*%
D30*
%TO.C,R12*%
X200400000Y-128325000D03*
X200400000Y-126675000D03*
%TD*%
D52*
%TO.C,Q5*%
X181962500Y-137425000D03*
X181962500Y-135525000D03*
X183837500Y-136475000D03*
%TD*%
D11*
%TO.C,R5*%
X145850000Y-129250000D03*
X144200000Y-129250000D03*
%TD*%
D30*
%TO.C,R18*%
X206800000Y-181325000D03*
X206800000Y-179675000D03*
%TD*%
D12*
%TO.C,Y1*%
X191700000Y-145400000D03*
X196580000Y-145400000D03*
%TD*%
D13*
%TO.C,C32*%
X162725000Y-157125000D03*
X164275000Y-157125000D03*
%TD*%
D53*
%TO.C,FID4*%
X212000000Y-108500000D03*
%TD*%
D30*
%TO.C,R19*%
X205200000Y-181325000D03*
X205200000Y-179675000D03*
%TD*%
D53*
%TO.C,REF\u002A\u002A*%
X354000000Y-207000000D03*
%TD*%
%TO.C,REF\u002A\u002A*%
X74000000Y-96000000D03*
%TD*%
%TO.C,REF\u002A\u002A*%
X369000000Y-187000000D03*
%TD*%
%TO.C,REF\u002A\u002A*%
X369000000Y-116000000D03*
%TD*%
%TO.C,REF\u002A\u002A*%
X74000000Y-207000000D03*
%TD*%
%TO.C,REF\u002A\u002A*%
X59000000Y-187000000D03*
%TD*%
%TO.C,REF\u002A\u002A*%
X59000000Y-116000000D03*
%TD*%
%TO.C,REF\u002A\u002A*%
X354000000Y-96000000D03*
%TD*%
D12*
%TO.C,FIDp5*%
X369000000Y-101000000D03*
%TD*%
%TO.C,FIDp4*%
X59000000Y-202000000D03*
%TD*%
%TO.C,FIDp2*%
X59000000Y-101000000D03*
%TD*%
%TO.C,FIDp6*%
X369000000Y-202000000D03*
%TD*%
D51*
%TO.C,F1*%
X84475000Y-184475000D03*
X86075000Y-179375000D03*
%TD*%
D31*
%TO.C,J5*%
X122210000Y-191290000D03*
D32*
X119670000Y-188750000D03*
X119670000Y-193830000D03*
X124750000Y-188750000D03*
X124750000Y-193830000D03*
%TD*%
D24*
%TO.C,J3*%
X128350000Y-184725000D03*
D25*
X130890000Y-184725000D03*
X133430000Y-184725000D03*
X135970000Y-184725000D03*
%TD*%
D24*
%TO.C,J9*%
X85975000Y-118625000D03*
D25*
X85975000Y-121165000D03*
X85975000Y-123705000D03*
X85975000Y-126245000D03*
X85975000Y-128785000D03*
X85975000Y-131325000D03*
%TD*%
D15*
%TO.C,C9*%
X81700000Y-141969888D03*
D16*
X81700000Y-144469888D03*
%TD*%
D38*
%TO.C,K3*%
X80150000Y-174200000D03*
X70150000Y-174200000D03*
D39*
X75150000Y-171700000D03*
D38*
X80150000Y-184400000D03*
X70150000Y-184400000D03*
%TD*%
D43*
%TO.C,CN1*%
X77925000Y-188185000D03*
X107925000Y-188185000D03*
D44*
X80925000Y-189125000D03*
X80925000Y-192125000D03*
X83925000Y-189125000D03*
X83925000Y-192125000D03*
X86925000Y-189125000D03*
X86925000Y-192125000D03*
X89925000Y-189125000D03*
X89925000Y-192125000D03*
X92925000Y-189125000D03*
X92925000Y-192125000D03*
X95925000Y-189125000D03*
X95925000Y-192125000D03*
X98925000Y-189125000D03*
X98925000Y-192125000D03*
X101925000Y-189125000D03*
X101925000Y-192125000D03*
X104925000Y-189125000D03*
X104925000Y-192125000D03*
%TD*%
D24*
%TO.C,J6*%
X134775000Y-119650000D03*
D25*
X132235000Y-119650000D03*
X129695000Y-119650000D03*
X127155000Y-119650000D03*
X124615000Y-119650000D03*
%TD*%
D15*
%TO.C,BZ1*%
X116400000Y-122775000D03*
D16*
X108800000Y-122775000D03*
%TD*%
D18*
%TO.C,Y4*%
X94000000Y-142600000D03*
X92500000Y-142600000D03*
%TD*%
D31*
%TO.C,J4*%
X113000000Y-191250000D03*
D32*
X110460000Y-188710000D03*
X110460000Y-193790000D03*
X115540000Y-188710000D03*
X115540000Y-193790000D03*
%TD*%
D24*
%TO.C,J11*%
X98350000Y-115825000D03*
D25*
X95810000Y-115825000D03*
X93270000Y-115825000D03*
%TD*%
D12*
%TO.C,Y5*%
X100300000Y-144000000D03*
X105180000Y-144000000D03*
%TD*%
D46*
%TO.C,K2*%
X73775000Y-166375000D03*
D47*
X67775000Y-168375000D03*
X67775000Y-180575000D03*
X79775000Y-180575000D03*
X79775000Y-168375000D03*
%TD*%
D18*
%TO.C,J2*%
X130375000Y-191200000D03*
X134775000Y-191200000D03*
%TD*%
D24*
%TO.C,J10*%
X134855000Y-115550000D03*
D25*
X132315000Y-115550000D03*
X129775000Y-115550000D03*
X127235000Y-115550000D03*
X124695000Y-115550000D03*
X122155000Y-115550000D03*
%TD*%
D12*
%TO.C,Y1*%
X116700000Y-145400000D03*
X121580000Y-145400000D03*
%TD*%
D15*
%TO.C,C10*%
X79844888Y-136000000D03*
D16*
X82344888Y-136000000D03*
%TD*%
D53*
%TO.C,FID4*%
X137000000Y-108500000D03*
%TD*%
D30*
%TO.C,R18*%
X131800000Y-181325000D03*
X131800000Y-179675000D03*
%TD*%
D11*
%TO.C,R5*%
X70850000Y-129250000D03*
X69200000Y-129250000D03*
%TD*%
D52*
%TO.C,Q5*%
X106962500Y-137425000D03*
X106962500Y-135525000D03*
X108837500Y-136475000D03*
%TD*%
D30*
%TO.C,R19*%
X130200000Y-181325000D03*
X130200000Y-179675000D03*
%TD*%
D37*
%TO.C,R41*%
X72400000Y-155275000D03*
X74050000Y-155275000D03*
%TD*%
D21*
%TO.C,R52*%
X100200000Y-146075000D03*
X100200000Y-147725000D03*
%TD*%
D13*
%TO.C,C2*%
X129725000Y-164350000D03*
X131275000Y-164350000D03*
%TD*%
%TO.C,C35*%
X91200000Y-157050000D03*
X92750000Y-157050000D03*
%TD*%
D30*
%TO.C,R50*%
X97600000Y-147750000D03*
X97600000Y-146100000D03*
%TD*%
D37*
%TO.C,R51*%
X91225000Y-152775000D03*
X92875000Y-152775000D03*
%TD*%
%TO.C,R42*%
X72400000Y-157950000D03*
X74050000Y-157950000D03*
%TD*%
D11*
%TO.C,R34*%
X131375000Y-166300000D03*
X129725000Y-166300000D03*
%TD*%
D26*
%TO.C,D9*%
X73700000Y-148475000D03*
X69700000Y-148475000D03*
%TD*%
D34*
%TO.C,D11*%
X129125000Y-126675000D03*
X129125000Y-129975000D03*
%TD*%
D50*
%TO.C,Q2*%
X122762500Y-138625000D03*
X122762500Y-140525000D03*
X120887500Y-139575000D03*
%TD*%
D21*
%TO.C,R21*%
X131800000Y-176575000D03*
X131800000Y-178225000D03*
%TD*%
D13*
%TO.C,C11*%
X79700000Y-139150000D03*
X81250000Y-139150000D03*
%TD*%
D41*
%TO.C,U7*%
X110045000Y-150330000D03*
X110045000Y-152870000D03*
X110045000Y-155410000D03*
X110045000Y-149060000D03*
X110045000Y-151600000D03*
X110045000Y-154140000D03*
D42*
X112800000Y-147500000D03*
X112800000Y-163300000D03*
X124820000Y-147500000D03*
X124820000Y-163300000D03*
%TD*%
D33*
%TO.C,U11*%
X95220000Y-150150000D03*
X96490000Y-150150000D03*
X97760000Y-150150000D03*
X99030000Y-150150000D03*
X99030000Y-155750000D03*
X97760000Y-155750000D03*
X96490000Y-155750000D03*
X95220000Y-155750000D03*
%TD*%
D11*
%TO.C,R40*%
X89450000Y-152775000D03*
X87800000Y-152775000D03*
%TD*%
D35*
%TO.C,J1*%
X104375000Y-153625000D03*
D36*
X104375000Y-155625000D03*
%TD*%
D30*
%TO.C,R32*%
X131825000Y-144375000D03*
X131825000Y-142725000D03*
%TD*%
D29*
%TO.C,C34*%
X96325000Y-166650000D03*
X94775000Y-166650000D03*
%TD*%
D27*
%TO.C,BT1*%
X112300000Y-120520000D03*
D18*
X112300000Y-128010000D03*
D28*
X112300000Y-132110000D03*
X112300000Y-116320000D03*
%TD*%
D40*
%TO.C,U14*%
X119150025Y-170000000D03*
X119150025Y-171100000D03*
X119150025Y-172200000D03*
X119150025Y-173300000D03*
X119150025Y-174400000D03*
X119150025Y-175500000D03*
X119150025Y-176600000D03*
X119150025Y-179600000D03*
X119150025Y-180700000D03*
X119150025Y-181800000D03*
X119150025Y-182900000D03*
X119150025Y-184000000D03*
X107150025Y-184000000D03*
X107150025Y-182900000D03*
X107150025Y-181800000D03*
X107150025Y-180700000D03*
X107150025Y-179600000D03*
X107150025Y-176600000D03*
X107150025Y-175500000D03*
X107150025Y-174400000D03*
X107150025Y-173300000D03*
X107150025Y-172200000D03*
X107150025Y-171100000D03*
X107150025Y-170000000D03*
%TD*%
D13*
%TO.C,C36*%
X91225000Y-155150000D03*
X92775000Y-155150000D03*
%TD*%
D10*
%TO.C,FID6*%
X66000000Y-108500000D03*
%TD*%
D11*
%TO.C,R43*%
X108150000Y-140150000D03*
X106500000Y-140150000D03*
%TD*%
D21*
%TO.C,R54*%
X125300000Y-180775000D03*
X125300000Y-182425000D03*
%TD*%
D23*
%TO.C,TP4*%
X98200000Y-159075000D03*
%TD*%
D14*
%TO.C,D3*%
X69350000Y-157200000D03*
X69350000Y-153200000D03*
%TD*%
D21*
%TO.C,R47*%
X101300000Y-154325000D03*
X101300000Y-155975000D03*
%TD*%
D22*
%TO.C,D21*%
X103800000Y-150000000D03*
X107100000Y-150000000D03*
%TD*%
D20*
%TO.C,C33*%
X98275000Y-166625000D03*
X98275000Y-165075000D03*
%TD*%
D14*
%TO.C,D23*%
X84925000Y-174825000D03*
X84925000Y-170825000D03*
%TD*%
D45*
%TO.C,U12*%
X77475000Y-159080000D03*
X77475000Y-157810000D03*
X77475000Y-156540000D03*
X77475000Y-155270000D03*
X84675000Y-155270000D03*
X84675000Y-156540000D03*
X84675000Y-157810000D03*
X84675000Y-159080000D03*
%TD*%
D48*
%TO.C,L5*%
X125375000Y-186200000D03*
X122225000Y-186200000D03*
%TD*%
D11*
%TO.C,R10*%
X122975000Y-133725000D03*
X121325000Y-133725000D03*
%TD*%
D19*
%TO.C,U9*%
X87660750Y-160802500D03*
X88310750Y-160802500D03*
X88960750Y-160802500D03*
X89610750Y-160802500D03*
X90260750Y-160802500D03*
X90910750Y-160802500D03*
X91560750Y-160802500D03*
X92210750Y-160802500D03*
X92210750Y-166572500D03*
X91560750Y-166572500D03*
X90910750Y-166572500D03*
X90260750Y-166572500D03*
X89610750Y-166572500D03*
X88960750Y-166572500D03*
X88310750Y-166572500D03*
X87660750Y-166572500D03*
%TD*%
D11*
%TO.C,R38*%
X89375000Y-155075000D03*
X87725000Y-155075000D03*
%TD*%
%TO.C,R35*%
X131450000Y-168400000D03*
X129800000Y-168400000D03*
%TD*%
%TO.C,R6*%
X70825000Y-127500000D03*
X69175000Y-127500000D03*
%TD*%
D49*
%TO.C,D20*%
X89450000Y-182350000D03*
X93450000Y-182350000D03*
%TD*%
D17*
%TO.C,D16*%
X103375000Y-160725000D03*
X103375000Y-164725000D03*
%TD*%
D11*
%TO.C,R37*%
X85750000Y-161000000D03*
X84100000Y-161000000D03*
%TD*%
%TO.C,R14*%
X70850000Y-131075000D03*
X69200000Y-131075000D03*
%TD*%
D30*
%TO.C,R12*%
X125400000Y-128325000D03*
X125400000Y-126675000D03*
%TD*%
D11*
%TO.C,R16*%
X122975000Y-135875000D03*
X121325000Y-135875000D03*
%TD*%
D22*
%TO.C,D10*%
X121325000Y-131525000D03*
X124625000Y-131525000D03*
%TD*%
D21*
%TO.C,R13*%
X127150000Y-126675000D03*
X127150000Y-128325000D03*
%TD*%
D34*
%TO.C,D14*%
X134100000Y-177950000D03*
X134100000Y-181250000D03*
%TD*%
D14*
%TO.C,D7*%
X134100000Y-171150000D03*
X134100000Y-167150000D03*
%TD*%
D21*
%TO.C,R49*%
X101325000Y-150900000D03*
X101325000Y-152550000D03*
%TD*%
D13*
%TO.C,C47*%
X97325000Y-162350000D03*
X98875000Y-162350000D03*
%TD*%
D37*
%TO.C,R11*%
X121350000Y-129375000D03*
X123000000Y-129375000D03*
%TD*%
D13*
%TO.C,C32*%
X87725000Y-157125000D03*
X89275000Y-157125000D03*
%TD*%
D11*
%TO.C,R44*%
X112225000Y-140100000D03*
X110575000Y-140100000D03*
%TD*%
D21*
%TO.C,R53*%
X95275000Y-145975000D03*
X95275000Y-147625000D03*
%TD*%
D26*
%TO.C,D2*%
X77325000Y-162525000D03*
X73325000Y-162525000D03*
%TD*%
D29*
%TO.C,C5*%
X88100000Y-139275000D03*
X86550000Y-139275000D03*
%TD*%
D11*
%TO.C,R7*%
X70900000Y-125675000D03*
X69250000Y-125675000D03*
%TD*%
D10*
%TO.C,FID5*%
X66000000Y-194500000D03*
%TD*%
M02*
