M48
; DRILL file {KiCad 7.0.5} date Fri Mar  7 15:55:44 2025
; FORMAT={-:-/ absolute / metric / decimal}
; #@! TF.CreationDate,2025-03-07T15:55:44+03:00
; #@! TF.GenerationSoftware,Kicad,Pcbnew,7.0.5
; #@! TF.FileFunction,NonPlated,1,2,NPTH
FMAT,2
METRIC
; #@! TA.AperFunction,NonPlated,NPTH,ComponentDrill
T1C1.000
; #@! TA.AperFunction,NonPlated,NPTH,ComponentDrill
T2C1.020
; #@! TA.AperFunction,NonPlated,NPTH,ComponentDrill
T3C1.300
; #@! TA.AperFunction,NonPlated,NPTH,ComponentDrill
T4C2.500
%
G90
G05
T1
X112.3Y-128.01
X130.375Y-191.2
X134.775Y-191.2
X187.3Y-128.01
X205.375Y-191.2
X209.775Y-191.2
X262.3Y-128.01
X280.375Y-191.2
X284.775Y-191.2
X337.3Y-128.01
X355.375Y-191.2
X359.775Y-191.2
T2
X77.925Y-188.185
X107.925Y-188.185
X152.925Y-188.185
X182.925Y-188.185
X227.925Y-188.185
X257.925Y-188.185
X302.925Y-188.185
X332.925Y-188.185
T3
X112.3Y-120.52
X187.3Y-120.52
X262.3Y-120.52
X337.3Y-120.52
T4
X59.0Y-116.0
X59.0Y-187.0
X74.0Y-96.0
X74.0Y-207.0
X354.0Y-96.0
X354.0Y-207.0
X369.0Y-116.0
X369.0Y-187.0
T0
M30
