G04 #@! TF.GenerationSoftware,KiCad,Pcbnew,(5.1.9)-1*
G04 #@! TF.CreationDate,2021-09-07T17:48:19+03:00*
G04 #@! TF.ProjectId,Gov_Tracker pannellized 1x4_pcb,476f765f-5472-4616-936b-65722070616e,rev?*
G04 #@! TF.SameCoordinates,Original*
G04 #@! TF.FileFunction,Legend,Bot*
G04 #@! TF.FilePolarity,Positive*
%FSLAX46Y46*%
G04 Gerber Fmt 4.6, Leading zero omitted, Abs format (unit mm)*
G04 Created by KiCad (PCBNEW (5.1.9)-1) date 2021-09-07 17:48:19*
%MOMM*%
%LPD*%
G01*
G04 APERTURE LIST*
G04 #@! TA.AperFunction,Profile*
%ADD10C,0.050000*%
G04 #@! TD*
%ADD11C,0.120000*%
%ADD12C,0.200000*%
%ADD13C,0.150000*%
%ADD14C,0.254000*%
G04 APERTURE END LIST*
D10*
X65020000Y-55000000D02*
X65000000Y-55000000D01*
X140000000Y-151010000D02*
X65010000Y-151010000D01*
X290000000Y-151010000D02*
X215010000Y-151010000D01*
X290000000Y-55030000D02*
X290000000Y-151010000D01*
X215000000Y-55030000D02*
X215000000Y-151010000D01*
X140000000Y-55010000D02*
X140000000Y-55030000D01*
X140000000Y-55030000D02*
X140000000Y-151010000D01*
X290000000Y-55010000D02*
X290000000Y-55030000D01*
X215000000Y-151010000D02*
X140010000Y-151010000D01*
X215000000Y-55010000D02*
X215000000Y-55030000D01*
X215020000Y-55000000D02*
X215000000Y-55000000D01*
X140020000Y-55000000D02*
X140000000Y-55000000D01*
X215020000Y-55000000D02*
X290000000Y-55010000D01*
X64990000Y-151010000D02*
X65000000Y-55020000D01*
X65020000Y-55000000D02*
X140000000Y-55010000D01*
X215010000Y-151010000D02*
X214990000Y-151010000D01*
X140010000Y-151010000D02*
X139990000Y-151010000D01*
X65010000Y-151010000D02*
X64990000Y-151010000D01*
X215000000Y-55000000D02*
X215000000Y-55020000D01*
X140000000Y-55000000D02*
X140000000Y-55020000D01*
X140020000Y-55000000D02*
X215000000Y-55010000D01*
X65000000Y-55000000D02*
X65000000Y-55020000D01*
X-10010000Y-151010000D02*
X-10000000Y-55020000D01*
X-9990000Y-151010000D02*
X-10010000Y-151010000D01*
X-10000000Y-55000000D02*
X-10000000Y-55020000D01*
X-9980000Y-55000000D02*
X65000000Y-55010000D01*
X65000000Y-55030000D02*
X65000000Y-151010000D01*
X65000000Y-55010000D02*
X65000000Y-55030000D01*
X-9980000Y-55000000D02*
X-10000000Y-55000000D01*
X65000000Y-151010000D02*
X-9990000Y-151010000D01*
X214990000Y-151010000D02*
X215000000Y-55020000D01*
X139990000Y-151010000D02*
X140000000Y-55020000D01*
X290000000Y-55000000D02*
X290000000Y-34990000D01*
X290000000Y-151010000D02*
X290000000Y-171010000D01*
X214990000Y-151010000D02*
X214990000Y-171010000D01*
X140000000Y-151000000D02*
X140000000Y-171000000D01*
X65000000Y-151000000D02*
X65000000Y-171000000D01*
X-10000000Y-151000000D02*
X-10000000Y-171000000D01*
X-10000000Y-55000000D02*
X-10000000Y-35000000D01*
X65000000Y-55000000D02*
X65000000Y-35000000D01*
X140000000Y-55000000D02*
X140000000Y-35000000D01*
X215000000Y-55000000D02*
X215000000Y-35000000D01*
X-20000000Y-151000000D02*
X300000000Y-151000000D01*
X-10000000Y-55000000D02*
X-10000000Y-151000000D01*
X-20000000Y-55000000D02*
X300000000Y-55000000D01*
X290000000Y-55010000D02*
X290000000Y-151010000D01*
X300000000Y-171000000D02*
X-20000000Y-171000000D01*
X300000000Y-35000000D02*
X300000000Y-171000000D01*
X-20000000Y-35000000D02*
X300000000Y-35000000D01*
X-20000000Y-35000000D02*
X-20000000Y-171000000D01*
D11*
G04 #@! TO.C,R40*
X255232779Y-86490000D02*
X254907221Y-86490000D01*
X255232779Y-87510000D02*
X254907221Y-87510000D01*
G04 #@! TO.C,R47*
X94480000Y-130862779D02*
X94480000Y-130537221D01*
X93460000Y-130862779D02*
X93460000Y-130537221D01*
G04 #@! TO.C,R42*
X145210000Y-118164721D02*
X145210000Y-118490279D01*
X146230000Y-118164721D02*
X146230000Y-118490279D01*
G04 #@! TO.C,R40*
X180232779Y-86490000D02*
X179907221Y-86490000D01*
X180232779Y-87510000D02*
X179907221Y-87510000D01*
X105232779Y-86490000D02*
X104907221Y-86490000D01*
X105232779Y-87510000D02*
X104907221Y-87510000D01*
G04 #@! TO.C,R38*
X193960000Y-115224721D02*
X193960000Y-115550279D01*
X194980000Y-115224721D02*
X194980000Y-115550279D01*
X268960000Y-115224721D02*
X268960000Y-115550279D01*
X269980000Y-115224721D02*
X269980000Y-115550279D01*
G04 #@! TO.C,R42*
X220210000Y-118164721D02*
X220210000Y-118490279D01*
X221230000Y-118164721D02*
X221230000Y-118490279D01*
X70210000Y-118164721D02*
X70210000Y-118490279D01*
X71230000Y-118164721D02*
X71230000Y-118490279D01*
G04 #@! TO.C,R38*
X118960000Y-115224721D02*
X118960000Y-115550279D01*
X119980000Y-115224721D02*
X119980000Y-115550279D01*
G04 #@! TO.C,R47*
X244480000Y-130862779D02*
X244480000Y-130537221D01*
X243460000Y-130862779D02*
X243460000Y-130537221D01*
X169480000Y-130862779D02*
X169480000Y-130537221D01*
X168460000Y-130862779D02*
X168460000Y-130537221D01*
G04 #@! TO.C,R36*
X183860000Y-138437221D02*
X183860000Y-138762779D01*
X184880000Y-138437221D02*
X184880000Y-138762779D01*
G04 #@! TO.C,R33*
X204220279Y-133490000D02*
X203894721Y-133490000D01*
X204220279Y-134510000D02*
X203894721Y-134510000D01*
G04 #@! TO.C,R31*
X282507221Y-134510000D02*
X282832779Y-134510000D01*
X282507221Y-133490000D02*
X282832779Y-133490000D01*
G04 #@! TO.C,R46*
X234260000Y-60237221D02*
X234260000Y-60562779D01*
X235280000Y-60237221D02*
X235280000Y-60562779D01*
G04 #@! TO.C,R31*
X132507221Y-134510000D02*
X132832779Y-134510000D01*
X132507221Y-133490000D02*
X132832779Y-133490000D01*
G04 #@! TO.C,R36*
X258860000Y-138437221D02*
X258860000Y-138762779D01*
X259880000Y-138437221D02*
X259880000Y-138762779D01*
G04 #@! TO.C,R30*
X207832779Y-135490000D02*
X207507221Y-135490000D01*
X207832779Y-136510000D02*
X207507221Y-136510000D01*
G04 #@! TO.C,R32*
X204220279Y-135490000D02*
X203894721Y-135490000D01*
X204220279Y-136510000D02*
X203894721Y-136510000D01*
G04 #@! TO.C,R46*
X84260000Y-60237221D02*
X84260000Y-60562779D01*
X85280000Y-60237221D02*
X85280000Y-60562779D01*
G04 #@! TO.C,R33*
X279220279Y-133490000D02*
X278894721Y-133490000D01*
X279220279Y-134510000D02*
X278894721Y-134510000D01*
G04 #@! TO.C,R30*
X132832779Y-135490000D02*
X132507221Y-135490000D01*
X132832779Y-136510000D02*
X132507221Y-136510000D01*
G04 #@! TO.C,R37*
X264760000Y-115224721D02*
X264760000Y-115550279D01*
X265780000Y-115224721D02*
X265780000Y-115550279D01*
G04 #@! TO.C,R31*
X207507221Y-134510000D02*
X207832779Y-134510000D01*
X207507221Y-133490000D02*
X207832779Y-133490000D01*
G04 #@! TO.C,R33*
X129220279Y-133490000D02*
X128894721Y-133490000D01*
X129220279Y-134510000D02*
X128894721Y-134510000D01*
G04 #@! TO.C,R32*
X279220279Y-135490000D02*
X278894721Y-135490000D01*
X279220279Y-136510000D02*
X278894721Y-136510000D01*
G04 #@! TO.C,R46*
X159260000Y-60237221D02*
X159260000Y-60562779D01*
X160280000Y-60237221D02*
X160280000Y-60562779D01*
G04 #@! TO.C,R36*
X108860000Y-138437221D02*
X108860000Y-138762779D01*
X109880000Y-138437221D02*
X109880000Y-138762779D01*
G04 #@! TO.C,R37*
X114760000Y-115224721D02*
X114760000Y-115550279D01*
X115780000Y-115224721D02*
X115780000Y-115550279D01*
G04 #@! TO.C,R32*
X129220279Y-135490000D02*
X128894721Y-135490000D01*
X129220279Y-136510000D02*
X128894721Y-136510000D01*
G04 #@! TO.C,R37*
X189760000Y-115224721D02*
X189760000Y-115550279D01*
X190780000Y-115224721D02*
X190780000Y-115550279D01*
G04 #@! TO.C,R30*
X282832779Y-135490000D02*
X282507221Y-135490000D01*
X282832779Y-136510000D02*
X282507221Y-136510000D01*
G04 #@! TO.C,R3*
X171780000Y-135762779D02*
X171780000Y-135437221D01*
X170760000Y-135762779D02*
X170760000Y-135437221D01*
X246780000Y-135762779D02*
X246780000Y-135437221D01*
X245760000Y-135762779D02*
X245760000Y-135437221D01*
G04 #@! TO.C,R51*
X256632779Y-129390000D02*
X256307221Y-129390000D01*
X256632779Y-130410000D02*
X256307221Y-130410000D01*
G04 #@! TO.C,R3*
X96780000Y-135762779D02*
X96780000Y-135437221D01*
X95760000Y-135762779D02*
X95760000Y-135437221D01*
G04 #@! TO.C,R51*
X106632779Y-129390000D02*
X106307221Y-129390000D01*
X106632779Y-130410000D02*
X106307221Y-130410000D01*
G04 #@! TO.C,Q6*
X83480000Y-122300000D02*
X83480000Y-121370000D01*
X83480000Y-119140000D02*
X83480000Y-120070000D01*
X83480000Y-119140000D02*
X85640000Y-119140000D01*
X83480000Y-122300000D02*
X84940000Y-122300000D01*
X233480000Y-122300000D02*
X233480000Y-121370000D01*
X233480000Y-119140000D02*
X233480000Y-120070000D01*
X233480000Y-119140000D02*
X235640000Y-119140000D01*
X233480000Y-122300000D02*
X234940000Y-122300000D01*
X158480000Y-122300000D02*
X158480000Y-121370000D01*
X158480000Y-119140000D02*
X158480000Y-120070000D01*
X158480000Y-119140000D02*
X160640000Y-119140000D01*
X158480000Y-122300000D02*
X159940000Y-122300000D01*
G04 #@! TO.C,R51*
X181632779Y-129390000D02*
X181307221Y-129390000D01*
X181632779Y-130410000D02*
X181307221Y-130410000D01*
G04 #@! TO.C,U10*
X227410000Y-62300000D02*
X227410000Y-60350000D01*
X227410000Y-62300000D02*
X227410000Y-64250000D01*
X232530000Y-62300000D02*
X232530000Y-60350000D01*
X232530000Y-62300000D02*
X232530000Y-65750000D01*
X152410000Y-62300000D02*
X152410000Y-60350000D01*
X152410000Y-62300000D02*
X152410000Y-64250000D01*
X157530000Y-62300000D02*
X157530000Y-60350000D01*
X157530000Y-62300000D02*
X157530000Y-65750000D01*
X77410000Y-62300000D02*
X77410000Y-60350000D01*
X77410000Y-62300000D02*
X77410000Y-64250000D01*
X82530000Y-62300000D02*
X82530000Y-60350000D01*
X82530000Y-62300000D02*
X82530000Y-65750000D01*
G04 #@! TO.C,R52*
X256632779Y-125090000D02*
X256307221Y-125090000D01*
X256632779Y-126110000D02*
X256307221Y-126110000D01*
X181632779Y-125090000D02*
X181307221Y-125090000D01*
X181632779Y-126110000D02*
X181307221Y-126110000D01*
G04 #@! TO.C,R53*
X256307221Y-128260000D02*
X256632779Y-128260000D01*
X256307221Y-127240000D02*
X256632779Y-127240000D01*
D12*
G04 #@! TO.C,U9*
X236870000Y-124650000D02*
X236870000Y-128350000D01*
X236870000Y-128350000D02*
X241870000Y-128350000D01*
X241870000Y-128350000D02*
X241870000Y-124650000D01*
X241870000Y-124650000D02*
X236870000Y-124650000D01*
X236520000Y-122825000D02*
X236520000Y-124300000D01*
X86870000Y-124650000D02*
X86870000Y-128350000D01*
X86870000Y-128350000D02*
X91870000Y-128350000D01*
X91870000Y-128350000D02*
X91870000Y-124650000D01*
X91870000Y-124650000D02*
X86870000Y-124650000D01*
X86520000Y-122825000D02*
X86520000Y-124300000D01*
X161870000Y-124650000D02*
X161870000Y-128350000D01*
X161870000Y-128350000D02*
X166870000Y-128350000D01*
X166870000Y-128350000D02*
X166870000Y-124650000D01*
X166870000Y-124650000D02*
X161870000Y-124650000D01*
X161520000Y-122825000D02*
X161520000Y-124300000D01*
D11*
G04 #@! TO.C,R53*
X181307221Y-128260000D02*
X181632779Y-128260000D01*
X181307221Y-127240000D02*
X181632779Y-127240000D01*
X106307221Y-128260000D02*
X106632779Y-128260000D01*
X106307221Y-127240000D02*
X106632779Y-127240000D01*
G04 #@! TO.C,R52*
X106632779Y-125090000D02*
X106307221Y-125090000D01*
X106632779Y-126110000D02*
X106307221Y-126110000D01*
G04 #@! TO.C,R50*
X178307221Y-133510000D02*
X178632779Y-133510000D01*
X178307221Y-132490000D02*
X178632779Y-132490000D01*
X103307221Y-133510000D02*
X103632779Y-133510000D01*
X103307221Y-132490000D02*
X103632779Y-132490000D01*
X253307221Y-133510000D02*
X253632779Y-133510000D01*
X253307221Y-132490000D02*
X253632779Y-132490000D01*
G04 #@! TO.C,U12*
X176070000Y-70725000D02*
X173345000Y-70725000D01*
X173345000Y-70725000D02*
X173345000Y-70465000D01*
X176070000Y-70725000D02*
X178795000Y-70725000D01*
X178795000Y-70725000D02*
X178795000Y-70465000D01*
X176070000Y-65275000D02*
X173345000Y-65275000D01*
X173345000Y-65275000D02*
X173345000Y-65535000D01*
X176070000Y-65275000D02*
X178795000Y-65275000D01*
X178795000Y-65275000D02*
X178795000Y-65535000D01*
X178795000Y-65535000D02*
X180470000Y-65535000D01*
G04 #@! TO.C,R49*
X95360000Y-130537221D02*
X95360000Y-130862779D01*
X96380000Y-130537221D02*
X96380000Y-130862779D01*
G04 #@! TO.C,U12*
X251070000Y-70725000D02*
X248345000Y-70725000D01*
X248345000Y-70725000D02*
X248345000Y-70465000D01*
X251070000Y-70725000D02*
X253795000Y-70725000D01*
X253795000Y-70725000D02*
X253795000Y-70465000D01*
X251070000Y-65275000D02*
X248345000Y-65275000D01*
X248345000Y-65275000D02*
X248345000Y-65535000D01*
X251070000Y-65275000D02*
X253795000Y-65275000D01*
X253795000Y-65275000D02*
X253795000Y-65535000D01*
X253795000Y-65535000D02*
X255470000Y-65535000D01*
G04 #@! TO.C,R49*
X170360000Y-130537221D02*
X170360000Y-130862779D01*
X171380000Y-130537221D02*
X171380000Y-130862779D01*
X245360000Y-130537221D02*
X245360000Y-130862779D01*
X246380000Y-130537221D02*
X246380000Y-130862779D01*
G04 #@! TO.C,U12*
X101070000Y-70725000D02*
X98345000Y-70725000D01*
X98345000Y-70725000D02*
X98345000Y-70465000D01*
X101070000Y-70725000D02*
X103795000Y-70725000D01*
X103795000Y-70725000D02*
X103795000Y-70465000D01*
X101070000Y-65275000D02*
X98345000Y-65275000D01*
X98345000Y-65275000D02*
X98345000Y-65535000D01*
X101070000Y-65275000D02*
X103795000Y-65275000D01*
X103795000Y-65275000D02*
X103795000Y-65535000D01*
X103795000Y-65535000D02*
X105470000Y-65535000D01*
G04 #@! TO.C,D21*
X99320000Y-138100000D02*
X99320000Y-136100000D01*
X99320000Y-136100000D02*
X103220000Y-136100000D01*
X99320000Y-138100000D02*
X103220000Y-138100000D01*
X249320000Y-138100000D02*
X249320000Y-136100000D01*
X249320000Y-136100000D02*
X253220000Y-136100000D01*
X249320000Y-138100000D02*
X253220000Y-138100000D01*
X174320000Y-138100000D02*
X174320000Y-136100000D01*
X174320000Y-136100000D02*
X178220000Y-136100000D01*
X174320000Y-138100000D02*
X178220000Y-138100000D01*
D12*
G04 #@! TO.C,U11*
X253872000Y-128798000D02*
X253872000Y-125602000D01*
X253872000Y-125602000D02*
X248968000Y-125602000D01*
X248968000Y-125602000D02*
X248968000Y-128798000D01*
X248968000Y-128798000D02*
X253872000Y-128798000D01*
X254000000Y-130675000D02*
X254000000Y-129148000D01*
X178872000Y-128798000D02*
X178872000Y-125602000D01*
X178872000Y-125602000D02*
X173968000Y-125602000D01*
X173968000Y-125602000D02*
X173968000Y-128798000D01*
X173968000Y-128798000D02*
X178872000Y-128798000D01*
X179000000Y-130675000D02*
X179000000Y-129148000D01*
X103872000Y-128798000D02*
X103872000Y-125602000D01*
X103872000Y-125602000D02*
X98968000Y-125602000D01*
X98968000Y-125602000D02*
X98968000Y-128798000D01*
X98968000Y-128798000D02*
X103872000Y-128798000D01*
X104000000Y-130675000D02*
X104000000Y-129148000D01*
D11*
G04 #@! TO.C,D1*
X241020000Y-134200000D02*
X243020000Y-134200000D01*
X243020000Y-134200000D02*
X243020000Y-138100000D01*
X241020000Y-134200000D02*
X241020000Y-138100000D01*
X166020000Y-134200000D02*
X168020000Y-134200000D01*
X168020000Y-134200000D02*
X168020000Y-138100000D01*
X166020000Y-134200000D02*
X166020000Y-138100000D01*
X91020000Y-134200000D02*
X93020000Y-134200000D01*
X93020000Y-134200000D02*
X93020000Y-138100000D01*
X91020000Y-134200000D02*
X91020000Y-138100000D01*
G04 #@! TO.C,D20*
X225400000Y-148495000D02*
X219715000Y-148495000D01*
X219715000Y-148495000D02*
X219715000Y-145325000D01*
X219715000Y-145325000D02*
X225400000Y-145325000D01*
X150400000Y-148495000D02*
X144715000Y-148495000D01*
X144715000Y-148495000D02*
X144715000Y-145325000D01*
X144715000Y-145325000D02*
X150400000Y-145325000D01*
X75400000Y-148495000D02*
X69715000Y-148495000D01*
X69715000Y-148495000D02*
X69715000Y-145325000D01*
X69715000Y-145325000D02*
X75400000Y-145325000D01*
G04 #@! TO.C,R4*
X243910000Y-135487221D02*
X243910000Y-135812779D01*
X244930000Y-135487221D02*
X244930000Y-135812779D01*
X168910000Y-135487221D02*
X168910000Y-135812779D01*
X169930000Y-135487221D02*
X169930000Y-135812779D01*
G04 #@! TO.C,J6*
X237770000Y-101600000D02*
X237770000Y-116600000D01*
X237770000Y-116600000D02*
X253370000Y-116600000D01*
X253370000Y-116600000D02*
X253370000Y-105400000D01*
X253370000Y-105400000D02*
X254970000Y-105400000D01*
X254970000Y-105400000D02*
X254970000Y-101600000D01*
X254970000Y-101600000D02*
X237770000Y-101600000D01*
X162770000Y-101600000D02*
X162770000Y-116600000D01*
X162770000Y-116600000D02*
X178370000Y-116600000D01*
X178370000Y-116600000D02*
X178370000Y-105400000D01*
X178370000Y-105400000D02*
X179970000Y-105400000D01*
X179970000Y-105400000D02*
X179970000Y-101600000D01*
X179970000Y-101600000D02*
X162770000Y-101600000D01*
X87770000Y-101600000D02*
X87770000Y-116600000D01*
X87770000Y-116600000D02*
X103370000Y-116600000D01*
X103370000Y-116600000D02*
X103370000Y-105400000D01*
X103370000Y-105400000D02*
X104970000Y-105400000D01*
X104970000Y-105400000D02*
X104970000Y-101600000D01*
X104970000Y-101600000D02*
X87770000Y-101600000D01*
G04 #@! TO.C,R4*
X93910000Y-135487221D02*
X93910000Y-135812779D01*
X94930000Y-135487221D02*
X94930000Y-135812779D01*
G04 #@! TO.C,R39*
X266860000Y-115237221D02*
X266860000Y-115562779D01*
X267880000Y-115237221D02*
X267880000Y-115562779D01*
X116860000Y-115237221D02*
X116860000Y-115562779D01*
X117880000Y-115237221D02*
X117880000Y-115562779D01*
X191860000Y-115237221D02*
X191860000Y-115562779D01*
X192880000Y-115237221D02*
X192880000Y-115562779D01*
G04 #@! TO.C,C36*
X175132779Y-132490000D02*
X174807221Y-132490000D01*
X175132779Y-133510000D02*
X174807221Y-133510000D01*
X250132779Y-132490000D02*
X249807221Y-132490000D01*
X250132779Y-133510000D02*
X249807221Y-133510000D01*
X100132779Y-132490000D02*
X99807221Y-132490000D01*
X100132779Y-133510000D02*
X99807221Y-133510000D01*
G04 #@! TO.C,C33*
X84080000Y-124562779D02*
X84080000Y-124237221D01*
X83060000Y-124562779D02*
X83060000Y-124237221D01*
G04 #@! TO.C,C34*
X243710000Y-120899721D02*
X243710000Y-121225279D01*
X244730000Y-120899721D02*
X244730000Y-121225279D01*
X93710000Y-120899721D02*
X93710000Y-121225279D01*
X94730000Y-120899721D02*
X94730000Y-121225279D01*
G04 #@! TO.C,C33*
X159080000Y-124562779D02*
X159080000Y-124237221D01*
X158060000Y-124562779D02*
X158060000Y-124237221D01*
G04 #@! TO.C,C35*
X166057221Y-120810000D02*
X166382779Y-120810000D01*
X166057221Y-119790000D02*
X166382779Y-119790000D01*
G04 #@! TO.C,C33*
X234080000Y-124562779D02*
X234080000Y-124237221D01*
X233060000Y-124562779D02*
X233060000Y-124237221D01*
G04 #@! TO.C,C35*
X241057221Y-120810000D02*
X241382779Y-120810000D01*
X241057221Y-119790000D02*
X241382779Y-119790000D01*
G04 #@! TO.C,C34*
X168710000Y-120899721D02*
X168710000Y-121225279D01*
X169730000Y-120899721D02*
X169730000Y-121225279D01*
G04 #@! TO.C,C35*
X91057221Y-120810000D02*
X91382779Y-120810000D01*
X91057221Y-119790000D02*
X91382779Y-119790000D01*
G04 #@! TO.C,C32*
X162469721Y-120810000D02*
X162795279Y-120810000D01*
X162469721Y-119790000D02*
X162795279Y-119790000D01*
X237469721Y-120810000D02*
X237795279Y-120810000D01*
X237469721Y-119790000D02*
X237795279Y-119790000D01*
X87469721Y-120810000D02*
X87795279Y-120810000D01*
X87469721Y-119790000D02*
X87795279Y-119790000D01*
D12*
G04 #@! TO.C,BT1*
X272732000Y-64221000D02*
X271970000Y-64221000D01*
X271970000Y-64221000D02*
X271970000Y-61130000D01*
X271970000Y-61130000D02*
X276341130Y-61130000D01*
X285629270Y-64221000D02*
X286370000Y-64221000D01*
X286370000Y-64221000D02*
X286370000Y-61130000D01*
X286370000Y-61130000D02*
X281998870Y-61130000D01*
X272709351Y-64223316D02*
G75*
G03*
X277170000Y-75410280I6522354J-3882094D01*
G01*
X285630656Y-64223288D02*
G75*
G02*
X281170000Y-75410280I-6460656J-3906712D01*
G01*
X122732000Y-64221000D02*
X121970000Y-64221000D01*
X121970000Y-64221000D02*
X121970000Y-61130000D01*
X121970000Y-61130000D02*
X126341130Y-61130000D01*
X135629270Y-64221000D02*
X136370000Y-64221000D01*
X136370000Y-64221000D02*
X136370000Y-61130000D01*
X136370000Y-61130000D02*
X131998870Y-61130000D01*
X122709351Y-64223316D02*
G75*
G03*
X127170000Y-75410280I6522354J-3882094D01*
G01*
X135630656Y-64223288D02*
G75*
G02*
X131170000Y-75410280I-6460656J-3906712D01*
G01*
X197732000Y-64221000D02*
X196970000Y-64221000D01*
X196970000Y-64221000D02*
X196970000Y-61130000D01*
X196970000Y-61130000D02*
X201341130Y-61130000D01*
X210629270Y-64221000D02*
X211370000Y-64221000D01*
X211370000Y-64221000D02*
X211370000Y-61130000D01*
X211370000Y-61130000D02*
X206998870Y-61130000D01*
X197709351Y-64223316D02*
G75*
G03*
X202170000Y-75410280I6522354J-3882094D01*
G01*
X210630656Y-64223288D02*
G75*
G02*
X206170000Y-75410280I-6460656J-3906712D01*
G01*
D11*
G04 #@! TO.C,D3*
X233455000Y-126820000D02*
X233455000Y-132505000D01*
X233455000Y-132505000D02*
X230285000Y-132505000D01*
X230285000Y-132505000D02*
X230285000Y-126820000D01*
X158455000Y-126820000D02*
X158455000Y-132505000D01*
X158455000Y-132505000D02*
X155285000Y-132505000D01*
X155285000Y-132505000D02*
X155285000Y-126820000D01*
X83455000Y-126820000D02*
X83455000Y-132505000D01*
X83455000Y-132505000D02*
X80285000Y-132505000D01*
X80285000Y-132505000D02*
X80285000Y-126820000D01*
G04 #@! TO.C,R40*
X30232779Y-87510000D02*
X29907221Y-87510000D01*
X30232779Y-86490000D02*
X29907221Y-86490000D01*
G04 #@! TO.C,R42*
X-3770000Y-118164721D02*
X-3770000Y-118490279D01*
X-4790000Y-118164721D02*
X-4790000Y-118490279D01*
G04 #@! TO.C,R38*
X44980000Y-115224721D02*
X44980000Y-115550279D01*
X43960000Y-115224721D02*
X43960000Y-115550279D01*
G04 #@! TO.C,R47*
X18460000Y-130862779D02*
X18460000Y-130537221D01*
X19480000Y-130862779D02*
X19480000Y-130537221D01*
G04 #@! TO.C,R33*
X54220279Y-134510000D02*
X53894721Y-134510000D01*
X54220279Y-133490000D02*
X53894721Y-133490000D01*
G04 #@! TO.C,R30*
X57832779Y-136510000D02*
X57507221Y-136510000D01*
X57832779Y-135490000D02*
X57507221Y-135490000D01*
G04 #@! TO.C,R31*
X57507221Y-133490000D02*
X57832779Y-133490000D01*
X57507221Y-134510000D02*
X57832779Y-134510000D01*
G04 #@! TO.C,R36*
X34880000Y-138437221D02*
X34880000Y-138762779D01*
X33860000Y-138437221D02*
X33860000Y-138762779D01*
G04 #@! TO.C,R46*
X10280000Y-60237221D02*
X10280000Y-60562779D01*
X9260000Y-60237221D02*
X9260000Y-60562779D01*
G04 #@! TO.C,R32*
X54220279Y-136510000D02*
X53894721Y-136510000D01*
X54220279Y-135490000D02*
X53894721Y-135490000D01*
G04 #@! TO.C,R37*
X40780000Y-115224721D02*
X40780000Y-115550279D01*
X39760000Y-115224721D02*
X39760000Y-115550279D01*
G04 #@! TO.C,R39*
X42880000Y-115237221D02*
X42880000Y-115562779D01*
X41860000Y-115237221D02*
X41860000Y-115562779D01*
G04 #@! TO.C,C36*
X25132779Y-133510000D02*
X24807221Y-133510000D01*
X25132779Y-132490000D02*
X24807221Y-132490000D01*
G04 #@! TO.C,C33*
X8060000Y-124562779D02*
X8060000Y-124237221D01*
X9080000Y-124562779D02*
X9080000Y-124237221D01*
G04 #@! TO.C,C34*
X19730000Y-120899721D02*
X19730000Y-121225279D01*
X18710000Y-120899721D02*
X18710000Y-121225279D01*
G04 #@! TO.C,C35*
X16057221Y-119790000D02*
X16382779Y-119790000D01*
X16057221Y-120810000D02*
X16382779Y-120810000D01*
G04 #@! TO.C,C32*
X12469721Y-119790000D02*
X12795279Y-119790000D01*
X12469721Y-120810000D02*
X12795279Y-120810000D01*
D12*
G04 #@! TO.C,BT1*
X61370000Y-61130000D02*
X56998870Y-61130000D01*
X61370000Y-64221000D02*
X61370000Y-61130000D01*
X60629270Y-64221000D02*
X61370000Y-64221000D01*
X46970000Y-61130000D02*
X51341130Y-61130000D01*
X46970000Y-64221000D02*
X46970000Y-61130000D01*
X47732000Y-64221000D02*
X46970000Y-64221000D01*
X60630656Y-64223288D02*
G75*
G02*
X56170000Y-75410280I-6460656J-3906712D01*
G01*
X47709351Y-64223316D02*
G75*
G03*
X52170000Y-75410280I6522354J-3882094D01*
G01*
D11*
G04 #@! TO.C,D3*
X5285000Y-132505000D02*
X5285000Y-126820000D01*
X8455000Y-132505000D02*
X5285000Y-132505000D01*
X8455000Y-126820000D02*
X8455000Y-132505000D01*
G04 #@! TO.C,D20*
X-5285000Y-145325000D02*
X400000Y-145325000D01*
X-5285000Y-148495000D02*
X-5285000Y-145325000D01*
X400000Y-148495000D02*
X-5285000Y-148495000D01*
G04 #@! TO.C,J6*
X29970000Y-101600000D02*
X12770000Y-101600000D01*
X29970000Y-105400000D02*
X29970000Y-101600000D01*
X28370000Y-105400000D02*
X29970000Y-105400000D01*
X28370000Y-116600000D02*
X28370000Y-105400000D01*
X12770000Y-116600000D02*
X28370000Y-116600000D01*
X12770000Y-101600000D02*
X12770000Y-116600000D01*
G04 #@! TO.C,R4*
X19930000Y-135487221D02*
X19930000Y-135812779D01*
X18910000Y-135487221D02*
X18910000Y-135812779D01*
G04 #@! TO.C,R3*
X20760000Y-135762779D02*
X20760000Y-135437221D01*
X21780000Y-135762779D02*
X21780000Y-135437221D01*
G04 #@! TO.C,Q6*
X8480000Y-122300000D02*
X9940000Y-122300000D01*
X8480000Y-119140000D02*
X10640000Y-119140000D01*
X8480000Y-119140000D02*
X8480000Y-120070000D01*
X8480000Y-122300000D02*
X8480000Y-121370000D01*
G04 #@! TO.C,R51*
X31632779Y-130410000D02*
X31307221Y-130410000D01*
X31632779Y-129390000D02*
X31307221Y-129390000D01*
G04 #@! TO.C,U10*
X7530000Y-62300000D02*
X7530000Y-65750000D01*
X7530000Y-62300000D02*
X7530000Y-60350000D01*
X2410000Y-62300000D02*
X2410000Y-64250000D01*
X2410000Y-62300000D02*
X2410000Y-60350000D01*
G04 #@! TO.C,R52*
X31632779Y-126110000D02*
X31307221Y-126110000D01*
X31632779Y-125090000D02*
X31307221Y-125090000D01*
D12*
G04 #@! TO.C,U9*
X11520000Y-122825000D02*
X11520000Y-124300000D01*
X16870000Y-124650000D02*
X11870000Y-124650000D01*
X16870000Y-128350000D02*
X16870000Y-124650000D01*
X11870000Y-128350000D02*
X16870000Y-128350000D01*
X11870000Y-124650000D02*
X11870000Y-128350000D01*
D11*
G04 #@! TO.C,R50*
X28307221Y-132490000D02*
X28632779Y-132490000D01*
X28307221Y-133510000D02*
X28632779Y-133510000D01*
G04 #@! TO.C,R53*
X31307221Y-127240000D02*
X31632779Y-127240000D01*
X31307221Y-128260000D02*
X31632779Y-128260000D01*
G04 #@! TO.C,R49*
X21380000Y-130537221D02*
X21380000Y-130862779D01*
X20360000Y-130537221D02*
X20360000Y-130862779D01*
G04 #@! TO.C,U12*
X28795000Y-65535000D02*
X30470000Y-65535000D01*
X28795000Y-65275000D02*
X28795000Y-65535000D01*
X26070000Y-65275000D02*
X28795000Y-65275000D01*
X23345000Y-65275000D02*
X23345000Y-65535000D01*
X26070000Y-65275000D02*
X23345000Y-65275000D01*
X28795000Y-70725000D02*
X28795000Y-70465000D01*
X26070000Y-70725000D02*
X28795000Y-70725000D01*
X23345000Y-70725000D02*
X23345000Y-70465000D01*
X26070000Y-70725000D02*
X23345000Y-70725000D01*
G04 #@! TO.C,D21*
X24320000Y-138100000D02*
X28220000Y-138100000D01*
X24320000Y-136100000D02*
X28220000Y-136100000D01*
X24320000Y-138100000D02*
X24320000Y-136100000D01*
D12*
G04 #@! TO.C,U11*
X29000000Y-130675000D02*
X29000000Y-129148000D01*
X23968000Y-128798000D02*
X28872000Y-128798000D01*
X23968000Y-125602000D02*
X23968000Y-128798000D01*
X28872000Y-125602000D02*
X23968000Y-125602000D01*
X28872000Y-128798000D02*
X28872000Y-125602000D01*
D11*
G04 #@! TO.C,D1*
X16020000Y-134200000D02*
X16020000Y-138100000D01*
X18020000Y-134200000D02*
X18020000Y-138100000D01*
X16020000Y-134200000D02*
X18020000Y-134200000D01*
G04 #@! TD*
G04 #@! TO.C,R40*
D13*
X255712857Y-85552380D02*
X256046190Y-85076190D01*
X256284285Y-85552380D02*
X256284285Y-84552380D01*
X255903333Y-84552380D01*
X255808095Y-84600000D01*
X255760476Y-84647619D01*
X255712857Y-84742857D01*
X255712857Y-84885714D01*
X255760476Y-84980952D01*
X255808095Y-85028571D01*
X255903333Y-85076190D01*
X256284285Y-85076190D01*
X254855714Y-84885714D02*
X254855714Y-85552380D01*
X255093809Y-84504761D02*
X255331904Y-85219047D01*
X254712857Y-85219047D01*
X254141428Y-84552380D02*
X254046190Y-84552380D01*
X253950952Y-84600000D01*
X253903333Y-84647619D01*
X253855714Y-84742857D01*
X253808095Y-84933333D01*
X253808095Y-85171428D01*
X253855714Y-85361904D01*
X253903333Y-85457142D01*
X253950952Y-85504761D01*
X254046190Y-85552380D01*
X254141428Y-85552380D01*
X254236666Y-85504761D01*
X254284285Y-85457142D01*
X254331904Y-85361904D01*
X254379523Y-85171428D01*
X254379523Y-84933333D01*
X254331904Y-84742857D01*
X254284285Y-84647619D01*
X254236666Y-84600000D01*
X254141428Y-84552380D01*
G04 #@! TO.C,R47*
X94522380Y-126957142D02*
X94046190Y-126623809D01*
X94522380Y-126385714D02*
X93522380Y-126385714D01*
X93522380Y-126766666D01*
X93570000Y-126861904D01*
X93617619Y-126909523D01*
X93712857Y-126957142D01*
X93855714Y-126957142D01*
X93950952Y-126909523D01*
X93998571Y-126861904D01*
X94046190Y-126766666D01*
X94046190Y-126385714D01*
X93855714Y-127814285D02*
X94522380Y-127814285D01*
X93474761Y-127576190D02*
X94189047Y-127338095D01*
X94189047Y-127957142D01*
X93522380Y-128242857D02*
X93522380Y-128909523D01*
X94522380Y-128480952D01*
G04 #@! TO.C,R42*
X144322380Y-117694642D02*
X143846190Y-117361309D01*
X144322380Y-117123214D02*
X143322380Y-117123214D01*
X143322380Y-117504166D01*
X143370000Y-117599404D01*
X143417619Y-117647023D01*
X143512857Y-117694642D01*
X143655714Y-117694642D01*
X143750952Y-117647023D01*
X143798571Y-117599404D01*
X143846190Y-117504166D01*
X143846190Y-117123214D01*
X143655714Y-118551785D02*
X144322380Y-118551785D01*
X143274761Y-118313690D02*
X143989047Y-118075595D01*
X143989047Y-118694642D01*
X143417619Y-119027976D02*
X143370000Y-119075595D01*
X143322380Y-119170833D01*
X143322380Y-119408928D01*
X143370000Y-119504166D01*
X143417619Y-119551785D01*
X143512857Y-119599404D01*
X143608095Y-119599404D01*
X143750952Y-119551785D01*
X144322380Y-118980357D01*
X144322380Y-119599404D01*
G04 #@! TO.C,R40*
X180712857Y-85552380D02*
X181046190Y-85076190D01*
X181284285Y-85552380D02*
X181284285Y-84552380D01*
X180903333Y-84552380D01*
X180808095Y-84600000D01*
X180760476Y-84647619D01*
X180712857Y-84742857D01*
X180712857Y-84885714D01*
X180760476Y-84980952D01*
X180808095Y-85028571D01*
X180903333Y-85076190D01*
X181284285Y-85076190D01*
X179855714Y-84885714D02*
X179855714Y-85552380D01*
X180093809Y-84504761D02*
X180331904Y-85219047D01*
X179712857Y-85219047D01*
X179141428Y-84552380D02*
X179046190Y-84552380D01*
X178950952Y-84600000D01*
X178903333Y-84647619D01*
X178855714Y-84742857D01*
X178808095Y-84933333D01*
X178808095Y-85171428D01*
X178855714Y-85361904D01*
X178903333Y-85457142D01*
X178950952Y-85504761D01*
X179046190Y-85552380D01*
X179141428Y-85552380D01*
X179236666Y-85504761D01*
X179284285Y-85457142D01*
X179331904Y-85361904D01*
X179379523Y-85171428D01*
X179379523Y-84933333D01*
X179331904Y-84742857D01*
X179284285Y-84647619D01*
X179236666Y-84600000D01*
X179141428Y-84552380D01*
X105712857Y-85552380D02*
X106046190Y-85076190D01*
X106284285Y-85552380D02*
X106284285Y-84552380D01*
X105903333Y-84552380D01*
X105808095Y-84600000D01*
X105760476Y-84647619D01*
X105712857Y-84742857D01*
X105712857Y-84885714D01*
X105760476Y-84980952D01*
X105808095Y-85028571D01*
X105903333Y-85076190D01*
X106284285Y-85076190D01*
X104855714Y-84885714D02*
X104855714Y-85552380D01*
X105093809Y-84504761D02*
X105331904Y-85219047D01*
X104712857Y-85219047D01*
X104141428Y-84552380D02*
X104046190Y-84552380D01*
X103950952Y-84600000D01*
X103903333Y-84647619D01*
X103855714Y-84742857D01*
X103808095Y-84933333D01*
X103808095Y-85171428D01*
X103855714Y-85361904D01*
X103903333Y-85457142D01*
X103950952Y-85504761D01*
X104046190Y-85552380D01*
X104141428Y-85552380D01*
X104236666Y-85504761D01*
X104284285Y-85457142D01*
X104331904Y-85361904D01*
X104379523Y-85171428D01*
X104379523Y-84933333D01*
X104331904Y-84742857D01*
X104284285Y-84647619D01*
X104236666Y-84600000D01*
X104141428Y-84552380D01*
G04 #@! TO.C,R38*
X195022380Y-118457142D02*
X194546190Y-118123809D01*
X195022380Y-117885714D02*
X194022380Y-117885714D01*
X194022380Y-118266666D01*
X194070000Y-118361904D01*
X194117619Y-118409523D01*
X194212857Y-118457142D01*
X194355714Y-118457142D01*
X194450952Y-118409523D01*
X194498571Y-118361904D01*
X194546190Y-118266666D01*
X194546190Y-117885714D01*
X194022380Y-118790476D02*
X194022380Y-119409523D01*
X194403333Y-119076190D01*
X194403333Y-119219047D01*
X194450952Y-119314285D01*
X194498571Y-119361904D01*
X194593809Y-119409523D01*
X194831904Y-119409523D01*
X194927142Y-119361904D01*
X194974761Y-119314285D01*
X195022380Y-119219047D01*
X195022380Y-118933333D01*
X194974761Y-118838095D01*
X194927142Y-118790476D01*
X194450952Y-119980952D02*
X194403333Y-119885714D01*
X194355714Y-119838095D01*
X194260476Y-119790476D01*
X194212857Y-119790476D01*
X194117619Y-119838095D01*
X194070000Y-119885714D01*
X194022380Y-119980952D01*
X194022380Y-120171428D01*
X194070000Y-120266666D01*
X194117619Y-120314285D01*
X194212857Y-120361904D01*
X194260476Y-120361904D01*
X194355714Y-120314285D01*
X194403333Y-120266666D01*
X194450952Y-120171428D01*
X194450952Y-119980952D01*
X194498571Y-119885714D01*
X194546190Y-119838095D01*
X194641428Y-119790476D01*
X194831904Y-119790476D01*
X194927142Y-119838095D01*
X194974761Y-119885714D01*
X195022380Y-119980952D01*
X195022380Y-120171428D01*
X194974761Y-120266666D01*
X194927142Y-120314285D01*
X194831904Y-120361904D01*
X194641428Y-120361904D01*
X194546190Y-120314285D01*
X194498571Y-120266666D01*
X194450952Y-120171428D01*
X270022380Y-118457142D02*
X269546190Y-118123809D01*
X270022380Y-117885714D02*
X269022380Y-117885714D01*
X269022380Y-118266666D01*
X269070000Y-118361904D01*
X269117619Y-118409523D01*
X269212857Y-118457142D01*
X269355714Y-118457142D01*
X269450952Y-118409523D01*
X269498571Y-118361904D01*
X269546190Y-118266666D01*
X269546190Y-117885714D01*
X269022380Y-118790476D02*
X269022380Y-119409523D01*
X269403333Y-119076190D01*
X269403333Y-119219047D01*
X269450952Y-119314285D01*
X269498571Y-119361904D01*
X269593809Y-119409523D01*
X269831904Y-119409523D01*
X269927142Y-119361904D01*
X269974761Y-119314285D01*
X270022380Y-119219047D01*
X270022380Y-118933333D01*
X269974761Y-118838095D01*
X269927142Y-118790476D01*
X269450952Y-119980952D02*
X269403333Y-119885714D01*
X269355714Y-119838095D01*
X269260476Y-119790476D01*
X269212857Y-119790476D01*
X269117619Y-119838095D01*
X269070000Y-119885714D01*
X269022380Y-119980952D01*
X269022380Y-120171428D01*
X269070000Y-120266666D01*
X269117619Y-120314285D01*
X269212857Y-120361904D01*
X269260476Y-120361904D01*
X269355714Y-120314285D01*
X269403333Y-120266666D01*
X269450952Y-120171428D01*
X269450952Y-119980952D01*
X269498571Y-119885714D01*
X269546190Y-119838095D01*
X269641428Y-119790476D01*
X269831904Y-119790476D01*
X269927142Y-119838095D01*
X269974761Y-119885714D01*
X270022380Y-119980952D01*
X270022380Y-120171428D01*
X269974761Y-120266666D01*
X269927142Y-120314285D01*
X269831904Y-120361904D01*
X269641428Y-120361904D01*
X269546190Y-120314285D01*
X269498571Y-120266666D01*
X269450952Y-120171428D01*
G04 #@! TO.C,R42*
X219322380Y-117694642D02*
X218846190Y-117361309D01*
X219322380Y-117123214D02*
X218322380Y-117123214D01*
X218322380Y-117504166D01*
X218370000Y-117599404D01*
X218417619Y-117647023D01*
X218512857Y-117694642D01*
X218655714Y-117694642D01*
X218750952Y-117647023D01*
X218798571Y-117599404D01*
X218846190Y-117504166D01*
X218846190Y-117123214D01*
X218655714Y-118551785D02*
X219322380Y-118551785D01*
X218274761Y-118313690D02*
X218989047Y-118075595D01*
X218989047Y-118694642D01*
X218417619Y-119027976D02*
X218370000Y-119075595D01*
X218322380Y-119170833D01*
X218322380Y-119408928D01*
X218370000Y-119504166D01*
X218417619Y-119551785D01*
X218512857Y-119599404D01*
X218608095Y-119599404D01*
X218750952Y-119551785D01*
X219322380Y-118980357D01*
X219322380Y-119599404D01*
X69322380Y-117694642D02*
X68846190Y-117361309D01*
X69322380Y-117123214D02*
X68322380Y-117123214D01*
X68322380Y-117504166D01*
X68370000Y-117599404D01*
X68417619Y-117647023D01*
X68512857Y-117694642D01*
X68655714Y-117694642D01*
X68750952Y-117647023D01*
X68798571Y-117599404D01*
X68846190Y-117504166D01*
X68846190Y-117123214D01*
X68655714Y-118551785D02*
X69322380Y-118551785D01*
X68274761Y-118313690D02*
X68989047Y-118075595D01*
X68989047Y-118694642D01*
X68417619Y-119027976D02*
X68370000Y-119075595D01*
X68322380Y-119170833D01*
X68322380Y-119408928D01*
X68370000Y-119504166D01*
X68417619Y-119551785D01*
X68512857Y-119599404D01*
X68608095Y-119599404D01*
X68750952Y-119551785D01*
X69322380Y-118980357D01*
X69322380Y-119599404D01*
G04 #@! TO.C,R38*
X120022380Y-118457142D02*
X119546190Y-118123809D01*
X120022380Y-117885714D02*
X119022380Y-117885714D01*
X119022380Y-118266666D01*
X119070000Y-118361904D01*
X119117619Y-118409523D01*
X119212857Y-118457142D01*
X119355714Y-118457142D01*
X119450952Y-118409523D01*
X119498571Y-118361904D01*
X119546190Y-118266666D01*
X119546190Y-117885714D01*
X119022380Y-118790476D02*
X119022380Y-119409523D01*
X119403333Y-119076190D01*
X119403333Y-119219047D01*
X119450952Y-119314285D01*
X119498571Y-119361904D01*
X119593809Y-119409523D01*
X119831904Y-119409523D01*
X119927142Y-119361904D01*
X119974761Y-119314285D01*
X120022380Y-119219047D01*
X120022380Y-118933333D01*
X119974761Y-118838095D01*
X119927142Y-118790476D01*
X119450952Y-119980952D02*
X119403333Y-119885714D01*
X119355714Y-119838095D01*
X119260476Y-119790476D01*
X119212857Y-119790476D01*
X119117619Y-119838095D01*
X119070000Y-119885714D01*
X119022380Y-119980952D01*
X119022380Y-120171428D01*
X119070000Y-120266666D01*
X119117619Y-120314285D01*
X119212857Y-120361904D01*
X119260476Y-120361904D01*
X119355714Y-120314285D01*
X119403333Y-120266666D01*
X119450952Y-120171428D01*
X119450952Y-119980952D01*
X119498571Y-119885714D01*
X119546190Y-119838095D01*
X119641428Y-119790476D01*
X119831904Y-119790476D01*
X119927142Y-119838095D01*
X119974761Y-119885714D01*
X120022380Y-119980952D01*
X120022380Y-120171428D01*
X119974761Y-120266666D01*
X119927142Y-120314285D01*
X119831904Y-120361904D01*
X119641428Y-120361904D01*
X119546190Y-120314285D01*
X119498571Y-120266666D01*
X119450952Y-120171428D01*
G04 #@! TO.C,R47*
X244522380Y-126957142D02*
X244046190Y-126623809D01*
X244522380Y-126385714D02*
X243522380Y-126385714D01*
X243522380Y-126766666D01*
X243570000Y-126861904D01*
X243617619Y-126909523D01*
X243712857Y-126957142D01*
X243855714Y-126957142D01*
X243950952Y-126909523D01*
X243998571Y-126861904D01*
X244046190Y-126766666D01*
X244046190Y-126385714D01*
X243855714Y-127814285D02*
X244522380Y-127814285D01*
X243474761Y-127576190D02*
X244189047Y-127338095D01*
X244189047Y-127957142D01*
X243522380Y-128242857D02*
X243522380Y-128909523D01*
X244522380Y-128480952D01*
X169522380Y-126957142D02*
X169046190Y-126623809D01*
X169522380Y-126385714D02*
X168522380Y-126385714D01*
X168522380Y-126766666D01*
X168570000Y-126861904D01*
X168617619Y-126909523D01*
X168712857Y-126957142D01*
X168855714Y-126957142D01*
X168950952Y-126909523D01*
X168998571Y-126861904D01*
X169046190Y-126766666D01*
X169046190Y-126385714D01*
X168855714Y-127814285D02*
X169522380Y-127814285D01*
X168474761Y-127576190D02*
X169189047Y-127338095D01*
X169189047Y-127957142D01*
X168522380Y-128242857D02*
X168522380Y-128909523D01*
X169522380Y-128480952D01*
G04 #@! TO.C,R36*
X186422380Y-137957142D02*
X185946190Y-137623809D01*
X186422380Y-137385714D02*
X185422380Y-137385714D01*
X185422380Y-137766666D01*
X185470000Y-137861904D01*
X185517619Y-137909523D01*
X185612857Y-137957142D01*
X185755714Y-137957142D01*
X185850952Y-137909523D01*
X185898571Y-137861904D01*
X185946190Y-137766666D01*
X185946190Y-137385714D01*
X185422380Y-138290476D02*
X185422380Y-138909523D01*
X185803333Y-138576190D01*
X185803333Y-138719047D01*
X185850952Y-138814285D01*
X185898571Y-138861904D01*
X185993809Y-138909523D01*
X186231904Y-138909523D01*
X186327142Y-138861904D01*
X186374761Y-138814285D01*
X186422380Y-138719047D01*
X186422380Y-138433333D01*
X186374761Y-138338095D01*
X186327142Y-138290476D01*
X185422380Y-139766666D02*
X185422380Y-139576190D01*
X185470000Y-139480952D01*
X185517619Y-139433333D01*
X185660476Y-139338095D01*
X185850952Y-139290476D01*
X186231904Y-139290476D01*
X186327142Y-139338095D01*
X186374761Y-139385714D01*
X186422380Y-139480952D01*
X186422380Y-139671428D01*
X186374761Y-139766666D01*
X186327142Y-139814285D01*
X186231904Y-139861904D01*
X185993809Y-139861904D01*
X185898571Y-139814285D01*
X185850952Y-139766666D01*
X185803333Y-139671428D01*
X185803333Y-139480952D01*
X185850952Y-139385714D01*
X185898571Y-139338095D01*
X185993809Y-139290476D01*
G04 #@! TO.C,R33*
X201212857Y-134552380D02*
X201546190Y-134076190D01*
X201784285Y-134552380D02*
X201784285Y-133552380D01*
X201403333Y-133552380D01*
X201308095Y-133600000D01*
X201260476Y-133647619D01*
X201212857Y-133742857D01*
X201212857Y-133885714D01*
X201260476Y-133980952D01*
X201308095Y-134028571D01*
X201403333Y-134076190D01*
X201784285Y-134076190D01*
X200879523Y-133552380D02*
X200260476Y-133552380D01*
X200593809Y-133933333D01*
X200450952Y-133933333D01*
X200355714Y-133980952D01*
X200308095Y-134028571D01*
X200260476Y-134123809D01*
X200260476Y-134361904D01*
X200308095Y-134457142D01*
X200355714Y-134504761D01*
X200450952Y-134552380D01*
X200736666Y-134552380D01*
X200831904Y-134504761D01*
X200879523Y-134457142D01*
X199927142Y-133552380D02*
X199308095Y-133552380D01*
X199641428Y-133933333D01*
X199498571Y-133933333D01*
X199403333Y-133980952D01*
X199355714Y-134028571D01*
X199308095Y-134123809D01*
X199308095Y-134361904D01*
X199355714Y-134457142D01*
X199403333Y-134504761D01*
X199498571Y-134552380D01*
X199784285Y-134552380D01*
X199879523Y-134504761D01*
X199927142Y-134457142D01*
G04 #@! TO.C,R31*
X286212857Y-134552380D02*
X286546190Y-134076190D01*
X286784285Y-134552380D02*
X286784285Y-133552380D01*
X286403333Y-133552380D01*
X286308095Y-133600000D01*
X286260476Y-133647619D01*
X286212857Y-133742857D01*
X286212857Y-133885714D01*
X286260476Y-133980952D01*
X286308095Y-134028571D01*
X286403333Y-134076190D01*
X286784285Y-134076190D01*
X285879523Y-133552380D02*
X285260476Y-133552380D01*
X285593809Y-133933333D01*
X285450952Y-133933333D01*
X285355714Y-133980952D01*
X285308095Y-134028571D01*
X285260476Y-134123809D01*
X285260476Y-134361904D01*
X285308095Y-134457142D01*
X285355714Y-134504761D01*
X285450952Y-134552380D01*
X285736666Y-134552380D01*
X285831904Y-134504761D01*
X285879523Y-134457142D01*
X284308095Y-134552380D02*
X284879523Y-134552380D01*
X284593809Y-134552380D02*
X284593809Y-133552380D01*
X284689047Y-133695238D01*
X284784285Y-133790476D01*
X284879523Y-133838095D01*
G04 #@! TO.C,R46*
X236822380Y-59857142D02*
X236346190Y-59523809D01*
X236822380Y-59285714D02*
X235822380Y-59285714D01*
X235822380Y-59666666D01*
X235870000Y-59761904D01*
X235917619Y-59809523D01*
X236012857Y-59857142D01*
X236155714Y-59857142D01*
X236250952Y-59809523D01*
X236298571Y-59761904D01*
X236346190Y-59666666D01*
X236346190Y-59285714D01*
X236155714Y-60714285D02*
X236822380Y-60714285D01*
X235774761Y-60476190D02*
X236489047Y-60238095D01*
X236489047Y-60857142D01*
X235822380Y-61666666D02*
X235822380Y-61476190D01*
X235870000Y-61380952D01*
X235917619Y-61333333D01*
X236060476Y-61238095D01*
X236250952Y-61190476D01*
X236631904Y-61190476D01*
X236727142Y-61238095D01*
X236774761Y-61285714D01*
X236822380Y-61380952D01*
X236822380Y-61571428D01*
X236774761Y-61666666D01*
X236727142Y-61714285D01*
X236631904Y-61761904D01*
X236393809Y-61761904D01*
X236298571Y-61714285D01*
X236250952Y-61666666D01*
X236203333Y-61571428D01*
X236203333Y-61380952D01*
X236250952Y-61285714D01*
X236298571Y-61238095D01*
X236393809Y-61190476D01*
G04 #@! TO.C,R31*
X136212857Y-134552380D02*
X136546190Y-134076190D01*
X136784285Y-134552380D02*
X136784285Y-133552380D01*
X136403333Y-133552380D01*
X136308095Y-133600000D01*
X136260476Y-133647619D01*
X136212857Y-133742857D01*
X136212857Y-133885714D01*
X136260476Y-133980952D01*
X136308095Y-134028571D01*
X136403333Y-134076190D01*
X136784285Y-134076190D01*
X135879523Y-133552380D02*
X135260476Y-133552380D01*
X135593809Y-133933333D01*
X135450952Y-133933333D01*
X135355714Y-133980952D01*
X135308095Y-134028571D01*
X135260476Y-134123809D01*
X135260476Y-134361904D01*
X135308095Y-134457142D01*
X135355714Y-134504761D01*
X135450952Y-134552380D01*
X135736666Y-134552380D01*
X135831904Y-134504761D01*
X135879523Y-134457142D01*
X134308095Y-134552380D02*
X134879523Y-134552380D01*
X134593809Y-134552380D02*
X134593809Y-133552380D01*
X134689047Y-133695238D01*
X134784285Y-133790476D01*
X134879523Y-133838095D01*
G04 #@! TO.C,R36*
X261422380Y-137957142D02*
X260946190Y-137623809D01*
X261422380Y-137385714D02*
X260422380Y-137385714D01*
X260422380Y-137766666D01*
X260470000Y-137861904D01*
X260517619Y-137909523D01*
X260612857Y-137957142D01*
X260755714Y-137957142D01*
X260850952Y-137909523D01*
X260898571Y-137861904D01*
X260946190Y-137766666D01*
X260946190Y-137385714D01*
X260422380Y-138290476D02*
X260422380Y-138909523D01*
X260803333Y-138576190D01*
X260803333Y-138719047D01*
X260850952Y-138814285D01*
X260898571Y-138861904D01*
X260993809Y-138909523D01*
X261231904Y-138909523D01*
X261327142Y-138861904D01*
X261374761Y-138814285D01*
X261422380Y-138719047D01*
X261422380Y-138433333D01*
X261374761Y-138338095D01*
X261327142Y-138290476D01*
X260422380Y-139766666D02*
X260422380Y-139576190D01*
X260470000Y-139480952D01*
X260517619Y-139433333D01*
X260660476Y-139338095D01*
X260850952Y-139290476D01*
X261231904Y-139290476D01*
X261327142Y-139338095D01*
X261374761Y-139385714D01*
X261422380Y-139480952D01*
X261422380Y-139671428D01*
X261374761Y-139766666D01*
X261327142Y-139814285D01*
X261231904Y-139861904D01*
X260993809Y-139861904D01*
X260898571Y-139814285D01*
X260850952Y-139766666D01*
X260803333Y-139671428D01*
X260803333Y-139480952D01*
X260850952Y-139385714D01*
X260898571Y-139338095D01*
X260993809Y-139290476D01*
G04 #@! TO.C,R30*
X211712857Y-136552380D02*
X212046190Y-136076190D01*
X212284285Y-136552380D02*
X212284285Y-135552380D01*
X211903333Y-135552380D01*
X211808095Y-135600000D01*
X211760476Y-135647619D01*
X211712857Y-135742857D01*
X211712857Y-135885714D01*
X211760476Y-135980952D01*
X211808095Y-136028571D01*
X211903333Y-136076190D01*
X212284285Y-136076190D01*
X211379523Y-135552380D02*
X210760476Y-135552380D01*
X211093809Y-135933333D01*
X210950952Y-135933333D01*
X210855714Y-135980952D01*
X210808095Y-136028571D01*
X210760476Y-136123809D01*
X210760476Y-136361904D01*
X210808095Y-136457142D01*
X210855714Y-136504761D01*
X210950952Y-136552380D01*
X211236666Y-136552380D01*
X211331904Y-136504761D01*
X211379523Y-136457142D01*
X210141428Y-135552380D02*
X210046190Y-135552380D01*
X209950952Y-135600000D01*
X209903333Y-135647619D01*
X209855714Y-135742857D01*
X209808095Y-135933333D01*
X209808095Y-136171428D01*
X209855714Y-136361904D01*
X209903333Y-136457142D01*
X209950952Y-136504761D01*
X210046190Y-136552380D01*
X210141428Y-136552380D01*
X210236666Y-136504761D01*
X210284285Y-136457142D01*
X210331904Y-136361904D01*
X210379523Y-136171428D01*
X210379523Y-135933333D01*
X210331904Y-135742857D01*
X210284285Y-135647619D01*
X210236666Y-135600000D01*
X210141428Y-135552380D01*
G04 #@! TO.C,R32*
X201212857Y-136552380D02*
X201546190Y-136076190D01*
X201784285Y-136552380D02*
X201784285Y-135552380D01*
X201403333Y-135552380D01*
X201308095Y-135600000D01*
X201260476Y-135647619D01*
X201212857Y-135742857D01*
X201212857Y-135885714D01*
X201260476Y-135980952D01*
X201308095Y-136028571D01*
X201403333Y-136076190D01*
X201784285Y-136076190D01*
X200879523Y-135552380D02*
X200260476Y-135552380D01*
X200593809Y-135933333D01*
X200450952Y-135933333D01*
X200355714Y-135980952D01*
X200308095Y-136028571D01*
X200260476Y-136123809D01*
X200260476Y-136361904D01*
X200308095Y-136457142D01*
X200355714Y-136504761D01*
X200450952Y-136552380D01*
X200736666Y-136552380D01*
X200831904Y-136504761D01*
X200879523Y-136457142D01*
X199879523Y-135647619D02*
X199831904Y-135600000D01*
X199736666Y-135552380D01*
X199498571Y-135552380D01*
X199403333Y-135600000D01*
X199355714Y-135647619D01*
X199308095Y-135742857D01*
X199308095Y-135838095D01*
X199355714Y-135980952D01*
X199927142Y-136552380D01*
X199308095Y-136552380D01*
G04 #@! TO.C,R46*
X86822380Y-59857142D02*
X86346190Y-59523809D01*
X86822380Y-59285714D02*
X85822380Y-59285714D01*
X85822380Y-59666666D01*
X85870000Y-59761904D01*
X85917619Y-59809523D01*
X86012857Y-59857142D01*
X86155714Y-59857142D01*
X86250952Y-59809523D01*
X86298571Y-59761904D01*
X86346190Y-59666666D01*
X86346190Y-59285714D01*
X86155714Y-60714285D02*
X86822380Y-60714285D01*
X85774761Y-60476190D02*
X86489047Y-60238095D01*
X86489047Y-60857142D01*
X85822380Y-61666666D02*
X85822380Y-61476190D01*
X85870000Y-61380952D01*
X85917619Y-61333333D01*
X86060476Y-61238095D01*
X86250952Y-61190476D01*
X86631904Y-61190476D01*
X86727142Y-61238095D01*
X86774761Y-61285714D01*
X86822380Y-61380952D01*
X86822380Y-61571428D01*
X86774761Y-61666666D01*
X86727142Y-61714285D01*
X86631904Y-61761904D01*
X86393809Y-61761904D01*
X86298571Y-61714285D01*
X86250952Y-61666666D01*
X86203333Y-61571428D01*
X86203333Y-61380952D01*
X86250952Y-61285714D01*
X86298571Y-61238095D01*
X86393809Y-61190476D01*
G04 #@! TO.C,R33*
X276212857Y-134552380D02*
X276546190Y-134076190D01*
X276784285Y-134552380D02*
X276784285Y-133552380D01*
X276403333Y-133552380D01*
X276308095Y-133600000D01*
X276260476Y-133647619D01*
X276212857Y-133742857D01*
X276212857Y-133885714D01*
X276260476Y-133980952D01*
X276308095Y-134028571D01*
X276403333Y-134076190D01*
X276784285Y-134076190D01*
X275879523Y-133552380D02*
X275260476Y-133552380D01*
X275593809Y-133933333D01*
X275450952Y-133933333D01*
X275355714Y-133980952D01*
X275308095Y-134028571D01*
X275260476Y-134123809D01*
X275260476Y-134361904D01*
X275308095Y-134457142D01*
X275355714Y-134504761D01*
X275450952Y-134552380D01*
X275736666Y-134552380D01*
X275831904Y-134504761D01*
X275879523Y-134457142D01*
X274927142Y-133552380D02*
X274308095Y-133552380D01*
X274641428Y-133933333D01*
X274498571Y-133933333D01*
X274403333Y-133980952D01*
X274355714Y-134028571D01*
X274308095Y-134123809D01*
X274308095Y-134361904D01*
X274355714Y-134457142D01*
X274403333Y-134504761D01*
X274498571Y-134552380D01*
X274784285Y-134552380D01*
X274879523Y-134504761D01*
X274927142Y-134457142D01*
G04 #@! TO.C,R30*
X136712857Y-136552380D02*
X137046190Y-136076190D01*
X137284285Y-136552380D02*
X137284285Y-135552380D01*
X136903333Y-135552380D01*
X136808095Y-135600000D01*
X136760476Y-135647619D01*
X136712857Y-135742857D01*
X136712857Y-135885714D01*
X136760476Y-135980952D01*
X136808095Y-136028571D01*
X136903333Y-136076190D01*
X137284285Y-136076190D01*
X136379523Y-135552380D02*
X135760476Y-135552380D01*
X136093809Y-135933333D01*
X135950952Y-135933333D01*
X135855714Y-135980952D01*
X135808095Y-136028571D01*
X135760476Y-136123809D01*
X135760476Y-136361904D01*
X135808095Y-136457142D01*
X135855714Y-136504761D01*
X135950952Y-136552380D01*
X136236666Y-136552380D01*
X136331904Y-136504761D01*
X136379523Y-136457142D01*
X135141428Y-135552380D02*
X135046190Y-135552380D01*
X134950952Y-135600000D01*
X134903333Y-135647619D01*
X134855714Y-135742857D01*
X134808095Y-135933333D01*
X134808095Y-136171428D01*
X134855714Y-136361904D01*
X134903333Y-136457142D01*
X134950952Y-136504761D01*
X135046190Y-136552380D01*
X135141428Y-136552380D01*
X135236666Y-136504761D01*
X135284285Y-136457142D01*
X135331904Y-136361904D01*
X135379523Y-136171428D01*
X135379523Y-135933333D01*
X135331904Y-135742857D01*
X135284285Y-135647619D01*
X135236666Y-135600000D01*
X135141428Y-135552380D01*
G04 #@! TO.C,R37*
X266022380Y-118457142D02*
X265546190Y-118123809D01*
X266022380Y-117885714D02*
X265022380Y-117885714D01*
X265022380Y-118266666D01*
X265070000Y-118361904D01*
X265117619Y-118409523D01*
X265212857Y-118457142D01*
X265355714Y-118457142D01*
X265450952Y-118409523D01*
X265498571Y-118361904D01*
X265546190Y-118266666D01*
X265546190Y-117885714D01*
X265022380Y-118790476D02*
X265022380Y-119409523D01*
X265403333Y-119076190D01*
X265403333Y-119219047D01*
X265450952Y-119314285D01*
X265498571Y-119361904D01*
X265593809Y-119409523D01*
X265831904Y-119409523D01*
X265927142Y-119361904D01*
X265974761Y-119314285D01*
X266022380Y-119219047D01*
X266022380Y-118933333D01*
X265974761Y-118838095D01*
X265927142Y-118790476D01*
X265022380Y-119742857D02*
X265022380Y-120409523D01*
X266022380Y-119980952D01*
G04 #@! TO.C,R31*
X211212857Y-134552380D02*
X211546190Y-134076190D01*
X211784285Y-134552380D02*
X211784285Y-133552380D01*
X211403333Y-133552380D01*
X211308095Y-133600000D01*
X211260476Y-133647619D01*
X211212857Y-133742857D01*
X211212857Y-133885714D01*
X211260476Y-133980952D01*
X211308095Y-134028571D01*
X211403333Y-134076190D01*
X211784285Y-134076190D01*
X210879523Y-133552380D02*
X210260476Y-133552380D01*
X210593809Y-133933333D01*
X210450952Y-133933333D01*
X210355714Y-133980952D01*
X210308095Y-134028571D01*
X210260476Y-134123809D01*
X210260476Y-134361904D01*
X210308095Y-134457142D01*
X210355714Y-134504761D01*
X210450952Y-134552380D01*
X210736666Y-134552380D01*
X210831904Y-134504761D01*
X210879523Y-134457142D01*
X209308095Y-134552380D02*
X209879523Y-134552380D01*
X209593809Y-134552380D02*
X209593809Y-133552380D01*
X209689047Y-133695238D01*
X209784285Y-133790476D01*
X209879523Y-133838095D01*
G04 #@! TO.C,R33*
X126212857Y-134552380D02*
X126546190Y-134076190D01*
X126784285Y-134552380D02*
X126784285Y-133552380D01*
X126403333Y-133552380D01*
X126308095Y-133600000D01*
X126260476Y-133647619D01*
X126212857Y-133742857D01*
X126212857Y-133885714D01*
X126260476Y-133980952D01*
X126308095Y-134028571D01*
X126403333Y-134076190D01*
X126784285Y-134076190D01*
X125879523Y-133552380D02*
X125260476Y-133552380D01*
X125593809Y-133933333D01*
X125450952Y-133933333D01*
X125355714Y-133980952D01*
X125308095Y-134028571D01*
X125260476Y-134123809D01*
X125260476Y-134361904D01*
X125308095Y-134457142D01*
X125355714Y-134504761D01*
X125450952Y-134552380D01*
X125736666Y-134552380D01*
X125831904Y-134504761D01*
X125879523Y-134457142D01*
X124927142Y-133552380D02*
X124308095Y-133552380D01*
X124641428Y-133933333D01*
X124498571Y-133933333D01*
X124403333Y-133980952D01*
X124355714Y-134028571D01*
X124308095Y-134123809D01*
X124308095Y-134361904D01*
X124355714Y-134457142D01*
X124403333Y-134504761D01*
X124498571Y-134552380D01*
X124784285Y-134552380D01*
X124879523Y-134504761D01*
X124927142Y-134457142D01*
G04 #@! TO.C,R32*
X276212857Y-136552380D02*
X276546190Y-136076190D01*
X276784285Y-136552380D02*
X276784285Y-135552380D01*
X276403333Y-135552380D01*
X276308095Y-135600000D01*
X276260476Y-135647619D01*
X276212857Y-135742857D01*
X276212857Y-135885714D01*
X276260476Y-135980952D01*
X276308095Y-136028571D01*
X276403333Y-136076190D01*
X276784285Y-136076190D01*
X275879523Y-135552380D02*
X275260476Y-135552380D01*
X275593809Y-135933333D01*
X275450952Y-135933333D01*
X275355714Y-135980952D01*
X275308095Y-136028571D01*
X275260476Y-136123809D01*
X275260476Y-136361904D01*
X275308095Y-136457142D01*
X275355714Y-136504761D01*
X275450952Y-136552380D01*
X275736666Y-136552380D01*
X275831904Y-136504761D01*
X275879523Y-136457142D01*
X274879523Y-135647619D02*
X274831904Y-135600000D01*
X274736666Y-135552380D01*
X274498571Y-135552380D01*
X274403333Y-135600000D01*
X274355714Y-135647619D01*
X274308095Y-135742857D01*
X274308095Y-135838095D01*
X274355714Y-135980952D01*
X274927142Y-136552380D01*
X274308095Y-136552380D01*
G04 #@! TO.C,R46*
X161822380Y-59857142D02*
X161346190Y-59523809D01*
X161822380Y-59285714D02*
X160822380Y-59285714D01*
X160822380Y-59666666D01*
X160870000Y-59761904D01*
X160917619Y-59809523D01*
X161012857Y-59857142D01*
X161155714Y-59857142D01*
X161250952Y-59809523D01*
X161298571Y-59761904D01*
X161346190Y-59666666D01*
X161346190Y-59285714D01*
X161155714Y-60714285D02*
X161822380Y-60714285D01*
X160774761Y-60476190D02*
X161489047Y-60238095D01*
X161489047Y-60857142D01*
X160822380Y-61666666D02*
X160822380Y-61476190D01*
X160870000Y-61380952D01*
X160917619Y-61333333D01*
X161060476Y-61238095D01*
X161250952Y-61190476D01*
X161631904Y-61190476D01*
X161727142Y-61238095D01*
X161774761Y-61285714D01*
X161822380Y-61380952D01*
X161822380Y-61571428D01*
X161774761Y-61666666D01*
X161727142Y-61714285D01*
X161631904Y-61761904D01*
X161393809Y-61761904D01*
X161298571Y-61714285D01*
X161250952Y-61666666D01*
X161203333Y-61571428D01*
X161203333Y-61380952D01*
X161250952Y-61285714D01*
X161298571Y-61238095D01*
X161393809Y-61190476D01*
G04 #@! TO.C,R36*
X111422380Y-137957142D02*
X110946190Y-137623809D01*
X111422380Y-137385714D02*
X110422380Y-137385714D01*
X110422380Y-137766666D01*
X110470000Y-137861904D01*
X110517619Y-137909523D01*
X110612857Y-137957142D01*
X110755714Y-137957142D01*
X110850952Y-137909523D01*
X110898571Y-137861904D01*
X110946190Y-137766666D01*
X110946190Y-137385714D01*
X110422380Y-138290476D02*
X110422380Y-138909523D01*
X110803333Y-138576190D01*
X110803333Y-138719047D01*
X110850952Y-138814285D01*
X110898571Y-138861904D01*
X110993809Y-138909523D01*
X111231904Y-138909523D01*
X111327142Y-138861904D01*
X111374761Y-138814285D01*
X111422380Y-138719047D01*
X111422380Y-138433333D01*
X111374761Y-138338095D01*
X111327142Y-138290476D01*
X110422380Y-139766666D02*
X110422380Y-139576190D01*
X110470000Y-139480952D01*
X110517619Y-139433333D01*
X110660476Y-139338095D01*
X110850952Y-139290476D01*
X111231904Y-139290476D01*
X111327142Y-139338095D01*
X111374761Y-139385714D01*
X111422380Y-139480952D01*
X111422380Y-139671428D01*
X111374761Y-139766666D01*
X111327142Y-139814285D01*
X111231904Y-139861904D01*
X110993809Y-139861904D01*
X110898571Y-139814285D01*
X110850952Y-139766666D01*
X110803333Y-139671428D01*
X110803333Y-139480952D01*
X110850952Y-139385714D01*
X110898571Y-139338095D01*
X110993809Y-139290476D01*
G04 #@! TO.C,R37*
X116022380Y-118457142D02*
X115546190Y-118123809D01*
X116022380Y-117885714D02*
X115022380Y-117885714D01*
X115022380Y-118266666D01*
X115070000Y-118361904D01*
X115117619Y-118409523D01*
X115212857Y-118457142D01*
X115355714Y-118457142D01*
X115450952Y-118409523D01*
X115498571Y-118361904D01*
X115546190Y-118266666D01*
X115546190Y-117885714D01*
X115022380Y-118790476D02*
X115022380Y-119409523D01*
X115403333Y-119076190D01*
X115403333Y-119219047D01*
X115450952Y-119314285D01*
X115498571Y-119361904D01*
X115593809Y-119409523D01*
X115831904Y-119409523D01*
X115927142Y-119361904D01*
X115974761Y-119314285D01*
X116022380Y-119219047D01*
X116022380Y-118933333D01*
X115974761Y-118838095D01*
X115927142Y-118790476D01*
X115022380Y-119742857D02*
X115022380Y-120409523D01*
X116022380Y-119980952D01*
G04 #@! TO.C,R32*
X126212857Y-136552380D02*
X126546190Y-136076190D01*
X126784285Y-136552380D02*
X126784285Y-135552380D01*
X126403333Y-135552380D01*
X126308095Y-135600000D01*
X126260476Y-135647619D01*
X126212857Y-135742857D01*
X126212857Y-135885714D01*
X126260476Y-135980952D01*
X126308095Y-136028571D01*
X126403333Y-136076190D01*
X126784285Y-136076190D01*
X125879523Y-135552380D02*
X125260476Y-135552380D01*
X125593809Y-135933333D01*
X125450952Y-135933333D01*
X125355714Y-135980952D01*
X125308095Y-136028571D01*
X125260476Y-136123809D01*
X125260476Y-136361904D01*
X125308095Y-136457142D01*
X125355714Y-136504761D01*
X125450952Y-136552380D01*
X125736666Y-136552380D01*
X125831904Y-136504761D01*
X125879523Y-136457142D01*
X124879523Y-135647619D02*
X124831904Y-135600000D01*
X124736666Y-135552380D01*
X124498571Y-135552380D01*
X124403333Y-135600000D01*
X124355714Y-135647619D01*
X124308095Y-135742857D01*
X124308095Y-135838095D01*
X124355714Y-135980952D01*
X124927142Y-136552380D01*
X124308095Y-136552380D01*
G04 #@! TO.C,R37*
X191022380Y-118457142D02*
X190546190Y-118123809D01*
X191022380Y-117885714D02*
X190022380Y-117885714D01*
X190022380Y-118266666D01*
X190070000Y-118361904D01*
X190117619Y-118409523D01*
X190212857Y-118457142D01*
X190355714Y-118457142D01*
X190450952Y-118409523D01*
X190498571Y-118361904D01*
X190546190Y-118266666D01*
X190546190Y-117885714D01*
X190022380Y-118790476D02*
X190022380Y-119409523D01*
X190403333Y-119076190D01*
X190403333Y-119219047D01*
X190450952Y-119314285D01*
X190498571Y-119361904D01*
X190593809Y-119409523D01*
X190831904Y-119409523D01*
X190927142Y-119361904D01*
X190974761Y-119314285D01*
X191022380Y-119219047D01*
X191022380Y-118933333D01*
X190974761Y-118838095D01*
X190927142Y-118790476D01*
X190022380Y-119742857D02*
X190022380Y-120409523D01*
X191022380Y-119980952D01*
G04 #@! TO.C,R30*
X286712857Y-136552380D02*
X287046190Y-136076190D01*
X287284285Y-136552380D02*
X287284285Y-135552380D01*
X286903333Y-135552380D01*
X286808095Y-135600000D01*
X286760476Y-135647619D01*
X286712857Y-135742857D01*
X286712857Y-135885714D01*
X286760476Y-135980952D01*
X286808095Y-136028571D01*
X286903333Y-136076190D01*
X287284285Y-136076190D01*
X286379523Y-135552380D02*
X285760476Y-135552380D01*
X286093809Y-135933333D01*
X285950952Y-135933333D01*
X285855714Y-135980952D01*
X285808095Y-136028571D01*
X285760476Y-136123809D01*
X285760476Y-136361904D01*
X285808095Y-136457142D01*
X285855714Y-136504761D01*
X285950952Y-136552380D01*
X286236666Y-136552380D01*
X286331904Y-136504761D01*
X286379523Y-136457142D01*
X285141428Y-135552380D02*
X285046190Y-135552380D01*
X284950952Y-135600000D01*
X284903333Y-135647619D01*
X284855714Y-135742857D01*
X284808095Y-135933333D01*
X284808095Y-136171428D01*
X284855714Y-136361904D01*
X284903333Y-136457142D01*
X284950952Y-136504761D01*
X285046190Y-136552380D01*
X285141428Y-136552380D01*
X285236666Y-136504761D01*
X285284285Y-136457142D01*
X285331904Y-136361904D01*
X285379523Y-136171428D01*
X285379523Y-135933333D01*
X285331904Y-135742857D01*
X285284285Y-135647619D01*
X285236666Y-135600000D01*
X285141428Y-135552380D01*
G04 #@! TO.C,R3*
X172022380Y-138433333D02*
X171546190Y-138100000D01*
X172022380Y-137861904D02*
X171022380Y-137861904D01*
X171022380Y-138242857D01*
X171070000Y-138338095D01*
X171117619Y-138385714D01*
X171212857Y-138433333D01*
X171355714Y-138433333D01*
X171450952Y-138385714D01*
X171498571Y-138338095D01*
X171546190Y-138242857D01*
X171546190Y-137861904D01*
X171022380Y-138766666D02*
X171022380Y-139385714D01*
X171403333Y-139052380D01*
X171403333Y-139195238D01*
X171450952Y-139290476D01*
X171498571Y-139338095D01*
X171593809Y-139385714D01*
X171831904Y-139385714D01*
X171927142Y-139338095D01*
X171974761Y-139290476D01*
X172022380Y-139195238D01*
X172022380Y-138909523D01*
X171974761Y-138814285D01*
X171927142Y-138766666D01*
X247022380Y-138433333D02*
X246546190Y-138100000D01*
X247022380Y-137861904D02*
X246022380Y-137861904D01*
X246022380Y-138242857D01*
X246070000Y-138338095D01*
X246117619Y-138385714D01*
X246212857Y-138433333D01*
X246355714Y-138433333D01*
X246450952Y-138385714D01*
X246498571Y-138338095D01*
X246546190Y-138242857D01*
X246546190Y-137861904D01*
X246022380Y-138766666D02*
X246022380Y-139385714D01*
X246403333Y-139052380D01*
X246403333Y-139195238D01*
X246450952Y-139290476D01*
X246498571Y-139338095D01*
X246593809Y-139385714D01*
X246831904Y-139385714D01*
X246927142Y-139338095D01*
X246974761Y-139290476D01*
X247022380Y-139195238D01*
X247022380Y-138909523D01*
X246974761Y-138814285D01*
X246927142Y-138766666D01*
G04 #@! TO.C,R51*
X260712857Y-130052380D02*
X261046190Y-129576190D01*
X261284285Y-130052380D02*
X261284285Y-129052380D01*
X260903333Y-129052380D01*
X260808095Y-129100000D01*
X260760476Y-129147619D01*
X260712857Y-129242857D01*
X260712857Y-129385714D01*
X260760476Y-129480952D01*
X260808095Y-129528571D01*
X260903333Y-129576190D01*
X261284285Y-129576190D01*
X259808095Y-129052380D02*
X260284285Y-129052380D01*
X260331904Y-129528571D01*
X260284285Y-129480952D01*
X260189047Y-129433333D01*
X259950952Y-129433333D01*
X259855714Y-129480952D01*
X259808095Y-129528571D01*
X259760476Y-129623809D01*
X259760476Y-129861904D01*
X259808095Y-129957142D01*
X259855714Y-130004761D01*
X259950952Y-130052380D01*
X260189047Y-130052380D01*
X260284285Y-130004761D01*
X260331904Y-129957142D01*
X258808095Y-130052380D02*
X259379523Y-130052380D01*
X259093809Y-130052380D02*
X259093809Y-129052380D01*
X259189047Y-129195238D01*
X259284285Y-129290476D01*
X259379523Y-129338095D01*
G04 #@! TO.C,R3*
X97022380Y-138433333D02*
X96546190Y-138100000D01*
X97022380Y-137861904D02*
X96022380Y-137861904D01*
X96022380Y-138242857D01*
X96070000Y-138338095D01*
X96117619Y-138385714D01*
X96212857Y-138433333D01*
X96355714Y-138433333D01*
X96450952Y-138385714D01*
X96498571Y-138338095D01*
X96546190Y-138242857D01*
X96546190Y-137861904D01*
X96022380Y-138766666D02*
X96022380Y-139385714D01*
X96403333Y-139052380D01*
X96403333Y-139195238D01*
X96450952Y-139290476D01*
X96498571Y-139338095D01*
X96593809Y-139385714D01*
X96831904Y-139385714D01*
X96927142Y-139338095D01*
X96974761Y-139290476D01*
X97022380Y-139195238D01*
X97022380Y-138909523D01*
X96974761Y-138814285D01*
X96927142Y-138766666D01*
G04 #@! TO.C,R51*
X110712857Y-130052380D02*
X111046190Y-129576190D01*
X111284285Y-130052380D02*
X111284285Y-129052380D01*
X110903333Y-129052380D01*
X110808095Y-129100000D01*
X110760476Y-129147619D01*
X110712857Y-129242857D01*
X110712857Y-129385714D01*
X110760476Y-129480952D01*
X110808095Y-129528571D01*
X110903333Y-129576190D01*
X111284285Y-129576190D01*
X109808095Y-129052380D02*
X110284285Y-129052380D01*
X110331904Y-129528571D01*
X110284285Y-129480952D01*
X110189047Y-129433333D01*
X109950952Y-129433333D01*
X109855714Y-129480952D01*
X109808095Y-129528571D01*
X109760476Y-129623809D01*
X109760476Y-129861904D01*
X109808095Y-129957142D01*
X109855714Y-130004761D01*
X109950952Y-130052380D01*
X110189047Y-130052380D01*
X110284285Y-130004761D01*
X110331904Y-129957142D01*
X108808095Y-130052380D02*
X109379523Y-130052380D01*
X109093809Y-130052380D02*
X109093809Y-129052380D01*
X109189047Y-129195238D01*
X109284285Y-129290476D01*
X109379523Y-129338095D01*
G04 #@! TO.C,Q6*
X84335238Y-118767619D02*
X84430476Y-118720000D01*
X84525714Y-118624761D01*
X84668571Y-118481904D01*
X84763809Y-118434285D01*
X84859047Y-118434285D01*
X84811428Y-118672380D02*
X84906666Y-118624761D01*
X85001904Y-118529523D01*
X85049523Y-118339047D01*
X85049523Y-118005714D01*
X85001904Y-117815238D01*
X84906666Y-117720000D01*
X84811428Y-117672380D01*
X84620952Y-117672380D01*
X84525714Y-117720000D01*
X84430476Y-117815238D01*
X84382857Y-118005714D01*
X84382857Y-118339047D01*
X84430476Y-118529523D01*
X84525714Y-118624761D01*
X84620952Y-118672380D01*
X84811428Y-118672380D01*
X83525714Y-117672380D02*
X83716190Y-117672380D01*
X83811428Y-117720000D01*
X83859047Y-117767619D01*
X83954285Y-117910476D01*
X84001904Y-118100952D01*
X84001904Y-118481904D01*
X83954285Y-118577142D01*
X83906666Y-118624761D01*
X83811428Y-118672380D01*
X83620952Y-118672380D01*
X83525714Y-118624761D01*
X83478095Y-118577142D01*
X83430476Y-118481904D01*
X83430476Y-118243809D01*
X83478095Y-118148571D01*
X83525714Y-118100952D01*
X83620952Y-118053333D01*
X83811428Y-118053333D01*
X83906666Y-118100952D01*
X83954285Y-118148571D01*
X84001904Y-118243809D01*
X234335238Y-118767619D02*
X234430476Y-118720000D01*
X234525714Y-118624761D01*
X234668571Y-118481904D01*
X234763809Y-118434285D01*
X234859047Y-118434285D01*
X234811428Y-118672380D02*
X234906666Y-118624761D01*
X235001904Y-118529523D01*
X235049523Y-118339047D01*
X235049523Y-118005714D01*
X235001904Y-117815238D01*
X234906666Y-117720000D01*
X234811428Y-117672380D01*
X234620952Y-117672380D01*
X234525714Y-117720000D01*
X234430476Y-117815238D01*
X234382857Y-118005714D01*
X234382857Y-118339047D01*
X234430476Y-118529523D01*
X234525714Y-118624761D01*
X234620952Y-118672380D01*
X234811428Y-118672380D01*
X233525714Y-117672380D02*
X233716190Y-117672380D01*
X233811428Y-117720000D01*
X233859047Y-117767619D01*
X233954285Y-117910476D01*
X234001904Y-118100952D01*
X234001904Y-118481904D01*
X233954285Y-118577142D01*
X233906666Y-118624761D01*
X233811428Y-118672380D01*
X233620952Y-118672380D01*
X233525714Y-118624761D01*
X233478095Y-118577142D01*
X233430476Y-118481904D01*
X233430476Y-118243809D01*
X233478095Y-118148571D01*
X233525714Y-118100952D01*
X233620952Y-118053333D01*
X233811428Y-118053333D01*
X233906666Y-118100952D01*
X233954285Y-118148571D01*
X234001904Y-118243809D01*
X159335238Y-118767619D02*
X159430476Y-118720000D01*
X159525714Y-118624761D01*
X159668571Y-118481904D01*
X159763809Y-118434285D01*
X159859047Y-118434285D01*
X159811428Y-118672380D02*
X159906666Y-118624761D01*
X160001904Y-118529523D01*
X160049523Y-118339047D01*
X160049523Y-118005714D01*
X160001904Y-117815238D01*
X159906666Y-117720000D01*
X159811428Y-117672380D01*
X159620952Y-117672380D01*
X159525714Y-117720000D01*
X159430476Y-117815238D01*
X159382857Y-118005714D01*
X159382857Y-118339047D01*
X159430476Y-118529523D01*
X159525714Y-118624761D01*
X159620952Y-118672380D01*
X159811428Y-118672380D01*
X158525714Y-117672380D02*
X158716190Y-117672380D01*
X158811428Y-117720000D01*
X158859047Y-117767619D01*
X158954285Y-117910476D01*
X159001904Y-118100952D01*
X159001904Y-118481904D01*
X158954285Y-118577142D01*
X158906666Y-118624761D01*
X158811428Y-118672380D01*
X158620952Y-118672380D01*
X158525714Y-118624761D01*
X158478095Y-118577142D01*
X158430476Y-118481904D01*
X158430476Y-118243809D01*
X158478095Y-118148571D01*
X158525714Y-118100952D01*
X158620952Y-118053333D01*
X158811428Y-118053333D01*
X158906666Y-118100952D01*
X158954285Y-118148571D01*
X159001904Y-118243809D01*
G04 #@! TO.C,R51*
X185712857Y-130052380D02*
X186046190Y-129576190D01*
X186284285Y-130052380D02*
X186284285Y-129052380D01*
X185903333Y-129052380D01*
X185808095Y-129100000D01*
X185760476Y-129147619D01*
X185712857Y-129242857D01*
X185712857Y-129385714D01*
X185760476Y-129480952D01*
X185808095Y-129528571D01*
X185903333Y-129576190D01*
X186284285Y-129576190D01*
X184808095Y-129052380D02*
X185284285Y-129052380D01*
X185331904Y-129528571D01*
X185284285Y-129480952D01*
X185189047Y-129433333D01*
X184950952Y-129433333D01*
X184855714Y-129480952D01*
X184808095Y-129528571D01*
X184760476Y-129623809D01*
X184760476Y-129861904D01*
X184808095Y-129957142D01*
X184855714Y-130004761D01*
X184950952Y-130052380D01*
X185189047Y-130052380D01*
X185284285Y-130004761D01*
X185331904Y-129957142D01*
X183808095Y-130052380D02*
X184379523Y-130052380D01*
X184093809Y-130052380D02*
X184093809Y-129052380D01*
X184189047Y-129195238D01*
X184284285Y-129290476D01*
X184379523Y-129338095D01*
G04 #@! TO.C,U10*
X225172380Y-61061904D02*
X225981904Y-61061904D01*
X226077142Y-61109523D01*
X226124761Y-61157142D01*
X226172380Y-61252380D01*
X226172380Y-61442857D01*
X226124761Y-61538095D01*
X226077142Y-61585714D01*
X225981904Y-61633333D01*
X225172380Y-61633333D01*
X226172380Y-62633333D02*
X226172380Y-62061904D01*
X226172380Y-62347619D02*
X225172380Y-62347619D01*
X225315238Y-62252380D01*
X225410476Y-62157142D01*
X225458095Y-62061904D01*
X225172380Y-63252380D02*
X225172380Y-63347619D01*
X225220000Y-63442857D01*
X225267619Y-63490476D01*
X225362857Y-63538095D01*
X225553333Y-63585714D01*
X225791428Y-63585714D01*
X225981904Y-63538095D01*
X226077142Y-63490476D01*
X226124761Y-63442857D01*
X226172380Y-63347619D01*
X226172380Y-63252380D01*
X226124761Y-63157142D01*
X226077142Y-63109523D01*
X225981904Y-63061904D01*
X225791428Y-63014285D01*
X225553333Y-63014285D01*
X225362857Y-63061904D01*
X225267619Y-63109523D01*
X225220000Y-63157142D01*
X225172380Y-63252380D01*
X150172380Y-61061904D02*
X150981904Y-61061904D01*
X151077142Y-61109523D01*
X151124761Y-61157142D01*
X151172380Y-61252380D01*
X151172380Y-61442857D01*
X151124761Y-61538095D01*
X151077142Y-61585714D01*
X150981904Y-61633333D01*
X150172380Y-61633333D01*
X151172380Y-62633333D02*
X151172380Y-62061904D01*
X151172380Y-62347619D02*
X150172380Y-62347619D01*
X150315238Y-62252380D01*
X150410476Y-62157142D01*
X150458095Y-62061904D01*
X150172380Y-63252380D02*
X150172380Y-63347619D01*
X150220000Y-63442857D01*
X150267619Y-63490476D01*
X150362857Y-63538095D01*
X150553333Y-63585714D01*
X150791428Y-63585714D01*
X150981904Y-63538095D01*
X151077142Y-63490476D01*
X151124761Y-63442857D01*
X151172380Y-63347619D01*
X151172380Y-63252380D01*
X151124761Y-63157142D01*
X151077142Y-63109523D01*
X150981904Y-63061904D01*
X150791428Y-63014285D01*
X150553333Y-63014285D01*
X150362857Y-63061904D01*
X150267619Y-63109523D01*
X150220000Y-63157142D01*
X150172380Y-63252380D01*
X75172380Y-61061904D02*
X75981904Y-61061904D01*
X76077142Y-61109523D01*
X76124761Y-61157142D01*
X76172380Y-61252380D01*
X76172380Y-61442857D01*
X76124761Y-61538095D01*
X76077142Y-61585714D01*
X75981904Y-61633333D01*
X75172380Y-61633333D01*
X76172380Y-62633333D02*
X76172380Y-62061904D01*
X76172380Y-62347619D02*
X75172380Y-62347619D01*
X75315238Y-62252380D01*
X75410476Y-62157142D01*
X75458095Y-62061904D01*
X75172380Y-63252380D02*
X75172380Y-63347619D01*
X75220000Y-63442857D01*
X75267619Y-63490476D01*
X75362857Y-63538095D01*
X75553333Y-63585714D01*
X75791428Y-63585714D01*
X75981904Y-63538095D01*
X76077142Y-63490476D01*
X76124761Y-63442857D01*
X76172380Y-63347619D01*
X76172380Y-63252380D01*
X76124761Y-63157142D01*
X76077142Y-63109523D01*
X75981904Y-63061904D01*
X75791428Y-63014285D01*
X75553333Y-63014285D01*
X75362857Y-63061904D01*
X75267619Y-63109523D01*
X75220000Y-63157142D01*
X75172380Y-63252380D01*
G04 #@! TO.C,R52*
X260712857Y-126052380D02*
X261046190Y-125576190D01*
X261284285Y-126052380D02*
X261284285Y-125052380D01*
X260903333Y-125052380D01*
X260808095Y-125100000D01*
X260760476Y-125147619D01*
X260712857Y-125242857D01*
X260712857Y-125385714D01*
X260760476Y-125480952D01*
X260808095Y-125528571D01*
X260903333Y-125576190D01*
X261284285Y-125576190D01*
X259808095Y-125052380D02*
X260284285Y-125052380D01*
X260331904Y-125528571D01*
X260284285Y-125480952D01*
X260189047Y-125433333D01*
X259950952Y-125433333D01*
X259855714Y-125480952D01*
X259808095Y-125528571D01*
X259760476Y-125623809D01*
X259760476Y-125861904D01*
X259808095Y-125957142D01*
X259855714Y-126004761D01*
X259950952Y-126052380D01*
X260189047Y-126052380D01*
X260284285Y-126004761D01*
X260331904Y-125957142D01*
X259379523Y-125147619D02*
X259331904Y-125100000D01*
X259236666Y-125052380D01*
X258998571Y-125052380D01*
X258903333Y-125100000D01*
X258855714Y-125147619D01*
X258808095Y-125242857D01*
X258808095Y-125338095D01*
X258855714Y-125480952D01*
X259427142Y-126052380D01*
X258808095Y-126052380D01*
X185712857Y-126052380D02*
X186046190Y-125576190D01*
X186284285Y-126052380D02*
X186284285Y-125052380D01*
X185903333Y-125052380D01*
X185808095Y-125100000D01*
X185760476Y-125147619D01*
X185712857Y-125242857D01*
X185712857Y-125385714D01*
X185760476Y-125480952D01*
X185808095Y-125528571D01*
X185903333Y-125576190D01*
X186284285Y-125576190D01*
X184808095Y-125052380D02*
X185284285Y-125052380D01*
X185331904Y-125528571D01*
X185284285Y-125480952D01*
X185189047Y-125433333D01*
X184950952Y-125433333D01*
X184855714Y-125480952D01*
X184808095Y-125528571D01*
X184760476Y-125623809D01*
X184760476Y-125861904D01*
X184808095Y-125957142D01*
X184855714Y-126004761D01*
X184950952Y-126052380D01*
X185189047Y-126052380D01*
X185284285Y-126004761D01*
X185331904Y-125957142D01*
X184379523Y-125147619D02*
X184331904Y-125100000D01*
X184236666Y-125052380D01*
X183998571Y-125052380D01*
X183903333Y-125100000D01*
X183855714Y-125147619D01*
X183808095Y-125242857D01*
X183808095Y-125338095D01*
X183855714Y-125480952D01*
X184427142Y-126052380D01*
X183808095Y-126052380D01*
G04 #@! TO.C,R53*
X260712857Y-128052380D02*
X261046190Y-127576190D01*
X261284285Y-128052380D02*
X261284285Y-127052380D01*
X260903333Y-127052380D01*
X260808095Y-127100000D01*
X260760476Y-127147619D01*
X260712857Y-127242857D01*
X260712857Y-127385714D01*
X260760476Y-127480952D01*
X260808095Y-127528571D01*
X260903333Y-127576190D01*
X261284285Y-127576190D01*
X259808095Y-127052380D02*
X260284285Y-127052380D01*
X260331904Y-127528571D01*
X260284285Y-127480952D01*
X260189047Y-127433333D01*
X259950952Y-127433333D01*
X259855714Y-127480952D01*
X259808095Y-127528571D01*
X259760476Y-127623809D01*
X259760476Y-127861904D01*
X259808095Y-127957142D01*
X259855714Y-128004761D01*
X259950952Y-128052380D01*
X260189047Y-128052380D01*
X260284285Y-128004761D01*
X260331904Y-127957142D01*
X259427142Y-127052380D02*
X258808095Y-127052380D01*
X259141428Y-127433333D01*
X258998571Y-127433333D01*
X258903333Y-127480952D01*
X258855714Y-127528571D01*
X258808095Y-127623809D01*
X258808095Y-127861904D01*
X258855714Y-127957142D01*
X258903333Y-128004761D01*
X258998571Y-128052380D01*
X259284285Y-128052380D01*
X259379523Y-128004761D01*
X259427142Y-127957142D01*
G04 #@! TO.C,U9*
D14*
X234874523Y-126132380D02*
X235902619Y-126132380D01*
X236023571Y-126192857D01*
X236084047Y-126253333D01*
X236144523Y-126374285D01*
X236144523Y-126616190D01*
X236084047Y-126737142D01*
X236023571Y-126797619D01*
X235902619Y-126858095D01*
X234874523Y-126858095D01*
X236144523Y-127523333D02*
X236144523Y-127765238D01*
X236084047Y-127886190D01*
X236023571Y-127946666D01*
X235842142Y-128067619D01*
X235600238Y-128128095D01*
X235116428Y-128128095D01*
X234995476Y-128067619D01*
X234935000Y-128007142D01*
X234874523Y-127886190D01*
X234874523Y-127644285D01*
X234935000Y-127523333D01*
X234995476Y-127462857D01*
X235116428Y-127402380D01*
X235418809Y-127402380D01*
X235539761Y-127462857D01*
X235600238Y-127523333D01*
X235660714Y-127644285D01*
X235660714Y-127886190D01*
X235600238Y-128007142D01*
X235539761Y-128067619D01*
X235418809Y-128128095D01*
X84874523Y-126132380D02*
X85902619Y-126132380D01*
X86023571Y-126192857D01*
X86084047Y-126253333D01*
X86144523Y-126374285D01*
X86144523Y-126616190D01*
X86084047Y-126737142D01*
X86023571Y-126797619D01*
X85902619Y-126858095D01*
X84874523Y-126858095D01*
X86144523Y-127523333D02*
X86144523Y-127765238D01*
X86084047Y-127886190D01*
X86023571Y-127946666D01*
X85842142Y-128067619D01*
X85600238Y-128128095D01*
X85116428Y-128128095D01*
X84995476Y-128067619D01*
X84935000Y-128007142D01*
X84874523Y-127886190D01*
X84874523Y-127644285D01*
X84935000Y-127523333D01*
X84995476Y-127462857D01*
X85116428Y-127402380D01*
X85418809Y-127402380D01*
X85539761Y-127462857D01*
X85600238Y-127523333D01*
X85660714Y-127644285D01*
X85660714Y-127886190D01*
X85600238Y-128007142D01*
X85539761Y-128067619D01*
X85418809Y-128128095D01*
X159874523Y-126132380D02*
X160902619Y-126132380D01*
X161023571Y-126192857D01*
X161084047Y-126253333D01*
X161144523Y-126374285D01*
X161144523Y-126616190D01*
X161084047Y-126737142D01*
X161023571Y-126797619D01*
X160902619Y-126858095D01*
X159874523Y-126858095D01*
X161144523Y-127523333D02*
X161144523Y-127765238D01*
X161084047Y-127886190D01*
X161023571Y-127946666D01*
X160842142Y-128067619D01*
X160600238Y-128128095D01*
X160116428Y-128128095D01*
X159995476Y-128067619D01*
X159935000Y-128007142D01*
X159874523Y-127886190D01*
X159874523Y-127644285D01*
X159935000Y-127523333D01*
X159995476Y-127462857D01*
X160116428Y-127402380D01*
X160418809Y-127402380D01*
X160539761Y-127462857D01*
X160600238Y-127523333D01*
X160660714Y-127644285D01*
X160660714Y-127886190D01*
X160600238Y-128007142D01*
X160539761Y-128067619D01*
X160418809Y-128128095D01*
G04 #@! TO.C,R53*
D13*
X185712857Y-128052380D02*
X186046190Y-127576190D01*
X186284285Y-128052380D02*
X186284285Y-127052380D01*
X185903333Y-127052380D01*
X185808095Y-127100000D01*
X185760476Y-127147619D01*
X185712857Y-127242857D01*
X185712857Y-127385714D01*
X185760476Y-127480952D01*
X185808095Y-127528571D01*
X185903333Y-127576190D01*
X186284285Y-127576190D01*
X184808095Y-127052380D02*
X185284285Y-127052380D01*
X185331904Y-127528571D01*
X185284285Y-127480952D01*
X185189047Y-127433333D01*
X184950952Y-127433333D01*
X184855714Y-127480952D01*
X184808095Y-127528571D01*
X184760476Y-127623809D01*
X184760476Y-127861904D01*
X184808095Y-127957142D01*
X184855714Y-128004761D01*
X184950952Y-128052380D01*
X185189047Y-128052380D01*
X185284285Y-128004761D01*
X185331904Y-127957142D01*
X184427142Y-127052380D02*
X183808095Y-127052380D01*
X184141428Y-127433333D01*
X183998571Y-127433333D01*
X183903333Y-127480952D01*
X183855714Y-127528571D01*
X183808095Y-127623809D01*
X183808095Y-127861904D01*
X183855714Y-127957142D01*
X183903333Y-128004761D01*
X183998571Y-128052380D01*
X184284285Y-128052380D01*
X184379523Y-128004761D01*
X184427142Y-127957142D01*
X110712857Y-128052380D02*
X111046190Y-127576190D01*
X111284285Y-128052380D02*
X111284285Y-127052380D01*
X110903333Y-127052380D01*
X110808095Y-127100000D01*
X110760476Y-127147619D01*
X110712857Y-127242857D01*
X110712857Y-127385714D01*
X110760476Y-127480952D01*
X110808095Y-127528571D01*
X110903333Y-127576190D01*
X111284285Y-127576190D01*
X109808095Y-127052380D02*
X110284285Y-127052380D01*
X110331904Y-127528571D01*
X110284285Y-127480952D01*
X110189047Y-127433333D01*
X109950952Y-127433333D01*
X109855714Y-127480952D01*
X109808095Y-127528571D01*
X109760476Y-127623809D01*
X109760476Y-127861904D01*
X109808095Y-127957142D01*
X109855714Y-128004761D01*
X109950952Y-128052380D01*
X110189047Y-128052380D01*
X110284285Y-128004761D01*
X110331904Y-127957142D01*
X109427142Y-127052380D02*
X108808095Y-127052380D01*
X109141428Y-127433333D01*
X108998571Y-127433333D01*
X108903333Y-127480952D01*
X108855714Y-127528571D01*
X108808095Y-127623809D01*
X108808095Y-127861904D01*
X108855714Y-127957142D01*
X108903333Y-128004761D01*
X108998571Y-128052380D01*
X109284285Y-128052380D01*
X109379523Y-128004761D01*
X109427142Y-127957142D01*
G04 #@! TO.C,R52*
X110712857Y-126052380D02*
X111046190Y-125576190D01*
X111284285Y-126052380D02*
X111284285Y-125052380D01*
X110903333Y-125052380D01*
X110808095Y-125100000D01*
X110760476Y-125147619D01*
X110712857Y-125242857D01*
X110712857Y-125385714D01*
X110760476Y-125480952D01*
X110808095Y-125528571D01*
X110903333Y-125576190D01*
X111284285Y-125576190D01*
X109808095Y-125052380D02*
X110284285Y-125052380D01*
X110331904Y-125528571D01*
X110284285Y-125480952D01*
X110189047Y-125433333D01*
X109950952Y-125433333D01*
X109855714Y-125480952D01*
X109808095Y-125528571D01*
X109760476Y-125623809D01*
X109760476Y-125861904D01*
X109808095Y-125957142D01*
X109855714Y-126004761D01*
X109950952Y-126052380D01*
X110189047Y-126052380D01*
X110284285Y-126004761D01*
X110331904Y-125957142D01*
X109379523Y-125147619D02*
X109331904Y-125100000D01*
X109236666Y-125052380D01*
X108998571Y-125052380D01*
X108903333Y-125100000D01*
X108855714Y-125147619D01*
X108808095Y-125242857D01*
X108808095Y-125338095D01*
X108855714Y-125480952D01*
X109427142Y-126052380D01*
X108808095Y-126052380D01*
G04 #@! TO.C,R50*
X179212857Y-135052380D02*
X179546190Y-134576190D01*
X179784285Y-135052380D02*
X179784285Y-134052380D01*
X179403333Y-134052380D01*
X179308095Y-134100000D01*
X179260476Y-134147619D01*
X179212857Y-134242857D01*
X179212857Y-134385714D01*
X179260476Y-134480952D01*
X179308095Y-134528571D01*
X179403333Y-134576190D01*
X179784285Y-134576190D01*
X178308095Y-134052380D02*
X178784285Y-134052380D01*
X178831904Y-134528571D01*
X178784285Y-134480952D01*
X178689047Y-134433333D01*
X178450952Y-134433333D01*
X178355714Y-134480952D01*
X178308095Y-134528571D01*
X178260476Y-134623809D01*
X178260476Y-134861904D01*
X178308095Y-134957142D01*
X178355714Y-135004761D01*
X178450952Y-135052380D01*
X178689047Y-135052380D01*
X178784285Y-135004761D01*
X178831904Y-134957142D01*
X177641428Y-134052380D02*
X177546190Y-134052380D01*
X177450952Y-134100000D01*
X177403333Y-134147619D01*
X177355714Y-134242857D01*
X177308095Y-134433333D01*
X177308095Y-134671428D01*
X177355714Y-134861904D01*
X177403333Y-134957142D01*
X177450952Y-135004761D01*
X177546190Y-135052380D01*
X177641428Y-135052380D01*
X177736666Y-135004761D01*
X177784285Y-134957142D01*
X177831904Y-134861904D01*
X177879523Y-134671428D01*
X177879523Y-134433333D01*
X177831904Y-134242857D01*
X177784285Y-134147619D01*
X177736666Y-134100000D01*
X177641428Y-134052380D01*
X104212857Y-135052380D02*
X104546190Y-134576190D01*
X104784285Y-135052380D02*
X104784285Y-134052380D01*
X104403333Y-134052380D01*
X104308095Y-134100000D01*
X104260476Y-134147619D01*
X104212857Y-134242857D01*
X104212857Y-134385714D01*
X104260476Y-134480952D01*
X104308095Y-134528571D01*
X104403333Y-134576190D01*
X104784285Y-134576190D01*
X103308095Y-134052380D02*
X103784285Y-134052380D01*
X103831904Y-134528571D01*
X103784285Y-134480952D01*
X103689047Y-134433333D01*
X103450952Y-134433333D01*
X103355714Y-134480952D01*
X103308095Y-134528571D01*
X103260476Y-134623809D01*
X103260476Y-134861904D01*
X103308095Y-134957142D01*
X103355714Y-135004761D01*
X103450952Y-135052380D01*
X103689047Y-135052380D01*
X103784285Y-135004761D01*
X103831904Y-134957142D01*
X102641428Y-134052380D02*
X102546190Y-134052380D01*
X102450952Y-134100000D01*
X102403333Y-134147619D01*
X102355714Y-134242857D01*
X102308095Y-134433333D01*
X102308095Y-134671428D01*
X102355714Y-134861904D01*
X102403333Y-134957142D01*
X102450952Y-135004761D01*
X102546190Y-135052380D01*
X102641428Y-135052380D01*
X102736666Y-135004761D01*
X102784285Y-134957142D01*
X102831904Y-134861904D01*
X102879523Y-134671428D01*
X102879523Y-134433333D01*
X102831904Y-134242857D01*
X102784285Y-134147619D01*
X102736666Y-134100000D01*
X102641428Y-134052380D01*
X254212857Y-135052380D02*
X254546190Y-134576190D01*
X254784285Y-135052380D02*
X254784285Y-134052380D01*
X254403333Y-134052380D01*
X254308095Y-134100000D01*
X254260476Y-134147619D01*
X254212857Y-134242857D01*
X254212857Y-134385714D01*
X254260476Y-134480952D01*
X254308095Y-134528571D01*
X254403333Y-134576190D01*
X254784285Y-134576190D01*
X253308095Y-134052380D02*
X253784285Y-134052380D01*
X253831904Y-134528571D01*
X253784285Y-134480952D01*
X253689047Y-134433333D01*
X253450952Y-134433333D01*
X253355714Y-134480952D01*
X253308095Y-134528571D01*
X253260476Y-134623809D01*
X253260476Y-134861904D01*
X253308095Y-134957142D01*
X253355714Y-135004761D01*
X253450952Y-135052380D01*
X253689047Y-135052380D01*
X253784285Y-135004761D01*
X253831904Y-134957142D01*
X252641428Y-134052380D02*
X252546190Y-134052380D01*
X252450952Y-134100000D01*
X252403333Y-134147619D01*
X252355714Y-134242857D01*
X252308095Y-134433333D01*
X252308095Y-134671428D01*
X252355714Y-134861904D01*
X252403333Y-134957142D01*
X252450952Y-135004761D01*
X252546190Y-135052380D01*
X252641428Y-135052380D01*
X252736666Y-135004761D01*
X252784285Y-134957142D01*
X252831904Y-134861904D01*
X252879523Y-134671428D01*
X252879523Y-134433333D01*
X252831904Y-134242857D01*
X252784285Y-134147619D01*
X252736666Y-134100000D01*
X252641428Y-134052380D01*
G04 #@! TO.C,U12*
X177308095Y-63552380D02*
X177308095Y-64361904D01*
X177260476Y-64457142D01*
X177212857Y-64504761D01*
X177117619Y-64552380D01*
X176927142Y-64552380D01*
X176831904Y-64504761D01*
X176784285Y-64457142D01*
X176736666Y-64361904D01*
X176736666Y-63552380D01*
X175736666Y-64552380D02*
X176308095Y-64552380D01*
X176022380Y-64552380D02*
X176022380Y-63552380D01*
X176117619Y-63695238D01*
X176212857Y-63790476D01*
X176308095Y-63838095D01*
X175355714Y-63647619D02*
X175308095Y-63600000D01*
X175212857Y-63552380D01*
X174974761Y-63552380D01*
X174879523Y-63600000D01*
X174831904Y-63647619D01*
X174784285Y-63742857D01*
X174784285Y-63838095D01*
X174831904Y-63980952D01*
X175403333Y-64552380D01*
X174784285Y-64552380D01*
G04 #@! TO.C,R49*
X96522380Y-126957142D02*
X96046190Y-126623809D01*
X96522380Y-126385714D02*
X95522380Y-126385714D01*
X95522380Y-126766666D01*
X95570000Y-126861904D01*
X95617619Y-126909523D01*
X95712857Y-126957142D01*
X95855714Y-126957142D01*
X95950952Y-126909523D01*
X95998571Y-126861904D01*
X96046190Y-126766666D01*
X96046190Y-126385714D01*
X95855714Y-127814285D02*
X96522380Y-127814285D01*
X95474761Y-127576190D02*
X96189047Y-127338095D01*
X96189047Y-127957142D01*
X96522380Y-128385714D02*
X96522380Y-128576190D01*
X96474761Y-128671428D01*
X96427142Y-128719047D01*
X96284285Y-128814285D01*
X96093809Y-128861904D01*
X95712857Y-128861904D01*
X95617619Y-128814285D01*
X95570000Y-128766666D01*
X95522380Y-128671428D01*
X95522380Y-128480952D01*
X95570000Y-128385714D01*
X95617619Y-128338095D01*
X95712857Y-128290476D01*
X95950952Y-128290476D01*
X96046190Y-128338095D01*
X96093809Y-128385714D01*
X96141428Y-128480952D01*
X96141428Y-128671428D01*
X96093809Y-128766666D01*
X96046190Y-128814285D01*
X95950952Y-128861904D01*
G04 #@! TO.C,U12*
X252308095Y-63552380D02*
X252308095Y-64361904D01*
X252260476Y-64457142D01*
X252212857Y-64504761D01*
X252117619Y-64552380D01*
X251927142Y-64552380D01*
X251831904Y-64504761D01*
X251784285Y-64457142D01*
X251736666Y-64361904D01*
X251736666Y-63552380D01*
X250736666Y-64552380D02*
X251308095Y-64552380D01*
X251022380Y-64552380D02*
X251022380Y-63552380D01*
X251117619Y-63695238D01*
X251212857Y-63790476D01*
X251308095Y-63838095D01*
X250355714Y-63647619D02*
X250308095Y-63600000D01*
X250212857Y-63552380D01*
X249974761Y-63552380D01*
X249879523Y-63600000D01*
X249831904Y-63647619D01*
X249784285Y-63742857D01*
X249784285Y-63838095D01*
X249831904Y-63980952D01*
X250403333Y-64552380D01*
X249784285Y-64552380D01*
G04 #@! TO.C,R49*
X171522380Y-126957142D02*
X171046190Y-126623809D01*
X171522380Y-126385714D02*
X170522380Y-126385714D01*
X170522380Y-126766666D01*
X170570000Y-126861904D01*
X170617619Y-126909523D01*
X170712857Y-126957142D01*
X170855714Y-126957142D01*
X170950952Y-126909523D01*
X170998571Y-126861904D01*
X171046190Y-126766666D01*
X171046190Y-126385714D01*
X170855714Y-127814285D02*
X171522380Y-127814285D01*
X170474761Y-127576190D02*
X171189047Y-127338095D01*
X171189047Y-127957142D01*
X171522380Y-128385714D02*
X171522380Y-128576190D01*
X171474761Y-128671428D01*
X171427142Y-128719047D01*
X171284285Y-128814285D01*
X171093809Y-128861904D01*
X170712857Y-128861904D01*
X170617619Y-128814285D01*
X170570000Y-128766666D01*
X170522380Y-128671428D01*
X170522380Y-128480952D01*
X170570000Y-128385714D01*
X170617619Y-128338095D01*
X170712857Y-128290476D01*
X170950952Y-128290476D01*
X171046190Y-128338095D01*
X171093809Y-128385714D01*
X171141428Y-128480952D01*
X171141428Y-128671428D01*
X171093809Y-128766666D01*
X171046190Y-128814285D01*
X170950952Y-128861904D01*
X246522380Y-126957142D02*
X246046190Y-126623809D01*
X246522380Y-126385714D02*
X245522380Y-126385714D01*
X245522380Y-126766666D01*
X245570000Y-126861904D01*
X245617619Y-126909523D01*
X245712857Y-126957142D01*
X245855714Y-126957142D01*
X245950952Y-126909523D01*
X245998571Y-126861904D01*
X246046190Y-126766666D01*
X246046190Y-126385714D01*
X245855714Y-127814285D02*
X246522380Y-127814285D01*
X245474761Y-127576190D02*
X246189047Y-127338095D01*
X246189047Y-127957142D01*
X246522380Y-128385714D02*
X246522380Y-128576190D01*
X246474761Y-128671428D01*
X246427142Y-128719047D01*
X246284285Y-128814285D01*
X246093809Y-128861904D01*
X245712857Y-128861904D01*
X245617619Y-128814285D01*
X245570000Y-128766666D01*
X245522380Y-128671428D01*
X245522380Y-128480952D01*
X245570000Y-128385714D01*
X245617619Y-128338095D01*
X245712857Y-128290476D01*
X245950952Y-128290476D01*
X246046190Y-128338095D01*
X246093809Y-128385714D01*
X246141428Y-128480952D01*
X246141428Y-128671428D01*
X246093809Y-128766666D01*
X246046190Y-128814285D01*
X245950952Y-128861904D01*
G04 #@! TO.C,U12*
X102308095Y-63552380D02*
X102308095Y-64361904D01*
X102260476Y-64457142D01*
X102212857Y-64504761D01*
X102117619Y-64552380D01*
X101927142Y-64552380D01*
X101831904Y-64504761D01*
X101784285Y-64457142D01*
X101736666Y-64361904D01*
X101736666Y-63552380D01*
X100736666Y-64552380D02*
X101308095Y-64552380D01*
X101022380Y-64552380D02*
X101022380Y-63552380D01*
X101117619Y-63695238D01*
X101212857Y-63790476D01*
X101308095Y-63838095D01*
X100355714Y-63647619D02*
X100308095Y-63600000D01*
X100212857Y-63552380D01*
X99974761Y-63552380D01*
X99879523Y-63600000D01*
X99831904Y-63647619D01*
X99784285Y-63742857D01*
X99784285Y-63838095D01*
X99831904Y-63980952D01*
X100403333Y-64552380D01*
X99784285Y-64552380D01*
G04 #@! TO.C,D21*
X102784285Y-139552380D02*
X102784285Y-138552380D01*
X102546190Y-138552380D01*
X102403333Y-138600000D01*
X102308095Y-138695238D01*
X102260476Y-138790476D01*
X102212857Y-138980952D01*
X102212857Y-139123809D01*
X102260476Y-139314285D01*
X102308095Y-139409523D01*
X102403333Y-139504761D01*
X102546190Y-139552380D01*
X102784285Y-139552380D01*
X101831904Y-138647619D02*
X101784285Y-138600000D01*
X101689047Y-138552380D01*
X101450952Y-138552380D01*
X101355714Y-138600000D01*
X101308095Y-138647619D01*
X101260476Y-138742857D01*
X101260476Y-138838095D01*
X101308095Y-138980952D01*
X101879523Y-139552380D01*
X101260476Y-139552380D01*
X100308095Y-139552380D02*
X100879523Y-139552380D01*
X100593809Y-139552380D02*
X100593809Y-138552380D01*
X100689047Y-138695238D01*
X100784285Y-138790476D01*
X100879523Y-138838095D01*
X252784285Y-139552380D02*
X252784285Y-138552380D01*
X252546190Y-138552380D01*
X252403333Y-138600000D01*
X252308095Y-138695238D01*
X252260476Y-138790476D01*
X252212857Y-138980952D01*
X252212857Y-139123809D01*
X252260476Y-139314285D01*
X252308095Y-139409523D01*
X252403333Y-139504761D01*
X252546190Y-139552380D01*
X252784285Y-139552380D01*
X251831904Y-138647619D02*
X251784285Y-138600000D01*
X251689047Y-138552380D01*
X251450952Y-138552380D01*
X251355714Y-138600000D01*
X251308095Y-138647619D01*
X251260476Y-138742857D01*
X251260476Y-138838095D01*
X251308095Y-138980952D01*
X251879523Y-139552380D01*
X251260476Y-139552380D01*
X250308095Y-139552380D02*
X250879523Y-139552380D01*
X250593809Y-139552380D02*
X250593809Y-138552380D01*
X250689047Y-138695238D01*
X250784285Y-138790476D01*
X250879523Y-138838095D01*
X177784285Y-139552380D02*
X177784285Y-138552380D01*
X177546190Y-138552380D01*
X177403333Y-138600000D01*
X177308095Y-138695238D01*
X177260476Y-138790476D01*
X177212857Y-138980952D01*
X177212857Y-139123809D01*
X177260476Y-139314285D01*
X177308095Y-139409523D01*
X177403333Y-139504761D01*
X177546190Y-139552380D01*
X177784285Y-139552380D01*
X176831904Y-138647619D02*
X176784285Y-138600000D01*
X176689047Y-138552380D01*
X176450952Y-138552380D01*
X176355714Y-138600000D01*
X176308095Y-138647619D01*
X176260476Y-138742857D01*
X176260476Y-138838095D01*
X176308095Y-138980952D01*
X176879523Y-139552380D01*
X176260476Y-139552380D01*
X175308095Y-139552380D02*
X175879523Y-139552380D01*
X175593809Y-139552380D02*
X175593809Y-138552380D01*
X175689047Y-138695238D01*
X175784285Y-138790476D01*
X175879523Y-138838095D01*
G04 #@! TO.C,U11*
D14*
X250724523Y-125627619D02*
X251752619Y-125627619D01*
X251873571Y-125688095D01*
X251934047Y-125748571D01*
X251994523Y-125869523D01*
X251994523Y-126111428D01*
X251934047Y-126232380D01*
X251873571Y-126292857D01*
X251752619Y-126353333D01*
X250724523Y-126353333D01*
X251994523Y-127623333D02*
X251994523Y-126897619D01*
X251994523Y-127260476D02*
X250724523Y-127260476D01*
X250905952Y-127139523D01*
X251026904Y-127018571D01*
X251087380Y-126897619D01*
X251994523Y-128832857D02*
X251994523Y-128107142D01*
X251994523Y-128470000D02*
X250724523Y-128470000D01*
X250905952Y-128349047D01*
X251026904Y-128228095D01*
X251087380Y-128107142D01*
X175724523Y-125627619D02*
X176752619Y-125627619D01*
X176873571Y-125688095D01*
X176934047Y-125748571D01*
X176994523Y-125869523D01*
X176994523Y-126111428D01*
X176934047Y-126232380D01*
X176873571Y-126292857D01*
X176752619Y-126353333D01*
X175724523Y-126353333D01*
X176994523Y-127623333D02*
X176994523Y-126897619D01*
X176994523Y-127260476D02*
X175724523Y-127260476D01*
X175905952Y-127139523D01*
X176026904Y-127018571D01*
X176087380Y-126897619D01*
X176994523Y-128832857D02*
X176994523Y-128107142D01*
X176994523Y-128470000D02*
X175724523Y-128470000D01*
X175905952Y-128349047D01*
X176026904Y-128228095D01*
X176087380Y-128107142D01*
X100724523Y-125627619D02*
X101752619Y-125627619D01*
X101873571Y-125688095D01*
X101934047Y-125748571D01*
X101994523Y-125869523D01*
X101994523Y-126111428D01*
X101934047Y-126232380D01*
X101873571Y-126292857D01*
X101752619Y-126353333D01*
X100724523Y-126353333D01*
X101994523Y-127623333D02*
X101994523Y-126897619D01*
X101994523Y-127260476D02*
X100724523Y-127260476D01*
X100905952Y-127139523D01*
X101026904Y-127018571D01*
X101087380Y-126897619D01*
X101994523Y-128832857D02*
X101994523Y-128107142D01*
X101994523Y-128470000D02*
X100724523Y-128470000D01*
X100905952Y-128349047D01*
X101026904Y-128228095D01*
X101087380Y-128107142D01*
G04 #@! TO.C,D1*
D13*
X240472380Y-135711904D02*
X239472380Y-135711904D01*
X239472380Y-135950000D01*
X239520000Y-136092857D01*
X239615238Y-136188095D01*
X239710476Y-136235714D01*
X239900952Y-136283333D01*
X240043809Y-136283333D01*
X240234285Y-136235714D01*
X240329523Y-136188095D01*
X240424761Y-136092857D01*
X240472380Y-135950000D01*
X240472380Y-135711904D01*
X240472380Y-137235714D02*
X240472380Y-136664285D01*
X240472380Y-136950000D02*
X239472380Y-136950000D01*
X239615238Y-136854761D01*
X239710476Y-136759523D01*
X239758095Y-136664285D01*
X165472380Y-135711904D02*
X164472380Y-135711904D01*
X164472380Y-135950000D01*
X164520000Y-136092857D01*
X164615238Y-136188095D01*
X164710476Y-136235714D01*
X164900952Y-136283333D01*
X165043809Y-136283333D01*
X165234285Y-136235714D01*
X165329523Y-136188095D01*
X165424761Y-136092857D01*
X165472380Y-135950000D01*
X165472380Y-135711904D01*
X165472380Y-137235714D02*
X165472380Y-136664285D01*
X165472380Y-136950000D02*
X164472380Y-136950000D01*
X164615238Y-136854761D01*
X164710476Y-136759523D01*
X164758095Y-136664285D01*
X90472380Y-135711904D02*
X89472380Y-135711904D01*
X89472380Y-135950000D01*
X89520000Y-136092857D01*
X89615238Y-136188095D01*
X89710476Y-136235714D01*
X89900952Y-136283333D01*
X90043809Y-136283333D01*
X90234285Y-136235714D01*
X90329523Y-136188095D01*
X90424761Y-136092857D01*
X90472380Y-135950000D01*
X90472380Y-135711904D01*
X90472380Y-137235714D02*
X90472380Y-136664285D01*
X90472380Y-136950000D02*
X89472380Y-136950000D01*
X89615238Y-136854761D01*
X89710476Y-136759523D01*
X89758095Y-136664285D01*
G04 #@! TO.C,D20*
X224114285Y-149642380D02*
X224114285Y-148642380D01*
X223876190Y-148642380D01*
X223733333Y-148690000D01*
X223638095Y-148785238D01*
X223590476Y-148880476D01*
X223542857Y-149070952D01*
X223542857Y-149213809D01*
X223590476Y-149404285D01*
X223638095Y-149499523D01*
X223733333Y-149594761D01*
X223876190Y-149642380D01*
X224114285Y-149642380D01*
X223161904Y-148737619D02*
X223114285Y-148690000D01*
X223019047Y-148642380D01*
X222780952Y-148642380D01*
X222685714Y-148690000D01*
X222638095Y-148737619D01*
X222590476Y-148832857D01*
X222590476Y-148928095D01*
X222638095Y-149070952D01*
X223209523Y-149642380D01*
X222590476Y-149642380D01*
X221971428Y-148642380D02*
X221876190Y-148642380D01*
X221780952Y-148690000D01*
X221733333Y-148737619D01*
X221685714Y-148832857D01*
X221638095Y-149023333D01*
X221638095Y-149261428D01*
X221685714Y-149451904D01*
X221733333Y-149547142D01*
X221780952Y-149594761D01*
X221876190Y-149642380D01*
X221971428Y-149642380D01*
X222066666Y-149594761D01*
X222114285Y-149547142D01*
X222161904Y-149451904D01*
X222209523Y-149261428D01*
X222209523Y-149023333D01*
X222161904Y-148832857D01*
X222114285Y-148737619D01*
X222066666Y-148690000D01*
X221971428Y-148642380D01*
X149114285Y-149642380D02*
X149114285Y-148642380D01*
X148876190Y-148642380D01*
X148733333Y-148690000D01*
X148638095Y-148785238D01*
X148590476Y-148880476D01*
X148542857Y-149070952D01*
X148542857Y-149213809D01*
X148590476Y-149404285D01*
X148638095Y-149499523D01*
X148733333Y-149594761D01*
X148876190Y-149642380D01*
X149114285Y-149642380D01*
X148161904Y-148737619D02*
X148114285Y-148690000D01*
X148019047Y-148642380D01*
X147780952Y-148642380D01*
X147685714Y-148690000D01*
X147638095Y-148737619D01*
X147590476Y-148832857D01*
X147590476Y-148928095D01*
X147638095Y-149070952D01*
X148209523Y-149642380D01*
X147590476Y-149642380D01*
X146971428Y-148642380D02*
X146876190Y-148642380D01*
X146780952Y-148690000D01*
X146733333Y-148737619D01*
X146685714Y-148832857D01*
X146638095Y-149023333D01*
X146638095Y-149261428D01*
X146685714Y-149451904D01*
X146733333Y-149547142D01*
X146780952Y-149594761D01*
X146876190Y-149642380D01*
X146971428Y-149642380D01*
X147066666Y-149594761D01*
X147114285Y-149547142D01*
X147161904Y-149451904D01*
X147209523Y-149261428D01*
X147209523Y-149023333D01*
X147161904Y-148832857D01*
X147114285Y-148737619D01*
X147066666Y-148690000D01*
X146971428Y-148642380D01*
X74114285Y-149642380D02*
X74114285Y-148642380D01*
X73876190Y-148642380D01*
X73733333Y-148690000D01*
X73638095Y-148785238D01*
X73590476Y-148880476D01*
X73542857Y-149070952D01*
X73542857Y-149213809D01*
X73590476Y-149404285D01*
X73638095Y-149499523D01*
X73733333Y-149594761D01*
X73876190Y-149642380D01*
X74114285Y-149642380D01*
X73161904Y-148737619D02*
X73114285Y-148690000D01*
X73019047Y-148642380D01*
X72780952Y-148642380D01*
X72685714Y-148690000D01*
X72638095Y-148737619D01*
X72590476Y-148832857D01*
X72590476Y-148928095D01*
X72638095Y-149070952D01*
X73209523Y-149642380D01*
X72590476Y-149642380D01*
X71971428Y-148642380D02*
X71876190Y-148642380D01*
X71780952Y-148690000D01*
X71733333Y-148737619D01*
X71685714Y-148832857D01*
X71638095Y-149023333D01*
X71638095Y-149261428D01*
X71685714Y-149451904D01*
X71733333Y-149547142D01*
X71780952Y-149594761D01*
X71876190Y-149642380D01*
X71971428Y-149642380D01*
X72066666Y-149594761D01*
X72114285Y-149547142D01*
X72161904Y-149451904D01*
X72209523Y-149261428D01*
X72209523Y-149023333D01*
X72161904Y-148832857D01*
X72114285Y-148737619D01*
X72066666Y-148690000D01*
X71971428Y-148642380D01*
G04 #@! TO.C,R4*
X245022380Y-138433333D02*
X244546190Y-138100000D01*
X245022380Y-137861904D02*
X244022380Y-137861904D01*
X244022380Y-138242857D01*
X244070000Y-138338095D01*
X244117619Y-138385714D01*
X244212857Y-138433333D01*
X244355714Y-138433333D01*
X244450952Y-138385714D01*
X244498571Y-138338095D01*
X244546190Y-138242857D01*
X244546190Y-137861904D01*
X244355714Y-139290476D02*
X245022380Y-139290476D01*
X243974761Y-139052380D02*
X244689047Y-138814285D01*
X244689047Y-139433333D01*
X170022380Y-138433333D02*
X169546190Y-138100000D01*
X170022380Y-137861904D02*
X169022380Y-137861904D01*
X169022380Y-138242857D01*
X169070000Y-138338095D01*
X169117619Y-138385714D01*
X169212857Y-138433333D01*
X169355714Y-138433333D01*
X169450952Y-138385714D01*
X169498571Y-138338095D01*
X169546190Y-138242857D01*
X169546190Y-137861904D01*
X169355714Y-139290476D02*
X170022380Y-139290476D01*
X168974761Y-139052380D02*
X169689047Y-138814285D01*
X169689047Y-139433333D01*
G04 #@! TO.C,J6*
X235022380Y-108766666D02*
X235736666Y-108766666D01*
X235879523Y-108719047D01*
X235974761Y-108623809D01*
X236022380Y-108480952D01*
X236022380Y-108385714D01*
X235022380Y-109671428D02*
X235022380Y-109480952D01*
X235070000Y-109385714D01*
X235117619Y-109338095D01*
X235260476Y-109242857D01*
X235450952Y-109195238D01*
X235831904Y-109195238D01*
X235927142Y-109242857D01*
X235974761Y-109290476D01*
X236022380Y-109385714D01*
X236022380Y-109576190D01*
X235974761Y-109671428D01*
X235927142Y-109719047D01*
X235831904Y-109766666D01*
X235593809Y-109766666D01*
X235498571Y-109719047D01*
X235450952Y-109671428D01*
X235403333Y-109576190D01*
X235403333Y-109385714D01*
X235450952Y-109290476D01*
X235498571Y-109242857D01*
X235593809Y-109195238D01*
X160022380Y-108766666D02*
X160736666Y-108766666D01*
X160879523Y-108719047D01*
X160974761Y-108623809D01*
X161022380Y-108480952D01*
X161022380Y-108385714D01*
X160022380Y-109671428D02*
X160022380Y-109480952D01*
X160070000Y-109385714D01*
X160117619Y-109338095D01*
X160260476Y-109242857D01*
X160450952Y-109195238D01*
X160831904Y-109195238D01*
X160927142Y-109242857D01*
X160974761Y-109290476D01*
X161022380Y-109385714D01*
X161022380Y-109576190D01*
X160974761Y-109671428D01*
X160927142Y-109719047D01*
X160831904Y-109766666D01*
X160593809Y-109766666D01*
X160498571Y-109719047D01*
X160450952Y-109671428D01*
X160403333Y-109576190D01*
X160403333Y-109385714D01*
X160450952Y-109290476D01*
X160498571Y-109242857D01*
X160593809Y-109195238D01*
X85022380Y-108766666D02*
X85736666Y-108766666D01*
X85879523Y-108719047D01*
X85974761Y-108623809D01*
X86022380Y-108480952D01*
X86022380Y-108385714D01*
X85022380Y-109671428D02*
X85022380Y-109480952D01*
X85070000Y-109385714D01*
X85117619Y-109338095D01*
X85260476Y-109242857D01*
X85450952Y-109195238D01*
X85831904Y-109195238D01*
X85927142Y-109242857D01*
X85974761Y-109290476D01*
X86022380Y-109385714D01*
X86022380Y-109576190D01*
X85974761Y-109671428D01*
X85927142Y-109719047D01*
X85831904Y-109766666D01*
X85593809Y-109766666D01*
X85498571Y-109719047D01*
X85450952Y-109671428D01*
X85403333Y-109576190D01*
X85403333Y-109385714D01*
X85450952Y-109290476D01*
X85498571Y-109242857D01*
X85593809Y-109195238D01*
G04 #@! TO.C,R4*
X95022380Y-138433333D02*
X94546190Y-138100000D01*
X95022380Y-137861904D02*
X94022380Y-137861904D01*
X94022380Y-138242857D01*
X94070000Y-138338095D01*
X94117619Y-138385714D01*
X94212857Y-138433333D01*
X94355714Y-138433333D01*
X94450952Y-138385714D01*
X94498571Y-138338095D01*
X94546190Y-138242857D01*
X94546190Y-137861904D01*
X94355714Y-139290476D02*
X95022380Y-139290476D01*
X93974761Y-139052380D02*
X94689047Y-138814285D01*
X94689047Y-139433333D01*
G04 #@! TO.C,R39*
X268022380Y-118457142D02*
X267546190Y-118123809D01*
X268022380Y-117885714D02*
X267022380Y-117885714D01*
X267022380Y-118266666D01*
X267070000Y-118361904D01*
X267117619Y-118409523D01*
X267212857Y-118457142D01*
X267355714Y-118457142D01*
X267450952Y-118409523D01*
X267498571Y-118361904D01*
X267546190Y-118266666D01*
X267546190Y-117885714D01*
X267022380Y-118790476D02*
X267022380Y-119409523D01*
X267403333Y-119076190D01*
X267403333Y-119219047D01*
X267450952Y-119314285D01*
X267498571Y-119361904D01*
X267593809Y-119409523D01*
X267831904Y-119409523D01*
X267927142Y-119361904D01*
X267974761Y-119314285D01*
X268022380Y-119219047D01*
X268022380Y-118933333D01*
X267974761Y-118838095D01*
X267927142Y-118790476D01*
X268022380Y-119885714D02*
X268022380Y-120076190D01*
X267974761Y-120171428D01*
X267927142Y-120219047D01*
X267784285Y-120314285D01*
X267593809Y-120361904D01*
X267212857Y-120361904D01*
X267117619Y-120314285D01*
X267070000Y-120266666D01*
X267022380Y-120171428D01*
X267022380Y-119980952D01*
X267070000Y-119885714D01*
X267117619Y-119838095D01*
X267212857Y-119790476D01*
X267450952Y-119790476D01*
X267546190Y-119838095D01*
X267593809Y-119885714D01*
X267641428Y-119980952D01*
X267641428Y-120171428D01*
X267593809Y-120266666D01*
X267546190Y-120314285D01*
X267450952Y-120361904D01*
X118022380Y-118457142D02*
X117546190Y-118123809D01*
X118022380Y-117885714D02*
X117022380Y-117885714D01*
X117022380Y-118266666D01*
X117070000Y-118361904D01*
X117117619Y-118409523D01*
X117212857Y-118457142D01*
X117355714Y-118457142D01*
X117450952Y-118409523D01*
X117498571Y-118361904D01*
X117546190Y-118266666D01*
X117546190Y-117885714D01*
X117022380Y-118790476D02*
X117022380Y-119409523D01*
X117403333Y-119076190D01*
X117403333Y-119219047D01*
X117450952Y-119314285D01*
X117498571Y-119361904D01*
X117593809Y-119409523D01*
X117831904Y-119409523D01*
X117927142Y-119361904D01*
X117974761Y-119314285D01*
X118022380Y-119219047D01*
X118022380Y-118933333D01*
X117974761Y-118838095D01*
X117927142Y-118790476D01*
X118022380Y-119885714D02*
X118022380Y-120076190D01*
X117974761Y-120171428D01*
X117927142Y-120219047D01*
X117784285Y-120314285D01*
X117593809Y-120361904D01*
X117212857Y-120361904D01*
X117117619Y-120314285D01*
X117070000Y-120266666D01*
X117022380Y-120171428D01*
X117022380Y-119980952D01*
X117070000Y-119885714D01*
X117117619Y-119838095D01*
X117212857Y-119790476D01*
X117450952Y-119790476D01*
X117546190Y-119838095D01*
X117593809Y-119885714D01*
X117641428Y-119980952D01*
X117641428Y-120171428D01*
X117593809Y-120266666D01*
X117546190Y-120314285D01*
X117450952Y-120361904D01*
X193022380Y-118457142D02*
X192546190Y-118123809D01*
X193022380Y-117885714D02*
X192022380Y-117885714D01*
X192022380Y-118266666D01*
X192070000Y-118361904D01*
X192117619Y-118409523D01*
X192212857Y-118457142D01*
X192355714Y-118457142D01*
X192450952Y-118409523D01*
X192498571Y-118361904D01*
X192546190Y-118266666D01*
X192546190Y-117885714D01*
X192022380Y-118790476D02*
X192022380Y-119409523D01*
X192403333Y-119076190D01*
X192403333Y-119219047D01*
X192450952Y-119314285D01*
X192498571Y-119361904D01*
X192593809Y-119409523D01*
X192831904Y-119409523D01*
X192927142Y-119361904D01*
X192974761Y-119314285D01*
X193022380Y-119219047D01*
X193022380Y-118933333D01*
X192974761Y-118838095D01*
X192927142Y-118790476D01*
X193022380Y-119885714D02*
X193022380Y-120076190D01*
X192974761Y-120171428D01*
X192927142Y-120219047D01*
X192784285Y-120314285D01*
X192593809Y-120361904D01*
X192212857Y-120361904D01*
X192117619Y-120314285D01*
X192070000Y-120266666D01*
X192022380Y-120171428D01*
X192022380Y-119980952D01*
X192070000Y-119885714D01*
X192117619Y-119838095D01*
X192212857Y-119790476D01*
X192450952Y-119790476D01*
X192546190Y-119838095D01*
X192593809Y-119885714D01*
X192641428Y-119980952D01*
X192641428Y-120171428D01*
X192593809Y-120266666D01*
X192546190Y-120314285D01*
X192450952Y-120361904D01*
G04 #@! TO.C,C36*
X175612857Y-134957142D02*
X175660476Y-135004761D01*
X175803333Y-135052380D01*
X175898571Y-135052380D01*
X176041428Y-135004761D01*
X176136666Y-134909523D01*
X176184285Y-134814285D01*
X176231904Y-134623809D01*
X176231904Y-134480952D01*
X176184285Y-134290476D01*
X176136666Y-134195238D01*
X176041428Y-134100000D01*
X175898571Y-134052380D01*
X175803333Y-134052380D01*
X175660476Y-134100000D01*
X175612857Y-134147619D01*
X175279523Y-134052380D02*
X174660476Y-134052380D01*
X174993809Y-134433333D01*
X174850952Y-134433333D01*
X174755714Y-134480952D01*
X174708095Y-134528571D01*
X174660476Y-134623809D01*
X174660476Y-134861904D01*
X174708095Y-134957142D01*
X174755714Y-135004761D01*
X174850952Y-135052380D01*
X175136666Y-135052380D01*
X175231904Y-135004761D01*
X175279523Y-134957142D01*
X173803333Y-134052380D02*
X173993809Y-134052380D01*
X174089047Y-134100000D01*
X174136666Y-134147619D01*
X174231904Y-134290476D01*
X174279523Y-134480952D01*
X174279523Y-134861904D01*
X174231904Y-134957142D01*
X174184285Y-135004761D01*
X174089047Y-135052380D01*
X173898571Y-135052380D01*
X173803333Y-135004761D01*
X173755714Y-134957142D01*
X173708095Y-134861904D01*
X173708095Y-134623809D01*
X173755714Y-134528571D01*
X173803333Y-134480952D01*
X173898571Y-134433333D01*
X174089047Y-134433333D01*
X174184285Y-134480952D01*
X174231904Y-134528571D01*
X174279523Y-134623809D01*
X250612857Y-134957142D02*
X250660476Y-135004761D01*
X250803333Y-135052380D01*
X250898571Y-135052380D01*
X251041428Y-135004761D01*
X251136666Y-134909523D01*
X251184285Y-134814285D01*
X251231904Y-134623809D01*
X251231904Y-134480952D01*
X251184285Y-134290476D01*
X251136666Y-134195238D01*
X251041428Y-134100000D01*
X250898571Y-134052380D01*
X250803333Y-134052380D01*
X250660476Y-134100000D01*
X250612857Y-134147619D01*
X250279523Y-134052380D02*
X249660476Y-134052380D01*
X249993809Y-134433333D01*
X249850952Y-134433333D01*
X249755714Y-134480952D01*
X249708095Y-134528571D01*
X249660476Y-134623809D01*
X249660476Y-134861904D01*
X249708095Y-134957142D01*
X249755714Y-135004761D01*
X249850952Y-135052380D01*
X250136666Y-135052380D01*
X250231904Y-135004761D01*
X250279523Y-134957142D01*
X248803333Y-134052380D02*
X248993809Y-134052380D01*
X249089047Y-134100000D01*
X249136666Y-134147619D01*
X249231904Y-134290476D01*
X249279523Y-134480952D01*
X249279523Y-134861904D01*
X249231904Y-134957142D01*
X249184285Y-135004761D01*
X249089047Y-135052380D01*
X248898571Y-135052380D01*
X248803333Y-135004761D01*
X248755714Y-134957142D01*
X248708095Y-134861904D01*
X248708095Y-134623809D01*
X248755714Y-134528571D01*
X248803333Y-134480952D01*
X248898571Y-134433333D01*
X249089047Y-134433333D01*
X249184285Y-134480952D01*
X249231904Y-134528571D01*
X249279523Y-134623809D01*
X100612857Y-134957142D02*
X100660476Y-135004761D01*
X100803333Y-135052380D01*
X100898571Y-135052380D01*
X101041428Y-135004761D01*
X101136666Y-134909523D01*
X101184285Y-134814285D01*
X101231904Y-134623809D01*
X101231904Y-134480952D01*
X101184285Y-134290476D01*
X101136666Y-134195238D01*
X101041428Y-134100000D01*
X100898571Y-134052380D01*
X100803333Y-134052380D01*
X100660476Y-134100000D01*
X100612857Y-134147619D01*
X100279523Y-134052380D02*
X99660476Y-134052380D01*
X99993809Y-134433333D01*
X99850952Y-134433333D01*
X99755714Y-134480952D01*
X99708095Y-134528571D01*
X99660476Y-134623809D01*
X99660476Y-134861904D01*
X99708095Y-134957142D01*
X99755714Y-135004761D01*
X99850952Y-135052380D01*
X100136666Y-135052380D01*
X100231904Y-135004761D01*
X100279523Y-134957142D01*
X98803333Y-134052380D02*
X98993809Y-134052380D01*
X99089047Y-134100000D01*
X99136666Y-134147619D01*
X99231904Y-134290476D01*
X99279523Y-134480952D01*
X99279523Y-134861904D01*
X99231904Y-134957142D01*
X99184285Y-135004761D01*
X99089047Y-135052380D01*
X98898571Y-135052380D01*
X98803333Y-135004761D01*
X98755714Y-134957142D01*
X98708095Y-134861904D01*
X98708095Y-134623809D01*
X98755714Y-134528571D01*
X98803333Y-134480952D01*
X98898571Y-134433333D01*
X99089047Y-134433333D01*
X99184285Y-134480952D01*
X99231904Y-134528571D01*
X99279523Y-134623809D01*
G04 #@! TO.C,C33*
X81927142Y-123957142D02*
X81974761Y-123909523D01*
X82022380Y-123766666D01*
X82022380Y-123671428D01*
X81974761Y-123528571D01*
X81879523Y-123433333D01*
X81784285Y-123385714D01*
X81593809Y-123338095D01*
X81450952Y-123338095D01*
X81260476Y-123385714D01*
X81165238Y-123433333D01*
X81070000Y-123528571D01*
X81022380Y-123671428D01*
X81022380Y-123766666D01*
X81070000Y-123909523D01*
X81117619Y-123957142D01*
X81022380Y-124290476D02*
X81022380Y-124909523D01*
X81403333Y-124576190D01*
X81403333Y-124719047D01*
X81450952Y-124814285D01*
X81498571Y-124861904D01*
X81593809Y-124909523D01*
X81831904Y-124909523D01*
X81927142Y-124861904D01*
X81974761Y-124814285D01*
X82022380Y-124719047D01*
X82022380Y-124433333D01*
X81974761Y-124338095D01*
X81927142Y-124290476D01*
X81022380Y-125242857D02*
X81022380Y-125861904D01*
X81403333Y-125528571D01*
X81403333Y-125671428D01*
X81450952Y-125766666D01*
X81498571Y-125814285D01*
X81593809Y-125861904D01*
X81831904Y-125861904D01*
X81927142Y-125814285D01*
X81974761Y-125766666D01*
X82022380Y-125671428D01*
X82022380Y-125385714D01*
X81974761Y-125290476D01*
X81927142Y-125242857D01*
G04 #@! TO.C,C34*
X246927142Y-120457142D02*
X246974761Y-120409523D01*
X247022380Y-120266666D01*
X247022380Y-120171428D01*
X246974761Y-120028571D01*
X246879523Y-119933333D01*
X246784285Y-119885714D01*
X246593809Y-119838095D01*
X246450952Y-119838095D01*
X246260476Y-119885714D01*
X246165238Y-119933333D01*
X246070000Y-120028571D01*
X246022380Y-120171428D01*
X246022380Y-120266666D01*
X246070000Y-120409523D01*
X246117619Y-120457142D01*
X246022380Y-120790476D02*
X246022380Y-121409523D01*
X246403333Y-121076190D01*
X246403333Y-121219047D01*
X246450952Y-121314285D01*
X246498571Y-121361904D01*
X246593809Y-121409523D01*
X246831904Y-121409523D01*
X246927142Y-121361904D01*
X246974761Y-121314285D01*
X247022380Y-121219047D01*
X247022380Y-120933333D01*
X246974761Y-120838095D01*
X246927142Y-120790476D01*
X246355714Y-122266666D02*
X247022380Y-122266666D01*
X245974761Y-122028571D02*
X246689047Y-121790476D01*
X246689047Y-122409523D01*
X96927142Y-120457142D02*
X96974761Y-120409523D01*
X97022380Y-120266666D01*
X97022380Y-120171428D01*
X96974761Y-120028571D01*
X96879523Y-119933333D01*
X96784285Y-119885714D01*
X96593809Y-119838095D01*
X96450952Y-119838095D01*
X96260476Y-119885714D01*
X96165238Y-119933333D01*
X96070000Y-120028571D01*
X96022380Y-120171428D01*
X96022380Y-120266666D01*
X96070000Y-120409523D01*
X96117619Y-120457142D01*
X96022380Y-120790476D02*
X96022380Y-121409523D01*
X96403333Y-121076190D01*
X96403333Y-121219047D01*
X96450952Y-121314285D01*
X96498571Y-121361904D01*
X96593809Y-121409523D01*
X96831904Y-121409523D01*
X96927142Y-121361904D01*
X96974761Y-121314285D01*
X97022380Y-121219047D01*
X97022380Y-120933333D01*
X96974761Y-120838095D01*
X96927142Y-120790476D01*
X96355714Y-122266666D02*
X97022380Y-122266666D01*
X95974761Y-122028571D02*
X96689047Y-121790476D01*
X96689047Y-122409523D01*
G04 #@! TO.C,C33*
X156927142Y-123957142D02*
X156974761Y-123909523D01*
X157022380Y-123766666D01*
X157022380Y-123671428D01*
X156974761Y-123528571D01*
X156879523Y-123433333D01*
X156784285Y-123385714D01*
X156593809Y-123338095D01*
X156450952Y-123338095D01*
X156260476Y-123385714D01*
X156165238Y-123433333D01*
X156070000Y-123528571D01*
X156022380Y-123671428D01*
X156022380Y-123766666D01*
X156070000Y-123909523D01*
X156117619Y-123957142D01*
X156022380Y-124290476D02*
X156022380Y-124909523D01*
X156403333Y-124576190D01*
X156403333Y-124719047D01*
X156450952Y-124814285D01*
X156498571Y-124861904D01*
X156593809Y-124909523D01*
X156831904Y-124909523D01*
X156927142Y-124861904D01*
X156974761Y-124814285D01*
X157022380Y-124719047D01*
X157022380Y-124433333D01*
X156974761Y-124338095D01*
X156927142Y-124290476D01*
X156022380Y-125242857D02*
X156022380Y-125861904D01*
X156403333Y-125528571D01*
X156403333Y-125671428D01*
X156450952Y-125766666D01*
X156498571Y-125814285D01*
X156593809Y-125861904D01*
X156831904Y-125861904D01*
X156927142Y-125814285D01*
X156974761Y-125766666D01*
X157022380Y-125671428D01*
X157022380Y-125385714D01*
X156974761Y-125290476D01*
X156927142Y-125242857D01*
G04 #@! TO.C,C35*
X166862857Y-122087142D02*
X166910476Y-122134761D01*
X167053333Y-122182380D01*
X167148571Y-122182380D01*
X167291428Y-122134761D01*
X167386666Y-122039523D01*
X167434285Y-121944285D01*
X167481904Y-121753809D01*
X167481904Y-121610952D01*
X167434285Y-121420476D01*
X167386666Y-121325238D01*
X167291428Y-121230000D01*
X167148571Y-121182380D01*
X167053333Y-121182380D01*
X166910476Y-121230000D01*
X166862857Y-121277619D01*
X166529523Y-121182380D02*
X165910476Y-121182380D01*
X166243809Y-121563333D01*
X166100952Y-121563333D01*
X166005714Y-121610952D01*
X165958095Y-121658571D01*
X165910476Y-121753809D01*
X165910476Y-121991904D01*
X165958095Y-122087142D01*
X166005714Y-122134761D01*
X166100952Y-122182380D01*
X166386666Y-122182380D01*
X166481904Y-122134761D01*
X166529523Y-122087142D01*
X165005714Y-121182380D02*
X165481904Y-121182380D01*
X165529523Y-121658571D01*
X165481904Y-121610952D01*
X165386666Y-121563333D01*
X165148571Y-121563333D01*
X165053333Y-121610952D01*
X165005714Y-121658571D01*
X164958095Y-121753809D01*
X164958095Y-121991904D01*
X165005714Y-122087142D01*
X165053333Y-122134761D01*
X165148571Y-122182380D01*
X165386666Y-122182380D01*
X165481904Y-122134761D01*
X165529523Y-122087142D01*
G04 #@! TO.C,C33*
X231927142Y-123957142D02*
X231974761Y-123909523D01*
X232022380Y-123766666D01*
X232022380Y-123671428D01*
X231974761Y-123528571D01*
X231879523Y-123433333D01*
X231784285Y-123385714D01*
X231593809Y-123338095D01*
X231450952Y-123338095D01*
X231260476Y-123385714D01*
X231165238Y-123433333D01*
X231070000Y-123528571D01*
X231022380Y-123671428D01*
X231022380Y-123766666D01*
X231070000Y-123909523D01*
X231117619Y-123957142D01*
X231022380Y-124290476D02*
X231022380Y-124909523D01*
X231403333Y-124576190D01*
X231403333Y-124719047D01*
X231450952Y-124814285D01*
X231498571Y-124861904D01*
X231593809Y-124909523D01*
X231831904Y-124909523D01*
X231927142Y-124861904D01*
X231974761Y-124814285D01*
X232022380Y-124719047D01*
X232022380Y-124433333D01*
X231974761Y-124338095D01*
X231927142Y-124290476D01*
X231022380Y-125242857D02*
X231022380Y-125861904D01*
X231403333Y-125528571D01*
X231403333Y-125671428D01*
X231450952Y-125766666D01*
X231498571Y-125814285D01*
X231593809Y-125861904D01*
X231831904Y-125861904D01*
X231927142Y-125814285D01*
X231974761Y-125766666D01*
X232022380Y-125671428D01*
X232022380Y-125385714D01*
X231974761Y-125290476D01*
X231927142Y-125242857D01*
G04 #@! TO.C,C35*
X241862857Y-122087142D02*
X241910476Y-122134761D01*
X242053333Y-122182380D01*
X242148571Y-122182380D01*
X242291428Y-122134761D01*
X242386666Y-122039523D01*
X242434285Y-121944285D01*
X242481904Y-121753809D01*
X242481904Y-121610952D01*
X242434285Y-121420476D01*
X242386666Y-121325238D01*
X242291428Y-121230000D01*
X242148571Y-121182380D01*
X242053333Y-121182380D01*
X241910476Y-121230000D01*
X241862857Y-121277619D01*
X241529523Y-121182380D02*
X240910476Y-121182380D01*
X241243809Y-121563333D01*
X241100952Y-121563333D01*
X241005714Y-121610952D01*
X240958095Y-121658571D01*
X240910476Y-121753809D01*
X240910476Y-121991904D01*
X240958095Y-122087142D01*
X241005714Y-122134761D01*
X241100952Y-122182380D01*
X241386666Y-122182380D01*
X241481904Y-122134761D01*
X241529523Y-122087142D01*
X240005714Y-121182380D02*
X240481904Y-121182380D01*
X240529523Y-121658571D01*
X240481904Y-121610952D01*
X240386666Y-121563333D01*
X240148571Y-121563333D01*
X240053333Y-121610952D01*
X240005714Y-121658571D01*
X239958095Y-121753809D01*
X239958095Y-121991904D01*
X240005714Y-122087142D01*
X240053333Y-122134761D01*
X240148571Y-122182380D01*
X240386666Y-122182380D01*
X240481904Y-122134761D01*
X240529523Y-122087142D01*
G04 #@! TO.C,C34*
X171927142Y-120457142D02*
X171974761Y-120409523D01*
X172022380Y-120266666D01*
X172022380Y-120171428D01*
X171974761Y-120028571D01*
X171879523Y-119933333D01*
X171784285Y-119885714D01*
X171593809Y-119838095D01*
X171450952Y-119838095D01*
X171260476Y-119885714D01*
X171165238Y-119933333D01*
X171070000Y-120028571D01*
X171022380Y-120171428D01*
X171022380Y-120266666D01*
X171070000Y-120409523D01*
X171117619Y-120457142D01*
X171022380Y-120790476D02*
X171022380Y-121409523D01*
X171403333Y-121076190D01*
X171403333Y-121219047D01*
X171450952Y-121314285D01*
X171498571Y-121361904D01*
X171593809Y-121409523D01*
X171831904Y-121409523D01*
X171927142Y-121361904D01*
X171974761Y-121314285D01*
X172022380Y-121219047D01*
X172022380Y-120933333D01*
X171974761Y-120838095D01*
X171927142Y-120790476D01*
X171355714Y-122266666D02*
X172022380Y-122266666D01*
X170974761Y-122028571D02*
X171689047Y-121790476D01*
X171689047Y-122409523D01*
G04 #@! TO.C,C35*
X91862857Y-122087142D02*
X91910476Y-122134761D01*
X92053333Y-122182380D01*
X92148571Y-122182380D01*
X92291428Y-122134761D01*
X92386666Y-122039523D01*
X92434285Y-121944285D01*
X92481904Y-121753809D01*
X92481904Y-121610952D01*
X92434285Y-121420476D01*
X92386666Y-121325238D01*
X92291428Y-121230000D01*
X92148571Y-121182380D01*
X92053333Y-121182380D01*
X91910476Y-121230000D01*
X91862857Y-121277619D01*
X91529523Y-121182380D02*
X90910476Y-121182380D01*
X91243809Y-121563333D01*
X91100952Y-121563333D01*
X91005714Y-121610952D01*
X90958095Y-121658571D01*
X90910476Y-121753809D01*
X90910476Y-121991904D01*
X90958095Y-122087142D01*
X91005714Y-122134761D01*
X91100952Y-122182380D01*
X91386666Y-122182380D01*
X91481904Y-122134761D01*
X91529523Y-122087142D01*
X90005714Y-121182380D02*
X90481904Y-121182380D01*
X90529523Y-121658571D01*
X90481904Y-121610952D01*
X90386666Y-121563333D01*
X90148571Y-121563333D01*
X90053333Y-121610952D01*
X90005714Y-121658571D01*
X89958095Y-121753809D01*
X89958095Y-121991904D01*
X90005714Y-122087142D01*
X90053333Y-122134761D01*
X90148571Y-122182380D01*
X90386666Y-122182380D01*
X90481904Y-122134761D01*
X90529523Y-122087142D01*
G04 #@! TO.C,C32*
X163275357Y-122087142D02*
X163322976Y-122134761D01*
X163465833Y-122182380D01*
X163561071Y-122182380D01*
X163703928Y-122134761D01*
X163799166Y-122039523D01*
X163846785Y-121944285D01*
X163894404Y-121753809D01*
X163894404Y-121610952D01*
X163846785Y-121420476D01*
X163799166Y-121325238D01*
X163703928Y-121230000D01*
X163561071Y-121182380D01*
X163465833Y-121182380D01*
X163322976Y-121230000D01*
X163275357Y-121277619D01*
X162942023Y-121182380D02*
X162322976Y-121182380D01*
X162656309Y-121563333D01*
X162513452Y-121563333D01*
X162418214Y-121610952D01*
X162370595Y-121658571D01*
X162322976Y-121753809D01*
X162322976Y-121991904D01*
X162370595Y-122087142D01*
X162418214Y-122134761D01*
X162513452Y-122182380D01*
X162799166Y-122182380D01*
X162894404Y-122134761D01*
X162942023Y-122087142D01*
X161942023Y-121277619D02*
X161894404Y-121230000D01*
X161799166Y-121182380D01*
X161561071Y-121182380D01*
X161465833Y-121230000D01*
X161418214Y-121277619D01*
X161370595Y-121372857D01*
X161370595Y-121468095D01*
X161418214Y-121610952D01*
X161989642Y-122182380D01*
X161370595Y-122182380D01*
X238275357Y-122087142D02*
X238322976Y-122134761D01*
X238465833Y-122182380D01*
X238561071Y-122182380D01*
X238703928Y-122134761D01*
X238799166Y-122039523D01*
X238846785Y-121944285D01*
X238894404Y-121753809D01*
X238894404Y-121610952D01*
X238846785Y-121420476D01*
X238799166Y-121325238D01*
X238703928Y-121230000D01*
X238561071Y-121182380D01*
X238465833Y-121182380D01*
X238322976Y-121230000D01*
X238275357Y-121277619D01*
X237942023Y-121182380D02*
X237322976Y-121182380D01*
X237656309Y-121563333D01*
X237513452Y-121563333D01*
X237418214Y-121610952D01*
X237370595Y-121658571D01*
X237322976Y-121753809D01*
X237322976Y-121991904D01*
X237370595Y-122087142D01*
X237418214Y-122134761D01*
X237513452Y-122182380D01*
X237799166Y-122182380D01*
X237894404Y-122134761D01*
X237942023Y-122087142D01*
X236942023Y-121277619D02*
X236894404Y-121230000D01*
X236799166Y-121182380D01*
X236561071Y-121182380D01*
X236465833Y-121230000D01*
X236418214Y-121277619D01*
X236370595Y-121372857D01*
X236370595Y-121468095D01*
X236418214Y-121610952D01*
X236989642Y-122182380D01*
X236370595Y-122182380D01*
X88275357Y-122087142D02*
X88322976Y-122134761D01*
X88465833Y-122182380D01*
X88561071Y-122182380D01*
X88703928Y-122134761D01*
X88799166Y-122039523D01*
X88846785Y-121944285D01*
X88894404Y-121753809D01*
X88894404Y-121610952D01*
X88846785Y-121420476D01*
X88799166Y-121325238D01*
X88703928Y-121230000D01*
X88561071Y-121182380D01*
X88465833Y-121182380D01*
X88322976Y-121230000D01*
X88275357Y-121277619D01*
X87942023Y-121182380D02*
X87322976Y-121182380D01*
X87656309Y-121563333D01*
X87513452Y-121563333D01*
X87418214Y-121610952D01*
X87370595Y-121658571D01*
X87322976Y-121753809D01*
X87322976Y-121991904D01*
X87370595Y-122087142D01*
X87418214Y-122134761D01*
X87513452Y-122182380D01*
X87799166Y-122182380D01*
X87894404Y-122134761D01*
X87942023Y-122087142D01*
X86942023Y-121277619D02*
X86894404Y-121230000D01*
X86799166Y-121182380D01*
X86561071Y-121182380D01*
X86465833Y-121230000D01*
X86418214Y-121277619D01*
X86370595Y-121372857D01*
X86370595Y-121468095D01*
X86418214Y-121610952D01*
X86989642Y-122182380D01*
X86370595Y-122182380D01*
G04 #@! TO.C,BT1*
D14*
X274267857Y-76939285D02*
X274086428Y-76999761D01*
X274025952Y-77060238D01*
X273965476Y-77181190D01*
X273965476Y-77362619D01*
X274025952Y-77483571D01*
X274086428Y-77544047D01*
X274207380Y-77604523D01*
X274691190Y-77604523D01*
X274691190Y-76334523D01*
X274267857Y-76334523D01*
X274146904Y-76395000D01*
X274086428Y-76455476D01*
X274025952Y-76576428D01*
X274025952Y-76697380D01*
X274086428Y-76818333D01*
X274146904Y-76878809D01*
X274267857Y-76939285D01*
X274691190Y-76939285D01*
X273602619Y-76334523D02*
X272876904Y-76334523D01*
X273239761Y-77604523D02*
X273239761Y-76334523D01*
X271788333Y-77604523D02*
X272514047Y-77604523D01*
X272151190Y-77604523D02*
X272151190Y-76334523D01*
X272272142Y-76515952D01*
X272393095Y-76636904D01*
X272514047Y-76697380D01*
X124267857Y-76939285D02*
X124086428Y-76999761D01*
X124025952Y-77060238D01*
X123965476Y-77181190D01*
X123965476Y-77362619D01*
X124025952Y-77483571D01*
X124086428Y-77544047D01*
X124207380Y-77604523D01*
X124691190Y-77604523D01*
X124691190Y-76334523D01*
X124267857Y-76334523D01*
X124146904Y-76395000D01*
X124086428Y-76455476D01*
X124025952Y-76576428D01*
X124025952Y-76697380D01*
X124086428Y-76818333D01*
X124146904Y-76878809D01*
X124267857Y-76939285D01*
X124691190Y-76939285D01*
X123602619Y-76334523D02*
X122876904Y-76334523D01*
X123239761Y-77604523D02*
X123239761Y-76334523D01*
X121788333Y-77604523D02*
X122514047Y-77604523D01*
X122151190Y-77604523D02*
X122151190Y-76334523D01*
X122272142Y-76515952D01*
X122393095Y-76636904D01*
X122514047Y-76697380D01*
X199267857Y-76939285D02*
X199086428Y-76999761D01*
X199025952Y-77060238D01*
X198965476Y-77181190D01*
X198965476Y-77362619D01*
X199025952Y-77483571D01*
X199086428Y-77544047D01*
X199207380Y-77604523D01*
X199691190Y-77604523D01*
X199691190Y-76334523D01*
X199267857Y-76334523D01*
X199146904Y-76395000D01*
X199086428Y-76455476D01*
X199025952Y-76576428D01*
X199025952Y-76697380D01*
X199086428Y-76818333D01*
X199146904Y-76878809D01*
X199267857Y-76939285D01*
X199691190Y-76939285D01*
X198602619Y-76334523D02*
X197876904Y-76334523D01*
X198239761Y-77604523D02*
X198239761Y-76334523D01*
X196788333Y-77604523D02*
X197514047Y-77604523D01*
X197151190Y-77604523D02*
X197151190Y-76334523D01*
X197272142Y-76515952D01*
X197393095Y-76636904D01*
X197514047Y-76697380D01*
G04 #@! TO.C,D3*
D13*
X232322380Y-132881904D02*
X231322380Y-132881904D01*
X231322380Y-133120000D01*
X231370000Y-133262857D01*
X231465238Y-133358095D01*
X231560476Y-133405714D01*
X231750952Y-133453333D01*
X231893809Y-133453333D01*
X232084285Y-133405714D01*
X232179523Y-133358095D01*
X232274761Y-133262857D01*
X232322380Y-133120000D01*
X232322380Y-132881904D01*
X231322380Y-133786666D02*
X231322380Y-134405714D01*
X231703333Y-134072380D01*
X231703333Y-134215238D01*
X231750952Y-134310476D01*
X231798571Y-134358095D01*
X231893809Y-134405714D01*
X232131904Y-134405714D01*
X232227142Y-134358095D01*
X232274761Y-134310476D01*
X232322380Y-134215238D01*
X232322380Y-133929523D01*
X232274761Y-133834285D01*
X232227142Y-133786666D01*
X157322380Y-132881904D02*
X156322380Y-132881904D01*
X156322380Y-133120000D01*
X156370000Y-133262857D01*
X156465238Y-133358095D01*
X156560476Y-133405714D01*
X156750952Y-133453333D01*
X156893809Y-133453333D01*
X157084285Y-133405714D01*
X157179523Y-133358095D01*
X157274761Y-133262857D01*
X157322380Y-133120000D01*
X157322380Y-132881904D01*
X156322380Y-133786666D02*
X156322380Y-134405714D01*
X156703333Y-134072380D01*
X156703333Y-134215238D01*
X156750952Y-134310476D01*
X156798571Y-134358095D01*
X156893809Y-134405714D01*
X157131904Y-134405714D01*
X157227142Y-134358095D01*
X157274761Y-134310476D01*
X157322380Y-134215238D01*
X157322380Y-133929523D01*
X157274761Y-133834285D01*
X157227142Y-133786666D01*
X82322380Y-132881904D02*
X81322380Y-132881904D01*
X81322380Y-133120000D01*
X81370000Y-133262857D01*
X81465238Y-133358095D01*
X81560476Y-133405714D01*
X81750952Y-133453333D01*
X81893809Y-133453333D01*
X82084285Y-133405714D01*
X82179523Y-133358095D01*
X82274761Y-133262857D01*
X82322380Y-133120000D01*
X82322380Y-132881904D01*
X81322380Y-133786666D02*
X81322380Y-134405714D01*
X81703333Y-134072380D01*
X81703333Y-134215238D01*
X81750952Y-134310476D01*
X81798571Y-134358095D01*
X81893809Y-134405714D01*
X82131904Y-134405714D01*
X82227142Y-134358095D01*
X82274761Y-134310476D01*
X82322380Y-134215238D01*
X82322380Y-133929523D01*
X82274761Y-133834285D01*
X82227142Y-133786666D01*
G04 #@! TO.C,R40*
X30712857Y-85552380D02*
X31046190Y-85076190D01*
X31284285Y-85552380D02*
X31284285Y-84552380D01*
X30903333Y-84552380D01*
X30808095Y-84600000D01*
X30760476Y-84647619D01*
X30712857Y-84742857D01*
X30712857Y-84885714D01*
X30760476Y-84980952D01*
X30808095Y-85028571D01*
X30903333Y-85076190D01*
X31284285Y-85076190D01*
X29855714Y-84885714D02*
X29855714Y-85552380D01*
X30093809Y-84504761D02*
X30331904Y-85219047D01*
X29712857Y-85219047D01*
X29141428Y-84552380D02*
X29046190Y-84552380D01*
X28950952Y-84600000D01*
X28903333Y-84647619D01*
X28855714Y-84742857D01*
X28808095Y-84933333D01*
X28808095Y-85171428D01*
X28855714Y-85361904D01*
X28903333Y-85457142D01*
X28950952Y-85504761D01*
X29046190Y-85552380D01*
X29141428Y-85552380D01*
X29236666Y-85504761D01*
X29284285Y-85457142D01*
X29331904Y-85361904D01*
X29379523Y-85171428D01*
X29379523Y-84933333D01*
X29331904Y-84742857D01*
X29284285Y-84647619D01*
X29236666Y-84600000D01*
X29141428Y-84552380D01*
G04 #@! TO.C,R42*
X-5677619Y-117694642D02*
X-6153809Y-117361309D01*
X-5677619Y-117123214D02*
X-6677619Y-117123214D01*
X-6677619Y-117504166D01*
X-6630000Y-117599404D01*
X-6582380Y-117647023D01*
X-6487142Y-117694642D01*
X-6344285Y-117694642D01*
X-6249047Y-117647023D01*
X-6201428Y-117599404D01*
X-6153809Y-117504166D01*
X-6153809Y-117123214D01*
X-6344285Y-118551785D02*
X-5677619Y-118551785D01*
X-6725238Y-118313690D02*
X-6010952Y-118075595D01*
X-6010952Y-118694642D01*
X-6582380Y-119027976D02*
X-6630000Y-119075595D01*
X-6677619Y-119170833D01*
X-6677619Y-119408928D01*
X-6630000Y-119504166D01*
X-6582380Y-119551785D01*
X-6487142Y-119599404D01*
X-6391904Y-119599404D01*
X-6249047Y-119551785D01*
X-5677619Y-118980357D01*
X-5677619Y-119599404D01*
G04 #@! TO.C,R38*
X45022380Y-118457142D02*
X44546190Y-118123809D01*
X45022380Y-117885714D02*
X44022380Y-117885714D01*
X44022380Y-118266666D01*
X44070000Y-118361904D01*
X44117619Y-118409523D01*
X44212857Y-118457142D01*
X44355714Y-118457142D01*
X44450952Y-118409523D01*
X44498571Y-118361904D01*
X44546190Y-118266666D01*
X44546190Y-117885714D01*
X44022380Y-118790476D02*
X44022380Y-119409523D01*
X44403333Y-119076190D01*
X44403333Y-119219047D01*
X44450952Y-119314285D01*
X44498571Y-119361904D01*
X44593809Y-119409523D01*
X44831904Y-119409523D01*
X44927142Y-119361904D01*
X44974761Y-119314285D01*
X45022380Y-119219047D01*
X45022380Y-118933333D01*
X44974761Y-118838095D01*
X44927142Y-118790476D01*
X44450952Y-119980952D02*
X44403333Y-119885714D01*
X44355714Y-119838095D01*
X44260476Y-119790476D01*
X44212857Y-119790476D01*
X44117619Y-119838095D01*
X44070000Y-119885714D01*
X44022380Y-119980952D01*
X44022380Y-120171428D01*
X44070000Y-120266666D01*
X44117619Y-120314285D01*
X44212857Y-120361904D01*
X44260476Y-120361904D01*
X44355714Y-120314285D01*
X44403333Y-120266666D01*
X44450952Y-120171428D01*
X44450952Y-119980952D01*
X44498571Y-119885714D01*
X44546190Y-119838095D01*
X44641428Y-119790476D01*
X44831904Y-119790476D01*
X44927142Y-119838095D01*
X44974761Y-119885714D01*
X45022380Y-119980952D01*
X45022380Y-120171428D01*
X44974761Y-120266666D01*
X44927142Y-120314285D01*
X44831904Y-120361904D01*
X44641428Y-120361904D01*
X44546190Y-120314285D01*
X44498571Y-120266666D01*
X44450952Y-120171428D01*
G04 #@! TO.C,R47*
X19522380Y-126957142D02*
X19046190Y-126623809D01*
X19522380Y-126385714D02*
X18522380Y-126385714D01*
X18522380Y-126766666D01*
X18570000Y-126861904D01*
X18617619Y-126909523D01*
X18712857Y-126957142D01*
X18855714Y-126957142D01*
X18950952Y-126909523D01*
X18998571Y-126861904D01*
X19046190Y-126766666D01*
X19046190Y-126385714D01*
X18855714Y-127814285D02*
X19522380Y-127814285D01*
X18474761Y-127576190D02*
X19189047Y-127338095D01*
X19189047Y-127957142D01*
X18522380Y-128242857D02*
X18522380Y-128909523D01*
X19522380Y-128480952D01*
G04 #@! TO.C,R33*
X51212857Y-134552380D02*
X51546190Y-134076190D01*
X51784285Y-134552380D02*
X51784285Y-133552380D01*
X51403333Y-133552380D01*
X51308095Y-133600000D01*
X51260476Y-133647619D01*
X51212857Y-133742857D01*
X51212857Y-133885714D01*
X51260476Y-133980952D01*
X51308095Y-134028571D01*
X51403333Y-134076190D01*
X51784285Y-134076190D01*
X50879523Y-133552380D02*
X50260476Y-133552380D01*
X50593809Y-133933333D01*
X50450952Y-133933333D01*
X50355714Y-133980952D01*
X50308095Y-134028571D01*
X50260476Y-134123809D01*
X50260476Y-134361904D01*
X50308095Y-134457142D01*
X50355714Y-134504761D01*
X50450952Y-134552380D01*
X50736666Y-134552380D01*
X50831904Y-134504761D01*
X50879523Y-134457142D01*
X49927142Y-133552380D02*
X49308095Y-133552380D01*
X49641428Y-133933333D01*
X49498571Y-133933333D01*
X49403333Y-133980952D01*
X49355714Y-134028571D01*
X49308095Y-134123809D01*
X49308095Y-134361904D01*
X49355714Y-134457142D01*
X49403333Y-134504761D01*
X49498571Y-134552380D01*
X49784285Y-134552380D01*
X49879523Y-134504761D01*
X49927142Y-134457142D01*
G04 #@! TO.C,R30*
X61712857Y-136552380D02*
X62046190Y-136076190D01*
X62284285Y-136552380D02*
X62284285Y-135552380D01*
X61903333Y-135552380D01*
X61808095Y-135600000D01*
X61760476Y-135647619D01*
X61712857Y-135742857D01*
X61712857Y-135885714D01*
X61760476Y-135980952D01*
X61808095Y-136028571D01*
X61903333Y-136076190D01*
X62284285Y-136076190D01*
X61379523Y-135552380D02*
X60760476Y-135552380D01*
X61093809Y-135933333D01*
X60950952Y-135933333D01*
X60855714Y-135980952D01*
X60808095Y-136028571D01*
X60760476Y-136123809D01*
X60760476Y-136361904D01*
X60808095Y-136457142D01*
X60855714Y-136504761D01*
X60950952Y-136552380D01*
X61236666Y-136552380D01*
X61331904Y-136504761D01*
X61379523Y-136457142D01*
X60141428Y-135552380D02*
X60046190Y-135552380D01*
X59950952Y-135600000D01*
X59903333Y-135647619D01*
X59855714Y-135742857D01*
X59808095Y-135933333D01*
X59808095Y-136171428D01*
X59855714Y-136361904D01*
X59903333Y-136457142D01*
X59950952Y-136504761D01*
X60046190Y-136552380D01*
X60141428Y-136552380D01*
X60236666Y-136504761D01*
X60284285Y-136457142D01*
X60331904Y-136361904D01*
X60379523Y-136171428D01*
X60379523Y-135933333D01*
X60331904Y-135742857D01*
X60284285Y-135647619D01*
X60236666Y-135600000D01*
X60141428Y-135552380D01*
G04 #@! TO.C,R31*
X61212857Y-134552380D02*
X61546190Y-134076190D01*
X61784285Y-134552380D02*
X61784285Y-133552380D01*
X61403333Y-133552380D01*
X61308095Y-133600000D01*
X61260476Y-133647619D01*
X61212857Y-133742857D01*
X61212857Y-133885714D01*
X61260476Y-133980952D01*
X61308095Y-134028571D01*
X61403333Y-134076190D01*
X61784285Y-134076190D01*
X60879523Y-133552380D02*
X60260476Y-133552380D01*
X60593809Y-133933333D01*
X60450952Y-133933333D01*
X60355714Y-133980952D01*
X60308095Y-134028571D01*
X60260476Y-134123809D01*
X60260476Y-134361904D01*
X60308095Y-134457142D01*
X60355714Y-134504761D01*
X60450952Y-134552380D01*
X60736666Y-134552380D01*
X60831904Y-134504761D01*
X60879523Y-134457142D01*
X59308095Y-134552380D02*
X59879523Y-134552380D01*
X59593809Y-134552380D02*
X59593809Y-133552380D01*
X59689047Y-133695238D01*
X59784285Y-133790476D01*
X59879523Y-133838095D01*
G04 #@! TO.C,R36*
X36422380Y-137957142D02*
X35946190Y-137623809D01*
X36422380Y-137385714D02*
X35422380Y-137385714D01*
X35422380Y-137766666D01*
X35470000Y-137861904D01*
X35517619Y-137909523D01*
X35612857Y-137957142D01*
X35755714Y-137957142D01*
X35850952Y-137909523D01*
X35898571Y-137861904D01*
X35946190Y-137766666D01*
X35946190Y-137385714D01*
X35422380Y-138290476D02*
X35422380Y-138909523D01*
X35803333Y-138576190D01*
X35803333Y-138719047D01*
X35850952Y-138814285D01*
X35898571Y-138861904D01*
X35993809Y-138909523D01*
X36231904Y-138909523D01*
X36327142Y-138861904D01*
X36374761Y-138814285D01*
X36422380Y-138719047D01*
X36422380Y-138433333D01*
X36374761Y-138338095D01*
X36327142Y-138290476D01*
X35422380Y-139766666D02*
X35422380Y-139576190D01*
X35470000Y-139480952D01*
X35517619Y-139433333D01*
X35660476Y-139338095D01*
X35850952Y-139290476D01*
X36231904Y-139290476D01*
X36327142Y-139338095D01*
X36374761Y-139385714D01*
X36422380Y-139480952D01*
X36422380Y-139671428D01*
X36374761Y-139766666D01*
X36327142Y-139814285D01*
X36231904Y-139861904D01*
X35993809Y-139861904D01*
X35898571Y-139814285D01*
X35850952Y-139766666D01*
X35803333Y-139671428D01*
X35803333Y-139480952D01*
X35850952Y-139385714D01*
X35898571Y-139338095D01*
X35993809Y-139290476D01*
G04 #@! TO.C,R46*
X11822380Y-59857142D02*
X11346190Y-59523809D01*
X11822380Y-59285714D02*
X10822380Y-59285714D01*
X10822380Y-59666666D01*
X10870000Y-59761904D01*
X10917619Y-59809523D01*
X11012857Y-59857142D01*
X11155714Y-59857142D01*
X11250952Y-59809523D01*
X11298571Y-59761904D01*
X11346190Y-59666666D01*
X11346190Y-59285714D01*
X11155714Y-60714285D02*
X11822380Y-60714285D01*
X10774761Y-60476190D02*
X11489047Y-60238095D01*
X11489047Y-60857142D01*
X10822380Y-61666666D02*
X10822380Y-61476190D01*
X10870000Y-61380952D01*
X10917619Y-61333333D01*
X11060476Y-61238095D01*
X11250952Y-61190476D01*
X11631904Y-61190476D01*
X11727142Y-61238095D01*
X11774761Y-61285714D01*
X11822380Y-61380952D01*
X11822380Y-61571428D01*
X11774761Y-61666666D01*
X11727142Y-61714285D01*
X11631904Y-61761904D01*
X11393809Y-61761904D01*
X11298571Y-61714285D01*
X11250952Y-61666666D01*
X11203333Y-61571428D01*
X11203333Y-61380952D01*
X11250952Y-61285714D01*
X11298571Y-61238095D01*
X11393809Y-61190476D01*
G04 #@! TO.C,R32*
X51212857Y-136552380D02*
X51546190Y-136076190D01*
X51784285Y-136552380D02*
X51784285Y-135552380D01*
X51403333Y-135552380D01*
X51308095Y-135600000D01*
X51260476Y-135647619D01*
X51212857Y-135742857D01*
X51212857Y-135885714D01*
X51260476Y-135980952D01*
X51308095Y-136028571D01*
X51403333Y-136076190D01*
X51784285Y-136076190D01*
X50879523Y-135552380D02*
X50260476Y-135552380D01*
X50593809Y-135933333D01*
X50450952Y-135933333D01*
X50355714Y-135980952D01*
X50308095Y-136028571D01*
X50260476Y-136123809D01*
X50260476Y-136361904D01*
X50308095Y-136457142D01*
X50355714Y-136504761D01*
X50450952Y-136552380D01*
X50736666Y-136552380D01*
X50831904Y-136504761D01*
X50879523Y-136457142D01*
X49879523Y-135647619D02*
X49831904Y-135600000D01*
X49736666Y-135552380D01*
X49498571Y-135552380D01*
X49403333Y-135600000D01*
X49355714Y-135647619D01*
X49308095Y-135742857D01*
X49308095Y-135838095D01*
X49355714Y-135980952D01*
X49927142Y-136552380D01*
X49308095Y-136552380D01*
G04 #@! TO.C,R37*
X41022380Y-118457142D02*
X40546190Y-118123809D01*
X41022380Y-117885714D02*
X40022380Y-117885714D01*
X40022380Y-118266666D01*
X40070000Y-118361904D01*
X40117619Y-118409523D01*
X40212857Y-118457142D01*
X40355714Y-118457142D01*
X40450952Y-118409523D01*
X40498571Y-118361904D01*
X40546190Y-118266666D01*
X40546190Y-117885714D01*
X40022380Y-118790476D02*
X40022380Y-119409523D01*
X40403333Y-119076190D01*
X40403333Y-119219047D01*
X40450952Y-119314285D01*
X40498571Y-119361904D01*
X40593809Y-119409523D01*
X40831904Y-119409523D01*
X40927142Y-119361904D01*
X40974761Y-119314285D01*
X41022380Y-119219047D01*
X41022380Y-118933333D01*
X40974761Y-118838095D01*
X40927142Y-118790476D01*
X40022380Y-119742857D02*
X40022380Y-120409523D01*
X41022380Y-119980952D01*
G04 #@! TO.C,R39*
X43022380Y-118457142D02*
X42546190Y-118123809D01*
X43022380Y-117885714D02*
X42022380Y-117885714D01*
X42022380Y-118266666D01*
X42070000Y-118361904D01*
X42117619Y-118409523D01*
X42212857Y-118457142D01*
X42355714Y-118457142D01*
X42450952Y-118409523D01*
X42498571Y-118361904D01*
X42546190Y-118266666D01*
X42546190Y-117885714D01*
X42022380Y-118790476D02*
X42022380Y-119409523D01*
X42403333Y-119076190D01*
X42403333Y-119219047D01*
X42450952Y-119314285D01*
X42498571Y-119361904D01*
X42593809Y-119409523D01*
X42831904Y-119409523D01*
X42927142Y-119361904D01*
X42974761Y-119314285D01*
X43022380Y-119219047D01*
X43022380Y-118933333D01*
X42974761Y-118838095D01*
X42927142Y-118790476D01*
X43022380Y-119885714D02*
X43022380Y-120076190D01*
X42974761Y-120171428D01*
X42927142Y-120219047D01*
X42784285Y-120314285D01*
X42593809Y-120361904D01*
X42212857Y-120361904D01*
X42117619Y-120314285D01*
X42070000Y-120266666D01*
X42022380Y-120171428D01*
X42022380Y-119980952D01*
X42070000Y-119885714D01*
X42117619Y-119838095D01*
X42212857Y-119790476D01*
X42450952Y-119790476D01*
X42546190Y-119838095D01*
X42593809Y-119885714D01*
X42641428Y-119980952D01*
X42641428Y-120171428D01*
X42593809Y-120266666D01*
X42546190Y-120314285D01*
X42450952Y-120361904D01*
G04 #@! TO.C,C36*
X25612857Y-134957142D02*
X25660476Y-135004761D01*
X25803333Y-135052380D01*
X25898571Y-135052380D01*
X26041428Y-135004761D01*
X26136666Y-134909523D01*
X26184285Y-134814285D01*
X26231904Y-134623809D01*
X26231904Y-134480952D01*
X26184285Y-134290476D01*
X26136666Y-134195238D01*
X26041428Y-134100000D01*
X25898571Y-134052380D01*
X25803333Y-134052380D01*
X25660476Y-134100000D01*
X25612857Y-134147619D01*
X25279523Y-134052380D02*
X24660476Y-134052380D01*
X24993809Y-134433333D01*
X24850952Y-134433333D01*
X24755714Y-134480952D01*
X24708095Y-134528571D01*
X24660476Y-134623809D01*
X24660476Y-134861904D01*
X24708095Y-134957142D01*
X24755714Y-135004761D01*
X24850952Y-135052380D01*
X25136666Y-135052380D01*
X25231904Y-135004761D01*
X25279523Y-134957142D01*
X23803333Y-134052380D02*
X23993809Y-134052380D01*
X24089047Y-134100000D01*
X24136666Y-134147619D01*
X24231904Y-134290476D01*
X24279523Y-134480952D01*
X24279523Y-134861904D01*
X24231904Y-134957142D01*
X24184285Y-135004761D01*
X24089047Y-135052380D01*
X23898571Y-135052380D01*
X23803333Y-135004761D01*
X23755714Y-134957142D01*
X23708095Y-134861904D01*
X23708095Y-134623809D01*
X23755714Y-134528571D01*
X23803333Y-134480952D01*
X23898571Y-134433333D01*
X24089047Y-134433333D01*
X24184285Y-134480952D01*
X24231904Y-134528571D01*
X24279523Y-134623809D01*
G04 #@! TO.C,C33*
X6927142Y-123957142D02*
X6974761Y-123909523D01*
X7022380Y-123766666D01*
X7022380Y-123671428D01*
X6974761Y-123528571D01*
X6879523Y-123433333D01*
X6784285Y-123385714D01*
X6593809Y-123338095D01*
X6450952Y-123338095D01*
X6260476Y-123385714D01*
X6165238Y-123433333D01*
X6070000Y-123528571D01*
X6022380Y-123671428D01*
X6022380Y-123766666D01*
X6070000Y-123909523D01*
X6117619Y-123957142D01*
X6022380Y-124290476D02*
X6022380Y-124909523D01*
X6403333Y-124576190D01*
X6403333Y-124719047D01*
X6450952Y-124814285D01*
X6498571Y-124861904D01*
X6593809Y-124909523D01*
X6831904Y-124909523D01*
X6927142Y-124861904D01*
X6974761Y-124814285D01*
X7022380Y-124719047D01*
X7022380Y-124433333D01*
X6974761Y-124338095D01*
X6927142Y-124290476D01*
X6022380Y-125242857D02*
X6022380Y-125861904D01*
X6403333Y-125528571D01*
X6403333Y-125671428D01*
X6450952Y-125766666D01*
X6498571Y-125814285D01*
X6593809Y-125861904D01*
X6831904Y-125861904D01*
X6927142Y-125814285D01*
X6974761Y-125766666D01*
X7022380Y-125671428D01*
X7022380Y-125385714D01*
X6974761Y-125290476D01*
X6927142Y-125242857D01*
G04 #@! TO.C,C34*
X21927142Y-120457142D02*
X21974761Y-120409523D01*
X22022380Y-120266666D01*
X22022380Y-120171428D01*
X21974761Y-120028571D01*
X21879523Y-119933333D01*
X21784285Y-119885714D01*
X21593809Y-119838095D01*
X21450952Y-119838095D01*
X21260476Y-119885714D01*
X21165238Y-119933333D01*
X21070000Y-120028571D01*
X21022380Y-120171428D01*
X21022380Y-120266666D01*
X21070000Y-120409523D01*
X21117619Y-120457142D01*
X21022380Y-120790476D02*
X21022380Y-121409523D01*
X21403333Y-121076190D01*
X21403333Y-121219047D01*
X21450952Y-121314285D01*
X21498571Y-121361904D01*
X21593809Y-121409523D01*
X21831904Y-121409523D01*
X21927142Y-121361904D01*
X21974761Y-121314285D01*
X22022380Y-121219047D01*
X22022380Y-120933333D01*
X21974761Y-120838095D01*
X21927142Y-120790476D01*
X21355714Y-122266666D02*
X22022380Y-122266666D01*
X20974761Y-122028571D02*
X21689047Y-121790476D01*
X21689047Y-122409523D01*
G04 #@! TO.C,C35*
X16862857Y-122087142D02*
X16910476Y-122134761D01*
X17053333Y-122182380D01*
X17148571Y-122182380D01*
X17291428Y-122134761D01*
X17386666Y-122039523D01*
X17434285Y-121944285D01*
X17481904Y-121753809D01*
X17481904Y-121610952D01*
X17434285Y-121420476D01*
X17386666Y-121325238D01*
X17291428Y-121230000D01*
X17148571Y-121182380D01*
X17053333Y-121182380D01*
X16910476Y-121230000D01*
X16862857Y-121277619D01*
X16529523Y-121182380D02*
X15910476Y-121182380D01*
X16243809Y-121563333D01*
X16100952Y-121563333D01*
X16005714Y-121610952D01*
X15958095Y-121658571D01*
X15910476Y-121753809D01*
X15910476Y-121991904D01*
X15958095Y-122087142D01*
X16005714Y-122134761D01*
X16100952Y-122182380D01*
X16386666Y-122182380D01*
X16481904Y-122134761D01*
X16529523Y-122087142D01*
X15005714Y-121182380D02*
X15481904Y-121182380D01*
X15529523Y-121658571D01*
X15481904Y-121610952D01*
X15386666Y-121563333D01*
X15148571Y-121563333D01*
X15053333Y-121610952D01*
X15005714Y-121658571D01*
X14958095Y-121753809D01*
X14958095Y-121991904D01*
X15005714Y-122087142D01*
X15053333Y-122134761D01*
X15148571Y-122182380D01*
X15386666Y-122182380D01*
X15481904Y-122134761D01*
X15529523Y-122087142D01*
G04 #@! TO.C,C32*
X13275357Y-122087142D02*
X13322976Y-122134761D01*
X13465833Y-122182380D01*
X13561071Y-122182380D01*
X13703928Y-122134761D01*
X13799166Y-122039523D01*
X13846785Y-121944285D01*
X13894404Y-121753809D01*
X13894404Y-121610952D01*
X13846785Y-121420476D01*
X13799166Y-121325238D01*
X13703928Y-121230000D01*
X13561071Y-121182380D01*
X13465833Y-121182380D01*
X13322976Y-121230000D01*
X13275357Y-121277619D01*
X12942023Y-121182380D02*
X12322976Y-121182380D01*
X12656309Y-121563333D01*
X12513452Y-121563333D01*
X12418214Y-121610952D01*
X12370595Y-121658571D01*
X12322976Y-121753809D01*
X12322976Y-121991904D01*
X12370595Y-122087142D01*
X12418214Y-122134761D01*
X12513452Y-122182380D01*
X12799166Y-122182380D01*
X12894404Y-122134761D01*
X12942023Y-122087142D01*
X11942023Y-121277619D02*
X11894404Y-121230000D01*
X11799166Y-121182380D01*
X11561071Y-121182380D01*
X11465833Y-121230000D01*
X11418214Y-121277619D01*
X11370595Y-121372857D01*
X11370595Y-121468095D01*
X11418214Y-121610952D01*
X11989642Y-122182380D01*
X11370595Y-122182380D01*
G04 #@! TO.C,BT1*
D14*
X49267857Y-76939285D02*
X49086428Y-76999761D01*
X49025952Y-77060238D01*
X48965476Y-77181190D01*
X48965476Y-77362619D01*
X49025952Y-77483571D01*
X49086428Y-77544047D01*
X49207380Y-77604523D01*
X49691190Y-77604523D01*
X49691190Y-76334523D01*
X49267857Y-76334523D01*
X49146904Y-76395000D01*
X49086428Y-76455476D01*
X49025952Y-76576428D01*
X49025952Y-76697380D01*
X49086428Y-76818333D01*
X49146904Y-76878809D01*
X49267857Y-76939285D01*
X49691190Y-76939285D01*
X48602619Y-76334523D02*
X47876904Y-76334523D01*
X48239761Y-77604523D02*
X48239761Y-76334523D01*
X46788333Y-77604523D02*
X47514047Y-77604523D01*
X47151190Y-77604523D02*
X47151190Y-76334523D01*
X47272142Y-76515952D01*
X47393095Y-76636904D01*
X47514047Y-76697380D01*
G04 #@! TO.C,D3*
D13*
X7322380Y-132881904D02*
X6322380Y-132881904D01*
X6322380Y-133120000D01*
X6370000Y-133262857D01*
X6465238Y-133358095D01*
X6560476Y-133405714D01*
X6750952Y-133453333D01*
X6893809Y-133453333D01*
X7084285Y-133405714D01*
X7179523Y-133358095D01*
X7274761Y-133262857D01*
X7322380Y-133120000D01*
X7322380Y-132881904D01*
X6322380Y-133786666D02*
X6322380Y-134405714D01*
X6703333Y-134072380D01*
X6703333Y-134215238D01*
X6750952Y-134310476D01*
X6798571Y-134358095D01*
X6893809Y-134405714D01*
X7131904Y-134405714D01*
X7227142Y-134358095D01*
X7274761Y-134310476D01*
X7322380Y-134215238D01*
X7322380Y-133929523D01*
X7274761Y-133834285D01*
X7227142Y-133786666D01*
G04 #@! TO.C,D20*
X-885714Y-149642380D02*
X-885714Y-148642380D01*
X-1123809Y-148642380D01*
X-1266666Y-148690000D01*
X-1361904Y-148785238D01*
X-1409523Y-148880476D01*
X-1457142Y-149070952D01*
X-1457142Y-149213809D01*
X-1409523Y-149404285D01*
X-1361904Y-149499523D01*
X-1266666Y-149594761D01*
X-1123809Y-149642380D01*
X-885714Y-149642380D01*
X-1838095Y-148737619D02*
X-1885714Y-148690000D01*
X-1980952Y-148642380D01*
X-2219047Y-148642380D01*
X-2314285Y-148690000D01*
X-2361904Y-148737619D01*
X-2409523Y-148832857D01*
X-2409523Y-148928095D01*
X-2361904Y-149070952D01*
X-1790476Y-149642380D01*
X-2409523Y-149642380D01*
X-3028571Y-148642380D02*
X-3123809Y-148642380D01*
X-3219047Y-148690000D01*
X-3266666Y-148737619D01*
X-3314285Y-148832857D01*
X-3361904Y-149023333D01*
X-3361904Y-149261428D01*
X-3314285Y-149451904D01*
X-3266666Y-149547142D01*
X-3219047Y-149594761D01*
X-3123809Y-149642380D01*
X-3028571Y-149642380D01*
X-2933333Y-149594761D01*
X-2885714Y-149547142D01*
X-2838095Y-149451904D01*
X-2790476Y-149261428D01*
X-2790476Y-149023333D01*
X-2838095Y-148832857D01*
X-2885714Y-148737619D01*
X-2933333Y-148690000D01*
X-3028571Y-148642380D01*
G04 #@! TO.C,J6*
X10022380Y-108766666D02*
X10736666Y-108766666D01*
X10879523Y-108719047D01*
X10974761Y-108623809D01*
X11022380Y-108480952D01*
X11022380Y-108385714D01*
X10022380Y-109671428D02*
X10022380Y-109480952D01*
X10070000Y-109385714D01*
X10117619Y-109338095D01*
X10260476Y-109242857D01*
X10450952Y-109195238D01*
X10831904Y-109195238D01*
X10927142Y-109242857D01*
X10974761Y-109290476D01*
X11022380Y-109385714D01*
X11022380Y-109576190D01*
X10974761Y-109671428D01*
X10927142Y-109719047D01*
X10831904Y-109766666D01*
X10593809Y-109766666D01*
X10498571Y-109719047D01*
X10450952Y-109671428D01*
X10403333Y-109576190D01*
X10403333Y-109385714D01*
X10450952Y-109290476D01*
X10498571Y-109242857D01*
X10593809Y-109195238D01*
G04 #@! TO.C,R4*
X20022380Y-138433333D02*
X19546190Y-138100000D01*
X20022380Y-137861904D02*
X19022380Y-137861904D01*
X19022380Y-138242857D01*
X19070000Y-138338095D01*
X19117619Y-138385714D01*
X19212857Y-138433333D01*
X19355714Y-138433333D01*
X19450952Y-138385714D01*
X19498571Y-138338095D01*
X19546190Y-138242857D01*
X19546190Y-137861904D01*
X19355714Y-139290476D02*
X20022380Y-139290476D01*
X18974761Y-139052380D02*
X19689047Y-138814285D01*
X19689047Y-139433333D01*
G04 #@! TO.C,R3*
X22022380Y-138433333D02*
X21546190Y-138100000D01*
X22022380Y-137861904D02*
X21022380Y-137861904D01*
X21022380Y-138242857D01*
X21070000Y-138338095D01*
X21117619Y-138385714D01*
X21212857Y-138433333D01*
X21355714Y-138433333D01*
X21450952Y-138385714D01*
X21498571Y-138338095D01*
X21546190Y-138242857D01*
X21546190Y-137861904D01*
X21022380Y-138766666D02*
X21022380Y-139385714D01*
X21403333Y-139052380D01*
X21403333Y-139195238D01*
X21450952Y-139290476D01*
X21498571Y-139338095D01*
X21593809Y-139385714D01*
X21831904Y-139385714D01*
X21927142Y-139338095D01*
X21974761Y-139290476D01*
X22022380Y-139195238D01*
X22022380Y-138909523D01*
X21974761Y-138814285D01*
X21927142Y-138766666D01*
G04 #@! TO.C,Q6*
X9335238Y-118767619D02*
X9430476Y-118720000D01*
X9525714Y-118624761D01*
X9668571Y-118481904D01*
X9763809Y-118434285D01*
X9859047Y-118434285D01*
X9811428Y-118672380D02*
X9906666Y-118624761D01*
X10001904Y-118529523D01*
X10049523Y-118339047D01*
X10049523Y-118005714D01*
X10001904Y-117815238D01*
X9906666Y-117720000D01*
X9811428Y-117672380D01*
X9620952Y-117672380D01*
X9525714Y-117720000D01*
X9430476Y-117815238D01*
X9382857Y-118005714D01*
X9382857Y-118339047D01*
X9430476Y-118529523D01*
X9525714Y-118624761D01*
X9620952Y-118672380D01*
X9811428Y-118672380D01*
X8525714Y-117672380D02*
X8716190Y-117672380D01*
X8811428Y-117720000D01*
X8859047Y-117767619D01*
X8954285Y-117910476D01*
X9001904Y-118100952D01*
X9001904Y-118481904D01*
X8954285Y-118577142D01*
X8906666Y-118624761D01*
X8811428Y-118672380D01*
X8620952Y-118672380D01*
X8525714Y-118624761D01*
X8478095Y-118577142D01*
X8430476Y-118481904D01*
X8430476Y-118243809D01*
X8478095Y-118148571D01*
X8525714Y-118100952D01*
X8620952Y-118053333D01*
X8811428Y-118053333D01*
X8906666Y-118100952D01*
X8954285Y-118148571D01*
X9001904Y-118243809D01*
G04 #@! TO.C,R51*
X35712857Y-130052380D02*
X36046190Y-129576190D01*
X36284285Y-130052380D02*
X36284285Y-129052380D01*
X35903333Y-129052380D01*
X35808095Y-129100000D01*
X35760476Y-129147619D01*
X35712857Y-129242857D01*
X35712857Y-129385714D01*
X35760476Y-129480952D01*
X35808095Y-129528571D01*
X35903333Y-129576190D01*
X36284285Y-129576190D01*
X34808095Y-129052380D02*
X35284285Y-129052380D01*
X35331904Y-129528571D01*
X35284285Y-129480952D01*
X35189047Y-129433333D01*
X34950952Y-129433333D01*
X34855714Y-129480952D01*
X34808095Y-129528571D01*
X34760476Y-129623809D01*
X34760476Y-129861904D01*
X34808095Y-129957142D01*
X34855714Y-130004761D01*
X34950952Y-130052380D01*
X35189047Y-130052380D01*
X35284285Y-130004761D01*
X35331904Y-129957142D01*
X33808095Y-130052380D02*
X34379523Y-130052380D01*
X34093809Y-130052380D02*
X34093809Y-129052380D01*
X34189047Y-129195238D01*
X34284285Y-129290476D01*
X34379523Y-129338095D01*
G04 #@! TO.C,U10*
X172380Y-61061904D02*
X981904Y-61061904D01*
X1077142Y-61109523D01*
X1124761Y-61157142D01*
X1172380Y-61252380D01*
X1172380Y-61442857D01*
X1124761Y-61538095D01*
X1077142Y-61585714D01*
X981904Y-61633333D01*
X172380Y-61633333D01*
X1172380Y-62633333D02*
X1172380Y-62061904D01*
X1172380Y-62347619D02*
X172380Y-62347619D01*
X315238Y-62252380D01*
X410476Y-62157142D01*
X458095Y-62061904D01*
X172380Y-63252380D02*
X172380Y-63347619D01*
X219999Y-63442857D01*
X267619Y-63490476D01*
X362857Y-63538095D01*
X553333Y-63585714D01*
X791428Y-63585714D01*
X981904Y-63538095D01*
X1077142Y-63490476D01*
X1124761Y-63442857D01*
X1172380Y-63347619D01*
X1172380Y-63252380D01*
X1124761Y-63157142D01*
X1077142Y-63109523D01*
X981904Y-63061904D01*
X791428Y-63014285D01*
X553333Y-63014285D01*
X362857Y-63061904D01*
X267619Y-63109523D01*
X219999Y-63157142D01*
X172380Y-63252380D01*
G04 #@! TO.C,R52*
X35712857Y-126052380D02*
X36046190Y-125576190D01*
X36284285Y-126052380D02*
X36284285Y-125052380D01*
X35903333Y-125052380D01*
X35808095Y-125100000D01*
X35760476Y-125147619D01*
X35712857Y-125242857D01*
X35712857Y-125385714D01*
X35760476Y-125480952D01*
X35808095Y-125528571D01*
X35903333Y-125576190D01*
X36284285Y-125576190D01*
X34808095Y-125052380D02*
X35284285Y-125052380D01*
X35331904Y-125528571D01*
X35284285Y-125480952D01*
X35189047Y-125433333D01*
X34950952Y-125433333D01*
X34855714Y-125480952D01*
X34808095Y-125528571D01*
X34760476Y-125623809D01*
X34760476Y-125861904D01*
X34808095Y-125957142D01*
X34855714Y-126004761D01*
X34950952Y-126052380D01*
X35189047Y-126052380D01*
X35284285Y-126004761D01*
X35331904Y-125957142D01*
X34379523Y-125147619D02*
X34331904Y-125100000D01*
X34236666Y-125052380D01*
X33998571Y-125052380D01*
X33903333Y-125100000D01*
X33855714Y-125147619D01*
X33808095Y-125242857D01*
X33808095Y-125338095D01*
X33855714Y-125480952D01*
X34427142Y-126052380D01*
X33808095Y-126052380D01*
G04 #@! TO.C,U9*
D14*
X9874523Y-126132380D02*
X10902619Y-126132380D01*
X11023571Y-126192857D01*
X11084047Y-126253333D01*
X11144523Y-126374285D01*
X11144523Y-126616190D01*
X11084047Y-126737142D01*
X11023571Y-126797619D01*
X10902619Y-126858095D01*
X9874523Y-126858095D01*
X11144523Y-127523333D02*
X11144523Y-127765238D01*
X11084047Y-127886190D01*
X11023571Y-127946666D01*
X10842142Y-128067619D01*
X10600238Y-128128095D01*
X10116428Y-128128095D01*
X9995476Y-128067619D01*
X9935000Y-128007142D01*
X9874523Y-127886190D01*
X9874523Y-127644285D01*
X9935000Y-127523333D01*
X9995476Y-127462857D01*
X10116428Y-127402380D01*
X10418809Y-127402380D01*
X10539761Y-127462857D01*
X10600238Y-127523333D01*
X10660714Y-127644285D01*
X10660714Y-127886190D01*
X10600238Y-128007142D01*
X10539761Y-128067619D01*
X10418809Y-128128095D01*
G04 #@! TO.C,R50*
D13*
X29212857Y-135052380D02*
X29546190Y-134576190D01*
X29784285Y-135052380D02*
X29784285Y-134052380D01*
X29403333Y-134052380D01*
X29308095Y-134100000D01*
X29260476Y-134147619D01*
X29212857Y-134242857D01*
X29212857Y-134385714D01*
X29260476Y-134480952D01*
X29308095Y-134528571D01*
X29403333Y-134576190D01*
X29784285Y-134576190D01*
X28308095Y-134052380D02*
X28784285Y-134052380D01*
X28831904Y-134528571D01*
X28784285Y-134480952D01*
X28689047Y-134433333D01*
X28450952Y-134433333D01*
X28355714Y-134480952D01*
X28308095Y-134528571D01*
X28260476Y-134623809D01*
X28260476Y-134861904D01*
X28308095Y-134957142D01*
X28355714Y-135004761D01*
X28450952Y-135052380D01*
X28689047Y-135052380D01*
X28784285Y-135004761D01*
X28831904Y-134957142D01*
X27641428Y-134052380D02*
X27546190Y-134052380D01*
X27450952Y-134100000D01*
X27403333Y-134147619D01*
X27355714Y-134242857D01*
X27308095Y-134433333D01*
X27308095Y-134671428D01*
X27355714Y-134861904D01*
X27403333Y-134957142D01*
X27450952Y-135004761D01*
X27546190Y-135052380D01*
X27641428Y-135052380D01*
X27736666Y-135004761D01*
X27784285Y-134957142D01*
X27831904Y-134861904D01*
X27879523Y-134671428D01*
X27879523Y-134433333D01*
X27831904Y-134242857D01*
X27784285Y-134147619D01*
X27736666Y-134100000D01*
X27641428Y-134052380D01*
G04 #@! TO.C,R53*
X35712857Y-128052380D02*
X36046190Y-127576190D01*
X36284285Y-128052380D02*
X36284285Y-127052380D01*
X35903333Y-127052380D01*
X35808095Y-127100000D01*
X35760476Y-127147619D01*
X35712857Y-127242857D01*
X35712857Y-127385714D01*
X35760476Y-127480952D01*
X35808095Y-127528571D01*
X35903333Y-127576190D01*
X36284285Y-127576190D01*
X34808095Y-127052380D02*
X35284285Y-127052380D01*
X35331904Y-127528571D01*
X35284285Y-127480952D01*
X35189047Y-127433333D01*
X34950952Y-127433333D01*
X34855714Y-127480952D01*
X34808095Y-127528571D01*
X34760476Y-127623809D01*
X34760476Y-127861904D01*
X34808095Y-127957142D01*
X34855714Y-128004761D01*
X34950952Y-128052380D01*
X35189047Y-128052380D01*
X35284285Y-128004761D01*
X35331904Y-127957142D01*
X34427142Y-127052380D02*
X33808095Y-127052380D01*
X34141428Y-127433333D01*
X33998571Y-127433333D01*
X33903333Y-127480952D01*
X33855714Y-127528571D01*
X33808095Y-127623809D01*
X33808095Y-127861904D01*
X33855714Y-127957142D01*
X33903333Y-128004761D01*
X33998571Y-128052380D01*
X34284285Y-128052380D01*
X34379523Y-128004761D01*
X34427142Y-127957142D01*
G04 #@! TO.C,R49*
X21522380Y-126957142D02*
X21046190Y-126623809D01*
X21522380Y-126385714D02*
X20522380Y-126385714D01*
X20522380Y-126766666D01*
X20570000Y-126861904D01*
X20617619Y-126909523D01*
X20712857Y-126957142D01*
X20855714Y-126957142D01*
X20950952Y-126909523D01*
X20998571Y-126861904D01*
X21046190Y-126766666D01*
X21046190Y-126385714D01*
X20855714Y-127814285D02*
X21522380Y-127814285D01*
X20474761Y-127576190D02*
X21189047Y-127338095D01*
X21189047Y-127957142D01*
X21522380Y-128385714D02*
X21522380Y-128576190D01*
X21474761Y-128671428D01*
X21427142Y-128719047D01*
X21284285Y-128814285D01*
X21093809Y-128861904D01*
X20712857Y-128861904D01*
X20617619Y-128814285D01*
X20570000Y-128766666D01*
X20522380Y-128671428D01*
X20522380Y-128480952D01*
X20570000Y-128385714D01*
X20617619Y-128338095D01*
X20712857Y-128290476D01*
X20950952Y-128290476D01*
X21046190Y-128338095D01*
X21093809Y-128385714D01*
X21141428Y-128480952D01*
X21141428Y-128671428D01*
X21093809Y-128766666D01*
X21046190Y-128814285D01*
X20950952Y-128861904D01*
G04 #@! TO.C,U12*
X27308095Y-63552380D02*
X27308095Y-64361904D01*
X27260476Y-64457142D01*
X27212857Y-64504761D01*
X27117619Y-64552380D01*
X26927142Y-64552380D01*
X26831904Y-64504761D01*
X26784285Y-64457142D01*
X26736666Y-64361904D01*
X26736666Y-63552380D01*
X25736666Y-64552380D02*
X26308095Y-64552380D01*
X26022380Y-64552380D02*
X26022380Y-63552380D01*
X26117619Y-63695238D01*
X26212857Y-63790476D01*
X26308095Y-63838095D01*
X25355714Y-63647619D02*
X25308095Y-63600000D01*
X25212857Y-63552380D01*
X24974761Y-63552380D01*
X24879523Y-63600000D01*
X24831904Y-63647619D01*
X24784285Y-63742857D01*
X24784285Y-63838095D01*
X24831904Y-63980952D01*
X25403333Y-64552380D01*
X24784285Y-64552380D01*
G04 #@! TO.C,D21*
X27784285Y-139552380D02*
X27784285Y-138552380D01*
X27546190Y-138552380D01*
X27403333Y-138600000D01*
X27308095Y-138695238D01*
X27260476Y-138790476D01*
X27212857Y-138980952D01*
X27212857Y-139123809D01*
X27260476Y-139314285D01*
X27308095Y-139409523D01*
X27403333Y-139504761D01*
X27546190Y-139552380D01*
X27784285Y-139552380D01*
X26831904Y-138647619D02*
X26784285Y-138600000D01*
X26689047Y-138552380D01*
X26450952Y-138552380D01*
X26355714Y-138600000D01*
X26308095Y-138647619D01*
X26260476Y-138742857D01*
X26260476Y-138838095D01*
X26308095Y-138980952D01*
X26879523Y-139552380D01*
X26260476Y-139552380D01*
X25308095Y-139552380D02*
X25879523Y-139552380D01*
X25593809Y-139552380D02*
X25593809Y-138552380D01*
X25689047Y-138695238D01*
X25784285Y-138790476D01*
X25879523Y-138838095D01*
G04 #@! TO.C,U11*
D14*
X25724523Y-125627619D02*
X26752619Y-125627619D01*
X26873571Y-125688095D01*
X26934047Y-125748571D01*
X26994523Y-125869523D01*
X26994523Y-126111428D01*
X26934047Y-126232380D01*
X26873571Y-126292857D01*
X26752619Y-126353333D01*
X25724523Y-126353333D01*
X26994523Y-127623333D02*
X26994523Y-126897619D01*
X26994523Y-127260476D02*
X25724523Y-127260476D01*
X25905952Y-127139523D01*
X26026904Y-127018571D01*
X26087380Y-126897619D01*
X26994523Y-128832857D02*
X26994523Y-128107142D01*
X26994523Y-128470000D02*
X25724523Y-128470000D01*
X25905952Y-128349047D01*
X26026904Y-128228095D01*
X26087380Y-128107142D01*
G04 #@! TO.C,D1*
D13*
X15472380Y-135711904D02*
X14472380Y-135711904D01*
X14472380Y-135950000D01*
X14520000Y-136092857D01*
X14615238Y-136188095D01*
X14710476Y-136235714D01*
X14900952Y-136283333D01*
X15043809Y-136283333D01*
X15234285Y-136235714D01*
X15329523Y-136188095D01*
X15424761Y-136092857D01*
X15472380Y-135950000D01*
X15472380Y-135711904D01*
X15472380Y-137235714D02*
X15472380Y-136664285D01*
X15472380Y-136950000D02*
X14472380Y-136950000D01*
X14615238Y-136854761D01*
X14710476Y-136759523D01*
X14758095Y-136664285D01*
G04 #@! TD*
M02*
